<svg width="60" height="60" viewBox="0 0 60 60" fill="none" xmlns="http://www.w3.org/2000/svg">
<path d="M30 40C35.5228 40 40 35.5228 40 30C40 24.4772 35.5228 20 30 20C24.4772 20 20 24.4772 20 30C20 35.5228 24.4772 40 30 40Z" stroke="#10130E" stroke-width="3" stroke-linecap="round" stroke-linejoin="round"/>
<path d="M40 20.0004V32.5004C40 34.4895 40.7902 36.3972 42.1967 37.8037C43.6032 39.2102 45.5109 40.0004 47.5 40.0004C49.4892 40.0004 51.3968 39.2102 52.8033 37.8037C54.2099 36.3972 55 34.4895 55 32.5004V30.0004C54.9997 24.358 53.0906 18.8816 49.5832 14.4617C46.0758 10.0419 41.1764 6.93846 35.6816 5.65615C30.1868 4.37383 24.4199 4.98801 19.3184 7.39882C14.2169 9.80963 10.081 13.8753 7.58317 18.9347C5.08532 23.9941 4.37244 29.7497 5.56044 35.2657C6.74845 40.7816 9.76746 45.7335 14.1266 49.3161C18.4857 52.8987 23.9286 54.9013 29.5702 54.9983C35.2118 55.0953 40.7203 53.281 45.2 49.8504" stroke="#10130E" stroke-width="3" stroke-linecap="round" stroke-linejoin="round"/>
</svg>
