<svg width="86" height="86" viewBox="0 0 86 86" fill="none" xmlns="http://www.w3.org/2000/svg">
<path d="M39.0424 14.1953H14.1965C12.3138 14.1953 10.5081 14.9432 9.17686 16.2745C7.84557 17.6058 7.09766 19.4114 7.09766 21.2942V70.9861C7.09766 72.8688 7.84557 74.6744 9.17686 76.0057C10.5081 77.337 12.3138 78.0849 14.1965 78.0849H63.8884C65.7711 78.0849 67.5767 77.337 68.908 76.0057C70.2393 74.6744 70.9872 72.8688 70.9872 70.9861V46.1401" stroke="#10130E" stroke-width="6" stroke-linecap="round" stroke-linejoin="round"/>
<path d="M65.6635 8.8733C67.0755 7.46125 68.9906 6.66797 70.9876 6.66797C72.9845 6.66797 74.8997 7.46125 76.3117 8.8733C77.7238 10.2853 78.517 12.2005 78.517 14.1974C78.517 16.1944 77.7238 18.1095 76.3117 19.5216L42.5922 53.2411L28.3945 56.7905L31.944 42.5928L65.6635 8.8733Z" stroke="#10130E" stroke-width="6" stroke-linecap="round" stroke-linejoin="round"/>
</svg>
