<?xml version="1.0" encoding="utf-8"?>
<!-- Generator: Adobe Illustrator 18.1.1, SVG Export Plug-In . SVG Version: 6.00 Build 0)  -->
<svg version="1.1" id="Capa_1" xmlns="http://www.w3.org/2000/svg" xmlns:xlink="http://www.w3.org/1999/xlink" x="0px" y="0px"
	 viewBox="912.2 933.5 360 360" enable-background="new 912.2 933.5 360 360" xml:space="preserve">
<g id="Concpet_icon">
	<path fill="none" stroke="#3B444C" stroke-width="8.4594" stroke-miterlimit="10" d="M1019.7,1127.8c1.3-0.2,2.6-0.3,4-0.3
		c17.4,0.1,31.5,19.2,31.4,42.6s-14.3,42.3-31.7,42.2s-31.5-19.2-31.4-42.6c0-4.6,0.6-9.1,1.6-13.3l0.1-0.5
		c-9.8-6-16.5-19.3-16.4-34.7c0.1-14.7,6.4-27.5,15.5-33.7l0.1-0.3c-2.9-5.1-4.5-11.2-4.4-18.1c0.1-15.4,8.8-28.1,20-29.6"/>
	<path fill="none" stroke="#3B444C" stroke-width="8.4594" stroke-miterlimit="10" d="M1025.5,1212.5c5.1,14.1,15.8,23.8,28.2,23.9
		c17.4,0.1,31.6-18.8,31.7-42.2l0.7-184.5c0.1-16.8-10-30.5-22.5-30.6c-9.1-0.1-16.8,6.5-20.4,16.9h-0.1c-2.1-0.7-4.3-1.1-6.6-1.1
		c-15.6-0.1-28.3,16.8-28.3,37.7c-0.1,20.9,12.5,38,28,38.1c11.9,0.1,22.2-9.8,26.3-23.8"/>
	<path fill="none" stroke="#3B444C" stroke-width="8.4594" stroke-miterlimit="10" d="M1175,1038.9c11.1,1.9,19.6,14.6,19.7,30
		c0,3.1-0.3,6.2-1,9l0.4,0.4c7.3,8.6,12,21.3,12,35.4c0.1,26.2-15.6,47.5-35.1,47.6s-35.3-21-35.4-47.2c0-5.6,0.7-10.9,2-15.9"/>
	<path fill="none" stroke="#3B444C" stroke-width="8.4594" stroke-miterlimit="10" d="M1129.7,1059.3c4.9,6.5,11.5,10.4,18.9,10.4
		c13.6-0.1,24.8-13.8,26.4-31.4c0.1-1.5,0.2-3.1,0.2-4.6c-0.1-19.8-12.1-35.8-26.8-35.7c-2.5,0-4.9,0.6-7.2,1.5l-0.1-0.3
		c-3.1-11.8-11.5-20-21.4-19.9c-12.5,0.1-22.6,13.8-22.5,30.6l-0.7,185.5c0.1,22.9,13.9,41.3,30.9,41.2
		c13.3-0.1,24.6-11.5,28.8-27.4l0.4-0.3c2.3,0.9,4.8,1.3,7.3,1.3c14.8-0.1,26.7-16.2,26.6-36.1c0-6.4-1.3-12.4-3.5-17.6"/>
	<path fill="none" stroke="#3B444C" stroke-width="8.4594" stroke-miterlimit="10" d="M1125.7,1181.8c0.4-16.7,10.3-30.3,22.6-31.3"
		/>
	<path fill="none" stroke="#3B444C" stroke-width="8.4594" stroke-miterlimit="10" d="M1035.6,1070.7c14.5,0.1,26.4,14.9,27.9,33.8"
		/>
</g>
</svg>
