<?xml version="1.0" encoding="utf-8"?>
<!-- Generator: Adobe Illustrator 18.1.1, SVG Export Plug-In . SVG Version: 6.00 Build 0)  -->
<svg version="1.1" id="Capa_1" xmlns="http://www.w3.org/2000/svg" xmlns:xlink="http://www.w3.org/1999/xlink" x="0px" y="0px"
	 viewBox="912.1 653.5 360 360" enable-background="new 912.1 653.5 360 360" xml:space="preserve">
<circle fill="#3B444C" cx="1092.1" cy="833.5" r="180"/>
<g>
	<path id="LinkedIn" fill="#FFFFFF" d="M1200,843.1v77h-44.6v-71.8c0-18.2-6.8-30.2-22.7-30.2c-12.1,0-19.6,8.3-22.7,16.6
		c-1.5,3-1.5,6.8-1.5,10.6v74.8H1064c0,0,0.7-121.6,0-133.7h44.6v18.9c0,0,0,0,0,0.7l0,0v-0.7c6.1-9,16.6-21.9,40.1-21.9
		C1178.1,782.7,1200,801.6,1200,843.1z M1017.1,721.5c-15.1,0-25,9.9-25,23.4c0,12.8,9.9,23.4,25,23.4l0,0c15.8,0,25-10.6,25-23.4
		C1042.1,731.4,1032.9,721.5,1017.1,721.5z M995.2,919.5h44.6V785.8h-44.6V919.5z"/>
</g>
</svg>
