<?xml version="1.0" encoding="utf-8"?>
<!-- Generator: Adobe Illustrator 18.1.1, SVG Export Plug-In . SVG Version: 6.00 Build 0)  -->
<svg version="1.1" id="Capa_1" xmlns="http://www.w3.org/2000/svg" xmlns:xlink="http://www.w3.org/1999/xlink" x="0px" y="0px"
	 viewBox="910.5 933.5 360 360" enable-background="new 910.5 933.5 360 360" xml:space="preserve">
<g id="Design_icon">
	<polygon fill="#3B444C" points="1017.5,1136.5 1132.1,1021.4 1148.7,1031.1 1036.8,1144.3 1017,1144.3 	"/>
	<path fill="#3B444C" d="M1007.8,1175.6l-10.4,42.6l40.3-9.4C1037.7,1208.8,1031.8,1182.5,1007.8,1175.6z"/>
	<g>
		<path fill="#3B444C" d="M1075.9,1174.6l-0.8,28.2l119.2-118.8c0,0-2.8-7.8-10.2-18.7L1075.9,1174.6z"/>
		<path fill="#3B444C" d="M1179.3,1058.9c-5.5-7-12.8-14.8-22.3-22.3l-112.3,111.9v22.6h23.6L1179.3,1058.9z"/>
	</g>
	<path fill="#3B444C" d="M1133.9,1019.6c0,0,45,18.2,62.2,62.6l5.8-4.8c0,0-5.1-40.5-62.2-63.7L1133.9,1019.6z"/>
	<path fill="none" stroke="#3B444C" stroke-width="7.5966" stroke-miterlimit="10" d="M1199,1074.8l21.2-20.3
		c0,0-2.8-38.2-56.9-59.2l-20.9,21.1"/>
</g>
</svg>
