<?xml version="1.0" encoding="utf-8"?>
<!-- Generator: Adobe Illustrator 18.1.1, SVG Export Plug-In . SVG Version: 6.00 Build 0)  -->
<svg version="1.1" id="Capa_1" xmlns="http://www.w3.org/2000/svg" xmlns:xlink="http://www.w3.org/1999/xlink" x="0px" y="0px"
	 viewBox="912.1 513.5 360 360" enable-background="new 912.1 513.5 360 360" xml:space="preserve">
<g>
	<path fill-rule="evenodd" clip-rule="evenodd" fill="#3B444C" d="M1092.1,513.6c-99.4,0-180,80.6-180,180
		c0,79.5,51.6,147,123.1,170.8c9,1.7,12.3-3.9,12.3-8.7c0-4.3-0.2-18.5-0.2-33.5c-50.1,10.9-60.6-21.2-60.6-21.2
		c-8.2-20.8-20-26.3-20-26.3c-16.3-11.2,1.2-10.9,1.2-10.9c18.1,1.3,27.6,18.6,27.6,18.6c16.1,27.5,42.1,19.6,52.4,15
		c1.6-11.6,6.3-19.6,11.4-24.1c-40-4.6-82-20-82-89c0-19.7,7-35.7,18.6-48.3c-1.9-4.5-8-22.8,1.7-47.6c0,0,15.1-4.8,49.5,18.5
		c14.4-4,29.8-6,45.1-6.1c15.3,0.1,30.7,2.1,45.1,6.1c34.4-23.3,49.5-18.5,49.5-18.5c9.8,24.8,3.6,43.1,1.8,47.6
		c11.5,12.6,18.5,28.7,18.5,48.3c0,69.1-42.1,84.4-82.2,88.8c6.5,5.6,12.2,16.5,12.2,33.3c0,24.1-0.2,43.5-0.2,49.4
		c0,4.8,3.2,10.4,12.4,8.6c71.5-23.8,123-91.3,123-170.8C1272.1,594.2,1191.5,513.6,1092.1,513.6z"/>
	<path fill="#3B444C" d="M980.2,772.1c-0.4,0.9-1.8,1.2-3.1,0.6c-1.3-0.6-2-1.8-1.6-2.7c0.4-0.9,1.8-1.2,3.1-0.6
		C980,770,980.7,771.2,980.2,772.1L980.2,772.1z M978,770.4"/>
	<path fill="#3B444C" d="M987.5,780.2c-0.9,0.8-2.5,0.4-3.7-0.8c-1.2-1.3-1.4-2.9-0.5-3.7c0.9-0.8,2.5-0.4,3.7,0.8
		C988.2,777.8,988.4,779.4,987.5,780.2L987.5,780.2z M985.8,778.4"/>
	<path fill="#3B444C" d="M994.6,790.6c-1.1,0.8-2.9,0-4-1.6c-1.1-1.6-1.1-3.5,0-4.3c1.1-0.8,2.9-0.1,4,1.5
		C995.8,787.9,995.8,789.8,994.6,790.6L994.6,790.6z M994.6,790.6"/>
	<path fill="#3B444C" d="M1004.4,800.6c-1,1.1-3.1,0.8-4.6-0.7c-1.6-1.4-2-3.5-1-4.6c1-1.1,3.1-0.8,4.7,0.7
		C1004.9,797.5,1005.4,799.5,1004.4,800.6L1004.4,800.6z M1004.4,800.6"/>
	<path fill="#3B444C" d="M1017.8,806.4c-0.4,1.4-2.5,2-4.5,1.5c-2-0.6-3.4-2.3-3-3.7c0.4-1.4,2.5-2.1,4.5-1.4
		C1016.9,803.4,1018.2,805,1017.8,806.4L1017.8,806.4z M1017.8,806.4"/>
	<path fill="#3B444C" d="M1032.5,807.5c0,1.5-1.7,2.7-3.8,2.7c-2.2,0-3.9-1.2-3.9-2.6c0-1.5,1.7-2.7,3.8-2.8
		C1030.8,804.8,1032.5,806,1032.5,807.5L1032.5,807.5z M1032.5,807.5"/>
	<path fill="#3B444C" d="M1046.2,805.2c0.3,1.4-1.2,2.9-3.4,3.3c-2.1,0.4-4-0.5-4.3-1.9c-0.3-1.5,1.3-3,3.3-3.4
		C1044,802.8,1045.9,803.7,1046.2,805.2L1046.2,805.2z M1046.2,805.2"/>
</g>
</svg>
