<svg width="86" height="86" viewBox="0 0 86 86" fill="none" xmlns="http://www.w3.org/2000/svg">
<path d="M43.1367 6.04883L43.1367 12.4067" stroke="#10130E" stroke-width="6" stroke-linecap="round"/>
<path d="M63.0039 20.0811L67.4996 15.5854" stroke="#10130E" stroke-width="6" stroke-linecap="round"/>
<path d="M22.9961 20.0811L18.5004 15.5854" stroke="#10130E" stroke-width="6" stroke-linecap="round"/>
<mask id="path-4-inside-1_1046_5427" fill="white">
<path fill-rule="evenodd" clip-rule="evenodd" d="M56.6398 57.2921C61.9621 53.3526 65.3856 47.2039 65.3856 40.2952C65.3856 28.4047 55.2449 18.7656 42.7358 18.7656C30.2266 18.7656 20.0859 28.4047 20.0859 40.2952C20.0859 47.2007 23.5062 53.3468 28.8242 57.2865V59.0003C28.8242 64.5232 33.3014 69.0003 38.8242 69.0003H46.6398C52.1626 69.0003 56.6398 64.5232 56.6398 59.0003V57.2921Z"/>
</mask>
<path d="M56.6398 57.2921L53.0702 52.4694L50.6398 54.2683V57.2921H56.6398ZM28.8242 57.2865H34.8242V54.2643L32.3958 52.4653L28.8242 57.2865ZM59.3856 40.2952C59.3856 45.1502 56.9901 49.5679 53.0702 52.4694L60.2094 62.1147C66.9341 57.1372 71.3856 49.2576 71.3856 40.2952H59.3856ZM42.7358 24.7656C52.2216 24.7656 59.3856 32.0016 59.3856 40.2952H71.3856C71.3856 24.8079 58.2682 12.7656 42.7358 12.7656V24.7656ZM26.0859 40.2952C26.0859 32.0016 33.2499 24.7656 42.7358 24.7656V12.7656C27.2033 12.7656 14.0859 24.8079 14.0859 40.2952H26.0859ZM32.3958 52.4653C28.4791 49.5638 26.0859 45.1479 26.0859 40.2952H14.0859C14.0859 49.2534 18.5332 57.1298 25.2526 62.1077L32.3958 52.4653ZM34.8242 59.0003V57.2865H22.8242V59.0003H34.8242ZM38.8242 63.0003C36.6151 63.0003 34.8242 61.2095 34.8242 59.0003H22.8242C22.8242 67.8369 29.9877 75.0003 38.8242 75.0003V63.0003ZM46.6398 63.0003H38.8242V75.0003H46.6398V63.0003ZM50.6398 59.0003C50.6398 61.2095 48.8489 63.0003 46.6398 63.0003V75.0003C55.4763 75.0003 62.6398 67.8369 62.6398 59.0003H50.6398ZM50.6398 57.2921V59.0003H62.6398V57.2921H50.6398Z" fill="#10130E" mask="url(#path-4-inside-1_1046_5427)"/>
<mask id="path-6-inside-2_1046_5427" fill="white">
<path fill-rule="evenodd" clip-rule="evenodd" d="M32.6511 62.7148C32.5518 63.295 32.5 63.8915 32.5 64.5V70.5C32.5 76.299 37.201 81 43 81C48.799 81 53.5 76.299 53.5 70.5V64.5C53.5 63.8915 53.4482 63.295 53.3489 62.7148H32.6511Z"/>
</mask>
<path d="M32.6511 62.7148V56.7148H27.5914L26.7373 61.702L32.6511 62.7148ZM53.3489 62.7148L59.2627 61.7019L58.4086 56.7148H53.3489V62.7148ZM38.5 64.5C38.5 64.2324 38.5227 63.9747 38.565 63.7277L26.7373 61.702C26.5808 62.6153 26.5 63.5506 26.5 64.5H38.5ZM38.5 70.5V64.5H26.5V70.5H38.5ZM43 75C40.5147 75 38.5 72.9853 38.5 70.5H26.5C26.5 79.6127 33.8873 87 43 87V75ZM47.5 70.5C47.5 72.9853 45.4853 75 43 75V87C52.1127 87 59.5 79.6127 59.5 70.5H47.5ZM47.5 64.5V70.5H59.5V64.5H47.5ZM47.435 63.7277C47.4773 63.9747 47.5 64.2323 47.5 64.5H59.5C59.5 63.5506 59.4192 62.6153 59.2627 61.7019L47.435 63.7277ZM53.3489 56.7148H32.6511V68.7148H53.3489V56.7148Z" fill="#10130E" mask="url(#path-6-inside-2_1046_5427)"/>
</svg>
