<svg width="86" height="86" viewBox="0 0 86 86" fill="none" xmlns="http://www.w3.org/2000/svg">
<path d="M74.5341 40.8186C74.5463 45.5034 73.4518 50.1248 71.3396 54.3064C68.8353 59.3173 64.9853 63.532 60.2209 66.4784C55.4565 69.4248 49.9659 70.9865 44.364 70.9887C39.6793 71.0009 35.0579 69.9064 30.8762 67.7942L10.6445 74.5381L17.3884 54.3064C15.2763 50.1248 14.1817 45.5034 14.194 40.8186C14.1961 35.2168 15.7579 29.7261 18.7043 24.9618C21.6507 20.1974 25.8654 16.3474 30.8762 13.843C35.0579 11.7309 39.6793 10.6363 44.364 10.6485H46.1387C53.537 11.0567 60.5247 14.1794 65.764 19.4187C71.0033 24.6579 74.126 31.6457 74.5341 39.0439V40.8186Z" stroke="#10130E" stroke-width="6" stroke-linecap="round" stroke-linejoin="round"/>
</svg>
