<svg width="86" height="86" viewBox="0 0 86 86" fill="none" xmlns="http://www.w3.org/2000/svg">
<path d="M21.7969 31.9467V7.09961H64.3919V31.9467" stroke="black" stroke-width="6" stroke-linecap="round" stroke-linejoin="round"/>
<path d="M21.796 63.8925H14.6968C12.814 63.8925 11.0083 63.1446 9.67695 61.8132C8.3456 60.4819 7.59766 58.6762 7.59766 56.7934V39.0455C7.59766 37.1626 8.3456 35.3569 9.67695 34.0256C11.0083 32.6942 12.814 31.9463 14.6968 31.9463H71.4902C73.373 31.9463 75.1787 32.6942 76.51 34.0256C77.8414 35.3569 78.5893 37.1626 78.5893 39.0455V56.7934C78.5893 58.6762 77.8414 60.4819 76.51 61.8132C75.1787 63.1446 73.373 63.8925 71.4902 63.8925H64.391" stroke="black" stroke-width="6" stroke-linecap="round" stroke-linejoin="round"/>
<path d="M64.3919 49.6943H21.7969V78.091H64.3919V49.6943Z" stroke="black" stroke-width="6" stroke-linecap="round" stroke-linejoin="round"/>
</svg>
