<svg width="75" height="68" viewBox="0 0 75 68" fill="none" xmlns="http://www.w3.org/2000/svg">
<path fill-rule="evenodd" clip-rule="evenodd" d="M20.112 38.712C22.9227 39.5387 25.072 41.1093 26.56 43.424C28.2133 45.5733 29.04 48.2187 29.04 51.36C29.04 55.328 27.8 58.552 25.32 61.032C22.84 63.512 19.7813 64.752 16.144 64.752C12.176 64.752 8.952 63.512 6.472 61.032C4.15733 58.3867 3 55.1627 3 51.36C3 49.376 3.16533 47.4747 3.496 45.656C3.992 43.672 4.90133 40.8613 6.224 37.224L16.64 3H28.544L20.112 38.712ZM3.3772 36.2742C2.05873 39.9042 1.11625 42.8057 0.585573 44.9284L0.561872 45.0232L0.54439 45.1193C0.179278 47.1275 0 49.2091 0 51.36C0 55.825 1.38035 59.7687 4.21427 63.0075L4.28005 63.0827L4.35068 63.1533C7.46902 66.2717 11.4943 67.752 16.144 67.752C20.544 67.752 24.3758 66.2188 27.4413 63.1533C30.5597 60.035 32.04 56.0097 32.04 51.36C32.04 47.7113 31.0803 44.43 29.0147 41.6957C27.6375 39.593 25.8201 37.9883 23.6266 36.8818L32.3348 0H14.4172L3.3772 36.2742ZM62.272 38.712C65.0827 39.5387 67.232 41.1093 68.72 43.424C70.3733 45.5733 71.2 48.2187 71.2 51.36C71.2 55.328 69.96 58.552 67.48 61.032C65 63.512 61.9413 64.752 58.304 64.752C54.336 64.752 51.112 63.512 48.632 61.032C46.3173 58.3867 45.16 55.1627 45.16 51.36C45.16 49.376 45.3253 47.4747 45.656 45.656C46.152 43.672 47.0613 40.8613 48.384 37.224L58.8 3H70.704L62.272 38.712ZM45.5372 36.2742C44.2187 39.9042 43.2763 42.8057 42.7456 44.9284L42.7219 45.0232L42.7044 45.1193C42.3393 47.1275 42.16 49.2091 42.16 51.36C42.16 55.825 43.5404 59.7687 46.3743 63.0075L46.4401 63.0827L46.5107 63.1533C49.629 66.2717 53.6543 67.752 58.304 67.752C62.704 67.752 66.5358 66.2188 69.6013 63.1533C72.7197 60.035 74.2 56.0097 74.2 51.36C74.2 47.7113 73.2403 44.43 71.1748 41.6957C69.7976 39.5931 67.9802 37.9883 65.7866 36.8818L74.4948 0H56.5772L45.5372 36.2742Z" fill="#9AA095"/>
</svg>
