<svg width="86" height="86" viewBox="0 0 86 86" fill="none" xmlns="http://www.w3.org/2000/svg">
<path d="M64.3909 28.3971C70.2721 28.3971 75.0397 23.6295 75.0397 17.7484C75.0397 11.8672 70.2721 7.09961 64.3909 7.09961C58.5098 7.09961 53.7422 11.8672 53.7422 17.7484C53.7422 23.6295 58.5098 28.3971 64.3909 28.3971Z" stroke="black" stroke-width="6" stroke-linecap="round" stroke-linejoin="round"/>
<path d="M21.7972 53.2438C27.6783 53.2438 32.4459 48.4762 32.4459 42.595C32.4459 36.7139 27.6783 31.9463 21.7972 31.9463C15.916 31.9463 11.1484 36.7139 11.1484 42.595C11.1484 48.4762 15.916 53.2438 21.7972 53.2438Z" stroke="black" stroke-width="6" stroke-linecap="round" stroke-linejoin="round"/>
<path d="M64.3909 78.0905C70.2721 78.0905 75.0397 73.3229 75.0397 67.4417C75.0397 61.5606 70.2721 56.793 64.3909 56.793C58.5098 56.793 53.7422 61.5606 53.7422 67.4417C53.7422 73.3229 58.5098 78.0905 64.3909 78.0905Z" stroke="black" stroke-width="6" stroke-linecap="round" stroke-linejoin="round"/>
<path d="M30.9922 47.9551L55.2358 62.0824" stroke="black" stroke-width="6" stroke-linecap="round" stroke-linejoin="round"/>
<path d="M55.2003 23.1074L30.9922 37.2348" stroke="black" stroke-width="6" stroke-linecap="round" stroke-linejoin="round"/>
</svg>
