<svg width="52" height="50" viewBox="0 0 52 50" fill="none" xmlns="http://www.w3.org/2000/svg">
<g clip-path="url(#clip0_1007_24287)">
<path d="M9.44057 0H42.5602C47.5816 0 51.6414 4.05983 51.6414 9.0812V40.9188C51.6414 45.9402 47.5816 50 42.5602 50H9.44057C4.4192 50 0.359375 45.9402 0.359375 40.9188V9.0812C0.359375 4.05983 4.4192 0 9.44057 0Z" fill="#470137"/>
<path d="M27.3237 13.1408L20.9134 23.7177L27.751 34.9357C27.7938 35.0212 27.8151 35.1066 27.7938 35.1921C27.7724 35.2776 27.6869 35.2135 27.5587 35.2348H22.6656C22.3237 35.2348 22.0886 35.2135 21.9391 34.9998C21.4904 34.1024 21.0203 33.2263 20.5716 32.3289C20.1228 31.4528 19.6314 30.5554 19.1186 29.6366C18.6057 28.7177 18.0929 27.7989 17.5801 26.8588H17.5374C17.0886 27.7776 16.5972 28.6964 16.1057 29.6152C15.6143 30.534 15.1228 31.4528 14.6527 32.3502C14.1613 33.2477 13.6698 34.1665 13.1784 35.0425C13.0929 35.2562 12.922 35.2776 12.6869 35.2776H7.98608C7.90061 35.2776 7.83651 35.3203 7.83651 35.2135C7.81514 35.128 7.83651 35.0425 7.87924 34.9784L14.5245 24.081L8.05018 13.1195C7.98608 13.034 7.96471 12.9485 8.00745 12.9058C8.05018 12.8417 8.13565 12.8203 8.22112 12.8203H13.0716C13.1784 12.8203 13.2852 12.8417 13.3707 12.863C13.4562 12.9058 13.5203 12.9699 13.5844 13.0554C13.9904 13.9742 14.4604 14.893 14.9519 15.8118C15.4647 16.7306 15.9562 17.628 16.4904 18.5254C17.0032 19.4229 17.4733 20.3203 17.922 21.2391H17.9647C18.4134 20.2989 18.8835 19.3801 19.3536 18.4827C19.8237 17.5853 20.3151 16.6878 20.8066 15.7904C21.298 14.893 21.7681 13.9742 22.2382 13.0981C22.2596 13.0126 22.3023 12.9271 22.3664 12.8844C22.4519 12.8417 22.5374 12.8203 22.6442 12.8417H27.1527C27.2596 12.8203 27.3664 12.8844 27.3878 12.9913C27.4092 13.0126 27.3664 13.0981 27.3237 13.1408Z" fill="#FF61F6"/>
<path d="M37.1957 35.6836C35.6145 35.7049 34.0334 35.3844 32.6017 34.722C31.2556 34.1024 30.1445 33.0767 29.3752 31.816C28.5846 30.5126 28.2 28.8887 28.2 26.9442C28.1787 25.363 28.5846 23.8032 29.3752 22.4357C30.1872 21.0468 31.3624 19.893 32.7727 19.1237C34.2684 18.2904 36.0633 17.8844 38.1787 17.8844C38.2855 17.8844 38.4351 17.8844 38.6274 17.9058C38.8197 17.9271 39.0334 17.9271 39.2898 17.9485V11.1964C39.2898 11.0468 39.3539 10.9613 39.5034 10.9613H43.841C43.9479 10.94 44.0334 11.0254 44.0547 11.1109C44.0547 11.1323 44.0547 11.1536 44.0547 11.1536V31.4955C44.0547 31.8801 44.0761 32.3075 44.0975 32.7776C44.1402 33.2263 44.1616 33.6536 44.1829 34.0169C44.1829 34.1665 44.1188 34.2947 43.9693 34.3588C42.8581 34.8289 41.6829 35.1707 40.4863 35.3844C39.3966 35.5767 38.3069 35.6836 37.1957 35.6836ZM39.2898 31.41V22.0083C39.0975 21.9656 38.9051 21.9229 38.7128 21.9015C38.4778 21.8801 38.2428 21.8588 38.0077 21.8588C37.1744 21.8588 36.341 22.0297 35.5932 22.4143C34.8667 22.7776 34.247 23.3118 33.7769 23.9955C33.3069 24.6793 33.0718 25.5981 33.0718 26.7092C33.0504 27.4571 33.1787 28.2049 33.4351 28.91C33.6487 29.487 33.9693 29.9998 34.3966 30.4271C34.8026 30.8118 35.294 31.1109 35.8496 31.2818C36.4265 31.4741 37.0248 31.5596 37.6231 31.5596C37.9436 31.5596 38.2428 31.5383 38.5205 31.5169C38.7983 31.5383 39.0334 31.4955 39.2898 31.41Z" fill="#FF61F6"/>
</g>
<defs>
<clipPath id="clip0_1007_24287">
<rect width="51.2821" height="50" fill="white" transform="translate(0.359375)"/>
</clipPath>
</defs>
</svg>
