<svg width="52" height="50" viewBox="0 0 52 50" fill="none" xmlns="http://www.w3.org/2000/svg">
<g clip-path="url(#clip0_1007_24297)">
<path d="M9.44057 0H42.5602C47.5816 0 51.6414 4.05983 51.6414 9.0812V40.9188C51.6414 45.9402 47.5816 50 42.5602 50H9.44057C4.4192 50 0.359375 45.9402 0.359375 40.9188V9.0812C0.359375 4.05983 4.4192 0 9.44057 0Z" fill="#001E36"/>
<path d="M11.8984 35.0643V13.0771C11.8984 12.9275 11.9625 12.8421 12.1121 12.8421C12.4754 12.8421 12.8172 12.8421 13.3087 12.8207C13.8215 12.7993 14.3557 12.7993 14.9326 12.778C15.5095 12.7566 16.1292 12.7566 16.7916 12.7352C17.454 12.7139 18.095 12.7139 18.736 12.7139C20.4882 12.7139 21.9412 12.9275 23.1378 13.3763C24.2061 13.7395 25.189 14.3378 26.001 15.1284C26.6848 15.8122 27.219 16.6455 27.5608 17.5643C27.8813 18.4617 28.0523 19.3805 28.0523 20.3421C28.0523 22.1797 27.6249 23.6968 26.7702 24.8934C25.9155 26.0899 24.7189 26.9874 23.3301 27.5002C21.8771 28.0344 20.2745 28.2267 18.5224 28.2267C18.0095 28.2267 17.6677 28.2267 17.454 28.2053C17.2403 28.184 16.9412 28.184 16.5352 28.184V35.0429C16.5566 35.1925 16.4497 35.3207 16.3001 35.3421C16.2788 35.3421 16.2574 35.3421 16.2147 35.3421H12.1548C11.9839 35.3421 11.8984 35.2566 11.8984 35.0643ZM16.5566 16.966V24.1455C16.8557 24.1669 17.1335 24.1882 17.3899 24.1882H18.5224C19.3557 24.1882 20.189 24.06 20.9796 23.8036C21.6634 23.6113 22.2617 23.2053 22.7318 22.6711C23.1805 22.1369 23.3942 21.4104 23.3942 20.4703C23.4155 19.8079 23.2446 19.1455 22.9027 18.5686C22.5395 18.013 22.0266 17.5857 21.407 17.3506C20.6164 17.0301 19.7617 16.9019 18.8856 16.9233C18.3301 16.9233 17.8386 16.9233 17.4326 16.9446C17.0053 16.9233 16.7061 16.9446 16.5566 16.966Z" fill="#31A8FF"/>
<path d="M41.3857 22.8418C40.7446 22.4999 40.0609 22.2648 39.3344 22.1153C38.5438 21.9443 37.7532 21.8375 36.9412 21.8375C36.5139 21.8161 36.0652 21.8802 35.6592 21.9871C35.3814 22.0512 35.1464 22.2007 34.9968 22.4144C34.8899 22.5853 34.8258 22.799 34.8258 22.9913C34.8258 23.1836 34.9113 23.3759 35.0395 23.5469C35.2318 23.7819 35.4882 23.9742 35.766 24.1238C36.2575 24.3802 36.7703 24.6153 37.2831 24.8289C38.437 25.2135 39.5481 25.7477 40.5737 26.3888C41.2788 26.8375 41.8558 27.4358 42.2617 28.1623C42.6036 28.846 42.7746 29.5939 42.7532 30.3631C42.7746 31.3674 42.4754 32.3717 41.9199 33.205C41.3216 34.0597 40.4882 34.7221 39.5267 35.1067C38.4797 35.5554 37.1976 35.7905 35.6592 35.7905C34.6763 35.7905 33.7147 35.705 32.7532 35.5127C32.0053 35.3845 31.2575 35.1494 30.5737 34.8289C30.4241 34.7435 30.3173 34.5939 30.3387 34.423V30.705C30.3387 30.6409 30.36 30.5554 30.4241 30.5127C30.4882 30.47 30.5523 30.4913 30.6164 30.5341C31.4498 31.0255 32.3258 31.3674 33.266 31.5811C34.078 31.7947 34.9327 31.9016 35.7874 31.9016C36.5993 31.9016 37.1763 31.7947 37.5609 31.6024C37.9028 31.4529 38.1378 31.0896 38.1378 30.705C38.1378 30.4059 37.9669 30.1281 37.625 29.8503C37.2831 29.5725 36.578 29.252 35.531 28.846C34.4412 28.4614 33.4369 27.9486 32.4968 27.3076C31.8344 26.8375 31.2788 26.2178 30.8728 25.4913C30.531 24.8076 30.36 24.0597 30.3814 23.3118C30.3814 22.393 30.6378 21.517 31.1079 20.7264C31.6421 19.8717 32.4327 19.1879 33.3515 18.7606C34.3558 18.2477 35.6164 18.0127 37.1335 18.0127C38.0096 18.0127 38.907 18.0768 39.7831 18.205C40.4241 18.2905 41.0438 18.4614 41.6207 18.6965C41.7062 18.7178 41.7917 18.8033 41.8344 18.8888C41.8558 18.9742 41.8771 19.0597 41.8771 19.1452V22.6281C41.8771 22.7135 41.8344 22.799 41.7703 22.8418C41.578 22.8845 41.4711 22.8845 41.3857 22.8418Z" fill="#31A8FF"/>
</g>
<defs>
<clipPath id="clip0_1007_24297">
<rect width="51.2821" height="50" fill="white" transform="translate(0.359375)"/>
</clipPath>
</defs>
</svg>
