<svg width="233" height="60" viewBox="0 0 233 60" fill="none" xmlns="http://www.w3.org/2000/svg" preserveAspectRatio="xMinYMid meet">
<path d="M54.0598 5L5.36478 5C2.6953 5 0.578125 7.41755 0.578125 10.4658L0.578125 48.9364C0.578125 51.9846 2.6953 54.4021 5.36478 54.4021H54.0598C56.7292 54.4021 58.8464 51.9846 58.8464 48.9364V10.4658C58.9385 7.41755 56.7292 5 54.0598 5ZM45.8672 26.8631C45.8672 30.0164 43.658 32.6442 40.9885 32.6442H32.1516V49.2517H26.8127L26.8127 23.92L32.1516 23.92V26.5477H38.5031C39.6077 26.5477 40.5283 25.4966 40.5283 24.1302V18.8746C40.5283 17.5082 39.6077 16.4571 38.5031 16.4571H13.4653C12.3607 16.4571 11.4401 17.5082 11.4401 18.8746L11.4401 40.7377C11.4401 42.1041 12.3607 43.1553 13.4653 43.1553H22.7624V49.2517H10.7958C8.12631 49.2517 5.91708 46.729 5.91708 43.4706L5.91708 15.7213C5.91708 12.568 8.12631 9.94021 10.7958 9.94021L41.0806 9.94021C43.75 9.94021 45.9593 12.568 45.9593 15.7213V26.8631H45.8672ZM53.7836 49.2517H48.997V9.94021H53.7836V49.2517Z" fill="white"/>
<path d="M66.3945 26.9678C66.3945 25.0758 66.9468 23.2889 69.2481 23.2889C70.905 23.2889 71.6414 24.2349 71.6414 25.8116V27.178H70.0766V26.232C70.0766 25.3912 69.8004 24.7605 69.064 24.7605C68.2356 24.7605 68.0514 25.4963 68.0514 27.178V33.9051C68.0514 35.4818 68.5117 35.7971 69.064 35.7971C69.7084 35.7971 70.0766 35.2716 70.0766 34.1154V33.1694H71.6414V34.746C71.6414 36.2176 71.0891 37.2687 69.1561 37.2687C67.0389 37.2687 66.3945 36.0074 66.3945 33.8V26.9678V26.9678Z" fill="white"/>
<path d="M74.957 23.3944H76.614V29.2806H78.8232V23.3944H80.4801V37.1639H78.8232V30.8573H76.614V37.1639H74.957V23.3944Z" fill="white"/>
<path d="M86.4602 23.3944H88.3933L90.8787 37.1639H89.2218L88.6695 33.6953H86.092L85.5397 37.1639H83.8828L86.4602 23.3944ZM86.2761 32.1186H88.3933L87.3807 25.4966L86.2761 32.1186Z" fill="white"/>
<path d="M92.3516 23.3944H98.0587V24.9711H96.0336V37.1639H94.3767V25.0762H92.3516V23.3944Z" fill="white"/>
<path d="M101.004 33.1694H102.661V34.3256C102.661 35.2716 102.937 35.7971 103.673 35.7971C104.594 35.7971 104.778 35.0614 104.778 34.2205C104.778 33.0643 104.686 32.6438 103.029 30.7518C101.924 29.4905 101.096 28.4394 101.096 26.5474C101.096 24.3401 102.016 23.2889 103.857 23.2889C104.778 23.2889 105.422 23.6043 105.791 24.0247C106.067 24.3401 106.251 24.7605 106.251 25.8116V27.0729H104.686V26.0218C104.686 25.286 104.41 24.7605 103.765 24.7605C103.121 24.7605 102.753 25.1809 102.753 26.232C102.753 27.178 102.937 27.7036 104.502 29.5956C106.159 31.5927 106.435 32.2234 106.435 33.9051C106.435 36.1125 105.699 37.2687 103.673 37.2687C102.109 37.2687 101.096 36.5329 101.096 34.8511V33.1694H101.004Z" fill="white"/>
<path d="M109.477 23.3944H111.226L112.422 34.7464L113.803 23.3944H116.104L117.209 34.7464L118.682 23.3944H120.247L118.037 37.1639H116.012L114.908 25.6017L113.527 37.1639H111.502L109.477 23.3944Z" fill="white"/>
<path d="M123.188 26.9678C123.188 25.0758 123.74 23.2889 126.041 23.2889C128.158 23.2889 128.895 24.5503 128.895 26.7576V33.6949C128.895 35.5869 128.342 37.3738 126.041 37.3738C123.924 37.3738 123.188 36.1125 123.188 33.9051V26.9678ZM124.936 34.0103C124.936 35.1665 125.397 35.7971 126.133 35.7971C126.87 35.7971 127.33 35.1665 127.33 34.0103V26.7576C127.33 25.3912 126.962 24.7605 126.133 24.7605C125.397 24.7605 124.936 25.3912 124.936 26.7576V34.0103Z" fill="white"/>
<path d="M132.578 23.3944H135.156C137.641 23.3944 137.825 24.1302 137.825 27.1784C137.825 29.0704 137.641 29.8062 136.26 30.3317C137.365 30.4368 137.825 31.1726 137.825 32.4339V35.4822C137.825 36.0077 137.825 36.6384 137.917 37.2691H136.352C136.168 36.9537 136.168 36.5333 136.168 36.0077V32.8544C136.168 31.5931 135.984 31.1726 134.879 31.1726H134.327V37.1639H132.67V23.3944H132.578ZM134.235 29.596H134.695C135.984 29.596 136.168 29.2806 136.168 27.2835C136.168 25.2864 136.076 25.0762 135.063 25.0762H134.235V29.596Z" fill="white"/>
<path d="M140.498 23.3944H146.205V24.9711H144.18V37.1639H142.431V25.0762H140.406V23.3944H140.498Z" fill="white"/>
<path d="M149.332 23.3944H150.989V29.2806H153.198V23.3944H154.855V37.1639H153.198V30.8573H150.989V37.1639H149.332V23.3944Z" fill="white"/>
<path d="M166.547 23.3944H169.308C171.61 23.3944 171.978 24.1302 171.978 27.2835C171.978 30.4368 171.518 31.1726 169.308 31.1726H168.204V37.1639H166.547V23.3944ZM168.204 29.596H169.032C170.137 29.596 170.321 29.3857 170.321 27.2835C170.321 25.1813 170.229 24.9711 169.032 24.9711H168.204V29.596Z" fill="white"/>
<path d="M175.199 23.3944H177.777C180.262 23.3944 180.446 24.1302 180.446 27.1784C180.446 29.0704 180.262 29.8062 178.881 30.3317C179.986 30.4368 180.446 31.1726 180.446 32.4339V35.4822C180.446 36.0077 180.446 36.6384 180.538 37.2691H178.973C178.789 36.9537 178.789 36.5333 178.789 36.0077V32.8544C178.789 31.5931 178.605 31.1726 177.5 31.1726H176.948V37.1639H175.291V23.3944H175.199ZM176.948 29.596H177.408C178.697 29.596 178.881 29.2806 178.881 27.2835C178.881 25.2864 178.789 25.0762 177.777 25.0762H176.948V29.596Z" fill="white"/>
<path d="M183.852 26.9678C183.852 25.0758 184.404 23.2889 186.705 23.2889C188.822 23.2889 189.559 24.5503 189.559 26.7576V33.6949C189.559 35.5869 189.006 37.3738 186.705 37.3738C184.588 37.3738 183.852 36.1125 183.852 33.9051V26.9678ZM185.508 34.0103C185.508 35.1665 185.969 35.7971 186.705 35.7971C187.442 35.7971 187.902 35.1665 187.902 34.0103V26.7576C187.902 25.3912 187.534 24.7605 186.705 24.7605C185.969 24.7605 185.508 25.3912 185.508 26.7576V34.0103Z" fill="white"/>
<path d="M192.875 23.3944H195.544C198.214 23.3944 198.49 24.4455 198.49 28.4397V32.5391C198.49 36.1128 197.938 37.1639 195.268 37.1639H192.875V23.3944ZM194.532 35.5873H195.36C196.557 35.5873 196.833 34.8515 196.833 32.4339V27.704C196.833 25.7068 196.649 24.9711 195.268 24.9711H194.624V35.5873H194.532Z" fill="white"/>
<path d="M207.508 34.1157C207.508 35.6924 206.956 37.3742 204.654 37.3742C202.353 37.3742 201.801 35.7975 201.801 34.1157V23.3944H203.458V34.4311C203.458 35.3771 203.734 35.7975 204.654 35.7975C205.483 35.7975 205.851 35.2719 205.851 34.4311V23.3944H207.508V34.1157V34.1157Z" fill="white"/>
<path d="M210.637 26.9678C210.637 25.0758 211.189 23.2889 213.49 23.2889C215.147 23.2889 215.884 24.2349 215.884 25.8116V27.178H214.319V26.232C214.319 25.3912 214.043 24.7605 213.306 24.7605C212.478 24.7605 212.294 25.4963 212.294 27.178V33.9051C212.294 35.4818 212.754 35.7971 213.306 35.7971C213.951 35.7971 214.319 35.2716 214.319 34.1154V33.1694H215.884V34.746C215.884 36.2176 215.331 37.2687 213.398 37.2687C211.281 37.2687 210.637 36.0074 210.637 33.8V26.9678Z" fill="white"/>
<path d="M218.371 23.3944H224.078V24.9711H222.053V37.1639H220.396V25.0762H218.371V23.3944Z" fill="white"/>
<path d="M226.746 33.1694H228.403V34.3256C228.403 35.2716 228.679 35.7971 229.416 35.7971C230.336 35.7971 230.52 35.0614 230.52 34.2205C230.52 33.0643 230.428 32.6438 228.771 30.7518C227.667 29.4905 226.838 28.4394 226.838 26.5474C226.838 24.3401 227.759 23.2889 229.6 23.2889C230.52 23.2889 231.165 23.6043 231.533 24.0247C231.809 24.3401 231.993 24.7605 231.993 25.8116V27.0729H230.428V26.0218C230.428 25.286 230.152 24.7605 229.508 24.7605C228.863 24.7605 228.495 25.1809 228.495 26.232C228.495 27.178 228.679 27.7036 230.244 29.5956C231.901 31.5927 232.177 32.2234 232.177 33.9051C232.177 36.1125 231.441 37.2687 229.416 37.2687C227.851 37.2687 226.838 36.5329 226.838 34.8511V33.1694H226.746Z" fill="white"/>
</svg>
