<svg width="60" height="50" viewBox="0 0 60 50" fill="none" xmlns="http://www.w3.org/2000/svg">
<g clip-path="url(#clip0_1038_32709)">
<path d="M56.5463 0H3.45507C1.57438 0 0.0273438 1.54703 0.0273438 3.42773V46.5723C0.0273438 48.453 1.57438 50 3.45507 50H56.5463C58.427 50 59.9741 48.453 59.9741 46.5723V3.42773C59.9741 1.54703 58.427 0 56.5463 0ZM53.3009 3.29455C54.5009 3.29455 55.4879 4.28151 55.4879 5.48156C55.4879 6.68162 54.5009 7.66858 53.3009 7.66858C52.1008 7.66858 51.1138 6.68162 51.1138 5.48156C51.1138 4.28151 52.1008 3.29455 53.3009 3.29455ZM45.4991 3.29455C46.6992 3.29455 47.6861 4.28151 47.6861 5.48156C47.6861 6.68162 46.6992 7.66858 45.4991 7.66858C44.299 7.66858 43.3121 6.68162 43.3121 5.48156C43.3121 4.28151 44.299 3.29455 45.4991 3.29455ZM37.6973 3.29455C38.8974 3.29455 39.8843 4.28151 39.8843 5.48156C39.8843 6.68162 38.8974 7.66858 37.6973 7.66858C36.4973 7.66858 35.5103 6.68162 35.5103 5.48156C35.5103 4.28151 36.4973 3.29455 37.6973 3.29455ZM55.572 45.5629H4.40138V10.6197H55.572V45.5629Z" fill="#394C60"/>
<path d="M20.3536 41.8474C20.7052 41.2637 21.2379 40.8108 21.8705 40.5578C22.5032 40.3047 23.2013 40.2653 23.8584 40.4455C24.1596 40.55 24.4788 40.5929 24.7969 40.5715C25.115 40.5502 25.4256 40.465 25.7101 40.3211C25.9946 40.1772 26.2473 39.9775 26.453 39.734C26.6587 39.4904 26.8133 39.2079 26.9076 38.9033C27.1363 38.2889 27.1181 37.6098 26.8567 37.0085C26.5952 36.4073 26.111 35.9307 25.5057 35.6789C24.9108 35.4077 24.4229 34.9467 24.1184 34.3681C23.8139 33.7896 23.7101 33.1264 23.8234 32.4825C23.9286 31.8108 24.2661 31.1973 24.7772 30.749C25.2883 30.3006 25.9406 30.0459 26.6202 30.0291C27.2868 30.015 27.9215 29.7411 28.389 29.2658C28.8564 28.7904 29.1197 28.1513 29.1227 27.4846C29.1196 26.8107 28.8505 26.1653 28.374 25.6888C27.8975 25.2123 27.2521 24.9432 26.5782 24.9401H26.5361C25.8535 24.9199 25.1979 24.6692 24.676 24.2288C24.1542 23.7884 23.7968 23.1842 23.6622 22.5147C23.5858 22.1094 23.5858 21.6934 23.6622 21.288C23.7337 20.8402 23.9109 20.4159 24.179 20.0502C24.4472 19.6845 24.7987 19.3879 25.2043 19.1851C25.7822 18.8724 26.2175 18.3491 26.4198 17.7239C26.6222 17.0987 26.5759 16.4195 26.2908 15.8275C26.0747 15.2013 25.6189 14.6865 25.0236 14.3961C24.4282 14.1056 23.7419 14.0633 23.1154 14.2784C22.4818 14.532 21.7786 14.5519 21.1317 14.3344C20.5756 14.0842 20.0929 13.6957 19.7297 13.2059C19.4548 12.8393 19.2602 12.4188 19.1588 11.9719C19.0573 11.525 19.0512 11.0617 19.1409 10.6123H7.46281C12.8813 13.5213 18.0404 19.3674 18.1666 27.1271C18.3068 35.5387 13.8556 42.3311 7.30859 45.5555H20.5008C20.0618 45.0446 19.8083 44.4002 19.7816 43.7271C19.7549 43.054 19.9565 42.3916 20.3536 41.8474Z" fill="#3C9BD6"/>
<path d="M36.8489 13.984C37.3759 14.4192 37.7374 15.0223 37.8727 15.6923C38.0079 16.3623 37.9088 17.0584 37.5919 17.664C37.332 18.2951 36.8726 18.8237 36.2841 19.1692C35.6956 19.5147 35.0101 19.6582 34.3324 19.5777C34.0169 19.5175 33.6925 19.5217 33.3787 19.5901C33.0649 19.6585 32.7681 19.7895 32.5062 19.9755C32.2443 20.1614 32.0227 20.3984 31.8547 20.6721C31.6867 20.9459 31.5758 21.2507 31.5285 21.5684C31.3932 22.2068 31.5094 22.8728 31.8528 23.4277C32.1962 23.9827 32.7404 24.3838 33.3721 24.5475C34.0022 24.7235 34.5557 25.1043 34.9454 25.6297C35.3351 26.1552 35.5387 26.7955 35.5241 27.4495C35.5146 28.1124 35.2786 28.752 34.8552 29.2621C34.4318 29.7722 33.8466 30.122 33.1968 30.2534C32.6057 30.3565 32.0697 30.6646 31.683 31.1234C31.2962 31.5823 31.0835 32.1628 31.082 32.7629C31.0852 33.4371 31.3544 34.0829 31.8312 34.5596C32.3079 35.0364 32.9537 35.3057 33.6279 35.3088C33.7723 35.3088 33.9167 35.2969 34.059 35.2723C34.7364 35.1878 35.4224 35.3351 36.0054 35.6902C36.5883 36.0453 37.0339 36.5874 37.2695 37.228C37.4048 37.6178 37.4664 38.0285 37.4517 38.4407C37.4525 38.8972 37.3442 39.3472 37.1357 39.7533C36.9271 40.1593 36.6245 40.5096 36.2531 40.7749C35.7238 41.1727 35.3696 41.7604 35.265 42.4141C35.1604 43.0679 35.3136 43.7367 35.6923 44.2798C36.0381 44.8183 36.5223 45.2541 37.0942 45.5415H52.6978C47.7349 43.0811 43.1225 38.4547 41.994 31.8726C40.3958 22.5428 44.7979 14.4115 52.1931 10.6123H36.2881C35.9342 11.1399 35.7951 11.7827 35.8993 12.4094C36.0036 13.0361 36.3432 13.5993 36.8489 13.984Z" fill="#E74F38"/>
<path d="M41.3423 46.0537H40.8867C41.0353 46.0972 41.1937 46.0972 41.3423 46.0537Z" fill="#3C9BD6"/>
</g>
<defs>
<clipPath id="clip0_1038_32709">
<rect width="59.952" height="50" fill="white" transform="translate(0.0234375)"/>
</clipPath>
</defs>
</svg>
