<svg width="241" height="60" viewBox="0 0 241 60" fill="none" xmlns="http://www.w3.org/2000/svg" preserveAspectRatio="xMinYMid meet">
<path d="M28.6362 36.7021C27.5927 40.1256 26.0497 44.6504 18.238 44.6504C10.8395 44.6504 5.93076 38.4216 5.87061 29.6603C5.81308 20.3665 10.4368 14.317 18.5597 14.317C25.4247 14.317 27.4593 18.4807 28.1942 22.9172H29.881V14.5377C27.9876 13.4546 22.833 12 18.4525 12C7.76663 12 0.443996 19.1872 0.579988 29.8603C0.72121 40.1905 7.16253 46.9777 17.7594 46.9777C23.7588 46.9777 27.054 45.4011 30.1818 43.8166C30.2053 43.8146 30.9533 34.8631 30.9533 34.8631H29.1854L28.6362 36.7021" fill="white"/>
<path d="M53.3117 44.6504C45.6779 44.6504 40.9469 38.8216 40.9469 29.4317C40.9469 20.1042 45.6779 14.317 53.3117 14.317C61.1888 14.317 65.8962 19.9976 65.8962 29.5304C65.8962 39.0009 61.1888 44.6504 53.3117 44.6504ZM71.1763 28.959C71.1763 18.4937 64.6566 12 54.1538 12C42.9214 12 35.6484 18.9431 35.6484 29.6941C35.6484 40.5074 42.0374 46.9725 52.7285 46.9725C64.1074 46.9725 71.1763 40.0632 71.1763 28.959Z" fill="white"/>
<path d="M129.223 14.1552L136.528 15.4124L137.341 37.4469L116.968 12.7266L106.698 12.7266V14.1396L112.206 15.3864L111.994 43.5613L107.075 44.738C105.686 44.3432 103.484 43.764 100.555 40.1379C100.555 40.1379 92.9345 30.7713 91.9773 29.5921C94.9979 28.7635 99.8779 26.5504 99.8779 20.8723C99.8779 17.1475 97.8459 12.7266 88.1538 12.7266L73.0273 12.7266V14.1396L78.522 15.3864L78.5186 43.5536L73.0292 44.8211V46.2419H88.038V44.8341L83.1789 43.5639V15.2124C84.6278 14.976 86.0609 14.8202 87.0312 14.8202C92.4081 14.8202 95.0207 16.8176 95.0207 20.9164C95.0207 27.2803 89.8556 28.1946 87.7399 28.4752C87.0207 28.5661 86.1734 28.6076 85.4176 28.6076V30.0181L87.2979 30.6129L95.2378 40.8522C97.8896 44.2731 99.817 46.2419 108.806 46.2419H122.08V44.8133L115.469 43.538L114.653 17.0903L138.943 46.9459L139.595 46.9459L140.003 15.3786L144.454 14.1214V12.7266L129.223 12.7266V14.1552" fill="white"/>
<path d="M163.236 44.8263L157.739 43.5613L157.732 15.389L163.242 14.1422V12.7266L147.59 12.7266V14.1422L153.074 15.389V43.5613L147.59 44.8263V46.2419L163.237 46.2333V44.8254" fill="white"/>
<path d="M181.774 44.8224L175.157 43.5549L174.341 17.1021L198.626 46.9498H199.269L199.69 15.3851L204.136 14.1253V12.7305L188.916 12.7305L188.91 14.1591L196.202 15.4163L197.02 37.4508L176.666 12.7305L166.391 12.7305V14.1435L171.875 15.3903L171.671 43.5653L166.391 44.825V46.2381H181.773V44.8224" fill="white"/>
<path d="M236.234 33.2547L240.578 32.0053V30.6105L225.133 30.6085V32.0241L231.582 33.2787V41.9751C229.314 43.7569 226.793 44.8011 222.863 44.6739C215.822 44.4505 210.853 38.4581 210.853 29.6941C210.859 20.0185 215.43 14.3378 223.747 14.3378C231.061 14.3378 233.104 19.0445 233.831 22.8965H235.387V14.6158C233.206 13.3923 228.483 12.0234 223.038 12.0234C212.349 12.0234 205.513 19.0029 205.571 29.9045C205.615 40.0243 212.279 46.835 222.562 46.996C229.618 47.1129 233.316 45.1466 236.224 43.4271C236.208 43.4583 236.234 33.2553 236.234 33.2553" fill="white"/>
</svg>
