<svg width="50" height="50" viewBox="0 0 50 50" fill="none" xmlns="http://www.w3.org/2000/svg">
<g clip-path="url(#clip0_1007_24323)">
<path d="M29.3469 47.9522L20.668 39.4892L39.3072 20.4551L48.293 29.2619L29.3469 47.9522Z" fill="#8AB4F8"/>
<path d="M29.3849 10.5346L20.7372 1.70508L1.82812 20.4352C-0.609375 22.8727 -0.609375 26.8244 1.82812 29.2647L20.4531 48.0119L29.2599 39.7733L15.0696 24.85L29.3849 10.5346Z" fill="#4285F4"/>
<path d="M48.1683 20.5803L29.4183 1.83026C26.978 -0.610085 23.0206 -0.610085 20.5803 1.83026C18.1399 4.2706 18.1399 8.22798 20.5803 10.6683L39.3303 29.4183C41.7706 31.8587 45.728 31.8587 48.1683 29.4183C50.6087 26.978 50.6087 23.0206 48.1683 20.5803Z" fill="#8AB4F8"/>
<path d="M24.858 50.0011C28.2313 50.0011 30.9659 47.2664 30.9659 43.8931C30.9659 40.5198 28.2313 37.7852 24.858 37.7852C21.4846 37.7852 18.75 40.5198 18.75 43.8931C18.75 47.2664 21.4846 50.0011 24.858 50.0011Z" fill="#246FDB"/>
</g>
<defs>
<clipPath id="clip0_1007_24323">
<rect width="50" height="50" fill="white"/>
</clipPath>
</defs>
</svg>
