<svg width="50" height="50" viewBox="0 0 50 50" fill="none" xmlns="http://www.w3.org/2000/svg">
<g clip-path="url(#clip0_1007_24329)">
<path d="M47.5373 43.6502C47.5465 45.4279 46.7925 47.1241 45.4665 48.3082C44.1405 49.4922 42.3701 50.0502 40.6048 49.8405C37.4282 49.3705 35.1003 46.6061 35.1777 43.3958V6.48683C35.101 3.27302 37.4345 0.507297 40.6154 0.0420768C42.379 -0.164344 44.1465 0.395168 45.47 1.57886C46.7936 2.76254 47.5462 4.45682 47.5373 6.23243V43.6502Z" fill="#F9AB00"/>
<path d="M8.6446 37.5335C12.0576 37.5335 14.8244 40.3003 14.8244 43.7133C14.8244 47.1263 12.0576 49.8931 8.6446 49.8931C5.23162 49.8931 2.46484 47.1263 2.46484 43.7133C2.46484 40.3003 5.23162 37.5335 8.6446 37.5335ZM24.9049 18.8035C21.4757 18.9914 18.8152 21.8679 18.8947 25.3012V41.9007C18.8947 46.4057 20.8769 49.1405 23.7813 49.7235C25.6046 50.093 27.4975 49.6229 28.9361 48.4433C30.3747 47.2636 31.2065 45.4995 31.2013 43.6391V25.015C31.2043 23.3519 30.5391 21.7573 29.3552 20.5893C28.1713 19.4213 26.5678 18.7779 24.9049 18.8035Z" fill="#E37400"/>
</g>
<defs>
<clipPath id="clip0_1007_24329">
<rect width="50" height="50" fill="white"/>
</clipPath>
</defs>
</svg>
