<svg width="50" height="50" viewBox="0 0 50 50" fill="none" xmlns="http://www.w3.org/2000/svg">
<path d="M50 34.0625V45.9375H47.9688V43.9063H47.5V45.9375H44.6875V41.25H43.6719V45.9375H40.3125V43.9063H39.8438V45.9375H37.0312V41.25H36.0156V45.9375H32.6562V43.9063H32.1875V45.9375H29.375V41.25H28.2812V45.9375H24.9219V43.9063H24.4531V45.9375H21.6406V41.25H20.625V45.9375H17.2656V43.9063H16.7969V45.9375H13.9844V41.25H12.9688V43.9063H12.8906V45.9375H9.60938V43.9063H9.14062V45.9375H6.32813V41.25H5.3125V45.9375H1.95312V43.9063H1.48438V45.9375H0V34.0625H50Z" fill="#DCE7F2"/>
<path d="M37.0313 41.25H36.0156V45.9375H37.0313V41.25Z" fill="white"/>
<path d="M29.375 41.25H28.2812V45.9375H29.375V41.25Z" fill="white"/>
<path d="M44.6875 41.25H43.6719V45.9375H44.6875V41.25Z" fill="white"/>
<path d="M21.6406 41.25H20.625V45.9375H21.6406V41.25Z" fill="white"/>
<path d="M13.9844 41.25H12.9688V43.9063H12.8906V45.9375H13.9844V41.25Z" fill="white"/>
<path d="M6.32813 41.25H5.3125V45.9375H6.32813V41.25Z" fill="white"/>
<path d="M17.2656 45.9375V43.9062H16.7969V45.9375H17.2656Z" fill="white"/>
<path d="M9.60938 45.9375V43.9062H9.14062V45.9375H9.60938Z" fill="white"/>
<path d="M1.48438 45.9375H1.95313V43.9062H1.48438V45.9375Z" fill="white"/>
<path d="M47.5 45.9375H47.9688V43.9062H47.5V45.9375Z" fill="white"/>
<path d="M39.8438 45.9375H40.3125V43.9062H39.8438V45.9375Z" fill="white"/>
<path d="M32.6562 45.9375V43.9062H32.1875V45.9375H32.6562Z" fill="white"/>
<path d="M24.4531 45.9375H25V43.9062H24.4531V45.9375Z" fill="white"/>
<path d="M26.9531 34.0625H23.6719L22.8906 30.625C20.1562 33.75 17.6562 34.7656 14.0625 34.7656C5.3125 34.7656 0.078125 27.8125 0.078125 19.375C0.078125 10.9375 5.3125 4.0625 14.0625 4.0625C20.4688 4.0625 25.8594 7.5 26.6406 14.0625H21.6406C21.0938 10.1562 17.8125 8.20312 14.0625 8.20312C7.8125 8.20312 5.15625 13.75 5.15625 19.375C5.15625 25 7.8125 30.5469 14.0625 30.5469C19.2969 30.625 22.1875 27.5 22.2656 22.5H14.4531V18.5937H26.9531V34.0625Z" fill="#4499D4"/>
<path d="M26.3281 4.76562H50V9.21875H40.7031V34.0625H35.5469V9.21875H26.3281V4.76562Z" fill="#4499D4"/>
</svg>
