<svg width="34" height="50" viewBox="0 0 34 50" fill="none" xmlns="http://www.w3.org/2000/svg">
<g clip-path="url(#clip0_1038_32719)">
<path d="M8.32205 39.1178V10.634C8.32205 10.324 8.10508 10.1381 7.91912 10.1381L6.09045 9.82812C5.78051 9.82812 5.47056 10.0451 5.47056 10.324V39.3038C5.47056 39.7067 5.78051 39.9237 6.09045 39.9237L7.82614 39.7067C8.10509 39.6447 8.32205 39.4278 8.32205 39.1178ZM3.33195 36.4833V13.1755C3.33195 12.8656 3.11499 12.6796 2.83604 12.6796L1.10036 12.4626C0.790412 12.4626 0.480469 12.6796 0.480469 12.9586V36.6693C0.480469 36.9792 0.790412 37.2891 1.10036 37.1652L2.83604 36.9482C3.11499 36.9792 3.33195 36.7932 3.33195 36.4833Z" fill="#0D1A2B"/>
<path fill-rule="evenodd" clip-rule="evenodd" d="M33.1176 10.8509L11.0496 7.19359C10.7396 7.10061 10.4297 7.41055 10.4297 7.6895V42.2792C10.4297 42.5892 10.7396 42.8991 11.0496 42.7751L33.1176 38.9318C33.3345 38.9318 33.5205 38.6219 33.5205 38.4359V11.3468C33.5205 11.0369 33.3345 10.8509 33.1176 10.8509ZM30.793 35.9564C30.793 36.2663 30.576 36.4523 30.3901 36.4523L14.8309 38.6839C14.5209 38.6839 14.211 38.4669 14.211 38.188V12.2767C14.211 11.9667 14.5209 11.6568 14.8309 11.7808L30.3901 13.7024C30.7 13.7024 30.886 14.0124 30.886 14.1983V35.9564H30.793Z" fill="#0D1A2B"/>
</g>
<defs>
<clipPath id="clip0_1038_32719">
<rect width="33.04" height="50" fill="white" transform="translate(0.480469)"/>
</clipPath>
</defs>
</svg>
