<svg width="207" height="60" viewBox="0 0 207 60" fill="none" xmlns="http://www.w3.org/2000/svg" preserveAspectRatio="xMinYMin meet">
<path d="M163.641 14.4401C163.911 14.4301 164.151 14.4001 164.391 14.4001C168.371 14.4001 172.341 14.3701 176.321 14.4001C180.191 14.4401 183.801 15.3601 186.851 17.8701C190.671 21.0101 192.171 25.1801 192.011 30.0201C191.781 37.1001 187.011 42.6201 180.011 43.8801C178.581 44.1401 177.121 44.2601 175.661 44.2801C171.911 44.3301 168.161 44.3001 164.411 44.3001H163.651V14.4401H163.641ZM170.311 29.3201C170.311 32.1701 170.311 35.0101 170.311 37.8601C170.311 37.8801 170.311 37.9101 170.311 37.9301C170.221 38.5301 170.491 38.7001 171.071 38.6901C172.841 38.6601 174.621 38.6901 176.391 38.6801C180.361 38.6501 183.491 36.3901 184.681 32.7101C185.241 30.9901 185.291 29.2401 185.021 27.4701C184.391 23.3701 180.951 20.2601 176.791 20.1001C174.931 20.0301 173.061 20.0701 171.201 20.0601C170.311 20.0601 170.311 20.0601 170.301 20.9201C170.301 23.7201 170.301 26.5201 170.301 29.3201H170.311Z" fill="white"/>
<path d="M128.862 34.45C130.972 37.72 133.062 40.95 135.222 44.29C134.312 44.29 133.512 44.29 132.722 44.29C131.222 44.29 129.712 44.27 128.212 44.3C127.772 44.3 127.542 44.18 127.322 43.78C125.962 41.28 124.552 38.81 123.192 36.31C122.942 35.85 122.662 35.67 122.142 35.7C121.252 35.74 120.362 35.71 119.432 35.71V30.18C119.672 30.16 119.932 30.13 120.192 30.12C121.512 30.06 122.862 30.14 124.152 29.91C126.992 29.4 128.202 27.37 128.082 24.61C127.982 22.09 126.502 20.21 123.132 20C120.782 19.85 118.422 19.97 115.962 19.97V44.24H109.232C109.222 43.98 109.192 43.74 109.192 43.5C109.192 34.07 109.192 24.63 109.172 15.2C109.172 14.55 109.342 14.37 110.002 14.37C114.062 14.4 118.132 14.37 122.192 14.39C124.492 14.41 126.752 14.68 128.882 15.63C132.362 17.18 134.112 19.94 134.412 23.65C134.572 25.6 134.392 27.54 133.642 29.39C132.832 31.4 131.502 32.94 129.612 34.01C129.382 34.14 129.152 34.27 128.862 34.43V34.45Z" fill="white"/>
<path d="M144.159 32.04V38.69H160.469V44.25H137.469V14.45C137.709 14.43 137.949 14.41 138.179 14.41C145.369 14.41 152.549 14.41 159.739 14.4C160.339 14.4 160.569 14.54 160.549 15.18C160.499 16.52 160.539 17.87 160.529 19.21C160.529 19.45 160.499 19.69 160.479 19.99H144.159V26.5H158.499V32.05H144.149L144.159 32.04Z" fill="white"/>
<path d="M13.6602 14.36C13.9302 14.36 14.1702 14.36 14.4102 14.36C18.4102 14.36 22.4002 14.34 26.4002 14.36C28.2902 14.37 30.1602 14.6 31.9602 15.23C35.8102 16.58 38.1502 19.7 38.3402 23.77C38.4202 25.53 38.3202 27.27 37.7502 28.94C36.4702 32.68 33.7002 34.73 29.9302 35.41C27.9602 35.76 25.9302 35.76 23.8602 35.92V30.09C24.5802 30.09 25.3002 30.14 26.0002 30.08C26.9802 29.99 27.9802 29.91 28.9102 29.63C30.3302 29.2 31.2702 28.2 31.6802 26.75C32.0002 25.6 32.0202 24.44 31.6802 23.3C31.0702 21.24 29.5002 20.28 27.5202 20.15C25.2002 20 22.8602 20.11 20.4502 20.11V44.29H13.6702V14.36H13.6602Z" fill="white"/>
<path d="M105.431 34.83H88.9209C89.4409 36.64 90.3509 38.05 92.0009 38.77C95.2409 40.19 98.0709 39.25 100.551 37.13C101.731 38.26 102.901 39.38 104.121 40.54C103.151 41.66 101.961 42.57 100.591 43.2C96.5309 45.04 92.4009 45.18 88.3409 43.32C84.5609 41.59 82.7209 38.39 82.3009 34.34C82.0609 32.01 82.3009 29.73 83.3009 27.58C85.0509 23.76 88.1509 21.77 92.2309 21.21C94.1609 20.94 96.0809 21.06 97.9709 21.57C101.351 22.49 103.561 24.64 104.691 27.94C105.451 30.16 105.581 32.44 105.431 34.83ZM99.2009 30.86C99.1809 27.96 97.2409 26.04 94.2609 25.93C91.5109 25.83 89.0309 28.09 88.8609 30.86H99.1909H99.2009Z" fill="white"/>
<path d="M48.0486 21.4401C48.0486 25.1201 48.0286 28.7101 48.0586 32.2901C48.0586 33.1601 48.1386 34.0401 48.3086 34.8901C48.9186 37.8201 51.4886 39.2501 54.3286 38.2801C56.1886 37.6501 56.8086 36.1301 57.0586 34.3901C57.1686 33.6401 57.1986 32.8701 57.1986 32.1101C57.2086 28.8201 57.1986 25.5201 57.1986 22.2301V21.4501H63.9586C63.9586 21.4501 64.0286 21.5301 64.0286 21.5701C64.0286 25.4901 64.0686 29.4101 63.9886 33.3301C63.9386 35.7301 63.3686 38.0401 62.0486 40.0901C60.3586 42.7301 57.8586 44.0701 54.7886 44.3801C52.3086 44.6301 49.8486 44.5101 47.5186 43.5001C44.0586 42.0001 42.2886 39.2001 41.5886 35.6301C41.3786 34.5401 41.2986 33.4101 41.2786 32.2901C41.2386 28.9301 41.2686 25.5701 41.2686 22.2101C41.2686 21.9701 41.2686 21.7201 41.2686 21.4301H48.0286L48.0486 21.4401Z" fill="white"/>
<path d="M67.0586 44.2901V21.5H73.7486V25.08C75.5986 22.43 78.0886 21.11 81.3186 21.05V27.18C80.4886 27.24 79.6586 27.2401 78.8486 27.3701C75.6486 27.8801 73.7886 30.0701 73.7786 33.3101C73.7786 36.7201 73.7786 40.12 73.7786 43.53V44.2901H67.0686H67.0586Z" fill="white"/>
<path d="M191.989 15.77C191.989 16.53 191.429 17.05 190.649 17.03C189.919 17.01 189.389 16.45 189.399 15.73C189.409 14.98 189.989 14.45 190.759 14.47C191.499 14.49 191.999 15.01 191.989 15.77ZM191.769 15.76C191.779 15.17 191.319 14.71 190.699 14.71C190.109 14.71 189.679 15.12 189.659 15.7C189.639 16.31 190.069 16.78 190.679 16.78C191.279 16.78 191.759 16.34 191.769 15.75V15.76Z" fill="white"/>
<path d="M191.081 16.3501C190.941 16.1901 190.831 16.0701 190.681 15.9101C190.551 16.0201 190.441 16.1301 190.281 16.2701V15.1801C190.821 15.0467 191.088 15.4334 191.081 16.3401V16.3501Z" fill="white"/>
</svg>
