<svg width="252" height="60" viewBox="0 0 252 60" fill="none" xmlns="http://www.w3.org/2000/svg" preserveAspectRatio="xMinYMid meet">
<path d="M17.5843 21.6132C18.047 23.4746 19.1268 25.1808 20.9777 25.1808C22.8287 25.1808 23.9084 23.4746 24.3712 21.4581C24.9882 21.1478 25.2967 20.5274 25.1424 19.7518C25.1424 19.4416 24.9882 19.1313 24.6797 18.9762C24.8339 16.8046 23.1372 14.9432 20.9777 14.7881C18.8183 15.0983 17.2758 16.9597 17.2758 19.1313C16.9673 19.1313 16.6588 19.4416 16.6588 19.9069C16.5046 20.5274 16.9673 21.3029 17.5843 21.6132Z" fill="white"/>
<path d="M28.0712 27.5074C26.683 26.887 25.2947 26.2665 23.7523 25.8011H23.598C23.598 26.7318 22.2098 32.1609 22.2098 32.1609L21.4386 27.8177L21.9013 26.7318L21.1301 26.1114H20.6673L20.0503 26.887L20.5131 27.9728L19.7418 32.316C19.7418 32.316 18.5078 26.7318 18.3536 25.9563H18.1994C16.6569 26.4216 15.2686 26.887 13.8804 27.6625C12.9549 28.5932 12.4922 29.8342 12.4922 31.0751C13.2634 32.0058 14.3432 32.9365 15.4229 33.5569L15.4229 32.4711C15.4229 32.0058 15.5771 31.5404 15.8856 31.0751L15.8856 33.8672C17.5824 34.7979 19.2791 35.2632 21.1301 35.2632C22.8268 35.2632 24.3693 34.953 25.9117 34.1774V31.2302C26.2202 31.6955 26.2202 32.0058 26.2202 32.6262V34.1774C27.3 33.5569 28.3797 32.7813 29.3052 31.8507V31.6955C29.4594 29.9893 28.9967 28.5932 28.0712 27.5074Z" fill="white"/>
<path d="M40.7229 48.9166L32.8562 36.5073C39.9516 30.1476 40.5686 19.1344 34.0902 11.999C27.6118 4.86373 16.8145 4.24327 9.71909 10.603C2.62369 16.9627 2.0067 27.976 8.4851 35.1113C13.421 40.6954 21.1334 42.4017 27.9203 39.6096L35.787 52.0189C36.7124 53.4149 38.4092 53.7251 39.7974 52.9496C41.1856 52.0189 41.6484 50.1575 40.7229 48.9166ZM27.9203 34.0255C22.2132 37.7482 14.5008 36.042 10.9531 30.1476C7.40537 24.2532 8.94785 16.6525 14.8093 13.0849C20.6707 9.5172 28.2288 11.0684 31.7765 16.9627C33.4732 19.7548 34.0902 23.1674 33.4732 26.2697C32.5478 29.372 30.6968 32.1641 27.9203 34.0255Z" fill="white"/>
<path d="M46.7383 31.0751L49.9775 27.3523C51.52 29.2137 53.8337 30.4546 56.3016 30.2995C58.7696 30.2995 60.1578 29.2137 60.1578 27.5074C60.1578 26.1114 59.2323 25.1807 57.2271 24.7154L54.2964 24.0949C50.1317 23.1642 47.9723 20.8375 47.9723 17.4249C47.9723 12.9266 51.8285 9.51404 57.5356 9.51404C61.0833 9.51404 64.4768 10.9101 66.0192 13.0817L62.6258 16.4942C61.3918 14.788 59.3866 13.8573 57.3814 13.8573C55.0677 13.8573 53.6794 15.0982 53.6794 16.8045C53.6794 18.5107 54.6049 19.1312 56.6101 19.5966L59.5408 20.217C63.7055 21.1477 66.0192 23.4744 66.0192 26.887C66.0192 31.3853 62.1631 34.7979 56.3016 34.7979C52.2912 34.953 48.435 33.557 46.7383 31.0751Z" fill="white"/>
<path d="M68.332 26.4248C68.4863 21.7713 72.1882 18.0485 76.8157 17.8934C81.2888 17.8934 84.8365 21.6162 84.8365 27.2004H73.268C73.4222 29.372 75.2732 31.2334 77.4327 31.0783C77.4327 31.0783 77.4326 31.0783 77.5869 31.0783C79.1294 31.2334 80.5176 30.3027 81.2888 28.9066L84.8365 30.768C83.4483 33.405 80.5176 35.1113 77.4327 34.801C72.651 35.1113 68.6405 31.3885 68.332 26.5799C68.332 26.5799 68.332 26.5799 68.332 26.4248ZM73.4222 24.5634H79.9006C79.9006 22.8571 78.5124 21.306 76.8157 21.306C74.9647 21.306 73.4222 22.702 73.4222 24.5634Z" fill="white"/>
<path d="M87.1484 30.4578C87.1484 26.735 91.0046 25.9594 94.3981 25.4941C96.4033 25.1839 97.3288 25.0287 97.3288 23.6327C97.3288 22.2367 96.5575 21.7713 94.8608 21.7713C93.4726 21.6162 91.9301 22.3918 91.3131 23.6327L87.9197 21.6162C89.1537 19.1344 92.0844 17.8934 95.4778 17.8934C99.6425 17.8934 102.419 19.9099 102.419 24.2532V34.4908H97.483V32.1641C96.5576 33.8703 94.5523 34.9561 92.5471 34.801C89.1537 34.9561 87.1484 33.2499 87.1484 30.4578ZM97.483 28.5964V26.735C97.0203 27.5106 96.2491 27.6657 95.0151 27.9759C93.7811 28.2862 92.0844 28.4413 92.0844 29.9924C92.0844 31.0783 92.8556 31.8538 94.2438 31.8538C95.7863 32.009 97.3288 30.768 97.483 29.2169C97.483 28.9066 97.483 28.7515 97.483 28.5964Z" fill="white"/>
<path d="M107.047 18.3588H108.744C109.823 18.5139 110.903 18.3588 111.983 18.0485V20.9957C113.217 18.9792 115.376 17.7383 117.69 17.8934C120.004 17.7383 122.163 19.1343 122.78 21.3059C124.014 19.1343 126.328 17.8934 128.796 18.0485C132.189 18.0485 134.349 20.065 134.349 23.9429V34.6459H129.259V25.0287C129.259 23.0122 128.487 22.2366 126.945 22.2366C124.631 22.2366 123.243 23.9429 123.243 26.735V34.4908H118.153V25.0287C118.153 23.0122 117.381 22.2366 115.839 22.2366C113.68 22.2366 112.137 23.9429 112.137 26.735V34.4908H107.047V18.3588Z" fill="white"/>
<path d="M139.133 9.98162H140.83C141.909 9.98162 143.143 9.98162 144.223 9.67139V34.4899H139.133V9.98162Z" fill="white"/>
<path d="M147.461 26.4248C147.615 21.7713 151.317 18.0485 155.945 17.8934C160.418 17.8934 164.12 21.6162 164.12 27.2004L152.551 27.2004C152.705 29.372 154.556 31.2334 156.716 31.0783C158.258 31.2334 159.801 30.3027 160.418 28.9066L163.965 30.768C162.577 33.405 159.647 35.1113 156.562 34.801C151.78 35.1113 147.769 31.3885 147.461 26.5799C147.461 26.5799 147.461 26.5799 147.461 26.4248ZM152.551 24.5634H159.03C159.03 22.8571 157.796 21.306 155.945 21.306C154.248 21.306 152.705 22.702 152.551 24.5634Z" fill="white"/>
<path d="M166.125 32.4758L168.593 29.5286C169.827 30.7695 171.369 31.39 173.066 31.2349C174.917 31.2349 175.843 30.6144 175.843 29.6837C175.843 29.0633 175.38 28.5979 173.992 28.2877L171.369 27.8223C168.284 27.357 166.742 25.4956 166.742 23.324C166.742 20.0666 169.981 17.7398 174.146 17.7398C176.614 17.5847 178.928 18.5154 180.47 20.3768L177.848 23.1689C176.922 21.9279 175.534 21.3075 173.992 21.3075C172.449 21.3075 171.524 21.9279 171.524 22.8586C171.524 23.6342 171.986 23.9444 173.837 24.4098L175.997 24.8751C179.082 25.4956 180.624 27.0468 180.624 29.3735C180.624 32.786 177.231 34.9577 172.603 34.9577C169.827 34.9577 167.205 34.027 166.125 32.4758Z" fill="white"/>
<path d="M182.785 32.4758L185.253 29.5286C186.487 30.7695 188.03 31.39 189.726 31.2349C191.577 31.2349 192.503 30.6144 192.503 29.6837C192.503 29.0633 192.04 28.5979 190.652 28.2877L188.03 27.8223C184.945 27.357 183.402 25.4956 183.402 23.324C183.402 20.0666 186.641 17.7398 190.806 17.7398C193.274 17.5847 195.588 18.5154 197.13 20.3768L194.508 23.1689C193.582 21.9279 192.194 21.3075 190.652 21.3075C189.109 21.3075 188.184 21.9279 188.184 22.8586C188.184 23.6342 188.647 23.9444 190.498 24.4098L192.657 24.8751C195.742 25.4956 197.284 27.0468 197.284 29.3735C197.284 32.786 193.891 34.9577 189.264 34.9577C186.487 34.9577 183.865 34.027 182.785 32.4758Z" fill="white"/>
<path d="M200.676 32.011C200.676 30.4599 201.91 29.0638 203.606 29.0638C205.149 29.0638 206.537 30.3048 206.537 32.011C206.537 33.5622 205.303 34.9582 203.606 34.9582C201.91 34.9582 200.676 33.7173 200.676 32.011Z" fill="white"/>
<path d="M217.8 9.97925H223.353L232.299 34.4875H226.438L224.895 29.6789L216.103 29.6789L214.561 34.4875H209.008L217.8 9.97925ZM217.183 25.6459H223.661L220.422 16.0288L217.183 25.6459Z" fill="white"/>
<path d="M234.918 9.97925L240.471 9.97925V34.4875H234.918V9.97925Z" fill="white"/>
<path d="M247.721 11.8393C247.721 13.0802 246.796 14.166 245.407 14.166C244.173 14.166 243.094 13.2353 243.094 11.8393C243.094 10.5984 244.173 9.51257 245.407 9.51257C246.796 9.51257 247.721 10.5984 247.721 11.8393ZM243.711 11.8393C243.711 12.77 244.482 13.7007 245.407 13.7007C246.333 13.7007 247.104 12.9251 247.104 11.8393C247.104 10.7535 246.333 9.97792 245.407 9.97792C244.482 9.97792 243.711 10.7535 243.711 11.8393ZM245.099 13.0802H244.636V10.7535C244.79 10.7535 245.099 10.7535 245.562 10.7535C246.024 10.7535 246.179 10.7535 246.333 10.9086C246.487 11.0637 246.487 11.2188 246.487 11.374C246.487 11.6842 246.333 11.8393 246.024 11.8393C246.179 11.9944 246.333 12.1495 246.487 12.4598C246.487 12.77 246.641 12.9251 246.641 13.0802H246.024C246.024 12.9251 245.87 12.77 245.87 12.4598C245.87 12.1495 245.716 12.1495 245.407 12.1495H245.099V13.0802ZM245.099 11.6842H245.407C245.716 11.6842 245.87 11.5291 245.87 11.374C245.87 11.2188 245.716 11.0637 245.407 11.0637C245.253 11.0637 245.099 11.0637 245.099 11.0637V11.6842Z" fill="white"/>
</svg>
