<svg width="154" height="33" viewBox="0 0 154 33" fill="none" xmlns="http://www.w3.org/2000/svg">
<path d="M10.7645 11.3942C11.0478 12.5336 11.7087 13.5781 12.8418 13.5781C13.9748 13.5781 14.6358 12.5336 14.919 11.2992C15.2967 11.1093 15.4855 10.7295 15.3911 10.2548C15.3911 10.0649 15.2967 9.87496 15.1079 9.78001C15.2023 8.45068 14.1637 7.31126 12.8418 7.21631C11.5199 7.40621 10.5757 8.54563 10.5757 9.87496C10.3868 9.87496 10.198 10.0649 10.198 10.3497C10.1036 10.7295 10.3868 11.2043 10.7645 11.3942Z" fill="white"/>
<path d="M17.1849 15.0015C16.3351 14.6217 15.4853 14.2419 14.5411 13.957H14.4467C14.4467 14.5267 13.5969 17.8501 13.5969 17.8501L13.1248 15.1914L13.4081 14.5267L12.936 14.1469H12.6527L12.275 14.6217L12.5583 15.2864L12.0862 17.945C12.0862 17.945 11.3308 14.5267 11.2364 14.052H11.142C10.1978 14.3368 9.34801 14.6217 8.49822 15.0965C7.9317 15.6662 7.64844 16.4258 7.64844 17.1854C8.12054 17.7551 8.78148 18.3248 9.44243 18.7046V18.04C9.44243 17.7551 9.53685 17.4702 9.72569 17.1854V18.8945C10.7643 19.4642 11.8029 19.7491 12.936 19.7491C13.9746 19.7491 14.9188 19.5592 15.863 19.0844V17.2803C16.0519 17.5652 16.0519 17.7551 16.0519 18.1349V19.0844C16.7128 18.7046 17.3738 18.2299 17.9403 17.6602V17.5652C18.0347 16.5207 17.7514 15.6662 17.1849 15.0015Z" fill="white"/>
<path d="M24.928 28.1062L20.1125 20.5101C24.4559 16.6171 24.8336 9.87548 20.8679 5.5077C16.9022 1.13991 10.2928 0.760104 5.94944 4.65313C1.60609 8.54615 1.22841 15.2877 5.19407 19.6555C8.21553 23.0738 12.9366 24.1183 17.0911 22.4091L21.9065 30.0053C22.473 30.8598 23.5117 31.0497 24.3615 30.575C25.2112 30.0053 25.4945 28.8658 24.928 28.1062ZM17.0911 18.9909C13.5975 21.2697 8.87648 20.2252 6.7048 16.6171C4.53313 13.0089 5.47734 8.35625 9.06532 6.17236C12.6533 3.98847 17.2799 4.93798 19.4516 8.54615C20.4902 10.2553 20.8679 12.3442 20.4902 14.2433C19.9237 16.1423 18.7906 17.8514 17.0911 18.9909Z" fill="white"/>
<path d="M28.6094 17.1866L30.5922 14.9077C31.5364 16.0472 32.9527 16.8068 34.4635 16.7118C35.9742 16.7118 36.824 16.0472 36.824 15.0027C36.824 14.1481 36.2574 13.5784 35.03 13.2936L33.236 12.9138C30.6866 12.344 29.3647 10.9198 29.3647 8.83082C29.3647 6.07722 31.7253 3.98828 35.2188 3.98828C37.3905 3.98828 39.4677 4.84285 40.4119 6.17217L38.3347 8.26111C37.5793 7.21664 36.3519 6.64693 35.1244 6.64693C33.7081 6.64693 32.8583 7.40655 32.8583 8.45102C32.8583 9.49549 33.4248 9.87529 34.6523 10.1602L36.4463 10.54C38.9956 11.1097 40.4119 12.5339 40.4119 14.6229C40.4119 17.3765 38.0514 19.4654 34.4635 19.4654C32.0085 19.5604 29.648 18.7058 28.6094 17.1866Z" fill="white"/>
<path d="M41.8281 14.34C41.9225 11.4915 44.1886 9.21263 47.0213 9.11768C49.7595 9.11768 51.9311 11.3965 51.9311 14.8148L44.8496 14.8148C44.944 16.1441 46.0771 17.2835 47.3989 17.1886C47.3989 17.1886 47.3989 17.1886 47.4934 17.1886C48.4376 17.2835 49.2874 16.7138 49.7595 15.8593L51.9311 16.9987C51.0813 18.6129 49.2874 19.6573 47.3989 19.4674C44.4719 19.6573 42.017 17.3785 41.8281 14.435C41.8281 14.435 41.8281 14.435 41.8281 14.34ZM44.944 13.2006H48.9097C48.9097 12.1561 48.0599 11.2066 47.0213 11.2066C45.8882 11.2066 44.944 12.0612 44.944 13.2006Z" fill="white"/>
<path d="M53.3477 16.8088C53.3477 14.5299 55.7082 14.0552 57.7854 13.7703C59.0129 13.5804 59.5794 13.4855 59.5794 12.6309C59.5794 11.7763 59.1073 11.4915 58.0687 11.4915C57.2189 11.3965 56.2747 11.8713 55.897 12.6309L53.8198 11.3965C54.5751 9.87729 56.3691 9.11768 58.4464 9.11768C60.9957 9.11768 62.6953 10.352 62.6953 13.0107V19.2775H59.6738V17.8532C59.1073 18.8977 57.8798 19.5624 56.6524 19.4674C54.5751 19.5624 53.3477 18.5179 53.3477 16.8088ZM59.6738 15.6694V14.5299C59.3906 15.0047 58.9185 15.0996 58.1631 15.2895C57.4077 15.4794 56.3691 15.5744 56.3691 16.5239C56.3691 17.1886 56.8412 17.6633 57.691 17.6633C58.6352 17.7583 59.5794 16.9987 59.6738 16.0492C59.6738 15.8593 59.6738 15.7643 59.6738 15.6694Z" fill="white"/>
<path d="M65.5273 9.40074H66.566C67.2269 9.4957 67.8879 9.40074 68.5488 9.21084V11.0149C69.3042 9.78055 70.6261 9.02094 72.0424 9.11589C73.4587 9.02094 74.7806 9.8755 75.1582 11.2048C75.9136 9.8755 77.3299 9.11589 78.8406 9.21084C80.9179 9.21084 82.2398 10.4452 82.2398 12.819V19.3707L79.1239 19.3707V13.4837C79.1239 12.2493 78.6518 11.7745 77.7076 11.7745C76.2913 11.7745 75.4415 12.819 75.4415 14.5281V19.2757H72.3256V13.4837C72.3256 12.2493 71.8535 11.7745 70.9093 11.7745C69.5874 11.7745 68.6432 12.819 68.6432 14.5281V19.2757H65.5273V9.40074Z" fill="white"/>
<path d="M85.168 4.27389H86.2066C86.8675 4.27389 87.6229 4.27389 88.2839 4.08398V19.2763H85.168V4.27389Z" fill="white"/>
<path d="M90.2656 14.34C90.36 11.4915 92.6261 9.21263 95.4588 9.11768C98.197 9.11768 100.463 11.3965 100.463 14.8148L93.3815 14.8148C93.4759 16.1441 94.609 17.2835 95.9309 17.1886C96.8751 17.2835 97.8193 16.7138 98.197 15.8593L100.369 16.9987C99.5188 18.6129 97.7249 19.6573 95.8364 19.4674C92.9094 19.6573 90.4545 17.3785 90.2656 14.435C90.2656 14.435 90.2656 14.435 90.2656 14.34ZM93.3815 13.2006H97.3472C97.3472 12.1561 96.5918 11.2066 95.4588 11.2066C94.4201 11.2066 93.4759 12.0612 93.3815 13.2006Z" fill="white"/>
<path d="M101.691 18.0428L103.202 16.2388C103.958 16.9984 104.902 17.3782 105.94 17.2832C107.073 17.2832 107.64 16.9034 107.64 16.3337C107.64 15.9539 107.357 15.669 106.507 15.4791L104.902 15.1943C103.013 14.9094 102.069 13.77 102.069 12.4407C102.069 10.4467 104.052 9.02242 106.601 9.02242C108.112 8.92746 109.528 9.49717 110.473 10.6366L108.867 12.3457C108.301 11.5861 107.451 11.2063 106.507 11.2063C105.563 11.2063 104.996 11.5861 104.996 12.1558C104.996 12.6306 105.279 12.8205 106.412 13.1053L107.734 13.3902C109.623 13.77 110.567 14.7195 110.567 16.1438C110.567 18.2327 108.49 19.5621 105.657 19.5621C103.958 19.5621 102.352 18.9924 101.691 18.0428Z" fill="white"/>
<path d="M111.891 18.0428L113.401 16.2388C114.157 16.9984 115.101 17.3782 116.14 17.2832C117.273 17.2832 117.839 16.9034 117.839 16.3337C117.839 15.9539 117.556 15.669 116.706 15.4791L115.101 15.1943C113.213 14.9094 112.268 13.77 112.268 12.4407C112.268 10.4467 114.251 9.02242 116.8 9.02242C118.311 8.92746 119.728 9.49717 120.672 10.6366L119.067 12.3457C118.5 11.5861 117.65 11.2063 116.706 11.2063C115.762 11.2063 115.195 11.5861 115.195 12.1558C115.195 12.6306 115.479 12.8205 116.612 13.1053L117.934 13.3902C119.822 13.77 120.766 14.7195 120.766 16.1438C120.766 18.2327 118.689 19.5621 115.856 19.5621C114.157 19.5621 112.552 18.9924 111.891 18.0428Z" fill="white"/>
<path d="M122.84 17.7577C122.84 16.8082 123.595 15.9536 124.634 15.9536C125.578 15.9536 126.428 16.7132 126.428 17.7577C126.428 18.7072 125.672 19.5618 124.634 19.5618C123.595 19.5618 122.84 18.8022 122.84 17.7577Z" fill="white"/>
<path d="M133.323 4.27295L136.723 4.27295L142.199 19.2753H138.611L137.667 16.3318H132.285L131.341 19.2753H127.941L133.323 4.27295ZM132.946 13.8631L136.911 13.8631L134.929 7.97607L132.946 13.8631Z" fill="white"/>
<path d="M143.801 4.27295L147.2 4.27295V19.2753H143.801V4.27295Z" fill="white"/>
<path d="M151.641 5.41012C151.641 6.16973 151.075 6.83439 150.225 6.83439C149.47 6.83439 148.809 6.26468 148.809 5.41012C148.809 4.6505 149.47 3.98584 150.225 3.98584C151.075 3.98584 151.641 4.6505 151.641 5.41012ZM149.186 5.41012C149.186 5.97983 149.658 6.54954 150.225 6.54954C150.791 6.54954 151.264 6.07478 151.264 5.41012C151.264 4.74545 150.791 4.2707 150.225 4.2707C149.658 4.2707 149.186 4.74545 149.186 5.41012ZM150.036 6.16973H149.753V4.74545C149.847 4.74545 150.036 4.74545 150.319 4.74545C150.603 4.74545 150.697 4.74545 150.791 4.84041C150.886 4.93536 150.886 5.03031 150.886 5.12526C150.886 5.31517 150.791 5.41012 150.603 5.41012C150.697 5.50507 150.791 5.60002 150.886 5.78992C150.886 5.97983 150.98 6.07478 150.98 6.16973H150.603C150.603 6.07478 150.508 5.97983 150.508 5.78992C150.508 5.60002 150.414 5.60002 150.225 5.60002H150.036V6.16973ZM150.036 5.31517H150.225C150.414 5.31517 150.508 5.22021 150.508 5.12526C150.508 5.03031 150.414 4.93536 150.225 4.93536C150.13 4.93536 150.036 4.93536 150.036 4.93536V5.31517Z" fill="white"/>
</svg>
