<svg width="50" height="50" viewBox="0 0 50 50" fill="none" xmlns="http://www.w3.org/2000/svg">
<mask id="mask0_1007_24311" style="mask-type:alpha" maskUnits="userSpaceOnUse" x="2" y="3" width="46" height="45">
<path fill-rule="evenodd" clip-rule="evenodd" d="M34.0757 47.8077C34.7881 48.0852 35.6005 48.0674 36.3196 47.7214L45.6323 43.2403C46.6109 42.7694 47.2332 41.779 47.2332 40.6925V10.3076C47.2332 9.22111 46.6109 8.23073 45.6323 7.75986L36.3196 3.27858C35.3759 2.82449 34.2714 2.93572 33.4432 3.53786C33.3249 3.62387 33.2122 3.71991 33.1064 3.82575L15.2782 20.0907L7.51266 14.196C6.78974 13.6473 5.77861 13.6922 5.10722 14.303L2.61654 16.5686C1.7953 17.3156 1.79436 18.6076 2.61451 19.3559L9.34908 25.5L2.61451 31.6441C1.79436 32.3923 1.7953 33.6844 2.61654 34.4314L5.10722 36.697C5.77861 37.3078 6.78974 37.3527 7.51266 36.804L15.2782 30.9093L33.1064 47.1742C33.3884 47.4564 33.7196 47.6689 34.0757 47.8077ZM35.9318 15.2315L22.4043 25.5L35.9318 35.7684V15.2315Z" fill="white"/>
</mask>
<g mask="url(#mask0_1007_24311)">
<path d="M45.6288 7.76645L36.3087 3.27902C35.2299 2.7596 33.9407 2.9787 33.0941 3.82534L2.58363 31.6437C1.76298 32.3919 1.76392 33.6839 2.58567 34.431L5.07785 36.6966C5.74966 37.3073 6.76142 37.3523 7.48475 36.8036L44.2264 8.93062C45.459 7.99551 47.2294 8.87466 47.2294 10.4219V10.3137C47.2294 9.22762 46.6073 8.2376 45.6288 7.76645Z" fill="#0065A9"/>
<g filter="url(#filter0_d_1007_24311)">
<path d="M45.6288 43.2328L36.3087 47.7203C35.2299 48.2398 33.9407 48.0206 33.0941 47.1739L2.58363 19.3556C1.76298 18.6074 1.76392 17.3153 2.58567 16.5683L5.07785 14.3027C5.74966 13.6919 6.76142 13.647 7.48475 14.1957L44.2264 42.0686C45.459 43.0037 47.2294 42.1246 47.2294 40.5774V40.6856C47.2294 41.7716 46.6073 42.7617 45.6288 43.2328Z" fill="#007ACC"/>
</g>
<g filter="url(#filter1_d_1007_24311)">
<path d="M36.3127 47.7214C35.2336 48.2405 33.9444 48.0209 33.0977 47.1742C34.1409 48.2175 35.9247 47.4786 35.9247 46.0032V4.99676C35.9247 3.52138 34.1409 2.78249 33.0977 3.82575C33.9444 2.97903 35.2336 2.75962 36.3127 3.27858L45.6312 7.75987C46.6104 8.23074 47.233 9.22112 47.233 10.3076V40.6925C47.233 41.779 46.6104 42.7694 45.6311 43.2403L36.3127 47.7214Z" fill="#1F9CF0"/>
</g>
<g style="mix-blend-mode:overlay" opacity="0.25">
<path fill-rule="evenodd" clip-rule="evenodd" d="M34.0445 47.8077C34.7569 48.0852 35.5693 48.0674 36.2883 47.7214L45.601 43.2403C46.5796 42.7694 47.2019 41.779 47.2019 40.6925V10.3076C47.2019 9.2211 46.5797 8.23072 45.6011 7.75984L36.2883 3.27858C35.3446 2.82449 34.2402 2.93572 33.4119 3.53785C33.2936 3.62387 33.1809 3.71991 33.0752 3.82575L15.247 20.0907L7.4814 14.196C6.75853 13.6473 5.74736 13.6923 5.07597 14.303L2.58529 16.5686C1.76405 17.3157 1.7631 18.6077 2.58326 19.3559L9.31782 25.5L2.58326 31.6441C1.7631 32.3923 1.76405 33.6843 2.58529 34.4314L5.07597 36.697C5.74736 37.3077 6.75853 37.3527 7.4814 36.804L15.247 30.9092L33.0752 47.1742C33.3572 47.4564 33.6883 47.669 34.0445 47.8077ZM35.9005 15.2315L22.373 25.5L35.9005 35.7685V15.2315Z" fill="url(#paint0_linear_1007_24311)"/>
</g>
</g>
<defs>
<filter id="filter0_d_1007_24311" x="-6.36459" y="5.47916" width="61.9284" height="50.8532" filterUnits="userSpaceOnUse" color-interpolation-filters="sRGB">
<feFlood flood-opacity="0" result="BackgroundImageFix"/>
<feColorMatrix in="SourceAlpha" type="matrix" values="0 0 0 0 0 0 0 0 0 0 0 0 0 0 0 0 0 0 127 0" result="hardAlpha"/>
<feOffset/>
<feGaussianBlur stdDeviation="4.16667"/>
<feColorMatrix type="matrix" values="0 0 0 0 0 0 0 0 0 0 0 0 0 0 0 0 0 0 0.25 0"/>
<feBlend mode="overlay" in2="BackgroundImageFix" result="effect1_dropShadow_1007_24311"/>
<feBlend mode="normal" in="SourceGraphic" in2="effect1_dropShadow_1007_24311" result="shape"/>
</filter>
<filter id="filter1_d_1007_24311" x="24.7643" y="-5.33334" width="30.8034" height="61.6667" filterUnits="userSpaceOnUse" color-interpolation-filters="sRGB">
<feFlood flood-opacity="0" result="BackgroundImageFix"/>
<feColorMatrix in="SourceAlpha" type="matrix" values="0 0 0 0 0 0 0 0 0 0 0 0 0 0 0 0 0 0 127 0" result="hardAlpha"/>
<feOffset/>
<feGaussianBlur stdDeviation="4.16667"/>
<feColorMatrix type="matrix" values="0 0 0 0 0 0 0 0 0 0 0 0 0 0 0 0 0 0 0.25 0"/>
<feBlend mode="overlay" in2="BackgroundImageFix" result="effect1_dropShadow_1007_24311"/>
<feBlend mode="normal" in="SourceGraphic" in2="effect1_dropShadow_1007_24311" result="shape"/>
</filter>
<linearGradient id="paint0_linear_1007_24311" x1="24.5853" y1="3" x2="24.5853" y2="48" gradientUnits="userSpaceOnUse">
<stop stop-color="white"/>
<stop offset="1" stop-color="white" stop-opacity="0"/>
</linearGradient>
</defs>
</svg>
