<svg width="1186" height="1193" viewBox="0 0 1186 1193" fill="none" xmlns="http://www.w3.org/2000/svg">
<path d="M1017.93 303.132L1155.45 490.187C1194.93 546.673 1197.89 617.354 1153.68 677.389L718.94 1123.51C718.94 1123.51 652.547 1191.97 582.013 1191.97L0 1192.57C0 1192.57 179.661 1183.4 325.164 1029.32L1017.93 302.984V303.132Z" fill="#4D4D4F"/>
<g style="mix-blend-mode:multiply">
<path d="M993.825 841.228L1154.11 676.797C1196.41 620.163 1196.85 548.447 1154.11 488.56L845.956 69.2028C845.956 69.2028 779.71 0.591477 709.029 0.591477L127.016 0C127.016 0 306.677 9.16789 452.18 163.248L993.677 841.228H993.825Z" fill="#00AAE7"/>
</g>
</svg>
