<svg width="601" height="362" viewBox="0 0 601 362" fill="none" xmlns="http://www.w3.org/2000/svg">
<path d="M416.183 266.846C380.923 266.846 359.191 250.307 359.191 224.301C359.191 204.77 373.209 192.746 389.181 182.735C373.426 173.976 363.212 162.714 363.212 144.434C363.212 116.905 386.682 98.625 419.715 98.625C452.965 98.625 472.687 115.654 472.687 139.157C472.687 156.947 460.68 168.699 446.174 177.948C461.929 186.707 476.435 197.969 476.435 219.241C476.435 250.089 448.944 266.846 416.183 266.846ZM415.423 195.031C402.927 202.267 392.441 209.775 392.441 221.798C392.441 233.06 401.46 241.33 418.954 241.33C432.971 241.33 443.457 234.094 443.457 222.288C443.457 208.524 430.69 201.777 415.423 195.031ZM417.433 123.434C402.927 123.434 395.429 131.921 395.429 141.714C395.429 152.486 403.688 158.743 419.443 166.251C431.179 159.504 440.415 152.486 440.415 141.986C440.415 131.159 432.428 123.434 417.433 123.434Z" fill="#005195"/>
<path d="M95.0977 218.753V140.409H135.302V149.223H105.746V174.032H133.889V182.628H105.746V209.776H135.302V218.698H95.0977V218.753Z" fill="black"/>
<path d="M171.862 219.189C163.984 219.189 157.845 218.754 152.031 218.754V140.519C158.062 140.41 166.863 140.084 175.447 140.084C200.494 140.084 215.434 151.781 215.434 178.712C215.434 205.533 197.451 219.189 171.862 219.189ZM174.415 148.789C170.34 148.789 165.614 149.006 162.68 149.115V209.451C165.559 209.94 169.851 210.158 173.003 210.158C191.312 210.158 204.188 200.637 204.188 179.419C204.188 159.452 194.68 148.789 174.415 148.789Z" fill="black"/>
<path d="M286.712 152.703C280.192 150.037 273.021 148.514 265.849 148.514C249.713 148.514 235.968 158.96 235.968 179.851C235.968 199.329 247.323 210.482 264.926 210.482C270.141 210.482 274.542 209.666 278.725 208.414V178.818H289.266V215.269C281.496 218.153 271.989 219.785 263.404 219.785C239.771 219.785 224.559 205.368 224.559 181.157C224.559 157.11 240.532 139.374 266.882 139.374C274.325 139.374 281.388 140.517 288.342 142.747L286.712 152.703Z" fill="black"/>
<path d="M307.316 218.753V140.409H347.521V149.223H317.965V174.032H346.108V182.628H317.965V209.776H347.521V218.698H307.316V218.753Z" fill="black"/>
<path d="M478.233 98.6254V112.172H474.104V98.6254H469.703V95.3066H482.634V98.6254H478.233ZM501.595 112.172L500.291 103.359L499.856 100.149L499.15 102.978L496.433 112.172H492.304L489.696 102.76L489.045 100.149L488.882 102.379L487.415 112.172H483.612L486.219 95.361H491.381L494.097 104.556L494.695 107.33L495.238 104.828L498.063 95.361H503.225L505.724 112.172H501.595Z" fill="#005195"/>
</svg>
