<svg width="340" height="206" viewBox="0 0 340 206" fill="none" xmlns="http://www.w3.org/2000/svg">
<path d="M235.396 152.298C215.435 152.298 203.133 143.101 203.133 128.641C203.133 117.781 211.068 111.095 220.11 105.529C211.191 100.658 205.409 94.3961 205.409 84.2316C205.409 68.9243 218.695 58.7598 237.395 58.7598C256.218 58.7598 267.383 68.2285 267.383 81.2972C267.383 91.1895 260.586 97.7238 252.374 102.867C261.293 107.737 269.505 113.999 269.505 125.828C269.505 142.98 253.942 152.298 235.396 152.298ZM234.966 112.366C227.892 116.389 221.956 120.564 221.956 127.249C221.956 133.511 227.061 138.11 236.965 138.11C244.9 138.11 250.836 134.086 250.836 127.522C250.836 119.868 243.608 116.117 234.966 112.366ZM236.104 72.5545C227.892 72.5545 223.647 77.2737 223.647 82.719C223.647 88.7088 228.322 92.1878 237.242 96.3625C243.885 92.6113 249.113 88.7088 249.113 82.8703C249.113 76.8502 244.592 72.5545 236.104 72.5545Z" fill="white"/>
<path d="M53.6289 125.553V81.9902H76.3886V86.891H59.6571V100.686H75.5889V105.465H59.6571V120.561H76.3886V125.522H53.6289V125.553Z" fill="white"/>
<path d="M97.0893 125.796C92.6297 125.796 89.1542 125.554 85.8633 125.554V82.0526C89.2772 81.9921 94.2597 81.8105 99.1192 81.8105C113.298 81.8105 121.756 88.3146 121.756 103.289C121.756 118.203 111.576 125.796 97.0893 125.796ZM98.5349 86.6508C96.2281 86.6508 93.5523 86.7718 91.8915 86.8323V120.381C93.5216 120.654 95.9513 120.775 97.7352 120.775C108.1 120.775 115.389 115.481 115.389 103.682C115.389 92.5801 110.007 86.6508 98.5349 86.6508Z" fill="white"/>
<path d="M162.103 88.8296C158.412 87.3473 154.353 86.5002 150.293 86.5002C141.158 86.5002 133.377 92.3085 133.377 103.925C133.377 114.755 139.805 120.957 149.77 120.957C152.722 120.957 155.214 120.503 157.582 119.807V103.35H163.549V123.619C159.151 125.222 153.768 126.13 148.909 126.13C135.53 126.13 126.918 118.113 126.918 104.651C126.918 91.28 135.96 81.418 150.877 81.418C155.091 81.418 159.089 82.0533 163.026 83.2936L162.103 88.8296Z" fill="white"/>
<path d="M173.758 125.553V81.9902H196.517V86.891H179.786V100.686H195.718V105.465H179.786V120.561H196.517V125.522H173.758V125.553Z" fill="white"/>
<path d="M270.52 58.7575V66.2901H268.183V58.7575H265.691V56.9121H273.011V58.7575H270.52ZM283.745 66.2901L283.007 61.3893L282.761 59.6045L282.361 61.1776L280.823 66.2901H278.486L277.01 61.0566L276.641 59.6045L276.548 60.8448L275.718 66.2901H273.565L275.041 56.9424H277.963L279.501 62.0549L279.839 63.5977L280.147 62.2061L281.746 56.9424H284.668L286.083 66.2901H283.745Z" fill="white"/>
</svg>
