<svg width="298" height="206" viewBox="0 0 298 206" fill="none" xmlns="http://www.w3.org/2000/svg">
<path d="M213.942 151.895C193.982 151.895 181.68 142.72 181.68 128.294C181.68 117.46 189.615 110.79 198.657 105.237C189.738 100.378 183.956 94.1314 183.956 83.9911C183.956 68.7203 197.242 58.5801 215.942 58.5801C234.764 58.5801 245.928 68.0262 245.928 81.0637C245.928 90.9324 239.131 97.4511 230.92 102.582C239.839 107.44 248.051 113.688 248.051 125.488C248.051 142.599 232.488 151.895 213.942 151.895ZM213.512 112.058C206.438 116.072 200.502 120.237 200.502 126.906C200.502 133.153 205.608 137.741 215.511 137.741C223.446 137.741 229.382 133.727 229.382 127.178C229.382 119.542 222.154 115.8 213.512 112.058ZM214.65 72.3419C206.438 72.3419 202.194 77.0498 202.194 82.4821C202.194 88.4576 206.869 91.9283 215.788 96.093C222.431 92.3508 227.659 88.4576 227.659 82.633C227.659 76.6273 223.138 72.3419 214.65 72.3419Z" fill="black"/>
<path d="M32.1797 125.213V81.7539H54.9393V86.643H38.2079V100.405H54.1396V105.173H38.2079V120.233H54.9393V125.183H32.1797V125.213Z" fill="black"/>
<path d="M75.6362 125.456C71.1765 125.456 67.7011 125.214 64.4102 125.214V81.8157C67.8241 81.7553 72.8066 81.5742 77.6661 81.5742C91.8447 81.5742 100.303 88.0629 100.303 103.002C100.303 117.881 90.1224 125.456 75.6362 125.456ZM77.0817 86.403C74.775 86.403 72.0992 86.5237 70.4384 86.5841V120.054C72.0685 120.325 74.4982 120.446 76.2821 120.446C86.6469 120.446 93.9361 115.164 93.9361 103.394C93.9361 92.3183 88.5538 86.403 77.0817 86.403Z" fill="black"/>
<path d="M140.658 88.5757C136.967 87.0969 132.907 86.2519 128.847 86.2519C119.713 86.2519 111.931 92.0464 111.931 103.635C111.931 114.44 118.36 120.627 128.325 120.627C131.277 120.627 133.768 120.174 136.137 119.48V103.062H142.103V123.283C137.705 124.882 132.323 125.787 127.463 125.787C114.084 125.787 105.473 117.79 105.473 104.36C105.473 91.0203 114.515 81.1816 129.432 81.1816C133.645 81.1816 137.644 81.8154 141.58 83.0528L140.658 88.5757Z" fill="black"/>
<path d="M152.309 125.213V81.7539H175.068V86.643H158.337V100.405H174.269V105.173H158.337V120.233H175.068V125.183H152.309V125.213Z" fill="black"/>
<path d="M249.067 58.5773V66.0921H246.73V58.5773H244.238V56.7363H251.558V58.5773H249.067ZM262.292 66.0921L261.554 61.2029L261.308 59.4223L260.908 60.9917L259.37 66.0921H257.033L255.557 60.871L255.187 59.4223L255.095 60.6597L254.265 66.0921H252.112L253.588 56.7665H256.51L258.048 61.8669L258.386 63.4061L258.694 62.0178L260.293 56.7665H263.215L264.63 66.0921H262.292Z" fill="black"/>
</svg>
