<svg width="340" height="206" viewBox="0 0 340 206" fill="none" xmlns="http://www.w3.org/2000/svg">
<g clip-path="url(#clip0_1002_22121)">
<g opacity="0.2">
<line x1="3.96317e-08" y1="196" x2="340" y2="196" stroke="#9AA095" stroke-width="1.60222"/>
<line x1="3.96317e-08" y1="152.266" x2="340" y2="152.266" stroke="#9AA095" stroke-width="1.60222"/>
<line x1="3.96317e-08" y1="103.066" x2="340" y2="103.066" stroke="#9AA095" stroke-width="1.60222"/>
<line x1="3.96317e-08" y1="53.8649" x2="340" y2="53.865" stroke="#9AA095" stroke-width="1.60222"/>
<line x1="3.96317e-08" y1="9.22135" x2="340" y2="9.2214" stroke="#9AA095" stroke-width="1.60222"/>
<line x1="54.2933" y1="0.912109" x2="54.2933" y2="205.912" stroke="#9AA095" stroke-width="1.60222"/>
<line x1="9.86752" y1="0.912109" x2="9.8675" y2="205.912" stroke="#9AA095" stroke-width="1.60222"/>
<line x1="100.535" y1="0.912109" x2="100.535" y2="205.912" stroke="#9AA095" stroke-width="1.60222"/>
<line x1="146.774" y1="0.912109" x2="146.774" y2="205.912" stroke="#9AA095" stroke-width="1.60222"/>
<line x1="193.012" y1="0.912109" x2="193.012" y2="205.912" stroke="#9AA095" stroke-width="1.60222"/>
<line x1="239.254" y1="0.912109" x2="239.254" y2="205.912" stroke="#9AA095" stroke-width="1.60222"/>
<line x1="287.309" y1="0.912109" x2="287.309" y2="205.912" stroke="#9AA095" stroke-width="1.60222"/>
<line x1="331.735" y1="0.912109" x2="331.735" y2="205.912" stroke="#9AA095" stroke-width="1.60222"/>
</g>
<g opacity="0.25">
<path d="M263.84 54.5728V10.0225L286.591 10.0225V15.0344L269.866 15.0344V29.142L285.791 29.142V34.0302H269.866V49.4681L286.591 49.4681V54.5419L263.84 54.5419V54.5728Z" fill="#9AA095"/>
<path d="M53.4922 196.707L53.4922 152.156H76.2429V157.168H59.5181V171.276H75.4436V176.164H59.5181L59.5181 191.602H76.2429V196.676H53.4922V196.707Z" fill="#9AA095"/>
<path d="M330.841 153.15L286.508 153.15L286.508 130.288L291.495 130.288L291.495 147.095L305.534 147.095L305.534 131.091L310.398 131.091L310.398 147.095L325.761 147.095L325.761 130.288L330.81 130.288L330.81 153.15L330.841 153.15Z" fill="#9AA095"/>
<path d="M53.3995 103.95L9.06641 103.95L9.06641 81.0879L14.0539 81.0879L14.0539 97.8948L28.0927 97.8948L28.0927 81.8912L32.957 81.8912L32.957 97.8948L48.3196 97.8948L48.3196 81.0879L53.3687 81.0879L53.3687 103.95L53.3995 103.95Z" fill="#9AA095"/>
</g>
<path d="M235.509 151.457C215.556 151.457 203.258 142.052 203.258 127.264C203.258 116.157 211.19 109.32 220.229 103.628C211.313 98.6467 205.533 92.2425 205.533 81.8475C205.533 66.1929 218.814 55.7979 237.507 55.7979C256.322 55.7979 267.483 65.4814 267.483 78.8465C267.483 88.9631 260.688 95.6457 252.479 100.905C261.395 105.886 269.604 112.29 269.604 124.387C269.604 141.929 254.047 151.457 235.509 151.457ZM235.078 110.62C228.007 114.734 222.073 119.004 222.073 125.841C222.073 132.245 227.177 136.948 237.076 136.948C245.008 136.948 250.942 132.833 250.942 126.119C250.942 118.292 243.717 114.456 235.078 110.62ZM236.216 69.9055C228.007 69.9055 223.764 74.7318 223.764 80.3006C223.764 86.4262 228.437 89.9841 237.353 94.2535C243.994 90.4172 249.22 86.4262 249.22 80.4552C249.22 74.2986 244.701 69.9055 236.216 69.9055Z" fill="#005195"/>
<path d="M53.8125 124.11V79.5596H76.5632V84.5715H59.8384V98.6791H75.7639V103.567H59.8384V119.005H76.5632V124.079H53.8125V124.11Z" fill="black"/>
<path d="M97.2529 124.358C92.795 124.358 89.3209 124.11 86.0312 124.11V79.6215C89.4439 79.5596 94.4244 79.374 99.282 79.374C113.455 79.374 121.91 86.0256 121.91 101.34C121.91 116.592 111.733 124.358 97.2529 124.358ZM98.6979 84.3241C96.3921 84.3241 93.7173 84.4478 92.0571 84.5097V118.82C93.6866 119.098 96.1154 119.222 97.8985 119.222C108.259 119.222 115.546 113.808 115.546 101.742C115.546 90.3879 110.165 84.3241 98.6979 84.3241Z" fill="black"/>
<path d="M162.242 86.5505C158.552 85.0345 154.494 84.1682 150.436 84.1682C141.305 84.1682 133.527 90.1083 133.527 101.988C133.527 113.064 139.952 119.406 149.913 119.406C152.865 119.406 155.355 118.942 157.722 118.231V101.401H163.687V122.129C159.29 123.769 153.91 124.697 149.052 124.697C135.679 124.697 127.07 116.498 127.07 102.731C127.07 89.0564 136.109 78.9707 151.02 78.9707C155.232 78.9707 159.229 79.6204 163.164 80.8888L162.242 86.5505Z" fill="black"/>
<path d="M173.902 124.11V79.5596H196.653V84.5715H179.928V98.6791H195.854V103.567H179.928V119.005H196.653V124.079H173.902V124.11Z" fill="black"/>
<path d="M270.624 55.7983V63.5018H268.287V55.7983H265.797V53.9111H273.114V55.7983H270.624ZM283.844 63.5018L283.106 58.4899L282.86 56.6646L282.46 58.2734L280.923 63.5018H278.586L277.111 58.1496L276.742 56.6646L276.65 57.933L275.819 63.5018H273.667L275.143 53.9421H278.064L279.601 59.1706L279.939 60.7484L280.247 59.3252L281.845 53.9421H284.766L286.18 63.5018H283.844Z" fill="#005195"/>
</g>
<defs>
<clipPath id="clip0_1002_22121">
<rect width="340" height="205" fill="white" transform="translate(0 0.912109)"/>
</clipPath>
</defs>
</svg>
