<svg width="502" height="137" viewBox="0 0 502 137" fill="none" xmlns="http://www.w3.org/2000/svg">
<path d="M0.452504 9.52816V0.772726H41.7036V9.52816H26.3264V51H15.8297V9.52816H0.452504ZM54.7641 29.2218V51H44.3165V0.772726H54.4698V19.9758H54.9113C55.7615 17.7522 57.1349 16.0109 59.0315 14.752C60.9281 13.4767 63.307 12.839 66.1683 12.839C68.7843 12.839 71.0651 13.4113 73.0108 14.5558C74.9728 15.6839 76.4933 17.3108 77.5724 19.4363C78.6679 21.5454 79.2074 24.0715 79.1911 27.0145V51H68.7434V28.8784C68.7598 26.5567 68.1712 24.75 66.9776 23.4584C65.8004 22.1667 64.1491 21.5209 62.0235 21.5209C60.6011 21.5209 59.3421 21.8234 58.2467 22.4283C57.1676 23.0333 56.3174 23.9162 55.6961 25.077C55.0911 26.2215 54.7805 27.6031 54.7641 29.2218ZM100.596 51.7358C96.7213 51.7358 93.3859 50.9509 90.59 49.3813C87.8105 47.7954 85.6687 45.5554 84.1645 42.6615C82.6603 39.7512 81.9082 36.3095 81.9082 32.3364C81.9082 28.4615 82.6603 25.0607 84.1645 22.134C85.6687 19.2074 87.786 16.9265 90.5165 15.2915C93.2633 13.6565 96.4842 12.839 100.179 12.839C102.665 12.839 104.978 13.2396 107.12 14.0408C109.278 14.8256 111.158 16.0109 112.761 17.5969C114.379 19.1829 115.638 21.1776 116.538 23.581C117.437 25.9681 117.886 28.764 117.886 31.9686V34.838H86.0774V28.3634H108.052C108.052 26.8592 107.725 25.5267 107.071 24.3658C106.417 23.205 105.509 22.2975 104.349 21.6435C103.204 20.9732 101.872 20.638 100.351 20.638C98.765 20.638 97.3589 21.0059 96.1327 21.7416C94.9228 22.461 93.9745 23.4339 93.2878 24.6601C92.6011 25.87 92.2496 27.2189 92.2332 28.7067V34.8625C92.2332 36.7264 92.5766 38.3369 93.2633 39.694C93.9663 41.051 94.9555 42.0974 96.2308 42.8332C97.5061 43.5689 99.0185 43.9368 100.768 43.9368C101.929 43.9368 102.992 43.7733 103.956 43.4463C104.921 43.1193 105.746 42.6288 106.433 41.9748C107.12 41.3208 107.643 40.5196 108.003 39.5713L117.666 40.209C117.175 42.5307 116.17 44.5581 114.649 46.2912C113.145 48.0079 111.199 49.3486 108.812 50.3133C106.441 51.2616 103.703 51.7358 100.596 51.7358ZM144.222 51L129.85 0.772726H141.451L149.765 35.6719H150.182L159.354 0.772726H169.287L178.434 35.7454H178.876L187.19 0.772726H198.79L184.419 51H174.069L164.504 18.161H164.112L154.572 51H144.222ZM213.267 51.7358C209.458 51.7358 206.163 50.9264 203.383 49.3078C200.62 47.6728 198.487 45.4001 196.982 42.4898C195.478 39.5632 194.726 36.1705 194.726 32.3119C194.726 28.4206 195.478 25.0198 196.982 22.1095C198.487 19.1829 200.62 16.9102 203.383 15.2915C206.163 13.6565 209.458 12.839 213.267 12.839C217.077 12.839 220.363 13.6565 223.126 15.2915C225.906 16.9102 228.048 19.1829 229.552 22.1095C231.056 25.0198 231.808 28.4206 231.808 32.3119C231.808 36.1705 231.056 39.5632 229.552 42.4898C228.048 45.4001 225.906 47.6728 223.126 49.3078C220.363 50.9264 217.077 51.7358 213.267 51.7358ZM213.316 43.6425C215.049 43.6425 216.496 43.152 217.657 42.171C218.818 41.1736 219.693 39.8166 220.281 38.0998C220.886 36.3831 221.189 34.4293 221.189 32.2383C221.189 30.0474 220.886 28.0936 220.281 26.3769C219.693 24.6601 218.818 23.3031 217.657 22.3057C216.496 21.3084 215.049 20.8097 213.316 20.8097C211.567 20.8097 210.095 21.3084 208.902 22.3057C207.724 23.3031 206.833 24.6601 206.228 26.3769C205.64 28.0936 205.345 30.0474 205.345 32.2383C205.345 34.4293 205.64 36.3831 206.228 38.0998C206.833 39.8166 207.724 41.1736 208.902 42.171C210.095 43.152 211.567 43.6425 213.316 43.6425ZM234.617 51V13.3295H244.746V19.9023H245.138C245.825 17.5642 246.978 15.7984 248.596 14.6048C250.215 13.3949 252.079 12.79 254.188 12.79C254.711 12.79 255.275 12.8227 255.88 12.8881C256.485 12.9535 257.017 13.0434 257.474 13.1579V22.4283C256.984 22.2812 256.305 22.1504 255.439 22.0359C254.572 21.9215 253.779 21.8643 253.06 21.8643C251.523 21.8643 250.15 22.1994 248.94 22.8698C247.746 23.5238 246.798 24.4394 246.095 25.6166C245.408 26.7938 245.065 28.1508 245.065 29.6877V51H234.617ZM269.339 0.772726V51H258.892V0.772726H269.339ZM287.605 51.6131C284.744 51.6131 282.153 50.8774 279.831 49.4059C277.526 47.918 275.694 45.7353 274.337 42.8577C272.997 39.9637 272.326 36.4158 272.326 32.2138C272.326 27.8974 273.021 24.3086 274.411 21.4473C275.801 18.5697 277.648 16.4197 279.953 14.9972C282.275 13.5584 284.818 12.839 287.581 12.839C289.69 12.839 291.448 13.1987 292.854 13.9181C294.276 14.6212 295.421 15.5041 296.287 16.5668C297.17 17.6133 297.84 18.6433 298.298 19.657H298.617V0.772726H309.04V51H298.74V44.9668H298.298C297.808 46.0132 297.113 47.0515 296.214 48.0815C295.331 49.0952 294.178 49.9372 292.756 50.6076C291.349 51.278 289.633 51.6131 287.605 51.6131ZM290.916 43.2991C292.6 43.2991 294.023 42.8413 295.184 41.9257C296.361 40.9938 297.26 39.694 297.881 38.0263C298.519 36.3586 298.838 34.4047 298.838 32.1648C298.838 29.9248 298.527 27.9792 297.906 26.3278C297.285 24.6765 296.385 23.4012 295.208 22.5019C294.031 21.6027 292.6 21.153 290.916 21.153C289.199 21.153 287.752 21.619 286.575 22.551C285.398 23.4829 284.507 24.7746 283.902 26.4259C283.297 28.0773 282.995 29.9902 282.995 32.1648C282.995 34.3557 283.297 36.2932 283.902 37.9772C284.523 39.6449 285.414 40.9529 286.575 41.9012C287.752 42.8332 289.199 43.2991 290.916 43.2991ZM322.401 0.772726V6.07013C322.401 7.57434 322.107 9.11124 321.518 10.6808C320.946 12.2341 320.178 13.7056 319.213 15.0953C318.248 16.4687 317.194 17.6378 316.049 18.6024L311.438 15.8801C312.256 14.5885 312.975 13.1579 313.597 11.5883C314.234 10.0187 314.553 8.19564 314.553 6.11918V0.772726H322.401ZM351.998 24.0715L342.433 24.6601C342.269 23.8426 341.918 23.1069 341.378 22.4529C340.839 21.7825 340.128 21.2511 339.245 20.8587C338.378 20.45 337.34 20.2456 336.13 20.2456C334.511 20.2456 333.146 20.589 332.034 21.2757C330.922 21.946 330.367 22.8453 330.367 23.9734C330.367 24.8727 330.726 25.6329 331.446 26.2542C332.165 26.8755 333.4 27.3742 335.149 27.7503L341.967 29.1237C345.629 29.8758 348.36 31.0857 350.158 32.7534C351.957 34.4211 352.856 36.612 352.856 39.3261C352.856 41.7949 352.128 43.9613 350.673 45.8252C349.235 47.6891 347.256 49.1443 344.738 50.1907C342.237 51.2207 339.351 51.7358 336.081 51.7358C331.094 51.7358 327.121 50.6975 324.162 48.6211C321.219 46.5283 319.494 43.6834 318.987 40.0864L329.263 39.5468C329.574 41.0674 330.326 42.2282 331.519 43.0294C332.713 43.8142 334.242 44.2066 336.105 44.2066C337.937 44.2066 339.408 43.855 340.52 43.152C341.648 42.4326 342.22 41.5088 342.237 40.3807C342.22 39.4324 341.82 38.6557 341.035 38.0508C340.25 37.4295 339.04 36.9553 337.405 36.6283L330.882 35.3285C327.203 34.5928 324.464 33.3174 322.666 31.5026C320.884 29.6877 319.992 27.3742 319.992 24.562C319.992 22.1422 320.646 20.0576 321.954 18.3081C323.279 16.5587 325.135 15.2098 327.522 14.2615C329.925 13.3132 332.737 12.839 335.958 12.839C340.716 12.839 344.46 13.8446 347.191 15.8556C349.938 17.8667 351.54 20.6053 351.998 24.0715ZM367.647 51V0.772726H387.757C391.452 0.772726 394.534 1.32045 397.003 2.4159C399.472 3.51136 401.328 5.03191 402.57 6.97756C403.813 8.90686 404.434 11.1305 404.434 13.6484C404.434 15.6104 404.042 17.3353 403.257 18.8232C402.472 20.2947 401.393 21.5046 400.02 22.4529C398.663 23.3848 397.109 24.047 395.36 24.4394V24.9299C397.273 25.0116 399.063 25.5512 400.731 26.5485C402.415 27.5459 403.78 28.9438 404.826 30.7423C405.873 32.5245 406.396 34.65 406.396 37.1188C406.396 39.7839 405.734 42.1628 404.41 44.2556C403.102 46.3321 401.164 47.9752 398.597 49.1851C396.03 50.395 392.866 51 389.106 51H367.647ZM378.266 42.3181H386.923C389.883 42.3181 392.041 41.7541 393.398 40.6259C394.755 39.4814 395.433 37.9609 395.433 36.0643C395.433 34.6745 395.098 33.4482 394.428 32.3855C393.758 31.3227 392.801 30.4889 391.558 29.8839C390.332 29.279 388.869 28.9765 387.168 28.9765H378.266V42.3181ZM378.266 21.7907H386.138C387.594 21.7907 388.885 21.5373 390.013 21.0304C391.158 20.5072 392.057 19.7715 392.711 18.8232C393.381 17.8749 393.717 16.7385 393.717 15.4142C393.717 13.5993 393.071 12.136 391.779 11.0242C390.504 9.91239 388.689 9.35649 386.335 9.35649H378.266V21.7907ZM426.293 51.7358C422.418 51.7358 419.083 50.9509 416.287 49.3813C413.507 47.7954 411.365 45.5554 409.861 42.6615C408.357 39.7512 407.605 36.3095 407.605 32.3364C407.605 28.4615 408.357 25.0607 409.861 22.134C411.365 19.2074 413.483 16.9265 416.213 15.2915C418.96 13.6565 422.181 12.839 425.876 12.839C428.361 12.839 430.675 13.2396 432.817 14.0408C434.975 14.8256 436.855 16.0109 438.457 17.5969C440.076 19.1829 441.335 21.1776 442.234 23.581C443.133 25.9681 443.583 28.764 443.583 31.9686V34.838H411.774V28.3634H433.749C433.749 26.8592 433.422 25.5267 432.768 24.3658C432.114 23.205 431.206 22.2975 430.045 21.6435C428.901 20.9732 427.568 20.638 426.048 20.638C424.462 20.638 423.056 21.0059 421.829 21.7416C420.619 22.461 419.671 23.4339 418.984 24.6601C418.298 25.87 417.946 27.2189 417.93 28.7067V34.8625C417.93 36.7264 418.273 38.3369 418.96 39.694C419.663 41.051 420.652 42.0974 421.928 42.8332C423.203 43.5689 424.715 43.9368 426.465 43.9368C427.625 43.9368 428.688 43.7733 429.653 43.4463C430.618 43.1193 431.443 42.6288 432.13 41.9748C432.817 41.3208 433.34 40.5196 433.7 39.5713L443.362 40.209C442.872 42.5307 441.866 44.5581 440.346 46.2912C438.842 48.0079 436.896 49.3486 434.509 50.3133C432.138 51.2616 429.399 51.7358 426.293 51.7358ZM477.76 24.0715L468.195 24.6601C468.031 23.8426 467.68 23.1069 467.14 22.4529C466.601 21.7825 465.89 21.2511 465.007 20.8587C464.14 20.45 463.102 20.2456 461.892 20.2456C460.273 20.2456 458.908 20.589 457.796 21.2757C456.685 21.946 456.129 22.8453 456.129 23.9734C456.129 24.8727 456.488 25.6329 457.208 26.2542C457.927 26.8755 459.162 27.3742 460.911 27.7503L467.729 29.1237C471.391 29.8758 474.122 31.0857 475.92 32.7534C477.719 34.4211 478.618 36.612 478.618 39.3261C478.618 41.7949 477.89 43.9613 476.435 45.8252C474.997 47.6891 473.018 49.1443 470.5 50.1907C467.999 51.2207 465.113 51.7358 461.843 51.7358C456.856 51.7358 452.883 50.6975 449.924 48.6211C446.981 46.5283 445.256 43.6834 444.749 40.0864L455.025 39.5468C455.336 41.0674 456.088 42.2282 457.281 43.0294C458.475 43.8142 460.004 44.2066 461.867 44.2066C463.699 44.2066 465.17 43.855 466.282 43.152C467.41 42.4326 467.982 41.5088 467.999 40.3807C467.982 39.4324 467.582 38.6557 466.797 38.0508C466.012 37.4295 464.802 36.9553 463.167 36.6283L456.644 35.3285C452.965 34.5928 450.226 33.3174 448.428 31.5026C446.646 29.6877 445.755 27.3742 445.755 24.562C445.755 22.1422 446.409 20.0576 447.717 18.3081C449.041 16.5587 450.897 15.2098 453.284 14.2615C455.687 13.3132 458.499 12.839 461.72 12.839C466.478 12.839 470.222 13.8446 472.953 15.8556C475.7 17.8667 477.302 20.6053 477.76 24.0715ZM501.249 13.3295V21.1776H478.564V13.3295H501.249ZM483.714 4.30433H494.162V39.4242C494.162 40.3888 494.309 41.1409 494.603 41.6805C494.897 42.2037 495.306 42.5716 495.829 42.7841C496.369 42.9967 496.99 43.1029 497.693 43.1029C498.184 43.1029 498.674 43.0621 499.165 42.9803C499.655 42.8822 500.031 42.8086 500.293 42.7596L501.936 50.534C501.413 50.6975 500.677 50.8855 499.729 51.0981C498.781 51.327 497.628 51.466 496.271 51.515C493.753 51.6131 491.546 51.278 489.649 50.5095C487.769 49.741 486.306 48.5475 485.259 46.9288C484.213 45.3102 483.698 43.2664 483.714 40.7976V4.30433ZM29.6128 100.218C29.4166 98.2396 28.5745 96.7027 27.0867 95.6073C25.5988 94.5118 23.5796 93.9641 21.029 93.9641C19.2959 93.9641 17.8326 94.2093 16.639 94.6998C15.4455 95.174 14.5299 95.8362 13.8922 96.6864C13.2709 97.5366 12.9603 98.5012 12.9603 99.5803C12.9276 100.48 13.1156 101.264 13.5243 101.935C13.9494 102.605 14.5299 103.186 15.2656 103.676C16.0014 104.15 16.8516 104.567 17.8162 104.927C18.7809 105.27 19.8109 105.564 20.9064 105.81L25.419 106.889C27.6099 107.379 29.6209 108.033 31.4521 108.851C33.2834 109.668 34.8693 110.674 36.21 111.867C37.5507 113.061 38.5889 114.467 39.3247 116.086C40.0768 117.704 40.461 119.56 40.4774 121.653C40.461 124.727 39.6762 127.392 38.123 129.648C36.5861 131.888 34.3625 133.629 31.4521 134.872C28.5582 136.098 25.0675 136.711 20.98 136.711C16.9252 136.711 13.3935 136.09 10.3851 134.847C7.39309 133.605 5.05504 131.765 3.37098 129.329C1.70328 126.877 0.828554 123.844 0.746804 120.23H11.0228C11.1372 121.914 11.6196 123.321 12.4698 124.449C13.3363 125.561 14.489 126.403 15.9278 126.975C17.383 127.531 19.0261 127.809 20.8573 127.809C22.6558 127.809 24.2173 127.547 25.5416 127.024C26.8823 126.501 27.9205 125.773 28.6563 124.841C29.392 123.909 29.7599 122.838 29.7599 121.628C29.7599 120.5 29.4247 119.552 28.7544 118.783C28.1004 118.015 27.1357 117.361 25.8604 116.821C24.6015 116.282 23.0564 115.791 21.2252 115.35L15.7561 113.977C11.5215 112.946 8.17789 111.336 5.72539 109.145C3.27288 106.954 2.05481 104.003 2.07116 100.292C2.05481 97.2504 2.86413 94.5936 4.49913 92.3209C6.15049 90.0483 8.41497 88.2743 11.2926 86.999C14.1702 85.7237 17.4402 85.086 21.1026 85.086C24.8304 85.086 28.084 85.7237 30.8635 86.999C33.6594 88.2743 35.834 90.0483 37.3872 92.3209C38.9405 94.5936 39.7416 97.2259 39.7907 100.218H29.6128ZM54.1817 136.711C51.7782 136.711 49.6364 136.294 47.7561 135.46C45.8759 134.61 44.388 133.359 43.2926 131.708C42.2135 130.04 41.6739 127.964 41.6739 125.479C41.6739 123.386 42.0581 121.628 42.8266 120.206C43.595 118.783 44.6414 117.639 45.9658 116.772C47.2901 115.906 48.7943 115.252 50.4784 114.81C52.1788 114.369 53.9609 114.058 55.8248 113.878C58.0157 113.65 59.7816 113.437 61.1223 113.241C62.463 113.028 63.4358 112.718 64.0407 112.309C64.6457 111.9 64.9482 111.295 64.9482 110.494V110.347C64.9482 108.794 64.4577 107.592 63.4767 106.742C62.512 105.891 61.1386 105.466 59.3565 105.466C57.4762 105.466 55.9802 105.883 54.8684 106.717C53.7566 107.535 53.0208 108.565 52.6611 109.807L42.9983 109.022C43.4888 106.733 44.4534 104.755 45.8922 103.087C47.331 101.403 49.1867 100.112 51.4594 99.2124C53.7484 98.2968 56.3971 97.839 59.4055 97.839C61.4983 97.839 63.5012 98.0843 65.4141 98.5748C67.3434 99.0653 69.052 99.8256 70.5399 100.856C72.0441 101.886 73.2294 103.21 74.096 104.829C74.9625 106.431 75.3958 108.352 75.3958 110.592V136H65.4877V130.776H65.1934C64.5885 131.953 63.7791 132.992 62.7654 133.891C61.7517 134.774 60.5337 135.469 59.1112 135.975C57.6887 136.466 56.0456 136.711 54.1817 136.711ZM57.1737 129.501C58.7106 129.501 60.0677 129.198 61.2449 128.593C62.4221 127.972 63.3459 127.138 64.0162 126.092C64.6866 125.045 65.0217 123.86 65.0217 122.536V118.538C64.6947 118.751 64.2451 118.947 63.6729 119.127C63.117 119.29 62.4875 119.446 61.7844 119.593C61.0814 119.724 60.3783 119.846 59.6753 119.961C58.9722 120.059 58.3346 120.149 57.7623 120.23C56.5361 120.41 55.4651 120.696 54.5495 121.089C53.6339 121.481 52.9227 122.013 52.4159 122.683C51.909 123.337 51.6556 124.154 51.6556 125.135C51.6556 126.558 52.1706 127.645 53.2007 128.397C54.2471 129.133 55.5714 129.501 57.1737 129.501ZM89.9646 85.7727V136H79.517V85.7727H89.9646ZM111.517 136.736C107.642 136.736 104.307 135.951 101.511 134.381C98.7312 132.795 96.5894 130.555 95.0852 127.661C93.581 124.751 92.8289 121.31 92.8289 117.336C92.8289 113.461 93.581 110.061 95.0852 107.134C96.5894 104.207 98.7067 101.927 101.437 100.292C104.184 98.6565 107.405 97.839 111.1 97.839C113.585 97.839 115.899 98.2396 118.041 99.0408C120.199 99.8256 122.079 101.011 123.681 102.597C125.3 104.183 126.559 106.178 127.458 108.581C128.357 110.968 128.807 113.764 128.807 116.969V119.838H96.9981V113.363H118.973C118.973 111.859 118.646 110.527 117.992 109.366C117.338 108.205 116.43 107.298 115.269 106.644C114.125 105.973 112.792 105.638 111.272 105.638C109.686 105.638 108.28 106.006 107.053 106.742C105.843 107.461 104.895 108.434 104.208 109.66C103.522 110.87 103.17 112.219 103.154 113.707V119.863C103.154 121.726 103.497 123.337 104.184 124.694C104.887 126.051 105.876 127.097 107.152 127.833C108.427 128.569 109.939 128.937 111.689 128.937C112.849 128.937 113.912 128.773 114.877 128.446C115.842 128.119 116.667 127.629 117.354 126.975C118.041 126.321 118.564 125.52 118.924 124.571L128.586 125.209C128.096 127.531 127.09 129.558 125.57 131.291C124.066 133.008 122.12 134.349 119.733 135.313C117.362 136.262 114.623 136.736 111.517 136.736ZM162.984 109.072L153.419 109.66C153.255 108.843 152.904 108.107 152.364 107.453C151.825 106.783 151.114 106.251 150.231 105.859C149.364 105.45 148.326 105.246 147.116 105.246C145.497 105.246 144.132 105.589 143.02 106.276C141.909 106.946 141.353 107.845 141.353 108.973C141.353 109.873 141.712 110.633 142.432 111.254C143.151 111.876 144.386 112.374 146.135 112.75L152.953 114.124C156.615 114.876 159.346 116.086 161.144 117.753C162.943 119.421 163.842 121.612 163.842 124.326C163.842 126.795 163.114 128.961 161.659 130.825C160.221 132.689 158.242 134.144 155.724 135.191C153.223 136.221 150.337 136.736 147.067 136.736C142.08 136.736 138.107 135.698 135.148 133.621C132.205 131.528 130.48 128.683 129.973 125.086L140.249 124.547C140.56 126.067 141.312 127.228 142.505 128.029C143.699 128.814 145.228 129.207 147.091 129.207C148.923 129.207 150.394 128.855 151.506 128.152C152.634 127.433 153.206 126.509 153.223 125.381C153.206 124.432 152.806 123.656 152.021 123.051C151.236 122.429 150.026 121.955 148.391 121.628L141.868 120.329C138.189 119.593 135.45 118.317 133.652 116.503C131.87 114.688 130.979 112.374 130.979 109.562C130.979 107.142 131.633 105.058 132.941 103.308C134.265 101.559 136.121 100.21 138.508 99.2615C140.911 98.3132 143.723 97.839 146.944 97.839C151.702 97.839 155.446 98.8446 158.177 100.856C160.924 102.867 162.526 105.605 162.984 109.072ZM178.633 136V85.7727H189.252V127.245H210.785V136H178.633ZM230.804 136.736C226.929 136.736 223.594 135.951 220.798 134.381C218.019 132.795 215.877 130.555 214.373 127.661C212.868 124.751 212.116 121.31 212.116 117.336C212.116 113.461 212.868 110.061 214.373 107.134C215.877 104.207 217.994 101.927 220.725 100.292C223.471 98.6565 226.692 97.839 230.387 97.839C232.873 97.839 235.186 98.2396 237.328 99.0408C239.486 99.8256 241.366 101.011 242.969 102.597C244.587 104.183 245.846 106.178 246.746 108.581C247.645 110.968 248.095 113.764 248.095 116.969V119.838H216.286V113.363H238.26C238.26 111.859 237.933 110.527 237.279 109.366C236.625 108.205 235.718 107.298 234.557 106.644C233.412 105.973 232.08 105.638 230.559 105.638C228.973 105.638 227.567 106.006 226.341 106.742C225.131 107.461 224.183 108.434 223.496 109.66C222.809 110.87 222.458 112.219 222.441 113.707V119.863C222.441 121.726 222.785 123.337 223.471 124.694C224.174 126.051 225.164 127.097 226.439 127.833C227.714 128.569 229.227 128.937 230.976 128.937C232.137 128.937 233.2 128.773 234.164 128.446C235.129 128.119 235.955 127.629 236.641 126.975C237.328 126.321 237.851 125.52 238.211 124.571L247.874 125.209C247.383 127.531 246.378 129.558 244.857 131.291C243.353 133.008 241.407 134.349 239.02 135.313C236.65 136.262 233.911 136.736 230.804 136.736ZM261.67 136.711C259.267 136.711 257.125 136.294 255.245 135.46C253.364 134.61 251.876 133.359 250.781 131.708C249.702 130.04 249.162 127.964 249.162 125.479C249.162 123.386 249.547 121.628 250.315 120.206C251.083 118.783 252.13 117.639 253.454 116.772C254.779 115.906 256.283 115.252 257.967 114.81C259.667 114.369 261.449 114.058 263.313 113.878C265.504 113.65 267.27 113.437 268.611 113.241C269.951 113.028 270.924 112.718 271.529 112.309C272.134 111.9 272.437 111.295 272.437 110.494V110.347C272.437 108.794 271.946 107.592 270.965 106.742C270 105.891 268.627 105.466 266.845 105.466C264.965 105.466 263.469 105.883 262.357 106.717C261.245 107.535 260.509 108.565 260.15 109.807L250.487 109.022C250.977 106.733 251.942 104.755 253.381 103.087C254.819 101.403 256.675 100.112 258.948 99.2124C261.237 98.2968 263.886 97.839 266.894 97.839C268.987 97.839 270.99 98.0843 272.903 98.5748C274.832 99.0653 276.54 99.8256 278.028 100.856C279.532 101.886 280.718 103.21 281.584 104.829C282.451 106.431 282.884 108.352 282.884 110.592V136H272.976V130.776H272.682C272.077 131.953 271.268 132.992 270.254 133.891C269.24 134.774 268.022 135.469 266.6 135.975C265.177 136.466 263.534 136.711 261.67 136.711ZM264.662 129.501C266.199 129.501 267.556 129.198 268.733 128.593C269.91 127.972 270.834 127.138 271.505 126.092C272.175 125.045 272.51 123.86 272.51 122.536V118.538C272.183 118.751 271.734 118.947 271.161 119.127C270.605 119.29 269.976 119.446 269.273 119.593C268.57 119.724 267.867 119.846 267.164 119.961C266.461 120.059 265.823 120.149 265.251 120.23C264.024 120.41 262.954 120.696 262.038 121.089C261.122 121.481 260.411 122.013 259.904 122.683C259.397 123.337 259.144 124.154 259.144 125.135C259.144 126.558 259.659 127.645 260.689 128.397C261.735 129.133 263.06 129.501 264.662 129.501ZM300.887 136.613C298.025 136.613 295.434 135.877 293.112 134.406C290.807 132.918 288.976 130.735 287.619 127.858C286.278 124.964 285.607 121.416 285.607 117.214C285.607 112.897 286.302 109.309 287.692 106.447C289.082 103.57 290.929 101.42 293.235 99.9972C295.556 98.5584 298.099 97.839 300.862 97.839C302.971 97.839 304.729 98.1987 306.135 98.9181C307.557 99.6212 308.702 100.504 309.568 101.567C310.451 102.613 311.122 103.643 311.579 104.657H311.898V85.7727H322.321V136H312.021V129.967H311.579C311.089 131.013 310.394 132.051 309.495 133.082C308.612 134.095 307.459 134.937 306.037 135.608C304.631 136.278 302.914 136.613 300.887 136.613ZM304.197 128.299C305.881 128.299 307.304 127.841 308.465 126.926C309.642 125.994 310.541 124.694 311.163 123.026C311.8 121.359 312.119 119.405 312.119 117.165C312.119 114.925 311.808 112.979 311.187 111.328C310.566 109.676 309.667 108.401 308.489 107.502C307.312 106.603 305.881 106.153 304.197 106.153C302.481 106.153 301.034 106.619 299.856 107.551C298.679 108.483 297.788 109.775 297.183 111.426C296.578 113.077 296.276 114.99 296.276 117.165C296.276 119.356 296.578 121.293 297.183 122.977C297.805 124.645 298.696 125.953 299.856 126.901C301.034 127.833 302.481 128.299 304.197 128.299ZM358.27 109.072L348.705 109.66C348.542 108.843 348.19 108.107 347.651 107.453C347.111 106.783 346.4 106.251 345.517 105.859C344.65 105.45 343.612 105.246 342.402 105.246C340.784 105.246 339.418 105.589 338.307 106.276C337.195 106.946 336.639 107.845 336.639 108.973C336.639 109.873 336.999 110.633 337.718 111.254C338.437 111.876 339.672 112.374 341.421 112.75L348.239 114.124C351.902 114.876 354.632 116.086 356.431 117.753C358.229 119.421 359.128 121.612 359.128 124.326C359.128 126.795 358.401 128.961 356.946 130.825C355.507 132.689 353.528 134.144 351.011 135.191C348.509 136.221 345.623 136.736 342.353 136.736C337.366 136.736 333.393 135.698 330.434 133.621C327.491 131.528 325.766 128.683 325.259 125.086L335.535 124.547C335.846 126.067 336.598 127.228 337.792 128.029C338.985 128.814 340.514 129.207 342.378 129.207C344.209 129.207 345.68 128.855 346.792 128.152C347.92 127.433 348.493 126.509 348.509 125.381C348.493 124.432 348.092 123.656 347.307 123.051C346.522 122.429 345.313 121.955 343.678 121.628L337.154 120.329C333.475 119.593 330.737 118.317 328.938 116.503C327.156 114.688 326.265 112.374 326.265 109.562C326.265 107.142 326.919 105.058 328.227 103.308C329.551 101.559 331.407 100.21 333.794 99.2615C336.197 98.3132 339.01 97.839 342.231 97.839C346.988 97.839 350.733 98.8446 353.463 100.856C356.21 102.867 357.812 105.605 358.27 109.072Z" fill="#10130E"/>
</svg>
