<svg width="370" height="73" viewBox="0 0 370 73" fill="none" xmlns="http://www.w3.org/2000/svg">
<path d="M3.96715 14.2301C3.34499 14.2301 2.78036 14.1129 2.27326 13.8786C1.76616 13.6399 1.36346 13.2969 1.06516 12.8494C0.766868 12.3977 0.61772 11.8523 0.61772 11.2131C0.61772 10.6506 0.728516 10.1946 0.950107 9.84517C1.1717 9.49148 1.46786 9.21449 1.8386 9.0142C2.20934 8.81392 2.61843 8.66477 3.06587 8.56676C3.51758 8.46449 3.97141 8.38352 4.42738 8.32386C5.02397 8.24716 5.50764 8.18963 5.87837 8.15128C6.25337 8.10866 6.5261 8.03835 6.69656 7.94034C6.87127 7.84233 6.95863 7.67187 6.95863 7.42898V7.37784C6.95863 6.74716 6.78604 6.2571 6.44087 5.90767C6.09996 5.55824 5.58221 5.38352 4.88761 5.38352C4.16744 5.38352 3.60281 5.54119 3.19371 5.85653C2.78462 6.17187 2.49698 6.50852 2.33079 6.86648L0.89897 6.35511C1.15465 5.75852 1.49556 5.29403 1.9217 4.96165C2.3521 4.625 2.82085 4.39062 3.32795 4.25852C3.83931 4.12216 4.34215 4.05398 4.83647 4.05398C5.15181 4.05398 5.51403 4.09233 5.92312 4.16903C6.33647 4.24148 6.73491 4.39276 7.11843 4.62287C7.50621 4.85298 7.82795 5.20028 8.08363 5.66477C8.33931 6.12926 8.46715 6.75142 8.46715 7.53125V14H6.95863V12.6705H6.88193C6.77965 12.8835 6.6092 13.1115 6.37056 13.3544C6.13192 13.5973 5.81445 13.804 5.41815 13.9744C5.02184 14.1449 4.53818 14.2301 3.96715 14.2301ZM4.19727 12.875C4.79386 12.875 5.2967 12.7578 5.70579 12.5234C6.11914 12.2891 6.43022 11.9865 6.63903 11.6158C6.8521 11.245 6.95863 10.8551 6.95863 10.446V9.06534C6.89471 9.14205 6.75408 9.21236 6.53675 9.27628C6.32369 9.33594 6.07653 9.3892 5.79528 9.43608C5.51829 9.47869 5.24769 9.51705 4.98349 9.55114C4.72354 9.58097 4.51261 9.60653 4.35068 9.62784C3.95863 9.67898 3.59215 9.76207 3.25124 9.87713C2.9146 9.98793 2.64187 10.1562 2.43306 10.3821C2.22852 10.6037 2.12624 10.9062 2.12624 11.2898C2.12624 11.8139 2.32014 12.2102 2.70792 12.4787C3.09996 12.7429 3.59641 12.875 4.19727 12.875ZM16.4876 14V0.909091H17.9961V5.74148H18.1239C18.2347 5.57102 18.3881 5.35369 18.5842 5.08949C18.7844 4.82102 19.07 4.58239 19.4407 4.37358C19.8157 4.16051 20.3228 4.05398 20.962 4.05398C21.7887 4.05398 22.5174 4.26065 23.1481 4.67401C23.7788 5.08736 24.271 5.6733 24.6246 6.43182C24.9783 7.19034 25.1552 8.08523 25.1552 9.11648C25.1552 10.1562 24.9783 11.0575 24.6246 11.8203C24.271 12.5788 23.7809 13.1669 23.1545 13.5845C22.5281 13.9979 21.8058 14.2045 20.9876 14.2045C20.3569 14.2045 19.8519 14.1001 19.4727 13.8913C19.0934 13.6783 18.8015 13.4375 18.5969 13.169C18.3924 12.8963 18.2347 12.6705 18.1239 12.4915H17.945V14H16.4876ZM17.9705 9.09091C17.9705 9.83239 18.0792 10.4865 18.2965 11.0533C18.5138 11.6158 18.8313 12.0568 19.2489 12.3764C19.6665 12.6918 20.1779 12.8494 20.783 12.8494C21.4137 12.8494 21.94 12.6832 22.3619 12.3509C22.788 12.0142 23.1076 11.5625 23.3207 10.9957C23.538 10.4247 23.6467 9.78977 23.6467 9.09091C23.6467 8.40057 23.5401 7.77841 23.3271 7.22443C23.1183 6.66619 22.8008 6.22514 22.3746 5.90128C21.9528 5.57315 21.4222 5.40909 20.783 5.40909C20.1694 5.40909 19.6538 5.56463 19.2362 5.87571C18.8185 6.18253 18.5032 6.61293 18.2901 7.1669C18.0771 7.71662 17.9705 8.35795 17.9705 9.09091ZM36.5138 14.2045C35.5934 14.2045 34.8008 13.9872 34.136 13.5526C33.4712 13.1179 32.9599 12.5192 32.6019 11.7564C32.244 10.9936 32.065 10.1222 32.065 9.14205C32.065 8.14489 32.2482 7.26491 32.6147 6.50213C32.9854 5.73509 33.5011 5.13636 34.1616 4.70597C34.8263 4.27131 35.6019 4.05398 36.4883 4.05398C37.1786 4.05398 37.8008 4.18182 38.3548 4.4375C38.9087 4.69318 39.3626 5.05114 39.7163 5.51136C40.07 5.97159 40.2894 6.50852 40.3746 7.12216H38.8661C38.7511 6.67472 38.4954 6.27841 38.0991 5.93324C37.707 5.58381 37.1786 5.40909 36.5138 5.40909C35.9258 5.40909 35.4102 5.5625 34.967 5.86932C34.5281 6.17187 34.185 6.60014 33.9379 7.15412C33.695 7.70383 33.5735 8.34943 33.5735 9.09091C33.5735 9.84943 33.6928 10.5099 33.9315 11.0724C34.1744 11.6349 34.5153 12.0717 34.9542 12.3828C35.3974 12.6939 35.9173 12.8494 36.5138 12.8494C36.9059 12.8494 37.2617 12.7812 37.5813 12.6449C37.9009 12.5085 38.1715 12.3125 38.3931 12.0568C38.6147 11.8011 38.7724 11.4943 38.8661 11.1364H40.3746C40.2894 11.7159 40.0785 12.2379 39.7418 12.7024C39.4094 13.1626 38.9684 13.5291 38.4187 13.8018C37.8732 14.0703 37.2383 14.2045 36.5138 14.2045ZM51.3498 14.2045C50.5316 14.2045 49.8093 13.9979 49.1829 13.5845C48.5565 13.1669 48.0664 12.5788 47.7127 11.8203C47.359 11.0575 47.1822 10.1562 47.1822 9.11648C47.1822 8.08523 47.359 7.19034 47.7127 6.43182C48.0664 5.6733 48.5586 5.08736 49.1893 4.67401C49.82 4.26065 50.5487 4.05398 51.3754 4.05398C52.0146 4.05398 52.5195 4.16051 52.8903 4.37358C53.2653 4.58239 53.5508 4.82102 53.7468 5.08949C53.9471 5.35369 54.1026 5.57102 54.2134 5.74148H54.3413V0.909091H55.8498V14H54.3924V12.4915H54.2134C54.1026 12.6705 53.945 12.8963 53.7404 13.169C53.5359 13.4375 53.244 13.6783 52.8647 13.8913C52.4854 14.1001 51.9805 14.2045 51.3498 14.2045ZM51.5543 12.8494C52.1594 12.8494 52.6708 12.6918 53.0884 12.3764C53.506 12.0568 53.8235 11.6158 54.0408 11.0533C54.2582 10.4865 54.3668 9.83239 54.3668 9.09091C54.3668 8.35795 54.2603 7.71662 54.0472 7.1669C53.8342 6.61293 53.5188 6.18253 53.1012 5.87571C52.6836 5.56463 52.168 5.40909 51.5543 5.40909C50.9151 5.40909 50.3825 5.57315 49.9563 5.90128C49.5344 6.22514 49.217 6.66619 49.0039 7.22443C48.7951 7.77841 48.6907 8.40057 48.6907 9.09091C48.6907 9.78977 48.7972 10.4247 49.0103 10.9957C49.2276 11.5625 49.5472 12.0142 49.9691 12.3509C50.3952 12.6832 50.9237 12.8494 51.5543 12.8494ZM68.0011 14.2045C67.055 14.2045 66.239 13.9957 65.5529 13.5781C64.8711 13.1562 64.3448 12.5682 63.9741 11.8139C63.6076 11.0554 63.4244 10.1733 63.4244 9.16761C63.4244 8.16193 63.6076 7.27557 63.9741 6.50852C64.3448 5.73722 64.8604 5.13636 65.521 4.70597C66.1857 4.27131 66.9613 4.05398 67.8477 4.05398C68.359 4.05398 68.864 4.1392 69.3626 4.30966C69.8612 4.48011 70.315 4.7571 70.7241 5.14062C71.1332 5.51989 71.4592 6.02273 71.7021 6.64915C71.945 7.27557 72.0664 8.04687 72.0664 8.96307V9.60227H64.4982V8.2983H70.5323C70.5323 7.74432 70.4215 7.25 70.1999 6.81534C69.9826 6.38068 69.6715 6.03764 69.2667 5.78622C68.8661 5.5348 68.3931 5.40909 67.8477 5.40909C67.2468 5.40909 66.7269 5.55824 66.288 5.85653C65.8533 6.15057 65.5188 6.53409 65.2844 7.0071C65.0501 7.48011 64.9329 7.98722 64.9329 8.52841V9.39773C64.9329 10.1392 65.0607 10.7678 65.3164 11.2834C65.5763 11.7947 65.9364 12.1847 66.3967 12.4531C66.8569 12.7173 67.3917 12.8494 68.0011 12.8494C68.3974 12.8494 68.7553 12.794 69.0749 12.6832C69.3988 12.5682 69.6779 12.3977 69.9123 12.1719C70.1467 11.9418 70.3278 11.6562 70.4556 11.3153L71.913 11.7244C71.7596 12.2188 71.5018 12.6534 71.1396 13.0284C70.7773 13.3991 70.3299 13.6889 69.7972 13.8977C69.2646 14.1023 68.6658 14.2045 68.0011 14.2045ZM83.7958 4.18182V5.46023H78.5032V4.18182H83.7958ZM80.0884 14V2.8267C80.0884 2.2642 80.2205 1.79545 80.4847 1.42045C80.7489 1.04545 81.092 0.764204 81.5138 0.576704C81.9357 0.389204 82.381 0.295454 82.8498 0.295454C83.2205 0.295454 83.5231 0.325283 83.7575 0.384943C83.9918 0.444602 84.1665 0.499999 84.2816 0.551136L83.8469 1.85511C83.7702 1.82954 83.6637 1.79758 83.5273 1.75923C83.3952 1.72088 83.2205 1.7017 83.0032 1.7017C82.5046 1.7017 82.1445 1.82741 81.9229 2.07884C81.7056 2.33026 81.5969 2.69886 81.5969 3.18466V14H80.0884ZM94.9355 17.8864C94.2069 17.8864 93.5804 17.7926 93.0563 17.6051C92.5321 17.4219 92.0953 17.179 91.7459 16.8764C91.4007 16.5781 91.1259 16.2585 90.9213 15.9176L92.123 15.0739C92.2594 15.2528 92.432 15.4574 92.6408 15.6875C92.8496 15.9219 93.1351 16.1243 93.4973 16.2947C93.8638 16.4695 94.3432 16.5568 94.9355 16.5568C95.7282 16.5568 96.3823 16.3651 96.8979 15.9815C97.4135 15.598 97.6713 14.9972 97.6713 14.179V12.1847H97.5435C97.4327 12.3636 97.275 12.5852 97.0705 12.8494C96.8702 13.1094 96.5804 13.3416 96.2012 13.5462C95.8262 13.7464 95.3191 13.8466 94.6799 13.8466C93.8873 13.8466 93.1756 13.6591 92.5449 13.2841C91.9185 12.9091 91.4221 12.3636 91.0556 11.6477C90.6934 10.9318 90.5123 10.0625 90.5123 9.03977C90.5123 8.03409 90.6891 7.15838 91.0428 6.41264C91.3965 5.66264 91.8887 5.0831 92.5194 4.67401C93.15 4.26065 93.8787 4.05398 94.7054 4.05398C95.3446 4.05398 95.8517 4.16051 96.2267 4.37358C96.606 4.58239 96.8958 4.82102 97.0961 5.08949C97.3006 5.35369 97.4583 5.57102 97.5691 5.74148H97.7225V4.18182H99.1799V14.2812C99.1799 15.125 98.9881 15.8111 98.6046 16.3395C98.2253 16.8722 97.714 17.2621 97.0705 17.5092C96.4313 17.7607 95.7196 17.8864 94.9355 17.8864ZM94.8844 12.4915C95.4895 12.4915 96.0009 12.353 96.4185 12.076C96.8361 11.799 97.1536 11.4006 97.3709 10.8807C97.5882 10.3608 97.6969 9.73864 97.6969 9.0142C97.6969 8.30682 97.5904 7.68253 97.3773 7.14134C97.1642 6.60014 96.8489 6.17614 96.4313 5.86932C96.0137 5.5625 95.498 5.40909 94.8844 5.40909C94.2452 5.40909 93.7125 5.57102 93.2864 5.89489C92.8645 6.21875 92.5471 6.65341 92.334 7.19886C92.1252 7.74432 92.0208 8.34943 92.0208 9.0142C92.0208 9.69602 92.1273 10.299 92.3404 10.8232C92.5577 11.343 92.8773 11.7521 93.2992 12.0504C93.7253 12.3445 94.2537 12.4915 94.8844 12.4915ZM108.512 8.09375V14H107.004V0.909091H108.512V5.71591H108.64C108.87 5.20881 109.215 4.80611 109.676 4.50781C110.14 4.20526 110.758 4.05398 111.529 4.05398C112.198 4.05398 112.784 4.18821 113.287 4.45668C113.79 4.72088 114.18 5.12784 114.457 5.67756C114.738 6.22301 114.879 6.91761 114.879 7.76136V14H113.37V7.86364C113.37 7.08381 113.168 6.48082 112.763 6.05469C112.362 5.62429 111.806 5.40909 111.095 5.40909C110.6 5.40909 110.157 5.51349 109.765 5.7223C109.377 5.93111 109.07 6.2358 108.845 6.63636C108.623 7.03693 108.512 7.52273 108.512 8.09375ZM122.701 14V4.18182H124.21V14H122.701ZM123.468 2.54545C123.174 2.54545 122.92 2.44531 122.707 2.24503C122.499 2.04474 122.394 1.80398 122.394 1.52273C122.394 1.24148 122.499 1.00071 122.707 0.800426C122.92 0.600142 123.174 0.5 123.468 0.5C123.762 0.5 124.013 0.600142 124.222 0.800426C124.435 1.00071 124.542 1.24148 124.542 1.52273C124.542 1.80398 124.435 2.04474 124.222 2.24503C124.013 2.44531 123.762 2.54545 123.468 2.54545ZM132.035 4.18182H133.544V14.7159C133.544 15.321 133.439 15.8452 133.23 16.2884C133.026 16.7315 132.715 17.0746 132.297 17.3175C131.884 17.5604 131.362 17.6818 130.731 17.6818C130.68 17.6818 130.629 17.6818 130.578 17.6818C130.526 17.6818 130.475 17.6818 130.424 17.6818V16.2756C130.475 16.2756 130.522 16.2756 130.565 16.2756C130.607 16.2756 130.654 16.2756 130.705 16.2756C131.166 16.2756 131.502 16.1392 131.715 15.8665C131.928 15.598 132.035 15.2145 132.035 14.7159V4.18182ZM132.776 2.54545C132.482 2.54545 132.229 2.44531 132.016 2.24503C131.807 2.04474 131.703 1.80398 131.703 1.52273C131.703 1.24148 131.807 1.00071 132.016 0.800426C132.229 0.600142 132.482 0.5 132.776 0.5C133.07 0.5 133.322 0.600142 133.531 0.800426C133.744 1.00071 133.85 1.24148 133.85 1.52273C133.85 1.80398 133.744 2.04474 133.531 2.24503C133.322 2.44531 133.07 2.54545 132.776 2.54545ZM142.775 10.4205L142.75 8.55398H143.056L147.352 4.18182H149.218L144.642 8.80966H144.514L142.775 10.4205ZM141.369 14V0.909091H142.877V14H141.369ZM147.608 14L143.772 9.14205L144.846 8.09375L149.525 14H147.608ZM157.731 0.909091V14H156.222V0.909091H157.731ZM165.556 14V4.18182H167.014V5.71591H167.142C167.346 5.19176 167.676 4.7848 168.132 4.49503C168.588 4.20099 169.136 4.05398 169.775 4.05398C170.423 4.05398 170.962 4.20099 171.392 4.49503C171.827 4.7848 172.166 5.19176 172.409 5.71591H172.511C172.762 5.20881 173.14 4.80611 173.642 4.50781C174.145 4.20526 174.748 4.05398 175.451 4.05398C176.329 4.05398 177.047 4.32884 177.605 4.87855C178.164 5.42401 178.443 6.27415 178.443 7.42898V14H176.934V7.42898C176.934 6.70455 176.736 6.18679 176.34 5.87571C175.944 5.56463 175.477 5.40909 174.94 5.40909C174.25 5.40909 173.715 5.6179 173.336 6.03551C172.956 6.44886 172.767 6.97301 172.767 7.60795V14H171.233V7.27557C171.233 6.71733 171.051 6.26776 170.689 5.92685C170.327 5.58168 169.86 5.40909 169.289 5.40909C168.897 5.40909 168.531 5.51349 168.19 5.7223C167.853 5.93111 167.581 6.22088 167.372 6.59162C167.167 6.9581 167.065 7.3821 167.065 7.86364V14H165.556ZM187.772 8.09375V14H186.263V4.18182H187.721V5.71591H187.849C188.079 5.21733 188.428 4.81676 188.897 4.5142C189.366 4.20739 189.971 4.05398 190.712 4.05398C191.377 4.05398 191.959 4.19034 192.457 4.46307C192.956 4.73153 193.344 5.14062 193.621 5.69034C193.898 6.2358 194.036 6.92614 194.036 7.76136V14H192.528V7.86364C192.528 7.09233 192.327 6.49148 191.927 6.06108C191.526 5.62642 190.977 5.40909 190.278 5.40909C189.796 5.40909 189.366 5.51349 188.987 5.7223C188.612 5.93111 188.315 6.2358 188.098 6.63636C187.881 7.03693 187.772 7.52273 187.772 8.09375ZM205.844 14.2045C204.958 14.2045 204.18 13.9936 203.511 13.5717C202.846 13.1499 202.326 12.5597 201.951 11.8011C201.58 11.0426 201.395 10.1562 201.395 9.14205C201.395 8.11932 201.58 7.22656 201.951 6.46378C202.326 5.70099 202.846 5.10866 203.511 4.68679C204.18 4.26491 204.958 4.05398 205.844 4.05398C206.73 4.05398 207.506 4.26491 208.171 4.68679C208.84 5.10866 209.36 5.70099 209.73 6.46378C210.105 7.22656 210.293 8.11932 210.293 9.14205C210.293 10.1562 210.105 11.0426 209.73 11.8011C209.36 12.5597 208.84 13.1499 208.171 13.5717C207.506 13.9936 206.73 14.2045 205.844 14.2045ZM205.844 12.8494C206.517 12.8494 207.071 12.6768 207.506 12.3317C207.941 11.9865 208.262 11.5327 208.471 10.9702C208.68 10.4077 208.784 9.7983 208.784 9.14205C208.784 8.4858 208.68 7.87429 208.471 7.30753C208.262 6.74077 207.941 6.28267 207.506 5.93324C207.071 5.58381 206.517 5.40909 205.844 5.40909C205.171 5.40909 204.617 5.58381 204.182 5.93324C203.747 6.28267 203.426 6.74077 203.217 7.30753C203.008 7.87429 202.904 8.4858 202.904 9.14205C202.904 9.7983 203.008 10.4077 203.217 10.9702C203.426 11.5327 203.747 11.9865 204.182 12.3317C204.617 12.6768 205.171 12.8494 205.844 12.8494ZM217.658 17.6818V4.18182H219.115V5.74148H219.294C219.405 5.57102 219.559 5.35369 219.755 5.08949C219.955 4.82102 220.24 4.58239 220.611 4.37358C220.986 4.16051 221.493 4.05398 222.132 4.05398C222.959 4.05398 223.688 4.26065 224.319 4.67401C224.949 5.08736 225.441 5.6733 225.795 6.43182C226.149 7.19034 226.326 8.08523 226.326 9.11648C226.326 10.1562 226.149 11.0575 225.795 11.8203C225.441 12.5788 224.951 13.1669 224.325 13.5845C223.699 13.9979 222.976 14.2045 222.158 14.2045C221.527 14.2045 221.022 14.1001 220.643 13.8913C220.264 13.6783 219.972 13.4375 219.767 13.169C219.563 12.8963 219.405 12.6705 219.294 12.4915H219.167V17.6818H217.658ZM219.141 9.09091C219.141 9.83239 219.25 10.4865 219.467 11.0533C219.684 11.6158 220.002 12.0568 220.419 12.3764C220.837 12.6918 221.348 12.8494 221.953 12.8494C222.584 12.8494 223.11 12.6832 223.532 12.3509C223.958 12.0142 224.278 11.5625 224.491 10.9957C224.708 10.4247 224.817 9.78977 224.817 9.09091C224.817 8.40057 224.711 7.77841 224.498 7.22443C224.289 6.66619 223.971 6.22514 223.545 5.90128C223.123 5.57315 222.593 5.40909 221.953 5.40909C221.34 5.40909 220.824 5.56463 220.407 5.87571C219.989 6.18253 219.674 6.61293 219.461 7.1669C219.248 7.71662 219.141 8.35795 219.141 9.09091ZM240.388 17.6818V12.4915H240.26C240.15 12.6705 239.992 12.8963 239.787 13.169C239.583 13.4375 239.291 13.6783 238.912 13.8913C238.532 14.1001 238.027 14.2045 237.397 14.2045C236.578 14.2045 235.856 13.9979 235.23 13.5845C234.603 13.1669 234.113 12.5788 233.76 11.8203C233.406 11.0575 233.229 10.1562 233.229 9.11648C233.229 8.08523 233.406 7.19034 233.76 6.43182C234.113 5.6733 234.605 5.08736 235.236 4.67401C235.867 4.26065 236.596 4.05398 237.422 4.05398C238.061 4.05398 238.566 4.16051 238.937 4.37358C239.312 4.58239 239.598 4.82102 239.794 5.08949C239.994 5.35369 240.15 5.57102 240.26 5.74148H240.439V4.18182H241.897V17.6818H240.388ZM237.601 12.8494C238.206 12.8494 238.718 12.6918 239.135 12.3764C239.553 12.0568 239.87 11.6158 240.088 11.0533C240.305 10.4865 240.414 9.83239 240.414 9.09091C240.414 8.35795 240.307 7.71662 240.094 7.1669C239.881 6.61293 239.566 6.18253 239.148 5.87571C238.73 5.56463 238.215 5.40909 237.601 5.40909C236.962 5.40909 236.429 5.57315 236.003 5.90128C235.581 6.22514 235.264 6.66619 235.051 7.22443C234.842 7.77841 234.738 8.40057 234.738 9.09091C234.738 9.78977 234.844 10.4247 235.057 10.9957C235.275 11.5625 235.594 12.0142 236.016 12.3509C236.442 12.6832 236.971 12.8494 237.601 12.8494ZM249.721 14V4.18182H251.178V5.66477H251.28C251.459 5.17898 251.783 4.7848 252.252 4.48224C252.721 4.17969 253.249 4.02841 253.837 4.02841C253.948 4.02841 254.086 4.03054 254.252 4.0348C254.419 4.03906 254.544 4.04545 254.63 4.05398V5.58807C254.578 5.57528 254.461 5.55611 254.278 5.53054C254.099 5.50071 253.909 5.4858 253.709 5.4858C253.232 5.4858 252.806 5.58594 252.431 5.78622C252.06 5.98224 251.766 6.25497 251.549 6.6044C251.336 6.94957 251.229 7.34375 251.229 7.78693V14H249.721ZM268.435 6.38068L267.08 6.7642C266.994 6.53835 266.869 6.31889 266.703 6.10582C266.541 5.88849 266.319 5.70952 266.038 5.56889C265.757 5.42827 265.396 5.35795 264.958 5.35795C264.357 5.35795 263.856 5.49645 263.455 5.77344C263.059 6.04616 262.861 6.39347 262.861 6.81534C262.861 7.19034 262.997 7.48651 263.27 7.70384C263.543 7.92116 263.969 8.10227 264.548 8.24716L266.006 8.60511C266.884 8.81818 267.538 9.14418 267.968 9.5831C268.399 10.0178 268.614 10.5781 268.614 11.2642C268.614 11.8267 268.452 12.3295 268.128 12.7727C267.808 13.2159 267.361 13.5653 266.786 13.821C266.21 14.0767 265.541 14.2045 264.779 14.2045C263.777 14.2045 262.948 13.9872 262.292 13.5526C261.636 13.1179 261.22 12.483 261.046 11.6477L262.477 11.2898C262.614 11.8182 262.872 12.2145 263.251 12.4787C263.634 12.7429 264.135 12.875 264.753 12.875C265.456 12.875 266.014 12.7259 266.428 12.4276C266.845 12.125 267.054 11.7628 267.054 11.3409C267.054 11 266.935 10.7145 266.696 10.4844C266.458 10.25 266.091 10.0753 265.597 9.96023L263.96 9.5767C263.061 9.36364 262.401 9.03338 261.979 8.58594C261.561 8.13423 261.352 7.5696 261.352 6.89205C261.352 6.33807 261.508 5.84801 261.819 5.42188C262.134 4.99574 262.563 4.66122 263.104 4.41832C263.649 4.17543 264.267 4.05398 264.958 4.05398C265.929 4.05398 266.692 4.26705 267.246 4.69318C267.804 5.11932 268.2 5.68182 268.435 6.38068ZM280.217 4.18182V5.46023H275.129V4.18182H280.217ZM276.612 1.82955H278.12V11.1875C278.12 11.6136 278.182 11.9332 278.306 12.1463C278.434 12.3551 278.596 12.4957 278.792 12.5682C278.992 12.6364 279.203 12.6705 279.424 12.6705C279.591 12.6705 279.727 12.6619 279.833 12.6449C279.94 12.6236 280.025 12.6065 280.089 12.5938L280.396 13.9489C280.294 13.9872 280.151 14.0256 279.968 14.0639C279.784 14.1065 279.552 14.1278 279.271 14.1278C278.845 14.1278 278.427 14.0362 278.018 13.853C277.613 13.6697 277.277 13.3906 277.008 13.0156C276.744 12.6406 276.612 12.1676 276.612 11.5966V1.82955ZM293.736 9.9858V4.18182H295.245V14H293.736V12.3381H293.634C293.404 12.8366 293.046 13.2607 292.56 13.6101C292.074 13.9553 291.461 14.1278 290.719 14.1278C290.105 14.1278 289.56 13.9936 289.083 13.7251C288.605 13.4524 288.23 13.0433 287.958 12.4979C287.685 11.9482 287.549 11.2557 287.549 10.4205V4.18182H289.057V10.3182C289.057 11.0341 289.257 11.6051 289.658 12.0312C290.063 12.4574 290.578 12.6705 291.205 12.6705C291.58 12.6705 291.961 12.5746 292.349 12.3828C292.741 12.1911 293.069 11.897 293.333 11.5007C293.602 11.1044 293.736 10.5994 293.736 9.9858ZM311.099 4.18182L307.468 14H305.934L302.303 4.18182H303.939L306.65 12.0057H306.752L309.462 4.18182H311.099ZM320.377 14L317.385 4.18182H318.97L321.093 11.6989H321.195L323.291 4.18182H324.902L326.973 11.6733H327.075L329.198 4.18182H330.783L327.791 14H326.308L324.161 6.45739H324.007L321.86 14H320.377ZM333.902 4.18182L336.254 8.19602L338.607 4.18182H340.345L337.175 9.09091L340.345 14H338.607L336.254 10.1903L333.902 14H332.164L335.283 9.09091L332.164 4.18182H333.902ZM343.469 17.6818C343.214 17.6818 342.986 17.6605 342.786 17.6179C342.585 17.5795 342.447 17.5412 342.37 17.5028L342.754 16.1733C343.12 16.267 343.444 16.3011 343.725 16.2756C344.006 16.25 344.256 16.1243 344.473 15.8984C344.695 15.6768 344.897 15.3168 345.08 14.8182L345.362 14.0511L341.731 4.18182H343.367L346.077 12.0057H346.18L348.89 4.18182H350.526L346.359 15.4318C346.171 15.9389 345.939 16.3587 345.662 16.6911C345.385 17.0277 345.063 17.277 344.697 17.4389C344.335 17.6009 343.925 17.6818 343.469 17.6818ZM357.299 14V12.8494L362.873 5.69034V5.58807H357.478V4.18182H364.816V5.38352L359.395 12.4915V12.5938H364.995V14H357.299ZM53.4112 42H51.7493L56.5561 28.9091H58.1925L62.9993 42H61.3374L57.4254 30.9801H57.3232L53.4112 42ZM54.0249 36.8864H60.7237V38.2926H54.0249V36.8864ZM65.0384 42V28.9091H69.6151C70.527 28.9091 71.2791 29.0668 71.8714 29.3821C72.4638 29.6932 72.9048 30.1129 73.1946 30.6413C73.4844 31.1655 73.6293 31.7472 73.6293 32.3864C73.6293 32.9489 73.5291 33.4134 73.3288 33.7798C73.1328 34.1463 72.8729 34.4361 72.549 34.6491C72.2294 34.8622 71.8821 35.0199 71.5071 35.1222V35.25C71.9077 35.2756 72.3104 35.4162 72.7152 35.6719C73.12 35.9276 73.4588 36.294 73.7315 36.7713C74.0043 37.2486 74.1406 37.8324 74.1406 38.5227C74.1406 39.179 73.9915 39.7692 73.6932 40.2933C73.3949 40.8175 72.924 41.233 72.2805 41.5398C71.6371 41.8466 70.7997 42 69.7685 42H65.0384ZM66.6236 40.5938H69.7685C70.804 40.5938 71.5391 40.3935 71.9737 39.9929C72.4126 39.5881 72.6321 39.098 72.6321 38.5227C72.6321 38.0795 72.5192 37.6705 72.2933 37.2955C72.0675 36.9162 71.7457 36.6136 71.3281 36.3878C70.9105 36.1577 70.4162 36.0426 69.8452 36.0426H66.6236V40.5938ZM66.6236 34.6619H69.5639C70.0412 34.6619 70.4716 34.5682 70.8551 34.3807C71.2429 34.1932 71.5497 33.929 71.7756 33.5881C72.0057 33.2472 72.1207 32.8466 72.1207 32.3864C72.1207 31.8111 71.9205 31.3232 71.5199 30.9226C71.1193 30.5178 70.4844 30.3153 69.6151 30.3153H66.6236V34.6619ZM87.2795 33H85.6942C85.6005 32.544 85.4364 32.1435 85.2021 31.7983C84.9719 31.4531 84.6907 31.1634 84.3583 30.929C84.0302 30.6903 83.6658 30.5114 83.2653 30.392C82.8647 30.2727 82.4471 30.2131 82.0124 30.2131C81.2198 30.2131 80.5018 30.4134 79.8583 30.8139C79.2191 31.2145 78.7099 31.8047 78.3306 32.5845C77.9556 33.3643 77.7681 34.321 77.7681 35.4545C77.7681 36.5881 77.9556 37.5447 78.3306 38.3246C78.7099 39.1044 79.2191 39.6946 79.8583 40.0952C80.5018 40.4957 81.2198 40.696 82.0124 40.696C82.4471 40.696 82.8647 40.6364 83.2653 40.517C83.6658 40.3977 84.0302 40.2209 84.3583 39.9865C84.6907 39.7479 84.9719 39.456 85.2021 39.1108C85.4364 38.7614 85.6005 38.3608 85.6942 37.9091H87.2795C87.1602 38.5781 86.9428 39.1768 86.6275 39.7053C86.3121 40.2337 85.9201 40.6832 85.4514 41.054C84.9826 41.4205 84.4563 41.6996 83.8725 41.8913C83.293 42.0831 82.6729 42.179 82.0124 42.179C80.896 42.179 79.9031 41.9062 79.0337 41.3608C78.1644 40.8153 77.4805 40.0398 76.9819 39.0341C76.4833 38.0284 76.234 36.8352 76.234 35.4545C76.234 34.0739 76.4833 32.8807 76.9819 31.875C77.4805 30.8693 78.1644 30.0938 79.0337 29.5483C79.9031 29.0028 80.896 28.7301 82.0124 28.7301C82.6729 28.7301 83.293 28.826 83.8725 29.0178C84.4563 29.2095 84.9826 29.4908 85.4514 29.8615C85.9201 30.228 86.3121 30.6754 86.6275 31.2038C86.9428 31.728 87.1602 32.3267 87.2795 33ZM93.8809 42H89.8411V28.9091H94.0598C95.3297 28.9091 96.4164 29.1712 97.3198 29.6953C98.2232 30.2152 98.9157 30.9631 99.3972 31.9389C99.8787 32.9105 100.119 34.0739 100.119 35.429C100.119 36.7926 99.8766 37.9666 99.3908 38.951C98.905 39.9311 98.1976 40.6854 97.2686 41.2138C96.3397 41.7379 95.2104 42 93.8809 42ZM91.4263 40.5938H93.7786C94.861 40.5938 95.758 40.3849 96.4696 39.9673C97.1813 39.5497 97.7118 38.9553 98.0613 38.1839C98.4107 37.4126 98.5854 36.4943 98.5854 35.429C98.5854 34.3722 98.4128 33.4624 98.0676 32.6996C97.7225 31.9325 97.2069 31.3445 96.5208 30.9354C95.8347 30.522 94.9803 30.3153 93.9576 30.3153H91.4263V40.5938ZM102.779 42V28.9091H110.679V30.3153H104.364V34.7386H110.27V36.1449H104.364V40.5938H110.781V42H102.779ZM113.536 42V28.9091H121.386V30.3153H115.122V34.7386H120.798V36.1449H115.122V42H113.536ZM133.05 33C132.909 32.5696 132.724 32.1839 132.494 31.843C132.268 31.4979 131.997 31.2038 131.682 30.9609C131.371 30.718 131.017 30.5327 130.621 30.4048C130.224 30.277 129.79 30.2131 129.317 30.2131C128.541 30.2131 127.836 30.4134 127.201 30.8139C126.566 31.2145 126.061 31.8047 125.686 32.5845C125.311 33.3643 125.124 34.321 125.124 35.4545C125.124 36.5881 125.313 37.5447 125.692 38.3246C126.072 39.1044 126.585 39.6946 127.233 40.0952C127.881 40.4957 128.609 40.696 129.419 40.696C130.169 40.696 130.83 40.5362 131.401 40.2166C131.976 39.8928 132.423 39.4368 132.743 38.8487C133.067 38.2564 133.229 37.5597 133.229 36.7585L133.714 36.8608H129.777V35.4545H134.763V36.8608C134.763 37.9389 134.533 38.8764 134.072 39.6733C133.616 40.4702 132.986 41.0881 132.18 41.527C131.379 41.9616 130.459 42.179 129.419 42.179C128.26 42.179 127.241 41.9062 126.364 41.3608C125.49 40.8153 124.808 40.0398 124.318 39.0341C123.832 38.0284 123.589 36.8352 123.589 35.4545C123.589 34.419 123.728 33.4879 124.005 32.6612C124.286 31.8303 124.683 31.1229 125.194 30.5391C125.705 29.9553 126.31 29.5078 127.009 29.1967C127.708 28.8857 128.477 28.7301 129.317 28.7301C130.007 28.7301 130.651 28.8345 131.247 29.0433C131.848 29.2479 132.383 29.5398 132.852 29.919C133.325 30.294 133.719 30.7436 134.034 31.2678C134.349 31.7876 134.567 32.3651 134.686 33H133.05ZM137.478 42V28.9091H139.063V34.7386H146.043V28.9091H147.628V42H146.043V36.1449H139.063V42H137.478ZM152.387 28.9091V42H150.802V28.9091H152.387ZM160.577 28.9091H162.162V38.267C162.162 39.1023 162.009 39.8118 161.702 40.3956C161.395 40.9794 160.963 41.4226 160.404 41.7251C159.846 42.0277 159.188 42.179 158.429 42.179C157.713 42.179 157.076 42.049 156.518 41.7891C155.96 41.5249 155.521 41.1499 155.201 40.6641C154.882 40.1783 154.722 39.6009 154.722 38.9318H156.282C156.282 39.3026 156.373 39.6264 156.556 39.9034C156.744 40.1761 157 40.3892 157.324 40.5426C157.647 40.696 158.016 40.7727 158.429 40.7727C158.885 40.7727 159.273 40.6768 159.593 40.4851C159.912 40.2933 160.155 40.0121 160.321 39.6413C160.492 39.2663 160.577 38.8082 160.577 38.267V28.9091ZM165.339 42V28.9091H166.924V35.4034H167.078L172.958 28.9091H175.029L169.532 34.8153L175.029 42H173.112L168.561 35.9148L166.924 37.7557V42H165.339ZM177.081 42V28.9091H178.667V40.5938H184.752V42H177.081ZM187.206 28.9091H189.098L193.547 39.7756H193.701L198.15 28.9091H200.042V42H198.559V32.054H198.431L194.34 42H192.908L188.817 32.054H188.689V42H187.206V28.9091ZM213.601 28.9091V42H212.067L204.933 31.7216H204.805V42H203.22V28.9091H204.754L211.913 39.2131H212.041V28.9091H213.601ZM227.818 35.4545C227.818 36.8352 227.569 38.0284 227.07 39.0341C226.572 40.0398 225.888 40.8153 225.018 41.3608C224.149 41.9062 223.156 42.179 222.04 42.179C220.923 42.179 219.93 41.9062 219.061 41.3608C218.192 40.8153 217.508 40.0398 217.009 39.0341C216.511 38.0284 216.261 36.8352 216.261 35.4545C216.261 34.0739 216.511 32.8807 217.009 31.875C217.508 30.8693 218.192 30.0938 219.061 29.5483C219.93 29.0028 220.923 28.7301 222.04 28.7301C223.156 28.7301 224.149 29.0028 225.018 29.5483C225.888 30.0938 226.572 30.8693 227.07 31.875C227.569 32.8807 227.818 34.0739 227.818 35.4545ZM226.284 35.4545C226.284 34.321 226.094 33.3643 225.715 32.5845C225.34 31.8047 224.831 31.2145 224.188 30.8139C223.548 30.4134 222.832 30.2131 222.04 30.2131C221.247 30.2131 220.529 30.4134 219.886 30.8139C219.246 31.2145 218.737 31.8047 218.358 32.5845C217.983 33.3643 217.795 34.321 217.795 35.4545C217.795 36.5881 217.983 37.5447 218.358 38.3246C218.737 39.1044 219.246 39.6946 219.886 40.0952C220.529 40.4957 221.247 40.696 222.04 40.696C222.832 40.696 223.548 40.4957 224.188 40.0952C224.831 39.6946 225.34 39.1044 225.715 38.3246C226.094 37.5447 226.284 36.5881 226.284 35.4545ZM230.484 42V28.9091H234.907C235.934 28.9091 236.773 29.0945 237.425 29.4652C238.082 29.8317 238.567 30.3281 238.883 30.9545C239.198 31.581 239.356 32.2798 239.356 33.0511C239.356 33.8224 239.198 34.5234 238.883 35.1541C238.572 35.7848 238.09 36.2876 237.438 36.6626C236.786 37.0334 235.951 37.2188 234.933 37.2188H231.762V35.8125H234.881C235.585 35.8125 236.149 35.6911 236.575 35.4482C237.001 35.2053 237.31 34.8771 237.502 34.4638C237.698 34.0462 237.796 33.5753 237.796 33.0511C237.796 32.527 237.698 32.0582 237.502 31.6449C237.31 31.2315 236.999 30.9077 236.569 30.6733C236.138 30.4347 235.567 30.3153 234.856 30.3153H232.069V42H230.484ZM246.665 37.9091H248.404L249.861 39.8267L250.245 40.3381L252.418 43.2273H250.679L249.248 41.3097L248.89 40.8239L246.665 37.9091ZM252.955 35.4545C252.955 36.8352 252.706 38.0284 252.207 39.0341C251.708 40.0398 251.025 40.8153 250.155 41.3608C249.286 41.9062 248.293 42.179 247.176 42.179C246.06 42.179 245.067 41.9062 244.198 41.3608C243.328 40.8153 242.645 40.0398 242.146 39.0341C241.647 38.0284 241.398 36.8352 241.398 35.4545C241.398 34.0739 241.647 32.8807 242.146 31.875C242.645 30.8693 243.328 30.0938 244.198 29.5483C245.067 29.0028 246.06 28.7301 247.176 28.7301C248.293 28.7301 249.286 29.0028 250.155 29.5483C251.025 30.0938 251.708 30.8693 252.207 31.875C252.706 32.8807 252.955 34.0739 252.955 35.4545ZM251.421 35.4545C251.421 34.321 251.231 33.3643 250.852 32.5845C250.477 31.8047 249.968 31.2145 249.324 30.8139C248.685 30.4134 247.969 30.2131 247.176 30.2131C246.384 30.2131 245.666 30.4134 245.022 30.8139C244.383 31.2145 243.874 31.8047 243.495 32.5845C243.12 33.3643 242.932 34.321 242.932 35.4545C242.932 36.5881 243.12 37.5447 243.495 38.3246C243.874 39.1044 244.383 39.6946 245.022 40.0952C245.666 40.4957 246.384 40.696 247.176 40.696C247.969 40.696 248.685 40.4957 249.324 40.0952C249.968 39.6946 250.477 39.1044 250.852 38.3246C251.231 37.5447 251.421 36.5881 251.421 35.4545ZM255.62 42V28.9091H260.044C261.066 28.9091 261.906 29.0838 262.562 29.4332C263.218 29.7784 263.704 30.2536 264.02 30.8587C264.335 31.4638 264.493 32.152 264.493 32.9233C264.493 33.6946 264.335 34.3786 264.02 34.9751C263.704 35.5717 263.221 36.0405 262.569 36.3814C261.917 36.718 261.083 36.8864 260.069 36.8864H256.49V35.4545H260.018C260.717 35.4545 261.279 35.3523 261.706 35.1477C262.136 34.9432 262.447 34.6534 262.639 34.2784C262.835 33.8991 262.933 33.4474 262.933 32.9233C262.933 32.3991 262.835 31.9411 262.639 31.549C262.443 31.157 262.13 30.8544 261.699 30.6413C261.269 30.424 260.7 30.3153 259.993 30.3153H257.206V42H255.62ZM261.782 36.1193L265.004 42H263.163L259.993 36.1193H261.782ZM274.293 32.1818C274.216 31.5341 273.905 31.0312 273.36 30.6733C272.814 30.3153 272.145 30.1364 271.353 30.1364C270.773 30.1364 270.266 30.2301 269.831 30.4176C269.401 30.6051 269.064 30.8629 268.822 31.1911C268.583 31.5192 268.464 31.892 268.464 32.3097C268.464 32.6591 268.547 32.9595 268.713 33.2109C268.883 33.4581 269.101 33.6648 269.365 33.831C269.629 33.9929 269.906 34.1271 270.196 34.2337C270.486 34.3359 270.752 34.419 270.995 34.483L272.324 34.8409C272.665 34.9304 273.045 35.054 273.462 35.2116C273.884 35.3693 274.287 35.5845 274.67 35.8572C275.058 36.1257 275.378 36.4709 275.629 36.8928C275.881 37.3146 276.006 37.8324 276.006 38.446C276.006 39.1534 275.821 39.7926 275.45 40.3636C275.084 40.9347 274.547 41.3885 273.839 41.7251C273.136 42.0618 272.282 42.2301 271.276 42.2301C270.339 42.2301 269.527 42.0788 268.841 41.7763C268.159 41.4737 267.622 41.0518 267.23 40.5107C266.842 39.9695 266.623 39.3409 266.572 38.625H268.208C268.251 39.1193 268.417 39.5284 268.706 39.8523C269.001 40.1719 269.371 40.4105 269.819 40.5682C270.27 40.7216 270.756 40.7983 271.276 40.7983C271.881 40.7983 272.425 40.7003 272.906 40.5043C273.388 40.304 273.769 40.027 274.05 39.6733C274.331 39.3153 274.472 38.8977 274.472 38.4205C274.472 37.9858 274.351 37.6321 274.108 37.3594C273.865 37.0866 273.545 36.8651 273.149 36.6946C272.753 36.5241 272.324 36.375 271.864 36.2472L270.253 35.7869C269.231 35.4929 268.421 35.0732 267.824 34.5277C267.228 33.9822 266.93 33.2685 266.93 32.3864C266.93 31.6534 267.128 31.0142 267.524 30.4688C267.925 29.919 268.461 29.4929 269.135 29.1903C269.812 28.8835 270.569 28.7301 271.404 28.7301C272.248 28.7301 272.998 28.8814 273.654 29.1839C274.31 29.4822 274.83 29.8913 275.214 30.4112C275.601 30.9311 275.806 31.5213 275.827 32.1818H274.293ZM277.897 30.3153V28.9091H287.715V30.3153H283.598V42H282.013V30.3153H277.897ZM298.752 28.9091H300.338V37.5767C300.338 38.4716 300.127 39.2706 299.705 39.9737C299.287 40.6726 298.697 41.2244 297.934 41.6293C297.171 42.0298 296.276 42.2301 295.249 42.2301C294.222 42.2301 293.328 42.0298 292.565 41.6293C291.802 41.2244 291.21 40.6726 290.788 39.9737C290.37 39.2706 290.161 38.4716 290.161 37.5767V28.9091H291.747V37.4489C291.747 38.0881 291.887 38.657 292.169 39.1555C292.45 39.6499 292.85 40.0398 293.37 40.3253C293.894 40.6065 294.521 40.7472 295.249 40.7472C295.978 40.7472 296.605 40.6065 297.129 40.3253C297.653 40.0398 298.053 39.6499 298.33 39.1555C298.612 38.657 298.752 38.0881 298.752 37.4489V28.9091ZM304.04 28.9091L307.926 39.929H308.08L311.966 28.9091H313.628L308.821 42H307.185L302.378 28.9091H304.04ZM318.045 42L314.466 28.9091H316.076L318.812 39.571H318.94L321.727 28.9091H323.517L326.304 39.571H326.431L329.167 28.9091H330.778L327.199 42H325.562L322.673 31.5682H322.571L319.681 42H318.045ZM333.52 28.9091L336.895 34.3551H336.998L340.373 28.9091H342.239L338.123 35.4545L342.239 42H340.373L336.998 36.6562H336.895L333.52 42H331.654L335.873 35.4545L331.654 28.9091H333.52ZM343.177 28.9091H344.992L348.623 35.0199H348.776L352.407 28.9091H354.222L349.492 36.6051V42H347.907V36.6051L343.177 28.9091ZM355.838 42V40.8494L362.895 30.3153H355.761V28.9091H364.787V30.0597L357.73 40.5938H364.864V42H355.838ZM148.196 56.9091V70H146.61V58.571H146.534L143.338 60.6932V59.0824L146.61 56.9091H148.196ZM151.961 70V68.8494L156.282 64.1193C156.789 63.5653 157.206 63.0838 157.534 62.6747C157.863 62.2614 158.105 61.8736 158.263 61.5114C158.425 61.1449 158.506 60.7614 158.506 60.3608C158.506 59.9006 158.395 59.5021 158.174 59.1655C157.956 58.8288 157.658 58.5689 157.279 58.3857C156.9 58.2024 156.473 58.1108 156 58.1108C155.498 58.1108 155.059 58.2152 154.684 58.424C154.313 58.6286 154.025 58.9162 153.821 59.2869C153.62 59.6577 153.52 60.0923 153.52 60.5909H152.012C152.012 59.8239 152.189 59.1506 152.542 58.571C152.896 57.9915 153.377 57.5398 153.987 57.2159C154.6 56.892 155.289 56.7301 156.051 56.7301C156.819 56.7301 157.498 56.892 158.091 57.2159C158.683 57.5398 159.147 57.9766 159.484 58.5263C159.821 59.076 159.989 59.6875 159.989 60.3608C159.989 60.8423 159.902 61.3132 159.727 61.7734C159.556 62.2294 159.258 62.7386 158.832 63.3011C158.41 63.8594 157.824 64.5412 157.074 65.3466L154.134 68.4915V68.5938H160.219V70H151.961ZM167.282 70.179C166.439 70.179 165.686 70.0341 165.026 69.7443C164.37 69.4545 163.848 69.0518 163.46 68.5362C163.076 68.0163 162.868 67.4134 162.833 66.7273H164.444C164.478 67.1491 164.623 67.5135 164.879 67.8203C165.135 68.1229 165.469 68.3572 165.882 68.5234C166.296 68.6896 166.754 68.7727 167.257 68.7727C167.819 68.7727 168.318 68.6747 168.752 68.4787C169.187 68.2827 169.528 68.0099 169.775 67.6605C170.022 67.3111 170.146 66.9062 170.146 66.446C170.146 65.9645 170.027 65.5405 169.788 65.174C169.549 64.8033 169.2 64.5135 168.74 64.3047C168.279 64.0959 167.717 63.9915 167.052 63.9915H166.004V62.5852H167.052C167.572 62.5852 168.028 62.4915 168.42 62.304C168.816 62.1165 169.125 61.8523 169.347 61.5114C169.573 61.1705 169.686 60.7699 169.686 60.3097C169.686 59.8665 169.588 59.4808 169.392 59.1527C169.196 58.8246 168.919 58.5689 168.561 58.3857C168.207 58.2024 167.789 58.1108 167.308 58.1108C166.856 58.1108 166.43 58.1939 166.029 58.3601C165.633 58.522 165.309 58.7585 165.058 59.0696C164.806 59.3764 164.67 59.7472 164.649 60.1818H163.115C163.14 59.4957 163.347 58.8949 163.735 58.3793C164.123 57.8594 164.63 57.4545 165.256 57.1648C165.887 56.875 166.579 56.7301 167.333 56.7301C168.143 56.7301 168.838 56.8942 169.417 57.2223C169.997 57.5462 170.442 57.9744 170.753 58.5071C171.064 59.0398 171.22 59.6151 171.22 60.233C171.22 60.9702 171.026 61.5987 170.638 62.1186C170.255 62.6385 169.733 62.9986 169.072 63.1989V63.3011C169.899 63.4375 170.544 63.7891 171.009 64.3558C171.473 64.9183 171.706 65.6151 171.706 66.446C171.706 67.1577 171.512 67.7969 171.124 68.3636C170.74 68.9261 170.216 69.3693 169.551 69.6932C168.887 70.017 168.13 70.179 167.282 70.179ZM174.013 67.3153V66.0114L179.766 56.9091H180.712V58.929H180.073L175.726 65.8068V65.9091H183.473V67.3153H174.013ZM180.175 70V66.919V66.3118V56.9091H181.684V70H180.175ZM189.96 70.179C189.21 70.179 188.534 70.0298 187.933 69.7315C187.333 69.4332 186.851 69.0241 186.489 68.5043C186.127 67.9844 185.928 67.392 185.894 66.7273H187.428C187.488 67.3196 187.757 67.8097 188.234 68.1974C188.715 68.581 189.291 68.7727 189.96 68.7727C190.497 68.7727 190.974 68.647 191.392 68.3956C191.813 68.1442 192.144 67.799 192.382 67.3601C192.625 66.9169 192.747 66.4162 192.747 65.858C192.747 65.2869 192.621 64.7777 192.369 64.3303C192.122 63.8786 191.781 63.5227 191.347 63.2628C190.912 63.0028 190.416 62.8707 189.857 62.8665C189.457 62.8622 189.046 62.924 188.624 63.0518C188.202 63.1754 187.855 63.3352 187.582 63.5312L186.099 63.3523L186.892 56.9091H193.693V58.3153H188.221L187.761 62.1761H187.838C188.106 61.9631 188.443 61.7862 188.847 61.6456C189.252 61.505 189.674 61.4347 190.113 61.4347C190.914 61.4347 191.628 61.6264 192.254 62.0099C192.885 62.3892 193.379 62.9091 193.737 63.5696C194.1 64.2301 194.281 64.9844 194.281 65.8324C194.281 66.6676 194.093 67.4134 193.718 68.0696C193.347 68.7216 192.836 69.2372 192.184 69.6165C191.532 69.9915 190.791 70.179 189.96 70.179ZM201.167 70.179C200.63 70.1705 200.093 70.0682 199.556 69.8722C199.019 69.6761 198.529 69.3459 198.086 68.8814C197.642 68.4126 197.287 67.7798 197.018 66.983C196.75 66.1818 196.615 65.1761 196.615 63.9659C196.615 62.8068 196.724 61.7798 196.941 60.8849C197.159 59.9858 197.474 59.2294 197.887 58.6158C198.301 57.9979 198.799 57.5291 199.383 57.2095C199.971 56.8899 200.634 56.7301 201.371 56.7301C202.104 56.7301 202.756 56.8771 203.327 57.1712C203.902 57.4609 204.371 57.8658 204.733 58.3857C205.096 58.9055 205.33 59.5043 205.436 60.1818H203.877C203.732 59.5937 203.451 59.1058 203.033 58.718C202.615 58.3303 202.061 58.1364 201.371 58.1364C200.357 58.1364 199.558 58.5774 198.974 59.4595C198.395 60.3416 198.103 61.5795 198.098 63.1733H198.201C198.439 62.8111 198.723 62.5021 199.051 62.2464C199.383 61.9865 199.75 61.7862 200.15 61.6456C200.551 61.505 200.975 61.4347 201.422 61.4347C202.172 61.4347 202.858 61.6222 203.48 61.9972C204.103 62.3679 204.601 62.8814 204.976 63.5376C205.351 64.1896 205.539 64.9375 205.539 65.7812C205.539 66.5909 205.358 67.3324 204.995 68.0057C204.633 68.6747 204.124 69.2074 203.468 69.6037C202.816 69.9957 202.049 70.1875 201.167 70.179ZM201.167 68.7727C201.703 68.7727 202.185 68.6385 202.611 68.37C203.042 68.1016 203.38 67.7415 203.627 67.2898C203.879 66.8381 204.005 66.3352 204.005 65.7812C204.005 65.2401 203.883 64.7479 203.64 64.3047C203.402 63.8572 203.071 63.5014 202.65 63.2372C202.232 62.973 201.755 62.8409 201.218 62.8409C200.813 62.8409 200.436 62.9219 200.086 63.0838C199.737 63.2415 199.43 63.4588 199.166 63.7358C198.906 64.0128 198.701 64.3303 198.552 64.6882C198.403 65.0419 198.328 65.4148 198.328 65.8068C198.328 66.3267 198.45 66.8125 198.693 67.2642C198.94 67.7159 199.277 68.0803 199.703 68.3572C200.133 68.6342 200.621 68.7727 201.167 68.7727ZM208.461 70L214.317 58.4176V58.3153H207.567V56.9091H215.953V58.392L210.123 70H208.461ZM222.265 70.179C221.387 70.179 220.612 70.0234 219.938 69.7124C219.269 69.397 218.747 68.9645 218.372 68.4148C217.997 67.8608 217.812 67.2301 217.816 66.5227C217.812 65.9687 217.921 65.4574 218.142 64.9886C218.364 64.5156 218.666 64.1214 219.05 63.8061C219.438 63.4865 219.87 63.2841 220.347 63.1989V63.1222C219.721 62.9602 219.222 62.6087 218.852 62.0675C218.481 61.522 218.298 60.902 218.302 60.2074C218.298 59.5426 218.466 58.9482 218.807 58.424C219.148 57.8999 219.617 57.4865 220.213 57.1839C220.814 56.8814 221.498 56.7301 222.265 56.7301C223.024 56.7301 223.701 56.8814 224.298 57.1839C224.894 57.4865 225.363 57.8999 225.704 58.424C226.049 58.9482 226.224 59.5426 226.228 60.2074C226.224 60.902 226.034 61.522 225.659 62.0675C225.289 62.6087 224.796 62.9602 224.183 63.1222V63.1989C224.656 63.2841 225.082 63.4865 225.461 63.8061C225.84 64.1214 226.143 64.5156 226.369 64.9886C226.595 65.4574 226.71 65.9687 226.714 66.5227C226.71 67.2301 226.518 67.8608 226.139 68.4148C225.764 68.9645 225.242 69.397 224.573 69.7124C223.908 70.0234 223.139 70.179 222.265 70.179ZM222.265 68.7727C222.857 68.7727 223.369 68.6768 223.799 68.4851C224.23 68.2933 224.562 68.0227 224.796 67.6733C225.031 67.3239 225.15 66.9148 225.154 66.446C225.15 65.9517 225.022 65.5149 224.771 65.1357C224.519 64.7564 224.176 64.4581 223.742 64.2408C223.311 64.0234 222.819 63.9148 222.265 63.9148C221.707 63.9148 221.208 64.0234 220.769 64.2408C220.335 64.4581 219.992 64.7564 219.74 65.1357C219.493 65.5149 219.372 65.9517 219.376 66.446C219.372 66.9148 219.485 67.3239 219.715 67.6733C219.949 68.0227 220.284 68.2933 220.718 68.4851C221.153 68.6768 221.669 68.7727 222.265 68.7727ZM222.265 62.5597C222.734 62.5597 223.149 62.4659 223.512 62.2784C223.878 62.0909 224.166 61.8288 224.374 61.4922C224.583 61.1555 224.69 60.7614 224.694 60.3097C224.69 59.8665 224.585 59.4808 224.381 59.1527C224.176 58.8203 223.893 58.5646 223.531 58.3857C223.169 58.2024 222.747 58.1108 222.265 58.1108C221.775 58.1108 221.347 58.2024 220.98 58.3857C220.614 58.5646 220.33 58.8203 220.13 59.1527C219.93 59.4808 219.832 59.8665 219.836 60.3097C219.832 60.7614 219.932 61.1555 220.137 61.4922C220.345 61.8288 220.633 62.0909 220.999 62.2784C221.366 62.4659 221.788 62.5597 222.265 62.5597ZM233.331 56.7301C233.868 56.7344 234.405 56.8366 234.942 57.0369C235.479 57.2372 235.969 57.5696 236.412 58.0341C236.855 58.4943 237.211 59.1229 237.48 59.9197C237.748 60.7166 237.882 61.7159 237.882 62.9176C237.882 64.081 237.772 65.1143 237.55 66.0178C237.333 66.9169 237.017 67.6754 236.604 68.2933C236.195 68.9112 235.696 69.38 235.108 69.6996C234.525 70.0192 233.864 70.179 233.127 70.179C232.394 70.179 231.74 70.0341 231.164 69.7443C230.593 69.4503 230.125 69.0433 229.758 68.5234C229.396 67.9993 229.164 67.392 229.061 66.7017H230.621C230.762 67.3026 231.041 67.799 231.458 68.1911C231.88 68.5788 232.436 68.7727 233.127 68.7727C234.137 68.7727 234.934 68.3317 235.517 67.4496C236.105 66.5675 236.4 65.321 236.4 63.7102H236.297C236.059 64.0682 235.775 64.3771 235.447 64.6371C235.119 64.897 234.755 65.0973 234.354 65.2379C233.953 65.3786 233.527 65.4489 233.076 65.4489C232.326 65.4489 231.637 65.2635 231.011 64.8928C230.389 64.5178 229.89 64.0043 229.515 63.3523C229.145 62.696 228.959 61.946 228.959 61.1023C228.959 60.3011 229.138 59.5682 229.496 58.9034C229.858 58.2344 230.365 57.7017 231.017 57.3054C231.674 56.9091 232.445 56.7173 233.331 56.7301ZM233.331 58.1364C232.794 58.1364 232.311 58.2706 231.88 58.5391C231.454 58.8033 231.115 59.1612 230.864 59.6129C230.617 60.0604 230.493 60.5568 230.493 61.1023C230.493 61.6477 230.613 62.1442 230.851 62.5916C231.094 63.0348 231.424 63.3885 231.842 63.6527C232.264 63.9126 232.743 64.0426 233.28 64.0426C233.685 64.0426 234.062 63.9638 234.412 63.8061C234.761 63.6442 235.066 63.4247 235.326 63.1477C235.59 62.8665 235.797 62.549 235.946 62.1953C236.095 61.8374 236.169 61.4645 236.169 61.0767C236.169 60.5653 236.046 60.0859 235.799 59.6385C235.556 59.1911 235.219 58.8288 234.789 58.5518C234.363 58.2749 233.877 58.1364 233.331 58.1364ZM244.666 70.179C243.703 70.179 242.883 69.9169 242.205 69.3928C241.528 68.8643 241.01 68.0994 240.652 67.098C240.294 66.0923 240.115 64.8778 240.115 63.4545C240.115 62.0398 240.294 60.8317 240.652 59.8303C241.014 58.8246 241.534 58.0575 242.211 57.5291C242.893 56.9964 243.711 56.7301 244.666 56.7301C245.621 56.7301 246.437 56.9964 247.114 57.5291C247.796 58.0575 248.316 58.8246 248.674 59.8303C249.036 60.8317 249.217 62.0398 249.217 63.4545C249.217 64.8778 249.038 66.0923 248.68 67.098C248.322 68.0994 247.805 68.8643 247.127 69.3928C246.449 69.9169 245.629 70.179 244.666 70.179ZM244.666 68.7727C245.621 68.7727 246.362 68.3125 246.89 67.392C247.419 66.4716 247.683 65.1591 247.683 63.4545C247.683 62.321 247.562 61.3558 247.319 60.5589C247.08 59.7621 246.735 59.1548 246.283 58.7372C245.836 58.3196 245.297 58.1108 244.666 58.1108C243.72 58.1108 242.981 58.5774 242.448 59.5107C241.915 60.4396 241.649 61.7543 241.649 63.4545C241.649 64.5881 241.768 65.5511 242.007 66.3438C242.246 67.1364 242.589 67.7393 243.036 68.1527C243.488 68.5661 244.031 68.7727 244.666 68.7727ZM253.666 56.9091L253.538 66.3182H252.055L251.927 56.9091H253.666ZM252.797 70.1023C252.481 70.1023 252.211 69.9893 251.985 69.7635C251.759 69.5376 251.646 69.267 251.646 68.9517C251.646 68.6364 251.759 68.3658 251.985 68.1399C252.211 67.9141 252.481 67.8011 252.797 67.8011C253.112 67.8011 253.383 67.9141 253.608 68.1399C253.834 68.3658 253.947 68.6364 253.947 68.9517C253.947 69.1605 253.894 69.3523 253.787 69.527C253.685 69.7017 253.547 69.8423 253.372 69.9489C253.202 70.0511 253.01 70.1023 252.797 70.1023ZM264.224 71.5341C262.92 71.5341 261.767 71.3551 260.766 70.9972C259.765 70.6435 258.923 70.1214 258.241 69.4311C257.559 68.7408 257.044 67.8949 256.694 66.8935C256.345 65.892 256.17 64.7457 256.17 63.4545C256.17 62.206 256.347 61.0895 256.701 60.1051C257.059 59.1207 257.576 58.2855 258.254 57.5994C258.936 56.9091 259.762 56.3828 260.734 56.0206C261.71 55.6584 262.814 55.4773 264.045 55.4773C265.243 55.4773 266.291 55.6733 267.19 56.0653C268.093 56.4531 268.848 56.9794 269.453 57.6442C270.062 58.3047 270.518 59.0483 270.821 59.875C271.127 60.7017 271.281 61.554 271.281 62.4318C271.281 63.0497 271.251 63.6761 271.191 64.3111C271.132 64.946 271.006 65.5298 270.814 66.0625C270.623 66.5909 270.326 67.017 269.926 67.3409C269.529 67.6648 268.993 67.8267 268.315 67.8267C268.017 67.8267 267.689 67.7798 267.331 67.6861C266.973 67.5923 266.655 67.4368 266.378 67.2195C266.101 67.0021 265.937 66.7102 265.886 66.3438H265.809C265.707 66.5909 265.549 66.8253 265.336 67.0469C265.127 67.2685 264.853 67.4453 264.512 67.5774C264.175 67.7095 263.764 67.767 263.278 67.75C262.724 67.7287 262.236 67.6051 261.814 67.3793C261.392 67.1491 261.039 66.8381 260.753 66.446C260.472 66.0497 260.259 65.5916 260.114 65.0717C259.973 64.5476 259.903 63.983 259.903 63.3778C259.903 62.8026 259.988 62.2763 260.159 61.799C260.329 61.3217 260.566 60.9041 260.868 60.5462C261.175 60.1882 261.533 59.9027 261.942 59.6896C262.355 59.4723 262.801 59.3381 263.278 59.2869C263.704 59.2443 264.092 59.2635 264.441 59.3445C264.791 59.4212 265.078 59.5384 265.304 59.696C265.53 59.8494 265.673 60.0199 265.733 60.2074H265.809V59.4915H267.164V65.2699C267.164 65.6278 267.265 65.9432 267.465 66.2159C267.665 66.4886 267.957 66.625 268.341 66.625C268.775 66.625 269.108 66.4759 269.338 66.1776C269.572 65.8793 269.732 65.419 269.817 64.7969C269.907 64.1747 269.951 63.3778 269.951 62.4062C269.951 61.8352 269.873 61.2727 269.715 60.7188C269.561 60.1605 269.327 59.6385 269.012 59.1527C268.701 58.6669 268.306 58.2386 267.829 57.8679C267.352 57.4972 266.792 57.2074 266.148 56.9986C265.509 56.7855 264.782 56.679 263.968 56.679C262.967 56.679 262.07 56.8345 261.277 57.1456C260.489 57.4524 259.818 57.902 259.264 58.4943C258.714 59.0824 258.294 59.7983 258.005 60.642C257.719 61.4815 257.576 62.4361 257.576 63.5057C257.576 64.5923 257.719 65.5575 258.005 66.4013C258.294 67.245 258.721 67.9567 259.283 68.5362C259.85 69.1158 260.551 69.5568 261.386 69.8594C262.221 70.1577 263.184 70.3068 264.275 70.3068C264.744 70.3068 265.206 70.2621 265.662 70.1726C266.118 70.0831 266.521 69.9851 266.87 69.8786C267.22 69.772 267.471 69.6932 267.625 69.642L267.983 70.8182C267.718 70.929 267.373 71.0398 266.947 71.1506C266.525 71.2614 266.074 71.353 265.592 71.4254C265.115 71.4979 264.659 71.5341 264.224 71.5341ZM263.483 66.446C264.054 66.446 264.516 66.331 264.87 66.1009C265.223 65.8707 265.481 65.5234 265.643 65.0589C265.805 64.5945 265.886 64.0085 265.886 63.3011C265.886 62.5852 265.797 62.027 265.618 61.6264C265.439 61.2259 265.174 60.9446 264.825 60.7827C264.475 60.6207 264.045 60.5398 263.534 60.5398C263.048 60.5398 262.632 60.6676 262.287 60.9233C261.946 61.1747 261.684 61.5114 261.501 61.9332C261.322 62.3509 261.233 62.8068 261.233 63.3011C261.233 63.8466 261.305 64.3601 261.45 64.8416C261.595 65.3189 261.831 65.7067 262.159 66.005C262.488 66.299 262.929 66.446 263.483 66.446ZM278.422 70L280.57 56.9091H281.849L279.701 70H278.422ZM272.465 66.3693L272.67 65.0909H282.437L282.232 66.3693H272.465ZM273.82 70L275.968 56.9091H277.246L275.099 70H273.82ZM273.232 61.8182L273.437 60.5398H283.204L282.999 61.8182H273.232ZM288.73 71.6364V55.2727H289.778V71.6364H288.73ZM292.258 60.1818C292.181 59.5341 291.87 59.0312 291.325 58.6733C290.779 58.3153 290.11 58.1364 289.318 58.1364C288.738 58.1364 288.231 58.2301 287.796 58.4176C287.366 58.6051 287.029 58.8629 286.786 59.1911C286.548 59.5192 286.428 59.892 286.428 60.3097C286.428 60.6591 286.512 60.9595 286.678 61.2109C286.848 61.4581 287.066 61.6648 287.33 61.831C287.594 61.9929 287.871 62.1271 288.161 62.2337C288.45 62.3359 288.717 62.419 288.96 62.483L290.289 62.8409C290.63 62.9304 291.009 63.054 291.427 63.2116C291.849 63.3693 292.252 63.5845 292.635 63.8572C293.023 64.1257 293.343 64.4709 293.594 64.8928C293.845 65.3146 293.971 65.8324 293.971 66.446C293.971 67.1534 293.786 67.7926 293.415 68.3636C293.048 68.9347 292.512 69.3885 291.804 69.7251C291.101 70.0618 290.247 70.2301 289.241 70.2301C288.303 70.2301 287.492 70.0788 286.806 69.7763C286.124 69.4737 285.587 69.0518 285.195 68.5107C284.807 67.9695 284.588 67.3409 284.536 66.625H286.173C286.215 67.1193 286.382 67.5284 286.671 67.8523C286.965 68.1719 287.336 68.4105 287.784 68.5682C288.235 68.7216 288.721 68.7983 289.241 68.7983C289.846 68.7983 290.389 68.7003 290.871 68.5043C291.352 68.304 291.734 68.027 292.015 67.6733C292.296 67.3153 292.437 66.8977 292.437 66.4205C292.437 65.9858 292.316 65.6321 292.073 65.3594C291.83 65.0866 291.51 64.8651 291.114 64.6946C290.718 64.5241 290.289 64.375 289.829 64.2472L288.218 63.7869C287.195 63.4929 286.386 63.0732 285.789 62.5277C285.193 61.9822 284.894 61.2685 284.894 60.3864C284.894 59.6534 285.093 59.0142 285.489 58.4688C285.889 57.919 286.426 57.4929 287.1 57.1903C287.777 56.8835 288.534 56.7301 289.369 56.7301C290.213 56.7301 290.963 56.8814 291.619 57.1839C292.275 57.4822 292.795 57.8913 293.178 58.4112C293.566 58.9311 293.771 59.5213 293.792 60.1818H292.258ZM303.021 67.5455V66.8551C303.021 66.3778 303.119 65.9411 303.315 65.5447C303.515 65.1442 303.805 64.8246 304.184 64.5859C304.567 64.343 305.032 64.2216 305.577 64.2216C306.131 64.2216 306.596 64.343 306.971 64.5859C307.346 64.8246 307.629 65.1442 307.821 65.5447C308.013 65.9411 308.109 66.3778 308.109 66.8551V67.5455C308.109 68.0227 308.011 68.4616 307.815 68.8622C307.623 69.2585 307.337 69.5781 306.958 69.821C306.583 70.0597 306.123 70.179 305.577 70.179C305.023 70.179 304.557 70.0597 304.178 69.821C303.798 69.5781 303.511 69.2585 303.315 68.8622C303.119 68.4616 303.021 68.0227 303.021 67.5455ZM304.325 66.8551V67.5455C304.325 67.9418 304.418 68.2976 304.606 68.6129C304.793 68.924 305.117 69.0795 305.577 69.0795C306.025 69.0795 306.34 68.924 306.523 68.6129C306.711 68.2976 306.805 67.9418 306.805 67.5455V66.8551C306.805 66.4588 306.715 66.1051 306.536 65.794C306.357 65.4787 306.038 65.321 305.577 65.321C305.13 65.321 304.808 65.4787 304.612 65.794C304.42 66.1051 304.325 66.4588 304.325 66.8551ZM296.501 60.054V59.3636C296.501 58.8864 296.599 58.4496 296.795 58.0533C296.995 57.6527 297.285 57.3331 297.664 57.0945C298.048 56.8516 298.512 56.7301 299.058 56.7301C299.612 56.7301 300.076 56.8516 300.451 57.0945C300.826 57.3331 301.109 57.6527 301.301 58.0533C301.493 58.4496 301.589 58.8864 301.589 59.3636V60.054C301.589 60.5312 301.491 60.9702 301.295 61.3707C301.103 61.767 300.817 62.0866 300.438 62.3295C300.063 62.5682 299.603 62.6875 299.058 62.6875C298.504 62.6875 298.037 62.5682 297.658 62.3295C297.278 62.0866 296.991 61.767 296.795 61.3707C296.599 60.9702 296.501 60.5312 296.501 60.054ZM297.805 59.3636V60.054C297.805 60.4503 297.898 60.8061 298.086 61.1214C298.273 61.4325 298.597 61.5881 299.058 61.5881C299.505 61.5881 299.82 61.4325 300.004 61.1214C300.191 60.8061 300.285 60.4503 300.285 60.054V59.3636C300.285 58.9673 300.195 58.6136 300.016 58.3026C299.837 57.9872 299.518 57.8295 299.058 57.8295C298.61 57.8295 298.288 57.9872 298.092 58.3026C297.901 58.6136 297.805 58.9673 297.805 59.3636ZM296.987 70L305.987 56.9091H307.444L298.444 70H296.987ZM313.606 58.0341H314.066V58.6733H313.606V58.0341ZM310.333 62.8409L312.967 57.3182H314.705L317.339 62.8409H315.83L313.759 58.4176H313.913L311.867 62.8409H310.333ZM322.528 70.179C321.667 70.179 320.925 70.0213 320.303 69.706C319.681 69.3906 319.202 68.9581 318.865 68.4084C318.528 67.8587 318.36 67.2301 318.36 66.5227C318.36 65.9773 318.475 65.4936 318.705 65.0717C318.939 64.6456 319.261 64.2514 319.67 63.8892C320.084 63.5227 320.559 63.1562 321.096 62.7898L322.988 61.3835C323.358 61.1406 323.655 60.8807 323.876 60.6037C324.102 60.3267 324.215 59.9645 324.215 59.517C324.215 59.1847 324.068 58.8629 323.774 58.5518C323.484 58.2408 323.103 58.0852 322.63 58.0852C322.297 58.0852 322.003 58.1705 321.748 58.3409C321.496 58.5071 321.298 58.7202 321.153 58.9801C321.013 59.2358 320.942 59.5 320.942 59.7727C320.942 60.0795 321.025 60.3906 321.192 60.706C321.362 61.017 321.577 61.3366 321.837 61.6648C322.101 61.9886 322.374 62.321 322.655 62.6619L328.664 70H326.849L321.888 64.017C321.428 63.4631 321.01 62.9602 320.635 62.5085C320.26 62.0568 319.962 61.6115 319.741 61.1726C319.519 60.7337 319.408 60.2585 319.408 59.7472C319.408 59.1591 319.538 58.6435 319.798 58.2003C320.062 57.7528 320.431 57.4055 320.904 57.1584C321.381 56.907 321.939 56.7812 322.579 56.7812C323.235 56.7812 323.8 56.9091 324.273 57.1648C324.746 57.4162 325.11 57.7507 325.366 58.1683C325.621 58.5817 325.749 59.0312 325.749 59.517C325.749 60.1435 325.594 60.6868 325.282 61.147C324.971 61.6072 324.547 62.0355 324.01 62.4318L321.403 64.375C320.814 64.8097 320.416 65.2315 320.207 65.6406C319.998 66.0497 319.894 66.3437 319.894 66.5227C319.894 66.9318 320.001 67.3132 320.214 67.6669C320.427 68.0206 320.727 68.3061 321.115 68.5234C321.503 68.7408 321.956 68.8494 322.476 68.8494C322.971 68.8494 323.452 68.745 323.921 68.5362C324.39 68.3232 324.814 68.0163 325.193 67.6158C325.577 67.2152 325.879 66.7337 326.101 66.1712C326.327 65.6087 326.439 64.9759 326.439 64.2727H327.897C327.897 65.142 327.797 65.8516 327.596 66.4013C327.396 66.951 327.17 67.3814 326.919 67.6925C326.667 68.0036 326.465 68.2358 326.312 68.3892C326.26 68.4531 326.214 68.517 326.171 68.581C326.128 68.6449 326.081 68.7088 326.03 68.7727C325.608 69.2457 325.076 69.5994 324.432 69.8338C323.789 70.0639 323.154 70.179 322.528 70.179ZM332.839 64.2727L332.942 61.4602L330.564 62.9688L329.95 61.8949L332.456 60.5909L329.95 59.2869L330.564 58.2131L332.942 59.7216L332.839 56.9091H334.067L333.964 59.7216L336.342 58.2131L336.956 59.2869L334.45 60.5909L336.956 61.8949L336.342 62.9688L333.964 61.4602L334.067 64.2727H332.839ZM339.871 64.4773C339.871 62.8665 340.08 61.3857 340.497 60.0348C340.919 58.6797 341.52 57.4332 342.3 56.2955H343.629C343.322 56.7173 343.035 57.2372 342.766 57.8551C342.502 58.4687 342.27 59.1442 342.07 59.8814C341.869 60.6143 341.712 61.3729 341.597 62.157C341.486 62.9411 341.43 63.7145 341.43 64.4773C341.43 65.4915 341.528 66.5206 341.724 67.5646C341.92 68.6087 342.185 69.5781 342.517 70.473C342.849 71.3679 343.22 72.0966 343.629 72.6591H342.3C341.52 71.5213 340.919 70.277 340.497 68.9261C340.08 67.571 339.871 66.0881 339.871 64.4773ZM349.077 64.4773C349.077 66.0881 348.866 67.571 348.444 68.9261C348.026 70.277 347.428 71.5213 346.648 72.6591H345.318C345.625 72.2372 345.911 71.7173 346.175 71.0994C346.443 70.4858 346.678 69.8125 346.878 69.0795C347.078 68.3423 347.234 67.5817 347.345 66.7976C347.46 66.0092 347.517 65.2358 347.517 64.4773C347.517 63.4631 347.419 62.4339 347.223 61.3899C347.027 60.3459 346.763 59.3764 346.431 58.4815C346.098 57.5866 345.727 56.858 345.318 56.2955H346.648C347.428 57.4332 348.026 58.6797 348.444 60.0348C348.866 61.3857 349.077 62.8665 349.077 64.4773ZM359.152 70V71.4062H350.971V70H359.152ZM364.351 69.1051V60.6676H365.782V69.1051H364.351ZM360.848 65.6023V64.1705H369.285V65.6023H360.848Z" fill="#10130E"/>
</svg>
