<svg width="150" height="151" viewBox="0 0 150 151" fill="none" xmlns="http://www.w3.org/2000/svg">
<ellipse cx="60.5376" cy="86.0801" rx="50.5376" ry="50" fill="#DBEEFF"/>
<path d="M76.0695 45.2227L55.6328 66.0926" stroke="#0065F2" stroke-width="4" stroke-linecap="round" stroke-linejoin="round"/>
<path d="M76.0695 66.0926L55.6328 45.2227" stroke="#0065F2" stroke-width="4" stroke-linecap="round" stroke-linejoin="round"/>
<path d="M124.081 82.0977L103.645 102.952" stroke="#0065F2" stroke-width="4" stroke-linecap="round" stroke-linejoin="round"/>
<path d="M124.081 102.952L103.645 82.0977" stroke="#0065F2" stroke-width="4" stroke-linecap="round" stroke-linejoin="round"/>
<path d="M139.999 49.6391C139.999 57.1132 134.07 63.163 126.745 63.163C119.421 63.163 113.492 57.1132 113.492 49.6391C113.492 42.165 119.421 36.1152 126.745 36.1152C134.07 36.1152 139.999 42.165 139.999 49.6391Z" stroke="#0065F2" stroke-width="4" stroke-linecap="round" stroke-linejoin="round"/>
<path d="M92.5991 15.1016C92.5991 15.1016 114.275 68.5728 66.4062 99.9098" stroke="#0065F2" stroke-width="4" stroke-linecap="round" stroke-linejoin="round"/>
<path d="M92.4297 14.6211L85.1992 29.3773" stroke="#0065F2" stroke-width="4" stroke-linecap="round" stroke-linejoin="round"/>
<path d="M92.4766 14.6055L106.357 23.0399" stroke="#0065F2" stroke-width="4" stroke-linecap="round" stroke-linejoin="round"/>
</svg>
