<svg width="150" height="151" viewBox="0 0 150 151" fill="none" xmlns="http://www.w3.org/2000/svg">
<circle cx="66.2946" cy="78.9626" r="52.2946" fill="#DBEEFF"/>
<g clip-path="url(#clip0_1088_20858)">
<path d="M121.703 52.5879H134.128" stroke="#0065F2" stroke-width="4" stroke-miterlimit="10" stroke-linecap="round"/>
<path d="M38.8711 52.5879H107.209" stroke="#0065F2" stroke-width="4" stroke-miterlimit="10" stroke-linecap="round"/>
<path d="M112.585 21.4785H105.973C104.939 21.4785 104.102 22.3175 104.102 23.3525V36.1959C104.102 37.2309 104.939 38.0699 105.973 38.0699H112.585C113.618 38.0699 114.456 37.2309 114.456 36.1959V23.3525C114.456 22.3175 113.618 21.4785 112.585 21.4785Z" stroke="#0065F2" stroke-width="4" stroke-miterlimit="10" stroke-linecap="round"/>
<path d="M67.0261 21.4785H60.4142C59.3807 21.4785 58.543 22.3175 58.543 23.3525V36.1959C58.543 37.2309 59.3807 38.0699 60.4142 38.0699H67.0261C68.0595 38.0699 68.8973 37.2309 68.8973 36.1959V23.3525C68.8973 22.3175 68.0595 21.4785 67.0261 21.4785Z" stroke="#0065F2" stroke-width="4" stroke-miterlimit="10" stroke-linecap="round"/>
<path d="M114.585 29.7734H125.974C128.17 29.7737 130.277 30.6477 131.83 32.2033C133.384 33.7589 134.256 35.8687 134.257 38.0687V104.433C134.256 106.633 133.384 108.743 131.83 110.298C130.277 111.854 128.17 112.728 125.974 112.728H47.2829C45.0864 112.728 42.9799 111.854 41.4266 110.299C39.8733 108.743 39.0005 106.634 39 104.434V75.3995" stroke="#0065F2" stroke-width="4" stroke-miterlimit="10" stroke-linecap="round"/>
<path d="M68.8984 29.7734H104.102" stroke="#0065F2" stroke-width="4" stroke-miterlimit="10" stroke-linecap="round"/>
<path d="M38.8711 60.8817V38.0687C38.8713 35.8687 39.7441 33.7589 41.2974 32.2033C42.8507 30.6477 44.9573 29.7737 47.154 29.7734H58.5431" stroke="#0065F2" stroke-width="4" stroke-miterlimit="10" stroke-linecap="round"/>
<path d="M70.1264 80.8547H73.4646C74.105 80.9077 74.7494 80.8268 75.357 80.6171C75.9645 80.4074 76.5219 80.0735 76.9937 79.6366C77.787 78.7501 78.1997 77.5864 78.1426 76.3974C78.1758 75.8393 78.0916 75.2805 77.8954 74.757C77.6993 74.2336 77.3956 73.7572 77.004 73.3588C76.1454 72.5969 75.0206 72.2061 73.8753 72.2718C72.784 72.235 71.7159 72.5929 70.8664 73.28C70.4744 73.5944 70.1606 73.9955 69.9495 74.4519C69.7385 74.9083 69.636 75.4075 69.6501 75.9102H63.3881C63.3654 74.2981 63.8302 72.7168 64.7214 71.3742C65.6479 70.0018 66.938 68.9151 68.447 68.2362C70.0992 67.468 71.9023 67.0806 73.7238 67.1024C77.0576 67.1024 79.6711 67.9195 81.5641 69.5536C82.5137 70.3936 83.262 71.4371 83.7536 72.6065C84.2452 73.7759 84.4674 75.0412 84.4037 76.3084C84.4074 77.7749 83.9447 79.2045 83.0826 80.39C82.2007 81.6323 81.0064 82.6189 79.6209 83.2497C81.2246 83.7727 82.6174 84.7995 83.5925 86.1778C84.4868 87.5465 84.9437 89.1554 84.9024 90.7906C84.9502 92.0986 84.699 93.4002 84.1678 94.5961C83.6365 95.792 82.8394 96.8504 81.8373 97.6906C79.5332 99.5062 76.6521 100.427 73.7238 100.285C70.9249 100.404 68.1786 99.4976 65.9994 97.7347C65.0209 96.9123 64.2426 95.8771 63.7238 94.7081C63.205 93.539 62.9593 92.2668 63.0055 90.9883H69.2656C69.2499 91.5521 69.3615 92.1122 69.592 92.6268C69.8225 93.1414 70.1661 93.5973 70.597 93.9604C71.5686 94.7172 72.7667 95.1236 73.9975 95.1137C75.2283 95.1038 76.4198 94.6784 77.3792 93.9061C77.8029 93.4905 78.1345 92.9902 78.3524 92.4377C78.5703 91.8853 78.6697 91.2931 78.6441 90.6997C78.6441 87.4746 76.9114 85.8633 73.4459 85.8658H70.1301L70.1264 80.8547Z" fill="#0065F2"/>
<path d="M100.03 66.207C103.259 66.207 105.783 67.3591 107.602 69.6632C109.77 72.3917 110.853 76.9166 110.853 83.2377C110.853 89.5437 109.762 94.0761 107.579 96.8349C105.775 99.1087 103.259 100.246 100.03 100.246C96.7863 100.246 94.1715 99.0026 92.1857 96.5166C90.1999 94.0155 89.207 89.5664 89.207 83.1695C89.207 76.8938 90.2984 72.3766 92.4813 69.6177C94.2852 67.3439 96.8015 66.207 100.03 66.207ZM100.03 71.505C99.2572 71.505 98.5675 71.7551 97.9611 72.2553C97.3548 72.7404 96.8849 73.6196 96.5514 74.8929C96.1118 76.5452 95.892 79.3268 95.892 83.2377C95.892 87.1486 96.089 89.8393 96.4832 91.3096C96.8773 92.7649 97.3699 93.735 97.9611 94.2201C98.5675 94.7052 99.2572 94.9477 100.03 94.9477C100.803 94.9477 101.493 94.7052 102.099 94.2201C102.706 93.7199 103.176 92.8331 103.509 91.5598C103.949 89.9226 104.169 87.1486 104.169 83.2377C104.169 79.3268 103.971 76.6437 103.577 75.1885C103.183 73.7181 102.683 72.7404 102.077 72.2553C101.485 71.7551 100.803 71.505 100.03 71.505Z" fill="#0065F2"/>
</g>
<defs>
<clipPath id="clip0_1088_20858">
<rect width="99" height="95" fill="white" transform="translate(37 19.6055)"/>
</clipPath>
</defs>
</svg>
