<svg width="577" height="512" viewBox="0 0 577 512" fill="none" xmlns="http://www.w3.org/2000/svg">
<circle cx="278.446" cy="260.739" r="113.739" fill="#DBEEFF"/>
<g clip-path="url(#clip0_1088_20926)">
<path d="M295.199 175.857L285.348 174.457C279.703 173.649 273.945 174.5 268.775 176.908C263.606 179.316 259.248 183.175 256.234 188.016C252.928 193.362 250.001 198.933 247.477 204.69C245.691 208.744 244.058 212.963 242.578 217.347C241.994 219.075 242.074 220.959 242.801 222.633C243.528 224.306 244.85 225.65 246.512 226.404L265.635 235.079" stroke="#005CEE" stroke-width="8.42667" stroke-linecap="round" stroke-linejoin="round"/>
<path d="M376.124 256.779L377.524 266.631C378.332 272.276 377.481 278.034 375.073 283.204C372.666 288.373 368.806 292.731 363.965 295.745C358.62 299.052 353.048 301.978 347.291 304.502C343.237 306.288 339.018 307.921 334.635 309.401C332.906 309.985 331.022 309.905 329.349 309.178C327.675 308.452 326.331 307.129 325.578 305.467L316.902 286.344" stroke="#005CEE" stroke-width="8.42667" stroke-linecap="round" stroke-linejoin="round"/>
<path d="M305.605 186.264C296.915 195.23 290.223 205.934 285.969 217.673" stroke="#005CEE" stroke-width="8.42667" stroke-linecap="round" stroke-linejoin="round"/>
<path d="M262.319 331.286L300.154 293.451C303.331 290.274 307.403 288.143 311.824 287.342C333.515 283.41 358.053 274.85 376.123 256.781C401.434 231.47 408.084 193.464 409.498 168.375C409.694 164.924 409.159 161.47 407.927 158.241C406.696 155.011 404.796 152.077 402.352 149.633C399.909 147.188 396.976 145.287 393.747 144.055C390.517 142.822 387.064 142.286 383.613 142.48C358.528 143.894 320.52 150.546 295.207 175.855C277.139 193.924 268.579 218.464 264.647 240.155C263.846 244.576 261.715 248.648 258.538 251.825L237.871 272.492" stroke="#005CEE" stroke-width="8.42667" stroke-linecap="round" stroke-linejoin="round"/>
<path d="M220.695 331.288L246.862 305.121" stroke="#005CEE" stroke-width="8.42667" stroke-linecap="round" stroke-linejoin="round"/>
<path d="M351.27 222.787C363.462 222.787 373.345 212.903 373.345 200.712C373.345 188.52 363.462 178.637 351.27 178.637C339.079 178.637 329.195 188.52 329.195 200.712C329.195 212.903 339.079 222.787 351.27 222.787Z" stroke="#005CEE" stroke-width="8.42667" stroke-linecap="round" stroke-linejoin="round"/>
<path d="M258.507 314.283L281.49 291.299L257.798 294.18L260.68 270.488L232.949 298.209" stroke="#005CEE" stroke-width="8.42667" stroke-linecap="round" stroke-linejoin="round"/>
<path d="M316.903 286.345C297.059 272.254 279.728 254.923 265.637 235.078" stroke="#005CEE" stroke-width="8.42667" stroke-linecap="round" stroke-linejoin="round"/>
<path d="M353.867 146.42C363.393 152.808 372.31 160.06 380.505 168.084C380.746 168.318 380.985 168.554 381.227 168.791C381.555 169.116 381.883 169.441 382.209 169.766C382.494 170.051 382.78 170.336 383.055 170.62C383.27 170.834 383.481 171.049 383.692 171.266C391.72 179.421 399.076 188.214 405.685 197.558" stroke="#005CEE" stroke-width="8.42667" stroke-linecap="round" stroke-linejoin="round"/>
</g>
<path d="M133.3 180.235C134.536 180.235 135.64 180.511 136.612 181.063C137.596 181.627 138.358 182.389 138.898 183.349C139.45 184.321 139.726 185.407 139.726 186.607C139.726 188.011 139.366 189.241 138.646 190.297C137.926 191.353 136.93 192.091 135.658 192.511L135.658 189.613C136.258 189.325 136.708 188.917 137.008 188.389C137.308 187.873 137.458 187.273 137.458 186.589C137.458 185.857 137.284 185.203 136.936 184.627C136.6 184.063 136.12 183.619 135.496 183.295C134.872 182.983 134.14 182.827 133.3 182.827C132.472 182.827 131.74 182.983 131.104 183.295C130.48 183.619 129.994 184.063 129.646 184.627C129.31 185.203 129.142 185.857 129.142 186.589C129.142 187.273 129.292 187.873 129.592 188.389C129.904 188.917 130.36 189.325 130.96 189.613L130.96 192.511C129.676 192.091 128.674 191.353 127.954 190.297C127.246 189.253 126.892 188.023 126.892 186.607C126.892 185.407 127.162 184.321 127.702 183.349C128.254 182.389 129.016 181.627 129.988 181.063C130.96 180.511 132.064 180.235 133.3 180.235ZM128.998 201.684L128.998 205.824L127 205.824L127 199.164L139.564 199.164L139.564 201.684L128.998 201.684ZM137.53 214.446L134.38 214.446L134.38 218.676L132.382 218.676L132.382 214.446L129.052 214.446L129.052 219.216L127 219.216L127 211.926L139.582 211.926L139.582 219.216L137.53 219.216L137.53 214.446ZM129.394 233.71L129.394 228.706L127 227.878L127 225.232L139.582 229.75L139.582 232.684L127 237.202L127 234.538L129.394 233.71ZM131.41 233.026L136.666 231.208L131.41 229.39L131.41 233.026ZM127 249.87L131.896 247.098L131.896 245.91L127 245.91L127 243.39L139.564 243.39L139.564 248.106C139.564 249.078 139.39 249.906 139.042 250.59C138.706 251.274 138.244 251.784 137.656 252.12C137.08 252.468 136.432 252.642 135.712 252.642C134.884 252.642 134.134 252.402 133.462 251.922C132.802 251.442 132.346 250.728 132.094 249.78L127 252.786L127 249.87ZM133.786 245.91L133.786 248.016C133.786 248.7 133.948 249.21 134.272 249.546C134.608 249.882 135.07 250.05 135.658 250.05C136.234 250.05 136.678 249.882 136.99 249.546C137.314 249.21 137.476 248.7 137.476 248.016L137.476 245.91L133.786 245.91ZM126.874 263.76C126.874 262.884 127.024 262.092 127.324 261.384C127.624 260.688 128.056 260.136 128.62 259.728C129.184 259.32 129.85 259.11 130.618 259.098L130.618 261.798C130.102 261.834 129.694 262.014 129.394 262.338C129.094 262.674 128.944 263.13 128.944 263.706C128.944 264.294 129.082 264.756 129.358 265.092C129.646 265.428 130.018 265.596 130.474 265.596C130.846 265.596 131.152 265.482 131.392 265.254C131.632 265.026 131.818 264.738 131.95 264.39C132.094 264.054 132.25 263.586 132.418 262.986C132.658 262.17 132.892 261.504 133.12 260.988C133.36 260.484 133.714 260.046 134.182 259.674C134.662 259.314 135.298 259.134 136.09 259.134C136.834 259.134 137.482 259.32 138.034 259.692C138.586 260.064 139.006 260.586 139.294 261.258C139.594 261.93 139.744 262.698 139.744 263.562C139.744 264.858 139.426 265.908 138.79 266.712C138.166 267.528 137.29 267.978 136.162 268.062L136.162 265.29C136.594 265.266 136.948 265.08 137.224 264.732C137.512 264.396 137.656 263.946 137.656 263.382C137.656 262.89 137.53 262.494 137.278 262.194C137.026 261.906 136.66 261.762 136.18 261.762C135.844 261.762 135.562 261.87 135.334 262.086C135.118 262.314 134.938 262.59 134.794 262.914C134.662 263.25 134.506 263.718 134.326 264.318C134.086 265.134 133.846 265.8 133.606 266.316C133.366 266.832 133.006 267.276 132.526 267.648C132.046 268.02 131.416 268.206 130.636 268.206C129.964 268.206 129.34 268.032 128.764 267.684C128.188 267.336 127.726 266.826 127.378 266.154C127.042 265.482 126.874 264.684 126.874 263.76ZM135.676 284.052C135.004 284.052 134.374 283.89 133.786 283.566C133.198 283.254 132.724 282.756 132.364 282.072C132.004 281.4 131.824 280.548 131.824 279.516L131.824 277.41L127 277.41L127 274.89L139.564 274.89L139.564 279.516C139.564 280.488 139.396 281.316 139.06 282C138.724 282.684 138.262 283.194 137.674 283.53C137.086 283.878 136.42 284.052 135.676 284.052ZM133.858 279.408C133.858 280.104 134.014 280.62 134.326 280.956C134.65 281.292 135.1 281.46 135.676 281.46C136.9 281.46 137.512 280.776 137.512 279.408L137.512 277.41L133.858 277.41L133.858 279.408ZM129.394 298.046L129.394 293.042L127 292.214L127 289.568L139.582 294.086L139.582 297.02L127 301.538L127 298.874L129.394 298.046ZM131.41 297.362L136.666 295.544L131.41 293.726L131.41 297.362ZM133.3 307.114C134.536 307.114 135.64 307.39 136.612 307.942C137.596 308.506 138.358 309.268 138.898 310.228C139.45 311.2 139.726 312.286 139.726 313.486C139.726 314.89 139.366 316.12 138.646 317.176C137.926 318.232 136.93 318.97 135.658 319.39L135.658 316.492C136.258 316.204 136.708 315.796 137.008 315.268C137.308 314.752 137.458 314.152 137.458 313.468C137.458 312.736 137.284 312.082 136.936 311.506C136.6 310.942 136.12 310.498 135.496 310.174C134.872 309.862 134.14 309.706 133.3 309.706C132.472 309.706 131.74 309.862 131.104 310.174C130.48 310.498 129.994 310.942 129.646 311.506C129.31 312.082 129.142 312.736 129.142 313.468C129.142 314.152 129.292 314.752 129.592 315.268C129.904 315.796 130.36 316.204 130.96 316.492L130.96 319.39C129.676 318.97 128.674 318.232 127.954 317.176C127.246 316.132 126.892 314.902 126.892 313.486C126.892 312.286 127.162 311.2 127.702 310.228C128.254 309.268 129.016 308.506 129.988 307.942C130.96 307.39 132.064 307.114 133.3 307.114ZM137.53 328.563L134.38 328.563L134.38 332.793L132.382 332.793L132.382 328.563L129.052 328.563L129.052 333.333L127 333.333L127 326.043L139.582 326.043L139.582 333.333L137.53 333.333L137.53 328.563Z" fill="#494949"/>
<line x1="415" y1="511.605" x2="415" y2="1.60547" stroke="#DBF0FE" stroke-width="2"/>
<line x1="102.5" y1="511.605" x2="102.5" y2="1.60547" stroke="#DBF0FE" stroke-width="2"/>
<line x1="577" y1="445.605" x2="1" y2="445.605" stroke="#DBF0FE" stroke-width="2"/>
<line x1="577" y1="132.605" x2="1" y2="132.605" stroke="#DBF0FE" stroke-width="2"/>
<line x1="475.5" y1="511.605" x2="475.5" y2="1.60547" stroke="#DBF0FE" stroke-width="2"/>
<line x1="163" y1="511.605" x2="163" y2="1.60547" stroke="#DBF0FE" stroke-width="2"/>
<line x1="577" y1="384.605" x2="1" y2="384.605" stroke="#DBF0FE" stroke-width="2"/>
<line x1="577" y1="72.6055" x2="1" y2="72.6055" stroke="#DBF0FE" stroke-width="2"/>
<rect opacity="0.1" x="104" y="73.6055" width="58.5" height="58.5" fill="#0065F2"/>
<rect opacity="0.1" x="164" y="385.605" width="250" height="59" fill="#0065F2"/>
<path d="M277.846 419.049V417.069L283.732 408.645H286.666V416.853H288.25V419.049H286.666V421.605H284.146V419.049H277.846ZM284.308 411.345L280.618 416.853H284.308V411.345ZM297.666 421.605L294.948 417.375L292.482 421.605H289.638L293.598 415.269L289.584 409.041H292.482L295.2 413.253L297.648 409.041H300.492L296.55 415.359L300.564 421.605H297.666Z" fill="#494949"/>
<path d="M134.766 108.605L132.048 104.375L129.582 108.605H126.738L130.698 102.269L126.684 96.0415H129.582L132.3 100.253L134.748 96.0415H137.592L133.65 102.359L137.664 108.605H134.766Z" fill="#494949"/>
<defs>
<clipPath id="clip0_1088_20926">
<rect width="198.027" height="198.027" fill="white" transform="translate(215.324 138.633)"/>
</clipPath>
</defs>
</svg>
