<svg width="151" height="150" viewBox="0 0 151 150" fill="none" xmlns="http://www.w3.org/2000/svg">
<circle cx="75.2946" cy="79.2946" r="52.2946" fill="#DBEEFF"/>
<path d="M116.999 59.8443C117.179 65.5115 113.705 66.5845 110.848 65.2084C105.751 62.7518 109.218 54.4433 109.218 54.4433C114.776 31.6947 86.8861 18 86.8861 18C86.8861 18 92.3837 32.8898 83.2202 42.1875C75.2217 50.3026 60.9746 61.2365 60.9746 75.9809C60.9746 79.6251 59.8914 97.054 87.2219 105.998" stroke="#0065F2" stroke-width="4" stroke-linecap="round" stroke-linejoin="round"/>
<path d="M98.5508 105.997C147.044 92.4147 120.437 49.3076 120.437 49.3076" stroke="#0065F2" stroke-width="4" stroke-linecap="round" stroke-linejoin="round"/>
<path d="M89.7578 64.6687C91.5261 60.8794 93.965 57.4367 96.9582 54.5049C94.3148 66.9257 102.535 72.9933 102.535 72.9933C110.054 79.285 110.93 83.8544 110.558 88.5618C110.187 93.2692 108.712 99.832 98.547 105.996" stroke="#0065F2" stroke-width="4" stroke-linejoin="round"/>
<path d="M91.6277 87.5238C92.2226 76.2463 80.8073 67.0557 80.8073 67.0557C82.0933 69.2336 82.6557 71.7591 82.4145 74.2731C82.1733 76.7871 81.1408 79.1614 79.4639 81.0584C79.4639 81.0584 74.3182 87.3933 77.481 94.3811C77.481 94.3811 80.4243 101.959 87.2157 106" stroke="#0065F2" stroke-width="4" stroke-linejoin="round"/>
</svg>
