<svg width="150" height="151" viewBox="0 0 150 151" fill="none" xmlns="http://www.w3.org/2000/svg">
<circle cx="70.9753" cy="86.819" r="54.1472" fill="#DBEEFF"/>
<path d="M68.6953 73.5944C68.6953 77.3102 71.7481 80.3313 75.5028 80.3313C79.2576 80.3313 82.3103 77.3102 82.3103 73.5944C82.3103 69.8785 79.2576 66.8574 75.5028 66.8574C71.7481 66.8574 68.6953 69.8785 68.6953 73.5944Z" stroke="#0065F2" stroke-width="4" stroke-linecap="round" stroke-linejoin="round"/>
<path d="M82.6698 53.4963C80.4333 52.7208 78.0172 52.3008 75.5195 52.3008C68.2549 52.3008 61.7902 55.855 57.8885 61.3157L45.5469 52.3816" stroke="#0065F2" stroke-width="4" stroke-linecap="round" stroke-linejoin="round"/>
<path d="M105.472 52.3652L93.1308 61.2994C92.2003 59.9908 91.1065 58.7791 89.8984 57.7128" stroke="#0065F2" stroke-width="4" stroke-linecap="round" stroke-linejoin="round"/>
<path d="M75.5195 52.0266V37.0664" stroke="#0065F2" stroke-width="4" stroke-linecap="round" stroke-linejoin="round"/>
<path d="M65.5269 54.4336L60.8906 45.6934" stroke="#0065F2" stroke-width="4" stroke-linecap="round" stroke-linejoin="round"/>
<path d="M78.0156 66.8723L86.5373 44.125" stroke="#0065F2" stroke-width="4" stroke-linecap="round" stroke-linejoin="round"/>
<path d="M83.9759 99.459H67.0469" stroke="#0065F2" stroke-width="4" stroke-linecap="round" stroke-linejoin="round"/>
<path d="M110.044 99.7013C110.044 102.787 112.77 105.275 116.117 105.275C119.463 105.275 122.206 102.787 122.206 99.7013C122.206 96.6155 118.957 95.2746 116.117 93.8367C113.276 92.415 110.027 91.0741 110.027 87.9883C110.027 84.9026 112.737 82.3984 116.1 82.3984C119.463 82.3984 122.173 84.9026 122.173 87.9883" stroke="#0065F2" stroke-width="4" stroke-miterlimit="10" stroke-linecap="round" stroke-linejoin="round"/>
<path d="M116.102 82.3667V78.2793" stroke="#0065F2" stroke-width="4" stroke-miterlimit="10" stroke-linecap="round" stroke-linejoin="round"/>
<path d="M116.102 109.396V105.309" stroke="#0065F2" stroke-width="4" stroke-miterlimit="10" stroke-linecap="round" stroke-linejoin="round"/>
<path d="M100.82 75.1287C103.285 73.1577 106.175 71.639 109.423 70.7343C122.353 67.0831 135.821 74.4663 139.51 87.2293C143.2 99.9924 135.707 113.305 122.794 116.94C109.864 120.591 96.3961 113.192 92.7067 100.429C90.911 94.2086 91.7599 87.8594 94.6167 82.5603" stroke="#0065F2" stroke-width="4" stroke-linecap="round" stroke-linejoin="round"/>
<path d="M93.2631 116.908C87.7779 119.105 81.7866 120.317 75.5015 120.317C49.4143 120.317 28.2734 99.3948 28.2734 73.5779C28.2734 47.761 49.4306 26.8555 75.5179 26.8555C97.7525 26.8555 116.396 42.058 121.407 62.5435" stroke="#0065F2" stroke-width="4" stroke-linecap="round" stroke-linejoin="round"/>
</svg>
