<svg width="150" height="151" viewBox="0 0 150 151" fill="none" xmlns="http://www.w3.org/2000/svg">
<circle cx="53.3619" cy="83.9674" r="50.3619" fill="#DBEEFF"/>
<path d="M46.2757 92.7129V97.4903C46.2757 99.4013 44.508 100.882 42.5971 101.36L35.4787 103.199C32.3017 104.011 29.6025 107.093 29.5547 109.41V114.187" stroke="#0065F2" stroke-width="4" stroke-miterlimit="10"/>
<path d="M60.6094 92.7109V97.4884C60.6094 99.3993 62.377 100.88 64.288 101.358L71.4064 103.197C74.5833 104.01 77.2826 107.091 77.3304 109.408V114.185" stroke="#0065F2" stroke-width="4" stroke-miterlimit="10"/>
<path d="M55.8304 59.2695C61.6588 59.2695 65.3852 62.8765 65.3852 68.8244V73.6018L67.7739 75.9905V80.7679L65.3852 83.1566V87.9341C65.3852 92.9026 55.8304 95.1002 53.4416 95.1002C51.0529 95.1002 41.4981 92.9026 41.4981 87.9341V83.1566L39.1094 80.7679V75.9905L41.4981 73.6018V68.8244C41.4981 62.8765 45.2245 59.2695 51.0529 59.2695H55.8304Z" stroke="#0065F2" stroke-width="4" stroke-miterlimit="10"/>
<path d="M84.4961 71.2148H115.549" stroke="#0065F2" stroke-width="4" stroke-miterlimit="10"/>
<path d="M84.4961 83.1562H115.549" stroke="#0065F2" stroke-width="4" stroke-miterlimit="10"/>
<path d="M84.4961 95.1016H98.8284" stroke="#0065F2" stroke-width="4" stroke-miterlimit="10"/>
<path d="M84.4952 44.9375H129.881V121.376H20V44.9375H65.3855" stroke="#0065F2" stroke-width="4" stroke-miterlimit="10"/>
<path d="M43 44.9355H119.5" stroke="#0065F2" stroke-width="4"/>
</svg>
