<svg width="150" height="150" viewBox="0 0 150 150" fill="none" xmlns="http://www.w3.org/2000/svg">
<circle cx="85.2946" cy="75.2946" r="52.2946" fill="#DBEEFF"/>
<g clip-path="url(#clip0_1157_8701)">
<mask id="mask0_1157_8701" style="mask-type:luminance" maskUnits="userSpaceOnUse" x="12" y="27" width="87" height="87">
<path d="M98.0039 27.6553H12.0039V113.655H98.0039V27.6553Z" fill="white"/>
</mask>
<g mask="url(#mask0_1157_8701)">
<path d="M72.5881 82.5187L86.7456 75.2829C89.4827 73.8129 92.69 74.4024 94.0142 76.8653C95.335 79.3309 94.1772 82.5476 91.4392 84.0174L62.0645 99.7622L60.512 100.151L33.1136 100.893C33.1136 100.893 29.5859 101.883 25.3477 106.683" stroke="#0065F2" stroke-width="4" stroke-linejoin="round"/>
<path d="M15.6133 92.2795L28.0401 80.8415C34.1138 76.7455 41.3137 79.0061 41.3137 79.0061C44.7994 79.9227 51.2783 80.1323 51.2783 80.1323H62.0304C65.2332 80.1323 67.8536 82.4186 67.8536 85.2136C67.8536 88.0086 65.2332 90.2986 62.0304 90.2986H47.154" stroke="#0065F2" stroke-width="4" stroke-miterlimit="10"/>
<path d="M43.0697 41.499C42.4867 41.7018 41.9569 42.0334 41.5196 42.4691C41.1166 42.8772 40.7998 43.3622 40.5879 43.8951C40.376 44.4281 40.2734 44.9982 40.2862 45.5716C40.297 46.8109 40.7957 47.996 41.6744 48.8699" stroke="#0065F2" stroke-width="4" stroke-linecap="round" stroke-linejoin="round"/>
<path d="M73.5729 53.5396C77.9425 49.1685 78.0148 42.0844 73.7289 37.7993C69.443 33.5143 62.3597 33.5833 57.9874 37.9553L55.2769 40.6434L52.5889 37.9552C48.2168 33.5831 41.1337 33.5133 36.8486 37.7992C32.5636 42.0851 32.6326 49.1684 37.0047 53.5394L55.2843 71.7955L73.5729 53.5396Z" stroke="#0065F2" stroke-width="4" stroke-linecap="round" stroke-linejoin="round"/>
</g>
</g>
<defs>
<clipPath id="clip0_1157_8701">
<rect width="86" height="86" fill="white" transform="translate(12 27.6553)"/>
</clipPath>
</defs>
</svg>
