<svg width="150" height="151" viewBox="0 0 150 151" fill="none" xmlns="http://www.w3.org/2000/svg">
<circle cx="75.1472" cy="86.819" r="54.1472" fill="#DBEEFF"/>
<path d="M60.1602 56.1682V33.2216C60.1602 30.7971 62.0863 28.8105 64.4372 28.8105H108.087C110.438 28.8105 112.364 30.7971 112.364 33.2216V36.741" stroke="#0065F2" stroke-width="4" stroke-linecap="round" stroke-linejoin="round"/>
<path d="M112.353 74.8125V121.597C112.353 124.022 110.427 126.149 108.076 126.149H64.4255C62.0746 126.149 60.1484 124.022 60.1484 121.597V94.8341" stroke="#0065F2" stroke-width="4" stroke-linecap="round" stroke-linejoin="round"/>
<path d="M66.5 106.941H105.994" stroke="#0065F2" stroke-width="4" stroke-linecap="round" stroke-linejoin="round"/>
<path d="M82.6992 116.266H89.7973" stroke="#0065F2" stroke-width="4" stroke-linecap="round" stroke-linejoin="round"/>
<path d="M98.9414 51.8984H122.147" stroke="#0065F2" stroke-width="4" stroke-linecap="round" stroke-linejoin="round"/>
<path d="M98.9414 59.4062H116.232" stroke="#0065F2" stroke-width="4" stroke-linecap="round" stroke-linejoin="round"/>
<path d="M91.7227 43.2012V76.362L100.231 68.2751H129.352V43.2012H91.7227Z" stroke="#0065F2" stroke-width="4" stroke-linecap="round" stroke-linejoin="round"/>
<path d="M73.5685 71.6836H50.3633" stroke="#0065F2" stroke-width="4" stroke-linecap="round" stroke-linejoin="round"/>
<path d="M73.5675 79.1934H56.2773" stroke="#0065F2" stroke-width="4" stroke-linecap="round" stroke-linejoin="round"/>
<path d="M80.7886 62.9883V96.1491L72.2649 88.0622H43.1445V62.9883H80.7886Z" stroke="#0065F2" stroke-width="4" stroke-linecap="round" stroke-linejoin="round"/>
</svg>
