<svg width="150" height="151" viewBox="0 0 150 151" fill="none" xmlns="http://www.w3.org/2000/svg">
<circle cx="75.3619" cy="52.9674" r="50.3619" fill="#DBEEFF"/>
<path d="M68.219 131.874H96.8835V62.6016H53.8867V131.874H68.219Z" stroke="#0065F2" stroke-width="4" stroke-linejoin="round"/>
<path d="M39.5547 107.988H44.3321" stroke="#0065F2" stroke-width="4" stroke-linejoin="round"/>
<path d="M92.106 50.6602H58.6641V62.6037H92.106V50.6602Z" stroke="#0065F2" stroke-width="4" stroke-linejoin="round"/>
<path d="M82.551 38.7148H68.2188V50.6584H82.551V38.7148Z" stroke="#0065F2" stroke-width="4" stroke-linejoin="round"/>
<path d="M63.4414 74.5469H87.3285" stroke="#0065F2" stroke-width="4" stroke-linejoin="round"/>
<path d="M63.4414 88.8789H87.3285" stroke="#0065F2" stroke-width="4" stroke-linejoin="round"/>
<path d="M63.4414 103.211H87.3285" stroke="#0065F2" stroke-width="4" stroke-linejoin="round"/>
<path d="M63.4414 117.543H87.3285" stroke="#0065F2" stroke-width="4" stroke-linejoin="round"/>
<path d="M39.5547 79.3242H44.3321" stroke="#0065F2" stroke-width="4" stroke-linejoin="round"/>
<path d="M39.5547 69.7676H44.3321" stroke="#0065F2" stroke-width="4" stroke-linejoin="round"/>
<path d="M39.5547 88.8789H44.3321" stroke="#0065F2" stroke-width="4" stroke-linejoin="round"/>
<path d="M39.5547 98.4336H44.3321" stroke="#0065F2" stroke-width="4" stroke-linejoin="round"/>
<path d="M39.5547 117.543H44.3321" stroke="#0065F2" stroke-width="4" stroke-linejoin="round"/>
<path d="M96.8828 131.874H120.77V67.3789H96.8828" stroke="#0065F2" stroke-width="4" stroke-linejoin="round"/>
<path d="M108.828 88.8789V96.045" stroke="#0065F2" stroke-width="4" stroke-linejoin="round"/>
<path d="M108.828 76.9336V84.0997" stroke="#0065F2" stroke-width="4" stroke-linejoin="round"/>
<path d="M108.828 100.82V107.986" stroke="#0065F2" stroke-width="4" stroke-linejoin="round"/>
<path d="M108.828 115.154V122.32" stroke="#0065F2" stroke-width="4" stroke-linejoin="round"/>
<path d="M75.3867 38.7152V19.6055" stroke="#0065F2" stroke-width="4" stroke-linejoin="round"/>
<path d="M92.1055 55.4375H115.993V67.3811" stroke="#0065F2" stroke-width="4" stroke-linejoin="round"/>
<path d="M58.6645 45.8812V29.1602L56.2758 26.7715L30 53.0473V131.875H51.4984" stroke="#0065F2" stroke-width="4" stroke-linejoin="round"/>
</svg>
