<svg width="150" height="151" viewBox="0 0 150 151" fill="none" xmlns="http://www.w3.org/2000/svg">
<circle cx="70.2946" cy="75.9001" r="52.2946" fill="#DBEEFF"/>
<path d="M98.029 60.4208C101.851 56.1229 106.003 54.0014 108.545 55.4645C112.038 57.4763 111.197 65.5051 106.643 73.3693C102.089 81.2334 95.5783 85.9885 92.0851 83.9585C89.2686 82.3308 89.2686 76.8076 91.7559 70.626" stroke="#0065F2" stroke-width="4" stroke-miterlimit="10" stroke-linecap="round"/>
<path d="M90.4742 55.9042C98.3932 45.754 108.763 40.816 115.475 44.6932C123.376 49.2654 123.229 64.2988 115.164 78.2897C107.099 92.2806 94.1319 99.9254 86.2312 95.3714C79.3546 91.4028 78.5682 79.4968 83.7988 67.2433" stroke="#0065F2" stroke-width="4" stroke-miterlimit="10" stroke-linecap="round"/>
<path d="M83.0831 52.3743C94.8245 35.8412 111.833 27.8124 123.026 34.2684C135.389 41.401 135.993 63.4939 124.379 83.6115C112.766 103.729 93.3248 114.264 80.9616 107.113C69.8603 100.712 68.2508 82.2399 76.4442 63.9694" stroke="#0065F2" stroke-width="4" stroke-miterlimit="10" stroke-linecap="round"/>
<path d="M69.5156 51.9902L100.332 69.7304" stroke="#0065F2" stroke-width="4" stroke-miterlimit="10" stroke-linecap="round"/>
<path d="M67.2114 43.1387L69.5158 51.9904L60.6641 54.2948" stroke="#0065F2" stroke-width="4" stroke-miterlimit="10" stroke-linecap="round"/>
<path d="M58.2857 37.9062L60.5901 46.7397L51.7383 49.0441" stroke="#0065F2" stroke-width="4" stroke-miterlimit="10" stroke-linecap="round"/>
</svg>
