<svg width="326" height="476" viewBox="0 0 326 476" fill="none" xmlns="http://www.w3.org/2000/svg">
<rect x="325" width="476" height="325" transform="rotate(90 325 0)" fill="#F4FAFF"/>
<mask id="mask0_1088_24033" style="mask-type:alpha" maskUnits="userSpaceOnUse" x="2" y="0" width="324" height="476">
<rect x="326" width="476" height="324" transform="rotate(90 326 0)" fill="#F4FAFF"/>
</mask>
<g mask="url(#mask0_1088_24033)">
<g style="mix-blend-mode:multiply" opacity="0.05">
<path d="M75.4321 -268.848C189.001 -435.298 343.577 -455.019 438.454 -406.524C533.332 -358.03 665.601 -222.383 620.234 -15.8653C574.868 190.652 286.966 130.477 277.012 -7.91256C267.059 -146.302 -38.1373 -102.399 75.4321 -268.848Z" fill="#0065F2"/>
</g>
<path d="M-353.71 377.196C-331.093 413.319 -293.055 439.271 -251.934 454.553C-210.818 469.825 -166.551 475.236 -122.718 477.495C-61.6648 480.642 1.84127 477.381 55.5993 450.798C109.348 424.219 150.895 369.451 144.17 311.646C139.483 271.331 112.768 235.693 81.3562 207.754C30.0075 162.084 45.0059 55.1294 -24.5799 50.5965C-94.156 46.0595 -247.669 144.998 -296.989 190.798C-346.31 236.599 -393.314 313.954 -353.71 377.196Z" fill="#DBEEFF" fill-opacity="0.4"/>
</g>
<g opacity="0.6" clip-path="url(#clip0_1088_24033)">
<circle cx="16.4961" cy="14.5" r="2.5" transform="rotate(90 16.4961 14.5)" fill="#0065F2"/>
<circle cx="45.4961" cy="14.5" r="2.5" transform="rotate(90 45.4961 14.5)" fill="#0065F2"/>
<circle cx="74.4961" cy="14.5" r="2.5" transform="rotate(90 74.4961 14.5)" fill="#0065F2"/>
<circle cx="16.4961" cy="43.5" r="2.5" transform="rotate(90 16.4961 43.5)" fill="#0065F2"/>
<circle cx="45.4961" cy="43.5" r="2.5" transform="rotate(90 45.4961 43.5)" fill="#0065F2"/>
<circle cx="74.4961" cy="43.5" r="2.5" transform="rotate(90 74.4961 43.5)" fill="#0065F2"/>
<circle cx="16.4961" cy="72.5" r="2.5" transform="rotate(90 16.4961 72.5)" fill="#0065F2"/>
<circle cx="45.4961" cy="72.5" r="2.5" transform="rotate(90 45.4961 72.5)" fill="#0065F2"/>
<circle cx="74.4961" cy="72.5" r="2.5" transform="rotate(90 74.4961 72.5)" fill="#0065F2"/>
<circle cx="16.4961" cy="101.5" r="2.5" transform="rotate(90 16.4961 101.5)" fill="#0065F2"/>
<circle cx="45.4961" cy="101.5" r="2.5" transform="rotate(90 45.4961 101.5)" fill="#0065F2"/>
<circle cx="74.4961" cy="101.5" r="2.5" transform="rotate(90 74.4961 101.5)" fill="#0065F2"/>
<circle cx="16.4961" cy="130.5" r="2.5" transform="rotate(90 16.4961 130.5)" fill="#0065F2"/>
<circle cx="45.4961" cy="130.5" r="2.5" transform="rotate(90 45.4961 130.5)" fill="#0065F2"/>
<circle cx="74.4961" cy="130.5" r="2.5" transform="rotate(90 74.4961 130.5)" fill="#0065F2"/>
<circle cx="16.4961" cy="159.5" r="2.5" transform="rotate(90 16.4961 159.5)" fill="#0065F2"/>
<circle cx="45.4961" cy="159.5" r="2.5" transform="rotate(90 45.4961 159.5)" fill="#0065F2"/>
<circle cx="74.4961" cy="159.5" r="2.5" transform="rotate(90 74.4961 159.5)" fill="#0065F2"/>
</g>
<path d="M28.34 283V233.065H61.4022V241.77H38.8975V253.668H59.2078V262.373H38.8975V283H28.34ZM64.3473 283V245.549H74.7341V283H64.3473ZM69.5651 240.721C68.0209 240.721 66.6961 240.209 65.5908 239.185C64.5017 238.145 63.9572 236.901 63.9572 235.455C63.9572 234.024 64.5017 232.797 65.5908 231.773C66.6961 230.733 68.0209 230.213 69.5651 230.213C71.1093 230.213 72.4259 230.733 73.515 231.773C74.6203 232.797 75.173 234.024 75.173 235.455C75.173 236.901 74.6203 238.145 73.515 239.185C72.4259 240.209 71.1093 240.721 69.5651 240.721ZM89.4801 261.349V283H79.0933V245.549H88.9925V252.157H89.4314C90.2603 249.978 91.6501 248.255 93.6007 246.988C95.5513 245.703 97.9163 245.061 100.696 245.061C103.297 245.061 105.564 245.63 107.499 246.768C109.433 247.906 110.936 249.531 112.009 251.645C113.082 253.741 113.618 256.245 113.618 259.154V283H103.232V261.007C103.248 258.715 102.663 256.927 101.476 255.643C100.29 254.343 98.6559 253.693 96.5753 253.693C95.1774 253.693 93.942 253.993 92.8692 254.595C91.8127 255.196 90.9837 256.074 90.3823 257.228C89.7971 258.366 89.4964 259.739 89.4801 261.349ZM131.644 283.61C128.799 283.61 126.223 282.878 123.915 281.415C121.623 279.936 119.802 277.766 118.453 274.905C117.12 272.028 116.454 268.501 116.454 264.323C116.454 260.032 117.145 256.464 118.526 253.62C119.908 250.759 121.745 248.621 124.037 247.207C126.345 245.777 128.872 245.061 131.619 245.061C133.716 245.061 135.464 245.419 136.862 246.134C138.276 246.833 139.414 247.711 140.275 248.767C141.153 249.808 141.819 250.832 142.274 251.84H142.591V233.065H152.954V283H142.713V277.002H142.274C141.787 278.042 141.096 279.074 140.202 280.099C139.324 281.106 138.178 281.943 136.764 282.61C135.366 283.276 133.659 283.61 131.644 283.61ZM134.935 275.344C136.61 275.344 138.024 274.889 139.178 273.979C140.348 273.052 141.242 271.76 141.86 270.102C142.494 268.444 142.811 266.501 142.811 264.275C142.811 262.048 142.502 260.113 141.884 258.472C141.267 256.83 140.373 255.562 139.202 254.668C138.032 253.774 136.61 253.327 134.935 253.327C133.229 253.327 131.79 253.79 130.62 254.717C129.449 255.643 128.564 256.927 127.962 258.569C127.361 260.211 127.06 262.113 127.06 264.275C127.06 266.453 127.361 268.379 127.962 270.053C128.58 271.711 129.466 273.011 130.62 273.954C131.79 274.881 133.229 275.344 134.935 275.344ZM163.604 283.634C161.994 283.634 160.613 283.065 159.459 281.927C158.321 280.773 157.752 279.391 157.752 277.782C157.752 276.189 158.321 274.824 159.459 273.686C160.613 272.548 161.994 271.979 163.604 271.979C165.164 271.979 166.53 272.548 167.7 273.686C168.87 274.824 169.455 276.189 169.455 277.782C169.455 278.855 169.179 279.838 168.626 280.732C168.09 281.61 167.383 282.317 166.505 282.854C165.627 283.374 164.66 283.634 163.604 283.634ZM72.3986 319.547H61.7192C61.5241 318.166 61.1259 316.938 60.5244 315.866C59.923 314.777 59.1509 313.85 58.2081 313.086C57.2654 312.322 56.1763 311.737 54.9409 311.331C53.7218 310.924 52.3971 310.721 50.9666 310.721C48.3821 310.721 46.1309 311.363 44.2128 312.647C42.2947 313.915 40.8074 315.768 39.7509 318.206C38.6943 320.628 38.166 323.57 38.166 327.033C38.166 330.592 38.6943 333.583 39.7509 336.005C40.8237 338.427 42.3191 340.256 44.2372 341.491C46.1552 342.727 48.374 343.344 50.8935 343.344C52.3077 343.344 53.6162 343.157 54.819 342.784C56.0381 342.41 57.1191 341.865 58.0619 341.15C59.0046 340.418 59.7849 339.533 60.4025 338.492C61.0365 337.452 61.4754 336.265 61.7192 334.933L72.3986 334.981C72.1222 337.273 71.4314 339.484 70.3261 341.613C69.237 343.726 67.7659 345.62 65.9129 347.294C64.0761 348.952 61.8817 350.269 59.3297 351.244C56.794 352.203 53.925 352.683 50.7228 352.683C46.269 352.683 42.2866 351.675 38.7756 349.659C35.2808 347.644 32.5175 344.726 30.4856 340.906C28.4701 337.086 27.4623 332.462 27.4623 327.033C27.4623 321.587 28.4863 316.955 30.5344 313.135C32.5825 309.315 35.3621 306.405 38.8731 304.406C42.3841 302.39 46.334 301.383 50.7228 301.383C53.6162 301.383 56.2982 301.789 58.7689 302.602C61.2559 303.415 63.4584 304.601 65.3765 306.162C67.2946 307.706 68.855 309.599 70.0579 311.843C71.277 314.086 72.0572 316.654 72.3986 319.547ZM92.7342 352.731C88.9468 352.731 85.6715 351.927 82.9082 350.318C80.1611 348.692 78.0399 346.433 76.5445 343.539C75.049 340.63 74.3013 337.257 74.3013 333.421C74.3013 329.552 75.049 326.171 76.5445 323.278C78.0399 320.368 80.1611 318.109 82.9082 316.5C85.6715 314.874 88.9468 314.061 92.7342 314.061C96.5216 314.061 99.7888 314.874 102.536 316.5C105.299 318.109 107.429 320.368 108.924 323.278C110.419 326.171 111.167 329.552 111.167 333.421C111.167 337.257 110.419 340.63 108.924 343.539C107.429 346.433 105.299 348.692 102.536 350.318C99.7888 351.927 96.5216 352.731 92.7342 352.731ZM92.783 344.685C94.506 344.685 95.9445 344.198 97.0986 343.222C98.2527 342.231 99.1223 340.882 99.7075 339.175C100.309 337.468 100.61 335.526 100.61 333.348C100.61 331.17 100.309 329.227 99.7075 327.52C99.1223 325.814 98.2527 324.464 97.0986 323.473C95.9445 322.481 94.506 321.986 92.783 321.986C91.0437 321.986 89.5808 322.481 88.3942 323.473C87.2238 324.464 86.3379 325.814 85.7365 327.52C85.1514 329.227 84.8588 331.17 84.8588 333.348C84.8588 335.526 85.1514 337.468 85.7365 339.175C86.3379 340.882 87.2238 342.231 88.3942 343.222C89.5808 344.198 91.0437 344.685 92.783 344.685ZM124.347 330.349V352H113.96V314.549H123.859V321.157H124.298C125.127 318.978 126.517 317.255 128.467 315.988C130.418 314.703 132.783 314.061 135.562 314.061C138.163 314.061 140.431 314.63 142.365 315.768C144.299 316.906 145.803 318.531 146.876 320.645C147.948 322.741 148.485 325.245 148.485 328.154V352H138.098V330.007C138.114 327.715 137.529 325.927 136.343 324.643C135.156 323.343 133.522 322.693 131.442 322.693C130.044 322.693 128.809 322.993 127.736 323.595C126.679 324.196 125.85 325.074 125.249 326.228C124.664 327.366 124.363 328.739 124.347 330.349ZM163.097 330.349V352H152.71V314.549H162.609V321.157H163.048C163.877 318.978 165.267 317.255 167.217 315.988C169.168 314.703 171.533 314.061 174.313 314.061C176.913 314.061 179.181 314.63 181.115 315.768C183.05 316.906 184.553 318.531 185.626 320.645C186.699 322.741 187.235 325.245 187.235 328.154V352H176.848V330.007C176.865 327.715 176.279 325.927 175.093 324.643C173.906 323.343 172.273 322.693 170.192 322.693C168.794 322.693 167.559 322.993 166.486 323.595C165.429 324.196 164.6 325.074 163.999 326.228C163.414 327.366 163.113 328.739 163.097 330.349ZM208.528 352.731C204.675 352.731 201.359 351.951 198.58 350.391C195.817 348.814 193.687 346.587 192.192 343.71C190.696 340.817 189.949 337.395 189.949 333.445C189.949 329.593 190.696 326.212 192.192 323.302C193.687 320.393 195.792 318.125 198.507 316.5C201.238 314.874 204.44 314.061 208.113 314.061C210.584 314.061 212.884 314.46 215.013 315.256C217.159 316.036 219.028 317.215 220.621 318.792C222.231 320.368 223.482 322.351 224.376 324.741C225.27 327.114 225.717 329.894 225.717 333.079V335.932H194.094V329.495H215.94C215.94 328 215.615 326.675 214.965 325.521C214.314 324.367 213.412 323.465 212.258 322.815C211.12 322.148 209.796 321.815 208.284 321.815C206.707 321.815 205.309 322.181 204.09 322.912C202.887 323.627 201.945 324.594 201.262 325.814C200.579 327.016 200.23 328.357 200.213 329.837V335.957C200.213 337.81 200.555 339.411 201.238 340.76C201.936 342.109 202.92 343.149 204.188 343.881C205.456 344.612 206.959 344.978 208.698 344.978C209.853 344.978 210.909 344.815 211.868 344.49C212.827 344.165 213.648 343.678 214.331 343.027C215.013 342.377 215.534 341.581 215.891 340.638L225.498 341.272C225.01 343.58 224.01 345.596 222.499 347.319C221.003 349.025 219.069 350.358 216.696 351.317C214.339 352.26 211.616 352.731 208.528 352.731ZM245.455 352.731C241.619 352.731 238.32 351.919 235.556 350.293C232.809 348.652 230.696 346.376 229.217 343.466C227.754 340.557 227.023 337.208 227.023 333.421C227.023 329.585 227.762 326.22 229.241 323.327C230.737 320.417 232.858 318.149 235.605 316.524C238.352 314.882 241.619 314.061 245.407 314.061C248.674 314.061 251.535 314.655 253.989 315.841C256.444 317.028 258.386 318.694 259.817 320.84C261.247 322.985 262.035 325.505 262.182 328.398H252.38C252.104 326.529 251.372 325.025 250.186 323.887C249.015 322.733 247.479 322.156 245.577 322.156C243.968 322.156 242.562 322.595 241.359 323.473C240.173 324.334 239.246 325.594 238.58 327.252C237.913 328.91 237.58 330.918 237.58 333.275C237.58 335.664 237.905 337.696 238.555 339.37C239.222 341.044 240.156 342.32 241.359 343.198C242.562 344.076 243.968 344.515 245.577 344.515C246.764 344.515 247.829 344.271 248.771 343.783C249.731 343.296 250.519 342.588 251.137 341.662C251.77 340.719 252.185 339.589 252.38 338.273H262.182C262.019 341.134 261.239 343.653 259.841 345.831C258.459 347.993 256.549 349.684 254.111 350.903C251.673 352.122 248.788 352.731 245.455 352.731ZM284.791 314.549V322.351H262.237V314.549H284.791ZM267.358 305.576H277.744V340.492C277.744 341.451 277.891 342.198 278.183 342.735C278.476 343.255 278.882 343.621 279.402 343.832C279.939 344.043 280.557 344.149 281.256 344.149C281.743 344.149 282.231 344.108 282.718 344.027C283.206 343.93 283.58 343.856 283.84 343.808L285.474 351.537C284.953 351.699 284.222 351.886 283.279 352.098C282.336 352.325 281.19 352.463 279.841 352.512C277.338 352.61 275.144 352.276 273.258 351.512C271.389 350.748 269.934 349.562 268.894 347.953C267.853 346.343 267.341 344.311 267.358 341.857V305.576ZM293.667 352.634C292.058 352.634 290.676 352.065 289.522 350.927C288.384 349.773 287.815 348.391 287.815 346.782C287.815 345.189 288.384 343.824 289.522 342.686C290.676 341.548 292.058 340.979 293.667 340.979C295.227 340.979 296.593 341.548 297.763 342.686C298.933 343.824 299.519 345.189 299.519 346.782C299.519 347.855 299.242 348.838 298.69 349.732C298.153 350.61 297.446 351.317 296.568 351.854C295.691 352.374 294.724 352.634 293.667 352.634ZM72.3986 388.547H61.7192C61.5241 387.166 61.1259 385.938 60.5244 384.866C59.923 383.777 59.1509 382.85 58.2081 382.086C57.2654 381.322 56.1763 380.737 54.9409 380.331C53.7218 379.924 52.3971 379.721 50.9666 379.721C48.3821 379.721 46.1309 380.363 44.2128 381.647C42.2947 382.915 40.8074 384.768 39.7509 387.206C38.6943 389.628 38.166 392.57 38.166 396.033C38.166 399.592 38.6943 402.583 39.7509 405.005C40.8237 407.427 42.3191 409.256 44.2372 410.491C46.1552 411.727 48.374 412.344 50.8935 412.344C52.3077 412.344 53.6162 412.157 54.819 411.784C56.0381 411.41 57.1191 410.865 58.0619 410.15C59.0046 409.418 59.7849 408.533 60.4025 407.492C61.0365 406.452 61.4754 405.265 61.7192 403.933L72.3986 403.981C72.1222 406.273 71.4314 408.484 70.3261 410.613C69.237 412.726 67.7659 414.62 65.9129 416.294C64.0761 417.952 61.8817 419.269 59.3297 420.244C56.794 421.203 53.925 421.683 50.7228 421.683C46.269 421.683 42.2866 420.675 38.7756 418.659C35.2808 416.644 32.5175 413.726 30.4856 409.906C28.4701 406.086 27.4623 401.462 27.4623 396.033C27.4623 390.587 28.4863 385.955 30.5344 382.135C32.5825 378.315 35.3621 375.405 38.8731 373.406C42.3841 371.39 46.334 370.383 50.7228 370.383C53.6162 370.383 56.2982 370.789 58.7689 371.602C61.2559 372.415 63.4584 373.601 65.3765 375.162C67.2946 376.706 68.855 378.599 70.0579 380.843C71.277 383.086 72.0572 385.654 72.3986 388.547ZM86.1998 371.065V421H75.813V371.065H86.1998ZM107.48 421.731C103.693 421.731 100.418 420.927 97.6542 419.318C94.9072 417.692 92.7859 415.433 91.2905 412.539C89.7951 409.63 89.0473 406.257 89.0473 402.421C89.0473 398.552 89.7951 395.171 91.2905 392.278C92.7859 389.368 94.9072 387.109 97.6542 385.5C100.418 383.874 103.693 383.061 107.48 383.061C111.268 383.061 114.535 383.874 117.282 385.5C120.045 387.109 122.175 389.368 123.67 392.278C125.165 395.171 125.913 398.552 125.913 402.421C125.913 406.257 125.165 409.63 123.67 412.539C122.175 415.433 120.045 417.692 117.282 419.318C114.535 420.927 111.268 421.731 107.48 421.731ZM107.529 413.685C109.252 413.685 110.691 413.198 111.845 412.222C112.999 411.231 113.868 409.882 114.454 408.175C115.055 406.468 115.356 404.526 115.356 402.348C115.356 400.17 115.055 398.227 114.454 396.52C113.868 394.814 112.999 393.464 111.845 392.473C110.691 391.481 109.252 390.986 107.529 390.986C105.79 390.986 104.327 391.481 103.14 392.473C101.97 393.464 101.084 394.814 100.483 396.52C99.8974 398.227 99.6048 400.17 99.6048 402.348C99.6048 404.526 99.8974 406.468 100.483 408.175C101.084 409.882 101.97 411.231 103.14 412.222C104.327 413.198 105.79 413.685 107.529 413.685ZM159.866 394.228L150.357 394.814C150.195 394.001 149.845 393.269 149.309 392.619C148.772 391.953 148.065 391.424 147.187 391.034C146.326 390.628 145.294 390.425 144.091 390.425C142.482 390.425 141.124 390.766 140.019 391.449C138.914 392.115 138.361 393.009 138.361 394.131C138.361 395.025 138.719 395.781 139.434 396.398C140.149 397.016 141.376 397.512 143.116 397.886L149.894 399.251C153.535 399.999 156.25 401.202 158.038 402.86C159.826 404.518 160.72 406.696 160.72 409.394C160.72 411.849 159.996 414.002 158.55 415.855C157.119 417.708 155.152 419.155 152.649 420.195C150.162 421.219 147.293 421.731 144.042 421.731C139.084 421.731 135.135 420.699 132.192 418.635C129.267 416.554 127.552 413.726 127.048 410.15L137.264 409.614C137.573 411.125 138.321 412.279 139.507 413.076C140.694 413.856 142.214 414.246 144.067 414.246C145.887 414.246 147.35 413.897 148.455 413.198C149.577 412.483 150.146 411.564 150.162 410.443C150.146 409.5 149.748 408.728 148.967 408.126C148.187 407.509 146.984 407.037 145.359 406.712L138.873 405.42C135.216 404.688 132.493 403.42 130.705 401.616C128.933 399.812 128.048 397.512 128.048 394.716C128.048 392.31 128.698 390.238 129.998 388.499C131.315 386.759 133.16 385.418 135.533 384.476C137.922 383.533 140.718 383.061 143.92 383.061C148.65 383.061 152.373 384.061 155.087 386.06C157.818 388.06 159.411 390.782 159.866 394.228ZM180.366 421.731C176.514 421.731 173.198 420.951 170.419 419.391C167.655 417.814 165.526 415.587 164.03 412.71C162.535 409.817 161.787 406.395 161.787 402.445C161.787 398.593 162.535 395.212 164.03 392.302C165.526 389.393 167.631 387.125 170.345 385.5C173.076 383.874 176.278 383.061 179.952 383.061C182.423 383.061 184.723 383.46 186.852 384.256C188.998 385.036 190.867 386.215 192.46 387.792C194.069 389.368 195.321 391.351 196.215 393.741C197.109 396.114 197.556 398.894 197.556 402.079V404.932H165.932V398.495H187.779C187.779 397 187.454 395.675 186.803 394.521C186.153 393.367 185.251 392.465 184.097 391.815C182.959 391.148 181.634 390.815 180.123 390.815C178.546 390.815 177.148 391.181 175.929 391.912C174.726 392.627 173.783 393.594 173.101 394.814C172.418 396.016 172.068 397.357 172.052 398.837V404.957C172.052 406.81 172.393 408.411 173.076 409.76C173.775 411.109 174.759 412.149 176.026 412.881C177.294 413.612 178.798 413.978 180.537 413.978C181.691 413.978 182.748 413.815 183.707 413.49C184.666 413.165 185.487 412.678 186.169 412.027C186.852 411.377 187.372 410.581 187.73 409.638L197.336 410.272C196.849 412.58 195.849 414.596 194.337 416.319C192.842 418.025 190.908 419.358 188.534 420.317C186.178 421.26 183.455 421.731 180.366 421.731ZM206.444 421.634C204.835 421.634 203.453 421.065 202.299 419.927C201.161 418.773 200.592 417.391 200.592 415.782C200.592 414.189 201.161 412.824 202.299 411.686C203.453 410.548 204.835 409.979 206.444 409.979C208.005 409.979 209.37 410.548 210.54 411.686C211.711 412.824 212.296 414.189 212.296 415.782C212.296 416.855 212.019 417.838 211.467 418.732C210.93 419.61 210.223 420.317 209.346 420.854C208.468 421.374 207.501 421.634 206.444 421.634Z" fill="#0065F2"/>
<defs>
<clipPath id="clip0_1088_24033">
<rect width="90" height="174" fill="white" transform="translate(1.99609)"/>
</clipPath>
</defs>
</svg>
