<svg width="474" height="224" viewBox="0 0 474 224" fill="none" xmlns="http://www.w3.org/2000/svg">
<rect x="296.734" width="177.268" height="223.528" rx="9.97895" fill="#FFE614"/>
<rect x="254.344" width="177.268" height="223.528" rx="9.97895" fill="#1AAC06"/>
<rect x="211.953" width="177.268" height="223.528" rx="9.97895" fill="#E13019"/>
<rect x="169.559" width="177.268" height="223.528" rx="9.97895" fill="#004280"/>
<rect x="127.168" width="177.268" height="223.528" rx="9.97895" fill="#0041C3"/>
<rect x="84.7812" width="177.268" height="223.528" rx="9.97895" fill="#DBEEFF"/>
<rect x="42.3906" width="177.268" height="223.528" rx="9.97895" fill="#FAFAFF"/>
<rect width="177.268" height="223.528" rx="9.97895" fill="#0065F2"/>
<path d="M21.543 186.634V176.614H25.3003C26.0701 176.614 26.7159 176.758 27.2377 177.045C27.7629 177.332 28.1591 177.726 28.4266 178.229C28.6973 178.728 28.8327 179.295 28.8327 179.931C28.8327 180.574 28.6973 181.144 28.4266 181.644C28.1559 182.143 27.7563 182.536 27.2279 182.823C26.6996 183.106 26.0489 183.248 25.2759 183.248H22.7856V181.756H25.0313C25.4814 181.756 25.8499 181.678 26.1369 181.521C26.424 181.365 26.636 181.149 26.773 180.875C26.9132 180.601 26.9833 180.287 26.9833 179.931C26.9833 179.576 26.9132 179.263 26.773 178.992C26.636 178.721 26.4223 178.511 26.132 178.361C25.845 178.207 25.4748 178.131 25.0215 178.131H23.358V186.634H21.543ZM29.5361 186.634V179.119H31.2534V180.371H31.3317C31.4686 179.938 31.7035 179.603 32.0362 179.369C32.3721 179.13 32.7553 179.011 33.1859 179.011C33.2837 179.011 33.393 179.016 33.5137 179.026C33.6376 179.033 33.7404 179.044 33.8219 179.06V180.689C33.7469 180.663 33.6278 180.641 33.4647 180.621C33.3049 180.598 33.15 180.587 33 180.587C32.6771 180.587 32.3868 180.657 32.1291 180.797C31.8747 180.934 31.6741 181.125 31.5273 181.37C31.3806 181.614 31.3072 181.896 31.3072 182.216V186.634H29.5361ZM34.2037 186.634V179.119H35.9747V186.634H34.2037ZM35.0941 178.052C34.8136 178.052 34.5723 177.96 34.37 177.774C34.1678 177.584 34.0667 177.358 34.0667 177.094C34.0667 176.826 34.1678 176.599 34.37 176.414C34.5723 176.224 34.8136 176.13 35.0941 176.13C35.3779 176.13 35.6192 176.224 35.8182 176.414C36.0204 176.599 36.1215 176.826 36.1215 177.094C36.1215 177.358 36.0204 177.584 35.8182 177.774C35.6192 177.96 35.3779 178.052 35.0941 178.052ZM37.0011 186.634V179.119H38.6939V180.396H38.782C38.9385 179.965 39.1978 179.629 39.5599 179.388C39.9219 179.143 40.3541 179.021 40.8563 179.021C41.3652 179.021 41.7941 179.145 42.1431 179.393C42.4953 179.638 42.7432 179.972 42.8867 180.396H42.965C43.1313 179.978 43.4118 179.646 43.8065 179.398C44.2044 179.147 44.6757 179.021 45.2204 179.021C45.9118 179.021 46.4761 179.24 46.9132 179.677C47.3502 180.114 47.5687 180.751 47.5687 181.59V186.634H45.7928V181.864C45.7928 181.397 45.6689 181.056 45.421 180.841C45.1731 180.623 44.8698 180.513 44.511 180.513C44.0837 180.513 43.7494 180.647 43.508 180.915C43.2699 181.179 43.1509 181.523 43.1509 181.947V186.634H41.4141V181.79C41.4141 181.402 41.2967 181.092 41.0618 180.861C40.8303 180.629 40.5269 180.513 40.1518 180.513C39.8974 180.513 39.6659 180.579 39.4571 180.709C39.2484 180.836 39.082 181.017 38.9581 181.252C38.8341 181.484 38.7722 181.754 38.7722 182.064V186.634H37.0011ZM50.7331 186.785C50.2569 186.785 49.828 186.701 49.4464 186.531C49.068 186.358 48.768 186.104 48.5462 185.768C48.3277 185.432 48.2184 185.018 48.2184 184.525C48.2184 184.101 48.2967 183.751 48.4532 183.473C48.6098 183.196 48.8234 182.974 49.0941 182.808C49.3649 182.642 49.6698 182.516 50.009 182.431C50.3515 182.343 50.7054 182.28 51.0707 182.24C51.511 182.195 51.8681 182.154 52.1421 182.118C52.4161 182.079 52.6151 182.02 52.739 181.942C52.8662 181.86 52.9298 181.735 52.9298 181.565V181.536C52.9298 181.167 52.8205 180.882 52.602 180.68C52.3835 180.477 52.0687 180.376 51.6578 180.376C51.224 180.376 50.8799 180.471 50.6255 180.66C50.3743 180.849 50.2047 181.073 50.1167 181.33L48.463 181.096C48.5935 180.639 48.8088 180.257 49.1088 179.951C49.4089 179.641 49.7758 179.409 50.2096 179.256C50.6434 179.099 51.1229 179.021 51.648 179.021C52.01 179.021 52.3704 179.064 52.7292 179.148C53.088 179.233 53.4158 179.373 53.7126 179.569C54.0094 179.762 54.2475 180.024 54.4269 180.357C54.6095 180.689 54.7009 181.105 54.7009 181.604V186.634H52.9983V185.601H52.9396C52.832 185.81 52.6803 186.006 52.4846 186.189C52.2922 186.368 52.0492 186.513 51.7556 186.624C51.4653 186.732 51.1245 186.785 50.7331 186.785ZM51.193 185.484C51.5485 185.484 51.8567 185.414 52.1177 185.274C52.3786 185.13 52.5792 184.941 52.7194 184.706C52.8629 184.471 52.9347 184.215 52.9347 183.938V183.053C52.8792 183.098 52.7847 183.141 52.6509 183.18C52.5205 183.219 52.3737 183.253 52.2106 183.282C52.0475 183.312 51.8861 183.338 51.7263 183.361C51.5664 183.384 51.4278 183.403 51.3104 183.419C51.0462 183.455 50.8098 183.514 50.601 183.596C50.3923 183.677 50.2276 183.791 50.1069 183.938C49.9862 184.082 49.9259 184.267 49.9259 184.496C49.9259 184.822 50.0449 185.068 50.283 185.235C50.5211 185.401 50.8244 185.484 51.193 185.484ZM55.6869 186.634V179.119H57.4041V180.371H57.4824C57.6194 179.938 57.8542 179.603 58.1869 179.369C58.5228 179.13 58.9061 179.011 59.3366 179.011C59.4345 179.011 59.5437 179.016 59.6644 179.026C59.7883 179.033 59.8911 179.044 59.9726 179.06V180.689C59.8976 180.663 59.7786 180.641 59.6155 180.621C59.4557 180.598 59.3007 180.587 59.1507 180.587C58.8278 180.587 58.5375 180.657 58.2798 180.797C58.0254 180.934 57.8249 181.125 57.6781 181.37C57.5313 181.614 57.4579 181.896 57.4579 182.216V186.634H55.6869ZM61.6839 189.452C61.4426 189.452 61.2192 189.432 61.0137 189.393C60.8115 189.357 60.65 189.315 60.5293 189.266L60.9403 187.886C61.198 187.961 61.4279 187.997 61.6301 187.994C61.8323 187.991 62.0101 187.927 62.1634 187.803C62.32 187.682 62.452 187.48 62.5597 187.196L62.7113 186.79L59.9863 179.119H61.865L63.5969 184.794H63.6752L65.412 179.119H67.2955L64.2867 187.544C64.1465 187.942 63.9605 188.283 63.729 188.566C63.4974 188.853 63.2136 189.072 62.8777 189.222C62.545 189.375 62.1471 189.452 61.6839 189.452Z" fill="white"/>
<path d="M201.828 202.582L191.808 202.582L191.808 198.825C191.808 198.055 191.952 197.409 192.239 196.887C192.526 196.362 192.921 195.966 193.423 195.698C193.922 195.428 194.489 195.292 195.126 195.292C195.768 195.292 196.339 195.428 196.838 195.698C197.337 195.969 197.73 196.369 198.017 196.897C198.301 197.425 198.443 198.076 198.443 198.849L198.443 201.339L196.95 201.339L196.95 199.094C196.95 198.644 196.872 198.275 196.716 197.988C196.559 197.701 196.344 197.489 196.07 197.352C195.796 197.212 195.481 197.142 195.126 197.142C194.77 197.142 194.457 197.212 194.186 197.352C193.915 197.489 193.705 197.703 193.555 197.993C193.402 198.28 193.325 198.65 193.325 199.104L193.325 200.767L201.828 200.767L201.828 202.582ZM201.828 194.589L194.313 194.589L194.313 192.872L195.566 192.872L195.566 192.793C195.132 192.656 194.798 192.422 194.563 192.089C194.325 191.753 194.206 191.37 194.206 190.939C194.206 190.841 194.211 190.732 194.22 190.611C194.227 190.487 194.238 190.385 194.255 190.303L195.884 190.303C195.858 190.378 195.835 190.497 195.815 190.66C195.793 190.82 195.781 190.975 195.781 191.125C195.781 191.448 195.851 191.738 195.991 191.996C196.128 192.25 196.319 192.451 196.564 192.598C196.809 192.744 197.091 192.818 197.41 192.818L201.828 192.818L201.828 194.589ZM201.828 189.921L194.313 189.921L194.313 188.15L201.828 188.15L201.828 189.921ZM193.247 189.031C193.247 189.311 193.154 189.553 192.968 189.755C192.779 189.957 192.552 190.058 192.288 190.058C192.02 190.058 191.794 189.957 191.608 189.755C191.419 189.553 191.324 189.311 191.324 189.031C191.324 188.747 191.419 188.506 191.608 188.307C191.794 188.105 192.02 188.003 192.288 188.003C192.552 188.003 192.779 188.105 192.968 188.307C193.154 188.506 193.247 188.747 193.247 189.031ZM201.828 187.124L194.313 187.124L194.313 185.431L195.59 185.431L195.59 185.343C195.16 185.186 194.824 184.927 194.582 184.565C194.338 184.203 194.216 183.771 194.216 183.269C194.216 182.76 194.339 182.331 194.587 181.982C194.832 181.63 195.166 181.382 195.59 181.238L195.59 181.16C195.173 180.994 194.84 180.713 194.592 180.319C194.341 179.921 194.216 179.449 194.216 178.905C194.216 178.213 194.434 177.649 194.871 177.212C195.308 176.775 195.946 176.556 196.784 176.556L201.828 176.556L201.828 178.332L197.058 178.332C196.592 178.332 196.251 178.456 196.035 178.704C195.817 178.952 195.708 179.255 195.708 179.614C195.708 180.041 195.841 180.376 196.109 180.617C196.373 180.855 196.717 180.974 197.141 180.974L201.828 180.974L201.828 182.711L196.985 182.711C196.596 182.711 196.287 182.828 196.055 183.063C195.823 183.295 195.708 183.598 195.708 183.973C195.708 184.228 195.773 184.459 195.903 184.668C196.031 184.877 196.212 185.043 196.446 185.167C196.678 185.291 196.949 185.353 197.259 185.353L201.828 185.353L201.828 187.124ZM201.98 173.392C201.98 173.868 201.895 174.297 201.725 174.679C201.553 175.057 201.298 175.357 200.962 175.579C200.626 175.797 200.212 175.907 199.719 175.907C199.295 175.907 198.945 175.828 198.668 175.672C198.39 175.515 198.169 175.302 198.002 175.031C197.836 174.76 197.71 174.455 197.626 174.116C197.537 173.774 197.474 173.42 197.435 173.054C197.389 172.614 197.348 172.257 197.312 171.983C197.273 171.709 197.215 171.51 197.136 171.386C197.055 171.259 196.929 171.195 196.76 171.195L196.73 171.195C196.362 171.195 196.076 171.304 195.874 171.523C195.672 171.742 195.571 172.056 195.571 172.467C195.571 172.901 195.665 173.245 195.854 173.5C196.044 173.751 196.267 173.92 196.525 174.008L196.29 175.662C195.833 175.532 195.452 175.316 195.145 175.016C194.835 174.716 194.604 174.349 194.45 173.915C194.294 173.482 194.216 173.002 194.216 172.477C194.216 172.115 194.258 171.755 194.343 171.396C194.428 171.037 194.568 170.709 194.763 170.412C194.956 170.116 195.218 169.878 195.551 169.698C195.884 169.515 196.3 169.424 196.799 169.424L201.828 169.424L201.828 171.127L200.796 171.127L200.796 171.185C201.005 171.293 201.2 171.445 201.383 171.64C201.562 171.833 201.707 172.076 201.818 172.369C201.926 172.66 201.98 173.001 201.98 173.392ZM200.678 172.932C200.678 172.576 200.608 172.268 200.468 172.007C200.325 171.746 200.135 171.546 199.901 171.406C199.666 171.262 199.41 171.19 199.132 171.19L198.247 171.19C198.293 171.246 198.335 171.34 198.374 171.474C198.413 171.605 198.447 171.751 198.477 171.914C198.506 172.077 198.532 172.239 198.555 172.399C198.578 172.559 198.597 172.697 198.614 172.815C198.65 173.079 198.708 173.315 198.79 173.524C198.871 173.733 198.986 173.897 199.132 174.018C199.276 174.139 199.462 174.199 199.69 174.199C200.016 174.199 200.263 174.08 200.429 173.842C200.595 173.604 200.678 173.301 200.678 172.932ZM201.828 168.438L194.313 168.438L194.313 166.721L195.566 166.721L195.566 166.643C195.132 166.506 194.798 166.271 194.563 165.938C194.325 165.602 194.206 165.219 194.206 164.788C194.206 164.691 194.211 164.581 194.22 164.461C194.227 164.337 194.238 164.234 194.255 164.152L195.884 164.152C195.858 164.227 195.835 164.346 195.815 164.51C195.793 164.669 195.781 164.824 195.781 164.974C195.781 165.297 195.851 165.587 195.991 165.845C196.128 166.1 196.319 166.3 196.564 166.447C196.809 166.594 197.091 166.667 197.41 166.667L201.828 166.667L201.828 168.438ZM204.646 162.441C204.646 162.682 204.627 162.906 204.587 163.111C204.552 163.314 204.509 163.475 204.46 163.596L203.081 163.185C203.156 162.927 203.191 162.697 203.188 162.495C203.185 162.293 203.121 162.115 202.997 161.962C202.877 161.805 202.675 161.673 202.391 161.565L201.985 161.414L194.313 164.139L194.313 162.26L199.989 160.528L199.989 160.45L194.313 158.713L194.313 156.829L202.738 159.838C203.136 159.979 203.477 160.164 203.761 160.396C204.048 160.628 204.266 160.911 204.416 161.247C204.57 161.58 204.646 161.978 204.646 162.441ZM201.828 153.698L191.808 153.698L191.808 151.883L200.307 151.883L200.307 147.47L201.828 147.47L201.828 153.698ZM201.828 146.768L194.313 146.768L194.313 144.997L201.828 144.997L201.828 146.768ZM193.247 145.877C193.247 146.158 193.154 146.399 192.968 146.601C192.779 146.804 192.552 146.905 192.288 146.905C192.02 146.905 191.794 146.804 191.608 146.601C191.419 146.399 191.324 146.158 191.324 145.877C191.324 145.593 191.419 145.352 191.608 145.153C191.794 144.951 192.02 144.85 192.288 144.85C192.552 144.85 192.779 144.951 192.968 145.153C193.154 145.352 193.247 145.593 193.247 145.877ZM204.803 140.702C204.803 141.338 204.716 141.884 204.543 142.341C204.374 142.798 204.145 143.165 203.858 143.442C203.571 143.719 203.253 143.911 202.904 144.019L202.518 142.424C202.665 142.352 202.81 142.248 202.953 142.111C203.1 141.974 203.221 141.79 203.315 141.558C203.413 141.323 203.462 141.028 203.462 140.673C203.462 140.17 203.34 139.755 203.095 139.425C202.854 139.096 202.456 138.931 201.902 138.931L200.478 138.931L200.478 139.019C200.66 139.11 200.848 139.244 201.04 139.42C201.233 139.593 201.394 139.823 201.525 140.11C201.655 140.394 201.72 140.751 201.72 141.182C201.72 141.759 201.585 142.282 201.314 142.752C201.04 143.218 200.633 143.59 200.091 143.867C199.547 144.141 198.865 144.278 198.046 144.278C197.221 144.278 196.525 144.141 195.957 143.867C195.386 143.59 194.954 143.217 194.661 142.747C194.364 142.277 194.216 141.754 194.216 141.177C194.216 140.736 194.291 140.374 194.441 140.091C194.587 139.803 194.765 139.575 194.974 139.406C195.179 139.236 195.373 139.107 195.556 139.019L195.556 138.921L194.313 138.921L194.313 137.175L201.95 137.175C202.593 137.175 203.125 137.328 203.545 137.635C203.966 137.941 204.281 138.36 204.49 138.892C204.698 139.424 204.803 140.027 204.803 140.702ZM200.331 140.687C200.331 140.312 200.24 139.993 200.057 139.728C199.874 139.464 199.612 139.264 199.269 139.127C198.927 138.99 198.516 138.921 198.036 138.921C197.564 138.921 197.149 138.99 196.794 139.127C196.438 139.26 196.163 139.459 195.967 139.724C195.768 139.985 195.669 140.306 195.669 140.687C195.669 141.082 195.771 141.411 195.977 141.676C196.182 141.94 196.464 142.139 196.823 142.273C197.179 142.406 197.583 142.473 198.036 142.473C198.496 142.473 198.899 142.406 199.245 142.273C199.587 142.136 199.855 141.935 200.047 141.671C200.236 141.403 200.331 141.076 200.331 140.687ZM197.425 134.383L201.828 134.383L201.828 136.154L191.808 136.154L191.808 134.422L195.59 134.422L195.59 134.334C195.166 134.158 194.832 133.886 194.587 133.517C194.339 133.146 194.216 132.673 194.216 132.099C194.216 131.577 194.325 131.122 194.543 130.734C194.762 130.345 195.081 130.045 195.502 129.833C195.923 129.618 196.437 129.51 197.043 129.51L201.828 129.51L201.828 131.282L197.317 131.282C196.812 131.282 196.419 131.412 196.138 131.673C195.854 131.931 195.713 132.293 195.713 132.759C195.713 133.072 195.781 133.353 195.918 133.601C196.052 133.845 196.246 134.038 196.5 134.178C196.755 134.315 197.063 134.383 197.425 134.383ZM194.313 124.748L195.683 124.748L195.683 129.068L194.313 129.068L194.313 124.748ZM192.513 128.001L192.513 126.23L199.568 126.23C199.806 126.23 199.989 126.194 200.116 126.122C200.24 126.047 200.325 125.949 200.37 125.829C200.416 125.708 200.439 125.574 200.439 125.428C200.439 125.317 200.431 125.216 200.414 125.124C200.398 125.03 200.383 124.958 200.37 124.909L201.755 124.611C201.787 124.705 201.823 124.84 201.862 125.017C201.902 125.189 201.924 125.401 201.931 125.653C201.944 126.096 201.877 126.496 201.73 126.851C201.58 127.207 201.349 127.489 201.036 127.698C200.722 127.903 200.331 128.004 199.861 128.001L192.513 128.001ZM202.019 117.755C202.019 118.56 201.815 119.252 201.407 119.829C200.996 120.403 200.404 120.845 199.631 121.155C198.855 121.461 197.921 121.615 196.828 121.615C195.735 121.612 194.806 121.457 194.039 121.15C193.27 120.84 192.683 120.398 192.278 119.824C191.874 119.247 191.671 118.557 191.671 117.755C191.671 116.952 191.874 116.262 192.278 115.685C192.683 115.108 193.27 114.666 194.039 114.359C194.809 114.049 195.739 113.895 196.828 113.895C197.924 113.895 198.86 114.049 199.636 114.359C200.409 114.666 201 115.108 201.407 115.685C201.815 116.259 202.019 116.949 202.019 117.755ZM200.488 117.755C200.488 117.128 200.179 116.634 199.563 116.272C198.943 115.907 198.032 115.724 196.828 115.724C196.032 115.724 195.364 115.807 194.822 115.974C194.281 116.14 193.873 116.375 193.599 116.678C193.322 116.982 193.183 117.34 193.183 117.755C193.183 118.378 193.493 118.87 194.113 119.232C194.729 119.594 195.634 119.777 196.828 119.78C197.627 119.783 198.299 119.703 198.844 119.54C199.388 119.374 199.799 119.139 200.077 118.836C200.351 118.533 200.488 118.172 200.488 117.755Z" fill="#10130E"/>
<path d="M244.219 202.582L234.199 202.582L234.199 198.825C234.199 198.055 234.343 197.409 234.63 196.887C234.917 196.362 235.311 195.966 235.814 195.698C236.313 195.428 236.88 195.292 237.516 195.292C238.159 195.292 238.729 195.428 239.228 195.698C239.728 195.969 240.121 196.369 240.408 196.897C240.691 197.425 240.833 198.076 240.833 198.849L240.833 201.339L239.341 201.339L239.341 199.094C239.341 198.644 239.263 198.275 239.106 197.988C238.95 197.701 238.734 197.489 238.46 197.352C238.186 197.212 237.872 197.142 237.516 197.142C237.161 197.142 236.848 197.212 236.577 197.352C236.306 197.489 236.096 197.703 235.946 197.993C235.792 198.28 235.716 198.65 235.716 199.104L235.716 200.767L244.219 200.767L244.219 202.582ZM244.219 194.589L236.704 194.589L236.704 192.872L237.956 192.872L237.956 192.793C237.523 192.656 237.188 192.422 236.954 192.089C236.715 191.753 236.596 191.37 236.596 190.939C236.596 190.841 236.601 190.732 236.611 190.611C236.618 190.487 236.629 190.385 236.645 190.303L238.274 190.303C238.248 190.378 238.226 190.497 238.206 190.66C238.183 190.82 238.172 190.975 238.172 191.125C238.172 191.448 238.242 191.738 238.382 191.996C238.519 192.25 238.71 192.451 238.955 192.598C239.199 192.744 239.481 192.818 239.801 192.818L244.219 192.818L244.219 194.589ZM244.219 189.921L236.704 189.921L236.704 188.15L244.219 188.15L244.219 189.921ZM235.637 189.031C235.637 189.311 235.544 189.553 235.359 189.755C235.169 189.957 234.943 190.058 234.679 190.058C234.411 190.058 234.184 189.957 233.998 189.755C233.809 189.553 233.715 189.311 233.715 189.031C233.715 188.747 233.809 188.506 233.998 188.307C234.184 188.105 234.411 188.003 234.679 188.003C234.943 188.003 235.169 188.105 235.359 188.307C235.544 188.506 235.637 188.747 235.637 189.031ZM244.219 187.124L236.704 187.124L236.704 185.431L237.981 185.431L237.981 185.343C237.55 185.186 237.214 184.927 236.973 184.565C236.728 184.203 236.606 183.771 236.606 183.269C236.606 182.76 236.73 182.331 236.978 181.982C237.223 181.63 237.557 181.382 237.981 181.238L237.981 181.16C237.563 180.994 237.231 180.713 236.983 180.319C236.732 179.921 236.606 179.449 236.606 178.905C236.606 178.213 236.825 177.649 237.262 177.212C237.699 176.775 238.336 176.556 239.175 176.556L244.219 176.556L244.219 178.332L239.449 178.332C238.982 178.332 238.641 178.456 238.426 178.704C238.208 178.952 238.098 179.255 238.098 179.614C238.098 180.041 238.232 180.376 238.5 180.617C238.764 180.855 239.108 180.974 239.532 180.974L244.219 180.974L244.219 182.711L239.375 182.711C238.987 182.711 238.677 182.828 238.446 183.063C238.214 183.295 238.098 183.598 238.098 183.973C238.098 184.228 238.164 184.459 238.294 184.668C238.421 184.877 238.602 185.043 238.837 185.167C239.069 185.291 239.339 185.353 239.649 185.353L244.219 185.353L244.219 187.124ZM244.37 173.392C244.37 173.868 244.286 174.297 244.116 174.679C243.943 175.057 243.689 175.357 243.353 175.579C243.017 175.797 242.603 175.907 242.11 175.907C241.686 175.907 241.335 175.828 241.058 175.672C240.781 175.515 240.559 175.302 240.393 175.031C240.227 174.76 240.101 174.455 240.016 174.116C239.928 173.774 239.864 173.42 239.825 173.054C239.78 172.614 239.739 172.257 239.703 171.983C239.664 171.709 239.605 171.51 239.527 171.386C239.445 171.259 239.32 171.195 239.15 171.195L239.121 171.195C238.752 171.195 238.467 171.304 238.265 171.523C238.062 171.742 237.961 172.056 237.961 172.467C237.961 172.901 238.056 173.245 238.245 173.5C238.434 173.751 238.658 173.92 238.915 174.008L238.681 175.662C238.224 175.532 237.842 175.316 237.536 175.016C237.226 174.716 236.994 174.349 236.841 173.915C236.684 173.482 236.606 173.002 236.606 172.477C236.606 172.115 236.649 171.755 236.733 171.396C236.818 171.037 236.958 170.709 237.154 170.412C237.347 170.116 237.609 169.878 237.942 169.698C238.274 169.515 238.69 169.424 239.189 169.424L244.219 169.424L244.219 171.127L243.186 171.127L243.186 171.185C243.395 171.293 243.591 171.445 243.774 171.64C243.953 171.833 244.098 172.076 244.209 172.369C244.317 172.66 244.37 173.001 244.37 173.392ZM243.069 172.932C243.069 172.576 242.999 172.268 242.859 172.007C242.715 171.746 242.526 171.546 242.291 171.406C242.056 171.262 241.8 171.19 241.523 171.19L240.637 171.19C240.683 171.246 240.726 171.34 240.765 171.474C240.804 171.605 240.838 171.751 240.867 171.914C240.897 172.077 240.923 172.239 240.946 172.399C240.969 172.559 240.988 172.697 241.004 172.815C241.04 173.079 241.099 173.315 241.181 173.524C241.262 173.733 241.376 173.897 241.523 174.018C241.667 174.139 241.852 174.199 242.081 174.199C242.407 174.199 242.653 174.08 242.82 173.842C242.986 173.604 243.069 173.301 243.069 172.932ZM244.219 168.438L236.704 168.438L236.704 166.721L237.956 166.721L237.956 166.643C237.523 166.506 237.188 166.271 236.954 165.938C236.715 165.602 236.596 165.219 236.596 164.788C236.596 164.691 236.601 164.581 236.611 164.461C236.618 164.337 236.629 164.234 236.645 164.152L238.274 164.152C238.248 164.227 238.226 164.346 238.206 164.51C238.183 164.669 238.172 164.824 238.172 164.974C238.172 165.297 238.242 165.587 238.382 165.845C238.519 166.1 238.71 166.3 238.955 166.447C239.199 166.594 239.481 166.667 239.801 166.667L244.219 166.667L244.219 168.438ZM247.037 162.441C247.037 162.682 247.017 162.906 246.978 163.111C246.942 163.314 246.9 163.475 246.851 163.596L245.471 163.185C245.546 162.927 245.582 162.697 245.579 162.495C245.576 162.293 245.512 162.115 245.388 161.962C245.267 161.805 245.065 161.673 244.781 161.565L244.375 161.414L236.704 164.139L236.704 162.26L242.379 160.528L242.379 160.45L236.704 158.713L236.704 156.829L245.129 159.838C245.527 159.979 245.867 160.164 246.151 160.396C246.438 160.628 246.657 160.911 246.807 161.247C246.96 161.58 247.037 161.978 247.037 162.441ZM244.219 153.698L234.199 153.698L234.199 151.883L242.697 151.883L242.697 147.47L244.219 147.47L244.219 153.698ZM244.219 146.768L236.704 146.768L236.704 144.997L244.219 144.997L244.219 146.768ZM235.637 145.877C235.637 146.158 235.544 146.399 235.359 146.601C235.169 146.804 234.943 146.905 234.679 146.905C234.411 146.905 234.184 146.804 233.998 146.601C233.809 146.399 233.715 146.158 233.715 145.877C233.715 145.593 233.809 145.352 233.998 145.153C234.184 144.951 234.411 144.85 234.679 144.85C234.943 144.85 235.169 144.951 235.359 145.153C235.544 145.352 235.637 145.593 235.637 145.877ZM247.193 140.702C247.193 141.338 247.107 141.884 246.934 142.341C246.764 142.798 246.536 143.165 246.249 143.442C245.962 143.719 245.644 143.911 245.295 144.019L244.909 142.424C245.055 142.352 245.2 142.248 245.344 142.111C245.491 141.974 245.611 141.79 245.706 141.558C245.804 141.323 245.853 141.028 245.853 140.673C245.853 140.17 245.731 139.755 245.486 139.425C245.245 139.096 244.847 138.931 244.292 138.931L242.868 138.931L242.868 139.019C243.051 139.11 243.239 139.244 243.431 139.42C243.624 139.593 243.785 139.823 243.915 140.11C244.046 140.394 244.111 140.751 244.111 141.182C244.111 141.759 243.976 142.282 243.705 142.752C243.431 143.218 243.023 143.59 242.482 143.867C241.937 144.141 241.256 144.278 240.437 144.278C239.612 144.278 238.915 144.141 238.348 143.867C237.777 143.59 237.345 143.217 237.051 142.747C236.755 142.277 236.606 141.754 236.606 141.177C236.606 140.736 236.681 140.374 236.831 140.091C236.978 139.803 237.156 139.575 237.364 139.406C237.57 139.236 237.764 139.107 237.947 139.019L237.947 138.921L236.704 138.921L236.704 137.175L244.341 137.175C244.984 137.175 245.515 137.328 245.936 137.635C246.357 137.941 246.671 138.36 246.88 138.892C247.089 139.424 247.193 140.027 247.193 140.702ZM242.722 140.687C242.722 140.312 242.63 139.993 242.448 139.728C242.265 139.464 242.002 139.264 241.66 139.127C241.318 138.99 240.907 138.921 240.427 138.921C239.954 138.921 239.54 138.99 239.184 139.127C238.829 139.26 238.553 139.459 238.358 139.724C238.159 139.985 238.059 140.306 238.059 140.687C238.059 141.082 238.162 141.411 238.367 141.676C238.573 141.94 238.855 142.139 239.214 142.273C239.569 142.406 239.974 142.473 240.427 142.473C240.887 142.473 241.29 142.406 241.636 142.273C241.978 142.136 242.245 141.935 242.438 141.671C242.627 141.403 242.722 141.076 242.722 140.687ZM239.816 134.383L244.219 134.383L244.219 136.154L234.199 136.154L234.199 134.422L237.981 134.422L237.981 134.334C237.557 134.158 237.223 133.886 236.978 133.517C236.73 133.146 236.606 132.673 236.606 132.099C236.606 131.577 236.715 131.122 236.934 130.734C237.152 130.345 237.472 130.045 237.893 129.833C238.314 129.618 238.827 129.51 239.434 129.51L244.219 129.51L244.219 131.282L239.708 131.282C239.202 131.282 238.809 131.412 238.529 131.673C238.245 131.931 238.103 132.293 238.103 132.759C238.103 133.072 238.172 133.353 238.309 133.601C238.442 133.845 238.636 134.038 238.891 134.178C239.145 134.315 239.454 134.383 239.816 134.383ZM236.704 124.748L238.074 124.748L238.074 129.068L236.704 129.068L236.704 124.748ZM234.904 128.001L234.904 126.23L241.958 126.23C242.197 126.23 242.379 126.194 242.506 126.122C242.63 126.047 242.715 125.949 242.761 125.829C242.806 125.708 242.829 125.574 242.829 125.428C242.829 125.317 242.821 125.216 242.805 125.124C242.789 125.03 242.774 124.958 242.761 124.909L244.145 124.611C244.178 124.705 244.214 124.84 244.253 125.017C244.292 125.189 244.315 125.401 244.321 125.653C244.335 126.096 244.268 126.496 244.121 126.851C243.971 127.207 243.739 127.489 243.426 127.698C243.113 127.903 242.722 128.004 242.252 128.001L234.904 128.001ZM244.41 117.755C244.41 118.56 244.206 119.252 243.798 119.829C243.387 120.403 242.795 120.845 242.022 121.155C241.246 121.461 240.311 121.615 239.219 121.615C238.126 121.612 237.196 121.457 236.43 121.15C235.66 120.84 235.073 120.398 234.669 119.824C234.264 119.247 234.062 118.557 234.062 117.755C234.062 116.952 234.264 116.262 234.669 115.685C235.073 115.108 235.66 114.666 236.43 114.359C237.2 114.049 238.129 113.895 239.219 113.895C240.315 113.895 241.251 114.049 242.027 114.359C242.8 114.666 243.39 115.108 243.798 115.685C244.206 116.259 244.41 116.949 244.41 117.755ZM242.878 117.755C242.878 117.128 242.57 116.634 241.954 116.272C241.334 115.907 240.422 115.724 239.219 115.724C238.423 115.724 237.754 115.807 237.213 115.974C236.671 116.14 236.264 116.375 235.99 116.678C235.712 116.982 235.574 117.34 235.574 117.755C235.574 118.378 235.884 118.87 236.503 119.232C237.12 119.594 238.025 119.777 239.219 119.78C240.018 119.783 240.69 119.703 241.234 119.54C241.779 119.374 242.19 119.139 242.467 118.836C242.741 118.533 242.878 118.172 242.878 117.755Z" fill="#10130E"/>
<path d="M286.609 202.582L276.59 202.582L276.59 198.825C276.59 198.055 276.733 197.409 277.02 196.887C277.307 196.362 277.702 195.966 278.204 195.698C278.703 195.428 279.271 195.292 279.907 195.292C280.549 195.292 281.12 195.428 281.619 195.698C282.118 195.969 282.511 196.369 282.798 196.897C283.082 197.425 283.224 198.076 283.224 198.849L283.224 201.339L281.732 201.339L281.732 199.094C281.732 198.644 281.653 198.275 281.497 197.988C281.34 197.701 281.125 197.489 280.851 197.352C280.577 197.212 280.262 197.142 279.907 197.142C279.551 197.142 279.238 197.212 278.967 197.352C278.697 197.489 278.486 197.703 278.336 197.993C278.183 198.28 278.106 198.65 278.106 199.104L278.106 200.767L286.609 200.767L286.609 202.582ZM286.609 194.589L279.095 194.589L279.095 192.872L280.347 192.872L280.347 192.793C279.913 192.656 279.579 192.422 279.344 192.089C279.106 191.753 278.987 191.37 278.987 190.939C278.987 190.841 278.992 190.732 279.002 190.611C279.008 190.487 279.02 190.385 279.036 190.303L280.665 190.303C280.639 190.378 280.616 190.497 280.597 190.66C280.574 190.82 280.562 190.975 280.562 191.125C280.562 191.448 280.632 191.738 280.773 191.996C280.91 192.25 281.101 192.451 281.345 192.598C281.59 192.744 281.872 192.818 282.192 192.818L286.609 192.818L286.609 194.589ZM286.609 189.921L279.095 189.921L279.095 188.15L286.609 188.15L286.609 189.921ZM278.028 189.031C278.028 189.311 277.935 189.553 277.749 189.755C277.56 189.957 277.333 190.058 277.069 190.058C276.802 190.058 276.575 189.957 276.389 189.755C276.2 189.553 276.105 189.311 276.105 189.031C276.105 188.747 276.2 188.506 276.389 188.307C276.575 188.105 276.802 188.003 277.069 188.003C277.333 188.003 277.56 188.105 277.749 188.307C277.935 188.506 278.028 188.747 278.028 189.031ZM286.609 187.124L279.095 187.124L279.095 185.431L280.372 185.431L280.372 185.343C279.941 185.186 279.605 184.927 279.364 184.565C279.119 184.203 278.997 183.771 278.997 183.269C278.997 182.76 279.121 182.331 279.369 181.982C279.613 181.63 279.948 181.382 280.372 181.238L280.372 181.16C279.954 180.994 279.621 180.713 279.373 180.319C279.122 179.921 278.997 179.449 278.997 178.905C278.997 178.213 279.215 177.649 279.652 177.212C280.089 176.775 280.727 176.556 281.565 176.556L286.609 176.556L286.609 178.332L281.839 178.332C281.373 178.332 281.032 178.456 280.817 178.704C280.598 178.952 280.489 179.255 280.489 179.614C280.489 180.041 280.623 180.376 280.89 180.617C281.154 180.855 281.498 180.974 281.922 180.974L286.609 180.974L286.609 182.711L281.766 182.711C281.378 182.711 281.068 182.828 280.836 183.063C280.605 183.295 280.489 183.598 280.489 183.973C280.489 184.228 280.554 184.459 280.685 184.668C280.812 184.877 280.993 185.043 281.228 185.167C281.459 185.291 281.73 185.353 282.04 185.353L286.609 185.353L286.609 187.124ZM286.761 173.392C286.761 173.868 286.676 174.297 286.507 174.679C286.334 175.057 286.079 175.357 285.743 175.579C285.407 175.797 284.993 175.907 284.501 175.907C284.077 175.907 283.726 175.828 283.449 175.672C283.172 175.515 282.95 175.302 282.784 175.031C282.617 174.76 282.492 174.455 282.407 174.116C282.319 173.774 282.255 173.42 282.216 173.054C282.17 172.614 282.13 172.257 282.094 171.983C282.055 171.709 281.996 171.51 281.918 171.386C281.836 171.259 281.71 171.195 281.541 171.195L281.511 171.195C281.143 171.195 280.858 171.304 280.655 171.523C280.453 171.742 280.352 172.056 280.352 172.467C280.352 172.901 280.447 173.245 280.636 173.5C280.825 173.751 281.048 173.92 281.306 174.008L281.071 175.662C280.615 175.532 280.233 175.316 279.926 175.016C279.616 174.716 279.385 174.349 279.232 173.915C279.075 173.482 278.997 173.002 278.997 172.477C278.997 172.115 279.039 171.755 279.124 171.396C279.209 171.037 279.349 170.709 279.545 170.412C279.737 170.116 280 169.878 280.332 169.698C280.665 169.515 281.081 169.424 281.58 169.424L286.609 169.424L286.609 171.127L285.577 171.127L285.577 171.185C285.786 171.293 285.982 171.445 286.164 171.64C286.344 171.833 286.489 172.076 286.6 172.369C286.707 172.66 286.761 173.001 286.761 173.392ZM285.46 172.932C285.46 172.576 285.39 172.268 285.249 172.007C285.106 171.746 284.917 171.546 284.682 171.406C284.447 171.262 284.191 171.19 283.914 171.19L283.028 171.19C283.074 171.246 283.116 171.34 283.155 171.474C283.194 171.605 283.229 171.751 283.258 171.914C283.287 172.077 283.314 172.239 283.336 172.399C283.359 172.559 283.379 172.697 283.395 172.815C283.431 173.079 283.49 173.315 283.571 173.524C283.653 173.733 283.767 173.897 283.914 174.018C284.057 174.139 284.243 174.199 284.471 174.199C284.798 174.199 285.044 174.08 285.21 173.842C285.376 173.604 285.46 173.301 285.46 172.932ZM286.609 168.438L279.095 168.438L279.095 166.721L280.347 166.721L280.347 166.643C279.913 166.506 279.579 166.271 279.344 165.938C279.106 165.602 278.987 165.219 278.987 164.788C278.987 164.691 278.992 164.581 279.002 164.461C279.008 164.337 279.02 164.234 279.036 164.152L280.665 164.152C280.639 164.227 280.616 164.346 280.597 164.51C280.574 164.669 280.562 164.824 280.562 164.974C280.562 165.297 280.632 165.587 280.773 165.845C280.91 166.1 281.101 166.3 281.345 166.447C281.59 166.594 281.872 166.667 282.192 166.667L286.609 166.667L286.609 168.438ZM289.427 162.441C289.427 162.682 289.408 162.906 289.369 163.111C289.333 163.314 289.29 163.475 289.241 163.596L287.862 163.185C287.937 162.927 287.973 162.697 287.969 162.495C287.966 162.293 287.903 162.115 287.779 161.962C287.658 161.805 287.456 161.673 287.172 161.565L286.766 161.414L279.095 164.139L279.095 162.26L284.77 160.528L284.77 160.45L279.095 158.713L279.095 156.829L287.519 159.838C287.917 159.979 288.258 160.164 288.542 160.396C288.829 160.628 289.047 160.911 289.197 161.247C289.351 161.58 289.427 161.978 289.427 162.441ZM286.609 150.303L286.609 153.698L276.59 153.698L276.59 150.234C276.59 149.239 276.79 148.385 277.191 147.67C277.589 146.953 278.162 146.402 278.909 146.017C279.656 145.632 280.549 145.44 281.59 145.44C282.633 145.44 283.53 145.634 284.281 146.022C285.031 146.407 285.606 146.963 286.008 147.69C286.409 148.414 286.609 149.285 286.609 150.303ZM285.039 151.883L285.039 150.391C285.039 149.693 284.912 149.11 284.657 148.644C284.4 148.178 284.016 147.827 283.508 147.592C282.996 147.357 282.356 147.24 281.59 147.24C280.823 147.24 280.187 147.357 279.682 147.592C279.173 147.827 278.793 148.174 278.542 148.634C278.287 149.091 278.16 149.658 278.16 150.337L278.16 151.883L285.039 151.883ZM286.761 142.426C286.761 142.902 286.676 143.331 286.507 143.712C286.334 144.091 286.079 144.391 285.743 144.613C285.407 144.831 284.993 144.94 284.501 144.94C284.077 144.94 283.726 144.862 283.449 144.705C283.172 144.549 282.95 144.335 282.783 144.065C282.617 143.794 282.492 143.489 282.407 143.15C282.319 142.807 282.255 142.453 282.216 142.088C282.17 141.648 282.13 141.291 282.094 141.017C282.055 140.743 281.996 140.544 281.918 140.42C281.836 140.293 281.71 140.229 281.541 140.229L281.511 140.229C281.143 140.229 280.858 140.338 280.655 140.557C280.453 140.775 280.352 141.09 280.352 141.501C280.352 141.935 280.447 142.279 280.636 142.533C280.825 142.784 281.048 142.954 281.306 143.042L281.071 144.696C280.615 144.565 280.233 144.35 279.926 144.05C279.616 143.75 279.385 143.383 279.232 142.949C279.075 142.515 278.997 142.036 278.997 141.511C278.997 141.149 279.039 140.788 279.124 140.43C279.209 140.071 279.349 139.743 279.545 139.446C279.737 139.149 280 138.911 280.332 138.732C280.665 138.549 281.081 138.458 281.58 138.458L286.609 138.458L286.609 140.16L285.577 140.16L285.577 140.219C285.786 140.327 285.982 140.478 286.164 140.674C286.344 140.867 286.489 141.11 286.6 141.403C286.707 141.693 286.761 142.034 286.761 142.426ZM285.46 141.966C285.46 141.61 285.39 141.302 285.249 141.041C285.106 140.78 284.917 140.58 284.682 140.439C284.447 140.296 284.191 140.224 283.914 140.224L283.028 140.224C283.074 140.279 283.116 140.374 283.155 140.508C283.194 140.638 283.229 140.785 283.258 140.948C283.287 141.111 283.314 141.273 283.336 141.432C283.359 141.592 283.379 141.731 283.395 141.848C283.431 142.113 283.49 142.349 283.571 142.558C283.653 142.766 283.767 142.931 283.914 143.052C284.057 143.173 284.243 143.233 284.471 143.233C284.798 143.233 285.044 143.114 285.21 142.876C285.376 142.638 285.46 142.334 285.46 141.966ZM286.609 137.472L279.095 137.472L279.095 135.755L280.347 135.755L280.347 135.676C279.913 135.539 279.579 135.305 279.344 134.972C279.106 134.636 278.987 134.253 278.987 133.822C278.987 133.724 278.992 133.615 279.002 133.494C279.008 133.37 279.02 133.268 279.036 133.186L280.665 133.186C280.639 133.261 280.616 133.38 280.597 133.543C280.574 133.703 280.562 133.858 280.562 134.008C280.562 134.331 280.632 134.621 280.773 134.879C280.91 135.133 281.101 135.334 281.345 135.481C281.59 135.627 281.872 135.701 282.192 135.701L286.609 135.701L286.609 137.472ZM284.251 131.19L282.113 131.195L282.113 130.911L279.095 128.21L279.095 126.141L282.793 129.463L282.793 129.83L284.251 131.19ZM286.609 132.804L276.59 132.804L276.59 131.033L286.609 131.033L286.609 132.804ZM286.609 128.088L283.19 130.534L281.942 129.34L286.609 125.97L286.609 128.088ZM286.8 119.449C286.8 120.254 286.596 120.946 286.189 121.523C285.778 122.097 285.186 122.539 284.413 122.849C283.636 123.156 282.702 123.309 281.609 123.309C280.517 123.306 279.587 123.151 278.821 122.844C278.051 122.534 277.464 122.092 277.059 121.518C276.655 120.941 276.453 120.251 276.453 119.449C276.453 118.646 276.655 117.957 277.059 117.379C277.464 116.802 278.051 116.36 278.821 116.053C279.59 115.744 280.52 115.589 281.609 115.589C282.705 115.589 283.641 115.744 284.418 116.053C285.191 116.36 285.781 116.802 286.189 117.379C286.596 117.953 286.8 118.643 286.8 119.449ZM285.269 119.449C285.269 118.823 284.961 118.328 284.344 117.966C283.724 117.601 282.813 117.418 281.609 117.418C280.813 117.418 280.145 117.502 279.603 117.668C279.062 117.834 278.654 118.069 278.38 118.373C278.103 118.676 277.964 119.035 277.964 119.449C277.964 120.072 278.274 120.564 278.894 120.926C279.51 121.288 280.416 121.471 281.609 121.474C282.408 121.478 283.08 121.398 283.625 121.235C284.17 121.068 284.581 120.833 284.858 120.53C285.132 120.227 285.269 119.866 285.269 119.449Z" fill="white"/>
<path d="M329 202.582L318.98 202.582L318.98 198.825C318.98 198.055 319.124 197.409 319.411 196.887C319.698 196.362 320.093 195.966 320.595 195.698C321.094 195.428 321.661 195.292 322.297 195.292C322.94 195.292 323.511 195.428 324.01 195.698C324.509 195.969 324.902 196.369 325.189 196.897C325.473 197.425 325.614 198.076 325.614 198.849L325.614 201.339L324.122 201.339L324.122 199.094C324.122 198.644 324.044 198.275 323.887 197.988C323.731 197.701 323.516 197.489 323.242 197.352C322.968 197.212 322.653 197.142 322.297 197.142C321.942 197.142 321.629 197.212 321.358 197.352C321.087 197.489 320.877 197.703 320.727 197.993C320.574 198.28 320.497 198.65 320.497 199.104L320.497 200.767L329 200.767L329 202.582ZM329 194.589L321.485 194.589L321.485 192.872L322.738 192.872L322.738 192.793C322.304 192.656 321.97 192.422 321.735 192.089C321.497 191.753 321.378 191.37 321.378 190.939C321.378 190.841 321.383 190.732 321.392 190.611C321.399 190.487 321.41 190.385 321.427 190.303L323.056 190.303C323.03 190.378 323.007 190.497 322.987 190.66C322.964 190.82 322.953 190.975 322.953 191.125C322.953 191.448 323.023 191.738 323.163 191.996C323.3 192.25 323.491 192.451 323.736 192.598C323.98 192.744 324.263 192.818 324.582 192.818L329 192.818L329 194.589ZM329 189.921L321.485 189.921L321.485 188.15L329 188.15L329 189.921ZM320.419 189.031C320.419 189.311 320.326 189.553 320.14 189.755C319.951 189.957 319.724 190.058 319.46 190.058C319.192 190.058 318.966 189.957 318.78 189.755C318.591 189.553 318.496 189.311 318.496 189.031C318.496 188.747 318.591 188.506 318.78 188.307C318.966 188.105 319.192 188.003 319.46 188.003C319.724 188.003 319.951 188.105 320.14 188.307C320.326 188.506 320.419 188.747 320.419 189.031ZM329 187.124L321.485 187.124L321.485 185.431L322.762 185.431L322.762 185.343C322.332 185.186 321.996 184.927 321.754 184.565C321.51 184.203 321.387 183.771 321.387 183.269C321.387 182.76 321.511 182.331 321.759 181.982C322.004 181.63 322.338 181.382 322.762 181.238L322.762 181.16C322.345 180.994 322.012 180.713 321.764 180.319C321.513 179.921 321.387 179.449 321.387 178.905C321.387 178.213 321.606 177.649 322.043 177.212C322.48 176.775 323.118 176.556 323.956 176.556L329 176.556L329 178.332L324.23 178.332C323.763 178.332 323.423 178.456 323.207 178.704C322.989 178.952 322.88 179.255 322.88 179.614C322.88 180.041 323.013 180.376 323.281 180.617C323.545 180.855 323.889 180.974 324.313 180.974L329 180.974L329 182.711L324.157 182.711C323.768 182.711 323.459 182.828 323.227 183.063C322.995 183.295 322.88 183.598 322.88 183.973C322.88 184.228 322.945 184.459 323.075 184.668C323.202 184.877 323.384 185.043 323.618 185.167C323.85 185.291 324.121 185.353 324.43 185.353L329 185.353L329 187.124ZM329.152 173.392C329.152 173.868 329.067 174.297 328.897 174.679C328.724 175.057 328.47 175.357 328.134 175.579C327.798 175.797 327.384 175.907 326.891 175.907C326.467 175.907 326.117 175.828 325.839 175.672C325.562 175.515 325.34 175.302 325.174 175.031C325.008 174.76 324.882 174.455 324.797 174.116C324.709 173.774 324.646 173.42 324.607 173.054C324.561 172.614 324.52 172.257 324.484 171.983C324.445 171.709 324.386 171.51 324.308 171.386C324.227 171.259 324.101 171.195 323.931 171.195L323.902 171.195C323.534 171.195 323.248 171.304 323.046 171.523C322.844 171.742 322.743 172.056 322.743 172.467C322.743 172.901 322.837 173.245 323.026 173.5C323.216 173.751 323.439 173.92 323.697 174.008L323.462 175.662C323.005 175.532 322.624 175.316 322.317 175.016C322.007 174.716 321.776 174.349 321.622 173.915C321.466 173.482 321.387 173.002 321.387 172.477C321.387 172.115 321.43 171.755 321.515 171.396C321.599 171.037 321.74 170.709 321.935 170.412C322.128 170.116 322.39 169.878 322.723 169.698C323.056 169.515 323.472 169.424 323.971 169.424L329 169.424L329 171.127L327.968 171.127L327.968 171.185C328.176 171.293 328.372 171.445 328.555 171.64C328.734 171.833 328.879 172.076 328.99 172.369C329.098 172.66 329.152 173.001 329.152 173.392ZM327.85 172.932C327.85 172.576 327.78 172.268 327.64 172.007C327.496 171.746 327.307 171.546 327.072 171.406C326.838 171.262 326.582 171.19 326.304 171.19L325.419 171.19C325.464 171.246 325.507 171.34 325.546 171.474C325.585 171.605 325.619 171.751 325.649 171.914C325.678 172.077 325.704 172.239 325.727 172.399C325.75 172.559 325.769 172.697 325.786 172.815C325.822 173.079 325.88 173.315 325.962 173.524C326.043 173.733 326.158 173.897 326.304 174.018C326.448 174.139 326.634 174.199 326.862 174.199C327.188 174.199 327.434 174.08 327.601 173.842C327.767 173.604 327.85 173.301 327.85 172.932ZM329 168.438L321.485 168.438L321.485 166.721L322.738 166.721L322.738 166.643C322.304 166.506 321.97 166.271 321.735 165.938C321.497 165.602 321.378 165.219 321.378 164.788C321.378 164.691 321.383 164.581 321.392 164.461C321.399 164.337 321.41 164.234 321.427 164.152L323.056 164.152C323.03 164.227 323.007 164.346 322.987 164.51C322.964 164.669 322.953 164.824 322.953 164.974C322.953 165.297 323.023 165.587 323.163 165.845C323.3 166.1 323.491 166.3 323.736 166.447C323.98 166.594 324.263 166.667 324.582 166.667L329 166.667L329 168.438ZM331.818 162.441C331.818 162.682 331.798 162.906 331.759 163.111C331.723 163.314 331.681 163.475 331.632 163.596L330.252 163.185C330.327 162.927 330.363 162.697 330.36 162.495C330.357 162.293 330.293 162.115 330.169 161.962C330.049 161.805 329.846 161.673 329.563 161.565L329.157 161.414L321.485 164.139L321.485 162.26L327.16 160.528L327.16 160.45L321.485 158.713L321.485 156.829L329.91 159.838C330.308 159.979 330.649 160.164 330.933 160.396C331.22 160.628 331.438 160.911 331.588 161.247C331.741 161.58 331.818 161.978 331.818 162.441ZM329 150.303L329 153.698L318.98 153.698L318.98 150.234C318.98 149.239 319.181 148.385 319.582 147.67C319.98 146.953 320.552 146.402 321.299 146.017C322.046 145.632 322.94 145.44 323.98 145.44C325.024 145.44 325.921 145.634 326.671 146.022C327.421 146.407 327.997 146.963 328.398 147.69C328.799 148.414 329 149.285 329 150.303ZM327.43 151.883L327.43 150.391C327.43 149.693 327.302 149.11 327.048 148.644C326.79 148.178 326.407 147.827 325.898 147.592C325.386 147.357 324.747 147.24 323.98 147.24C323.214 147.24 322.578 147.357 322.072 147.592C321.564 147.827 321.184 148.174 320.932 148.634C320.678 149.091 320.551 149.658 320.551 150.337L320.551 151.883L327.43 151.883ZM329.152 142.426C329.152 142.902 329.067 143.331 328.897 143.712C328.724 144.091 328.47 144.391 328.134 144.613C327.798 144.831 327.384 144.94 326.891 144.94C326.467 144.94 326.117 144.862 325.839 144.705C325.562 144.549 325.34 144.335 325.174 144.065C325.008 143.794 324.882 143.489 324.797 143.15C324.709 142.807 324.646 142.453 324.607 142.088C324.561 141.648 324.52 141.291 324.484 141.017C324.445 140.743 324.386 140.544 324.308 140.42C324.227 140.293 324.101 140.229 323.931 140.229L323.902 140.229C323.534 140.229 323.248 140.338 323.046 140.557C322.844 140.775 322.743 141.09 322.743 141.501C322.743 141.935 322.837 142.279 323.026 142.533C323.216 142.784 323.439 142.954 323.697 143.042L323.462 144.696C323.005 144.565 322.624 144.35 322.317 144.05C322.007 143.75 321.776 143.383 321.622 142.949C321.466 142.515 321.387 142.036 321.387 141.511C321.387 141.149 321.43 140.788 321.515 140.43C321.599 140.071 321.74 139.743 321.935 139.446C322.128 139.149 322.39 138.911 322.723 138.732C323.056 138.549 323.472 138.458 323.971 138.458L329 138.458L329 140.16L327.968 140.16L327.968 140.219C328.176 140.327 328.372 140.478 328.555 140.674C328.734 140.867 328.879 141.11 328.99 141.403C329.098 141.693 329.152 142.034 329.152 142.426ZM327.85 141.966C327.85 141.61 327.78 141.302 327.64 141.041C327.496 140.78 327.307 140.58 327.072 140.439C326.838 140.296 326.582 140.224 326.304 140.224L325.419 140.224C325.464 140.279 325.507 140.374 325.546 140.508C325.585 140.638 325.619 140.785 325.649 140.948C325.678 141.111 325.704 141.273 325.727 141.432C325.75 141.592 325.769 141.731 325.786 141.848C325.822 142.113 325.88 142.349 325.962 142.558C326.043 142.766 326.158 142.931 326.304 143.052C326.448 143.173 326.634 143.233 326.862 143.233C327.188 143.233 327.434 143.114 327.601 142.876C327.767 142.638 327.85 142.334 327.85 141.966ZM329 137.472L321.485 137.472L321.485 135.755L322.738 135.755L322.738 135.676C322.304 135.539 321.97 135.305 321.735 134.972C321.497 134.636 321.378 134.253 321.378 133.822C321.378 133.724 321.382 133.615 321.392 133.494C321.399 133.37 321.41 133.268 321.427 133.186L323.056 133.186C323.03 133.261 323.007 133.38 322.987 133.543C322.964 133.703 322.953 133.858 322.953 134.008C322.953 134.331 323.023 134.621 323.163 134.879C323.3 135.133 323.491 135.334 323.736 135.481C323.98 135.627 324.263 135.701 324.582 135.701L329 135.701L329 137.472ZM326.642 131.19L324.504 131.195L324.504 130.911L321.485 128.21L321.485 126.141L325.184 129.463L325.184 129.83L326.642 131.19ZM329 132.804L318.98 132.804L318.98 131.033L329 131.033L329 132.804ZM329 128.088L325.58 130.534L324.333 129.34L329 125.97L329 128.088ZM329.191 119.449C329.191 120.254 328.987 120.946 328.579 121.523C328.168 122.097 327.576 122.539 326.803 122.849C326.027 123.156 325.093 123.309 324 123.309C322.907 123.306 321.978 123.151 321.211 122.844C320.442 122.534 319.854 122.092 319.45 121.518C319.046 120.941 318.843 120.251 318.843 119.449C318.843 118.646 319.046 117.957 319.45 117.379C319.854 116.802 320.442 116.36 321.211 116.053C321.981 115.744 322.911 115.589 324 115.589C325.096 115.589 326.032 115.744 326.808 116.053C327.581 116.36 328.172 116.802 328.579 117.379C328.987 117.953 329.191 118.643 329.191 119.449ZM327.659 119.449C327.659 118.823 327.351 118.328 326.735 117.966C326.115 117.601 325.203 117.418 324 117.418C323.204 117.418 322.535 117.502 321.994 117.668C321.453 117.834 321.045 118.069 320.771 118.373C320.494 118.676 320.355 119.035 320.355 119.449C320.355 120.072 320.665 120.564 321.285 120.926C321.901 121.288 322.806 121.471 324 121.474C324.799 121.478 325.471 121.398 326.016 121.235C326.56 121.068 326.971 120.833 327.249 120.53C327.522 120.227 327.659 119.866 327.659 119.449Z" fill="white"/>
<path d="M371.387 202.582L361.367 202.582L361.367 198.825C361.367 198.055 361.501 197.409 361.768 196.887C362.036 196.362 362.411 195.966 362.893 195.698C363.373 195.428 363.932 195.292 364.572 195.292C365.214 195.292 365.772 195.429 366.245 195.703C366.714 195.974 367.078 196.374 367.336 196.902C367.59 197.43 367.717 198.079 367.717 198.849L367.717 201.525L366.211 201.525L366.211 199.094C366.211 198.644 366.149 198.275 366.025 197.988C365.897 197.701 365.713 197.489 365.472 197.352C365.227 197.212 364.927 197.142 364.572 197.142C364.216 197.142 363.913 197.212 363.662 197.352C363.407 197.492 363.215 197.706 363.084 197.993C362.951 198.28 362.884 198.65 362.884 199.104L362.884 200.767L371.387 200.767L371.387 202.582ZM366.847 197.406L371.387 194.925L371.387 196.951L366.847 199.387L366.847 197.406ZM371.533 191.275C371.533 192.029 371.377 192.68 371.064 193.228C370.747 193.772 370.301 194.191 369.723 194.485C369.143 194.778 368.459 194.925 367.673 194.925C366.9 194.925 366.222 194.778 365.638 194.485C365.051 194.188 364.594 193.774 364.268 193.242C363.939 192.711 363.774 192.086 363.774 191.368C363.774 190.905 363.849 190.468 363.999 190.057C364.146 189.643 364.374 189.278 364.684 188.961C364.994 188.642 365.389 188.391 365.868 188.208C366.344 188.025 366.912 187.934 367.571 187.934L368.114 187.934L368.114 194.094L366.92 194.094L366.92 189.632C366.581 189.635 366.279 189.708 366.015 189.852C365.747 189.995 365.537 190.196 365.384 190.454C365.23 190.708 365.154 191.005 365.154 191.344C365.154 191.706 365.242 192.024 365.418 192.298C365.591 192.572 365.819 192.786 366.103 192.939C366.383 193.089 366.692 193.166 367.028 193.169L368.07 193.169C368.507 193.169 368.882 193.089 369.195 192.929C369.505 192.769 369.743 192.546 369.909 192.259C370.072 191.972 370.154 191.636 370.154 191.251C370.154 190.993 370.118 190.76 370.046 190.551C369.971 190.343 369.862 190.162 369.718 190.008C369.575 189.855 369.397 189.739 369.185 189.661L369.371 188.007C369.808 188.112 370.19 188.311 370.516 188.604C370.839 188.894 371.09 189.266 371.269 189.72C371.445 190.173 371.533 190.692 371.533 191.275ZM371.519 184.442C371.519 185.032 371.367 185.561 371.064 186.027C370.76 186.493 370.32 186.862 369.743 187.133C369.166 187.403 368.464 187.539 367.639 187.539C366.804 187.539 366.1 187.402 365.526 187.128C364.948 186.851 364.513 186.477 364.219 186.007C363.923 185.538 363.774 185.014 363.774 184.437C363.774 183.997 363.849 183.635 363.999 183.351C364.146 183.067 364.324 182.842 364.532 182.676C364.738 182.509 364.932 182.38 365.115 182.289L365.115 182.216L361.367 182.216L361.367 180.44L371.387 180.44L371.387 182.182L370.203 182.182L370.203 182.289C370.385 182.38 370.579 182.513 370.785 182.685C370.987 182.858 371.16 183.087 371.304 183.37C371.447 183.654 371.519 184.011 371.519 184.442ZM370.066 183.948C370.066 183.573 369.965 183.253 369.762 182.989C369.557 182.725 369.272 182.524 368.906 182.387C368.541 182.25 368.115 182.182 367.629 182.182C367.143 182.182 366.721 182.25 366.362 182.387C366.003 182.521 365.725 182.72 365.526 182.984C365.327 183.245 365.227 183.566 365.227 183.948C365.227 184.342 365.33 184.672 365.535 184.936C365.741 185.2 366.025 185.399 366.387 185.533C366.749 185.667 367.163 185.733 367.629 185.733C368.099 185.733 368.518 185.667 368.887 185.533C369.252 185.396 369.541 185.195 369.753 184.931C369.961 184.664 370.066 184.336 370.066 183.948Z" fill="white"/>
<path d="M406.961 195.87C406.697 195.951 406.461 196.064 406.252 196.207C406.04 196.347 405.859 196.517 405.709 196.716C405.559 196.912 405.446 197.137 405.371 197.391C405.293 197.646 405.254 197.923 405.254 198.223C405.254 198.761 405.389 199.241 405.66 199.661C405.931 200.082 406.328 200.413 406.854 200.654C407.375 200.893 408.011 201.012 408.762 201.012C409.518 201.012 410.159 200.893 410.684 200.654C411.209 200.416 411.609 200.085 411.883 199.661C412.154 199.237 412.289 198.745 412.289 198.184C412.289 197.675 412.191 197.235 411.996 196.863C411.8 196.488 411.523 196.199 411.164 195.997C410.802 195.795 410.378 195.694 409.892 195.694L409.955 195.283L409.955 198.003L408.537 198.003L408.537 193.937L409.74 193.937C410.598 193.937 411.34 194.12 411.966 194.485C412.592 194.85 413.075 195.353 413.414 195.992C413.75 196.631 413.918 197.365 413.918 198.194C413.918 199.117 413.711 199.927 413.297 200.625C412.879 201.32 412.287 201.863 411.521 202.254C410.751 202.642 409.838 202.836 408.781 202.836C407.972 202.836 407.25 202.722 406.614 202.494C405.978 202.262 405.438 201.94 404.994 201.525C404.548 201.111 404.208 200.625 403.977 200.067C403.742 199.51 403.625 198.903 403.625 198.247C403.625 197.693 403.706 197.176 403.869 196.696C404.029 196.217 404.257 195.791 404.554 195.42C404.851 195.044 405.203 194.736 405.611 194.495C406.019 194.254 406.469 194.095 406.961 194.02L406.961 195.87ZM413.781 193.055L406.266 193.055L406.266 191.338L407.519 191.338L407.519 191.26C407.085 191.123 406.751 190.888 406.516 190.555C406.278 190.219 406.159 189.836 406.159 189.405C406.159 189.307 406.164 189.198 406.174 189.078C406.18 188.954 406.191 188.851 406.208 188.769L407.837 188.769C407.811 188.844 407.788 188.963 407.768 189.126C407.746 189.286 407.734 189.441 407.734 189.591C407.734 189.914 407.804 190.204 407.945 190.462C408.082 190.717 408.272 190.917 408.517 191.064C408.762 191.211 409.044 191.284 409.363 191.284L413.781 191.284L413.781 193.055ZM413.928 185.37C413.928 186.124 413.771 186.774 413.458 187.322C413.142 187.867 412.695 188.286 412.118 188.58C411.537 188.873 410.854 189.02 410.068 189.02C409.295 189.02 408.616 188.873 408.033 188.58C407.446 188.283 406.989 187.869 406.663 187.337C406.333 186.805 406.169 186.181 406.169 185.463C406.169 185 406.244 184.563 406.394 184.152C406.54 183.738 406.769 183.372 407.079 183.056C407.388 182.736 407.783 182.485 408.263 182.303C408.739 182.12 409.306 182.029 409.965 182.029L410.508 182.029L410.508 188.188L409.314 188.188L409.314 183.726C408.975 183.73 408.674 183.803 408.409 183.946C408.142 184.09 407.932 184.291 407.778 184.548C407.625 184.803 407.548 185.099 407.548 185.439C407.548 185.801 407.636 186.119 407.812 186.393C407.985 186.667 408.214 186.88 408.497 187.034C408.778 187.184 409.086 187.26 409.422 187.264L410.464 187.264C410.901 187.264 411.276 187.184 411.589 187.024C411.899 186.864 412.137 186.641 412.304 186.354C412.467 186.066 412.548 185.731 412.548 185.346C412.548 185.088 412.512 184.855 412.441 184.646C412.366 184.437 412.256 184.256 412.113 184.103C411.969 183.95 411.792 183.834 411.58 183.756L411.766 182.102C412.203 182.206 412.584 182.405 412.91 182.699C413.233 182.989 413.484 183.361 413.664 183.814C413.84 184.268 413.928 184.786 413.928 185.37ZM413.928 177.998C413.928 178.752 413.771 179.402 413.458 179.95C413.142 180.495 412.695 180.914 412.118 181.208C411.537 181.501 410.854 181.648 410.068 181.648C409.295 181.648 408.616 181.501 408.033 181.208C407.446 180.911 406.989 180.497 406.663 179.965C406.333 179.433 406.169 178.809 406.169 178.091C406.169 177.628 406.244 177.191 406.394 176.78C406.54 176.366 406.769 176.001 407.079 175.684C407.388 175.365 407.783 175.113 408.263 174.931C408.739 174.748 409.306 174.657 409.965 174.657L410.508 174.657L410.508 180.816L409.314 180.816L409.314 176.354C408.975 176.358 408.674 176.431 408.409 176.575C408.142 176.718 407.932 176.919 407.778 177.176C407.625 177.431 407.548 177.728 407.548 178.067C407.548 178.429 407.636 178.747 407.812 179.021C407.985 179.295 408.214 179.508 408.497 179.662C408.778 179.812 409.086 179.888 409.422 179.892L410.464 179.892C410.901 179.892 411.276 179.812 411.589 179.652C411.899 179.492 412.137 179.269 412.304 178.982C412.467 178.695 412.548 178.359 412.548 177.974C412.548 177.716 412.512 177.483 412.441 177.274C412.366 177.065 412.256 176.884 412.113 176.731C411.969 176.578 411.792 176.462 411.58 176.384L411.766 174.73C412.203 174.835 412.584 175.033 412.91 175.327C413.233 175.617 413.484 175.989 413.664 176.443C413.84 176.896 413.928 177.414 413.928 177.998ZM409.378 172.182L413.781 172.182L413.781 173.953L406.266 173.953L406.266 172.261L407.543 172.261L407.543 172.172C407.123 172 406.788 171.724 406.54 171.346C406.293 170.964 406.169 170.493 406.169 169.932C406.169 169.413 406.28 168.961 406.501 168.577C406.723 168.188 407.044 167.888 407.465 167.676C407.886 167.461 408.396 167.355 408.996 167.358L413.781 167.358L413.781 169.129L409.27 169.129C408.768 169.129 408.375 169.26 408.091 169.521C407.808 169.778 407.666 170.136 407.666 170.592C407.666 170.902 407.734 171.178 407.871 171.419C408.005 171.657 408.199 171.845 408.453 171.982C408.708 172.115 409.016 172.182 409.378 172.182Z" fill="white"/>
<path d="M446.152 203.267L446.152 201.217L450.585 198.766L450.585 198.668L446.152 196.217L446.152 194.167L452.434 197.812L456.172 197.812L456.172 199.622L452.434 199.622L446.152 203.267ZM456.319 191.827C456.319 192.581 456.162 193.231 455.849 193.779C455.533 194.324 455.086 194.743 454.508 195.037C453.928 195.33 453.245 195.477 452.459 195.477C451.686 195.477 451.007 195.33 450.423 195.037C449.836 194.74 449.38 194.325 449.053 193.794C448.724 193.262 448.559 192.638 448.559 191.92C448.559 191.457 448.634 191.02 448.784 190.609C448.931 190.195 449.159 189.829 449.469 189.513C449.779 189.193 450.174 188.942 450.653 188.76C451.129 188.577 451.697 188.486 452.356 188.486L452.899 188.486L452.899 194.645L451.705 194.645L451.705 190.183C451.366 190.187 451.064 190.26 450.8 190.403C450.533 190.547 450.322 190.748 450.169 191.005C450.016 191.26 449.939 191.556 449.939 191.896C449.939 192.258 450.027 192.576 450.203 192.85C450.376 193.124 450.604 193.337 450.888 193.491C451.169 193.641 451.477 193.717 451.813 193.72L452.855 193.72C453.292 193.72 453.667 193.641 453.98 193.481C454.29 193.321 454.528 193.097 454.694 192.81C454.857 192.523 454.939 192.188 454.939 191.803C454.939 191.545 454.903 191.312 454.831 191.103C454.756 190.894 454.647 190.713 454.504 190.56C454.36 190.407 454.182 190.291 453.97 190.213L454.156 188.559C454.593 188.663 454.975 188.862 455.301 189.156C455.624 189.446 455.875 189.818 456.054 190.271C456.231 190.725 456.319 191.243 456.319 191.827ZM446.152 186.011L456.172 186.011L456.172 187.782L446.152 187.782L446.152 186.011ZM446.152 183.214L456.172 183.214L456.172 184.985L446.152 184.985L446.152 183.214ZM456.319 178.909C456.319 179.643 456.157 180.279 455.834 180.817C455.511 181.356 455.06 181.773 454.479 182.07C453.899 182.363 453.22 182.51 452.444 182.51C451.668 182.51 450.988 182.363 450.404 182.07C449.82 181.773 449.367 181.356 449.044 180.817C448.721 180.279 448.559 179.643 448.559 178.909C448.559 178.175 448.721 177.539 449.044 177.001C449.367 176.463 449.82 176.047 450.404 175.754C450.988 175.457 451.668 175.309 452.444 175.309C453.22 175.309 453.899 175.457 454.479 175.754C455.06 176.047 455.511 176.463 455.834 177.001C456.157 177.539 456.319 178.175 456.319 178.909ZM454.9 178.9C454.9 178.502 454.791 178.169 454.572 177.901C454.35 177.634 454.053 177.435 453.682 177.305C453.31 177.171 452.896 177.104 452.439 177.104C451.979 177.104 451.563 177.171 451.191 177.305C450.816 177.435 450.518 177.634 450.296 177.901C450.074 178.169 449.963 178.502 449.963 178.9C449.963 179.307 450.074 179.646 450.296 179.917C450.518 180.185 450.816 180.385 451.191 180.519C451.563 180.649 451.979 180.715 452.439 180.715C452.896 180.715 453.31 180.649 453.682 180.519C454.053 180.385 454.35 180.185 454.572 179.917C454.791 179.646 454.9 179.307 454.9 178.9ZM456.172 173.265L448.657 175.388L448.657 173.583L453.941 172.262L453.941 172.193L448.657 170.843L448.657 169.057L453.912 167.707L453.912 167.633L448.657 166.332L448.657 164.522L456.172 166.65L456.172 168.494L451.094 169.903L451.094 170.006L456.172 171.415L456.172 173.265Z" fill="#10130E"/>
<path d="M25.3493 203.598L26.9931 193.578H27.9716L26.3277 203.598H25.3493ZM20.7895 200.819L20.9461 199.84H28.4217L28.2651 200.819H20.7895ZM21.8267 203.598L23.4706 193.578H24.4491L22.8052 203.598H21.8267ZM21.3766 197.335L21.5332 196.357H29.0088L28.8522 197.335H21.3766ZM32.7566 203.735C32.0194 203.735 31.3916 203.534 30.873 203.133C30.3544 202.728 29.9581 202.143 29.6841 201.376C29.4102 200.607 29.2732 199.677 29.2732 198.588C29.2732 197.505 29.4102 196.58 29.6841 195.814C29.9614 195.044 30.3593 194.457 30.8779 194.053C31.3997 193.645 32.026 193.441 32.7566 193.441C33.4872 193.441 34.1118 193.645 34.6304 194.053C35.1522 194.457 35.5501 195.044 35.8241 195.814C36.1014 196.58 36.24 197.505 36.24 198.588C36.24 199.677 36.103 200.607 35.829 201.376C35.555 202.143 35.1587 202.728 34.6402 203.133C34.1216 203.534 33.4937 203.735 32.7566 203.735ZM32.7566 202.658C33.4872 202.658 34.0547 202.306 34.4591 201.602C34.8636 200.897 35.0658 199.892 35.0658 198.588C35.0658 197.72 34.9728 196.981 34.7869 196.372C34.6043 195.762 34.3401 195.297 33.9944 194.977C33.6519 194.658 33.2393 194.498 32.7566 194.498C32.0325 194.498 31.4666 194.855 31.0589 195.569C30.6512 196.28 30.4473 197.286 30.4473 198.588C30.4473 199.455 30.5387 200.193 30.7213 200.799C30.904 201.406 31.1665 201.867 31.509 202.184C31.8547 202.5 32.2706 202.658 32.7566 202.658ZM40.5724 203.735C39.8353 203.735 39.2074 203.534 38.6888 203.133C38.1702 202.728 37.7739 202.143 37.5 201.376C37.226 200.607 37.089 199.677 37.089 198.588C37.089 197.505 37.226 196.58 37.5 195.814C37.7772 195.044 38.1751 194.457 38.6937 194.053C39.2156 193.645 39.8418 193.441 40.5724 193.441C41.303 193.441 41.9276 193.645 42.4462 194.053C42.9681 194.457 43.366 195.044 43.6399 195.814C43.9172 196.58 44.0558 197.505 44.0558 198.588C44.0558 199.677 43.9188 200.607 43.6448 201.376C43.3709 202.143 42.9746 202.728 42.456 203.133C41.9374 203.534 41.3095 203.735 40.5724 203.735ZM40.5724 202.658C41.303 202.658 41.8705 202.306 42.275 201.602C42.6794 200.897 42.8816 199.892 42.8816 198.588C42.8816 197.72 42.7887 196.981 42.6028 196.372C42.4201 195.762 42.1559 195.297 41.8102 194.977C41.4677 194.658 41.0551 194.498 40.5724 194.498C39.8483 194.498 39.2824 194.855 38.8747 195.569C38.467 196.28 38.2632 197.286 38.2632 198.588C38.2632 199.455 38.3545 200.193 38.5372 200.799C38.7198 201.406 38.9824 201.867 39.3248 202.184C39.6706 202.5 40.0864 202.658 40.5724 202.658ZM48.4469 203.735C48.036 203.728 47.625 203.65 47.214 203.5C46.8031 203.35 46.428 203.097 46.0888 202.741C45.7496 202.383 45.4772 201.898 45.2718 201.288C45.0663 200.675 44.9635 199.906 44.9635 198.979C44.9635 198.092 45.0467 197.306 45.213 196.621C45.3794 195.933 45.6207 195.354 45.9371 194.884C46.2535 194.411 46.6351 194.053 47.0819 193.808C47.5321 193.563 48.0392 193.441 48.6035 193.441C49.1645 193.441 49.6635 193.554 50.1006 193.779C50.5409 194 50.8997 194.31 51.1769 194.708C51.4541 195.106 51.6335 195.564 51.7151 196.083H50.5213C50.4104 195.633 50.1952 195.259 49.8755 194.963C49.5559 194.666 49.1319 194.517 48.6035 194.517C47.8272 194.517 47.2157 194.855 46.7688 195.53C46.3253 196.205 46.1018 197.153 46.0986 198.373H46.1769C46.3595 198.095 46.5764 197.859 46.8275 197.663C47.0819 197.464 47.3624 197.311 47.669 197.203C47.9756 197.096 48.3002 197.042 48.6426 197.042C49.2167 197.042 49.7418 197.185 50.218 197.472C50.6942 197.756 51.0758 198.149 51.3628 198.651C51.6498 199.15 51.7933 199.723 51.7933 200.369C51.7933 200.988 51.6547 201.556 51.3775 202.071C51.1003 202.583 50.7105 202.991 50.2082 203.294C49.7092 203.594 49.1221 203.741 48.4469 203.735ZM48.4469 202.658C48.8579 202.658 49.2265 202.556 49.5526 202.35C49.882 202.145 50.1413 201.869 50.3305 201.523C50.5229 201.178 50.6192 200.793 50.6192 200.369C50.6192 199.954 50.5262 199.578 50.3403 199.239C50.1576 198.896 49.9049 198.624 49.582 198.421C49.2623 198.219 48.897 198.118 48.4861 198.118C48.1762 198.118 47.8876 198.18 47.6201 198.304C47.3527 198.425 47.1178 198.591 46.9156 198.803C46.7166 199.015 46.5601 199.258 46.4459 199.532C46.3318 199.803 46.2747 200.088 46.2747 200.388C46.2747 200.786 46.3677 201.158 46.5536 201.504C46.7427 201.849 47.0004 202.128 47.3266 202.34C47.656 202.552 48.0294 202.658 48.4469 202.658ZM56.0536 203.735C55.4796 203.735 54.9626 203.62 54.5027 203.392C54.0428 203.164 53.6743 202.851 53.397 202.453C53.1198 202.055 52.9681 201.602 52.942 201.093H54.1162C54.1619 201.546 54.3674 201.921 54.7327 202.218C55.1012 202.512 55.5415 202.658 56.0536 202.658C56.4646 202.658 56.8299 202.562 57.1495 202.37C57.4724 202.177 57.7252 201.913 57.9078 201.577C58.0937 201.238 58.1867 200.855 58.1867 200.427C58.1867 199.99 58.0905 199.601 57.8981 199.258C57.7089 198.912 57.4479 198.64 57.1153 198.441C56.7826 198.242 56.4026 198.141 55.9753 198.138C55.6687 198.134 55.354 198.182 55.0311 198.28C54.7082 198.374 54.4424 198.496 54.2336 198.647L53.0986 198.51L53.7052 193.578H58.9108V194.654H54.7229L54.3706 197.609H54.4293C54.6348 197.446 54.8925 197.311 55.2023 197.203C55.5122 197.096 55.8351 197.042 56.171 197.042C56.7842 197.042 57.3305 197.189 57.81 197.482C58.2927 197.772 58.6711 198.17 58.945 198.676C59.2223 199.181 59.3609 199.759 59.3609 200.408C59.3609 201.047 59.2174 201.618 58.9304 202.12C58.6466 202.619 58.2552 203.014 57.7562 203.304C57.2571 203.591 56.6896 203.735 56.0536 203.735ZM63.8756 196.083V197.061H59.8246V196.083H63.8756ZM61.0379 203.598V195.046C61.0379 194.615 61.1391 194.256 61.3413 193.969C61.5435 193.682 61.8061 193.467 62.129 193.324C62.4519 193.18 62.7927 193.108 63.1515 193.108C63.4352 193.108 63.6668 193.131 63.8462 193.177C64.0256 193.222 64.1593 193.265 64.2474 193.304L63.9147 194.302C63.856 194.282 63.7744 194.258 63.6701 194.229C63.569 194.199 63.4352 194.185 63.2689 194.185C62.8873 194.185 62.6117 194.281 62.4421 194.473C62.2757 194.666 62.1926 194.948 62.1926 195.32V203.598H61.0379ZM64.6793 203.598V202.717L67.9866 199.097C68.3747 198.673 68.6944 198.304 68.9455 197.991C69.1967 197.675 69.3826 197.378 69.5032 197.101C69.6272 196.82 69.6892 196.526 69.6892 196.22C69.6892 195.868 69.6044 195.563 69.4348 195.305C69.2684 195.047 69.0401 194.848 68.7498 194.708C68.4595 194.568 68.1334 194.498 67.7713 194.498C67.3865 194.498 67.0505 194.578 66.7635 194.737C66.4797 194.894 66.2596 195.114 66.103 195.398C65.9497 195.682 65.8731 196.014 65.8731 196.396H64.7185C64.7185 195.809 64.8538 195.294 65.1245 194.85C65.3952 194.406 65.7638 194.061 66.2302 193.813C66.6999 193.565 67.2266 193.441 67.8105 193.441C68.3976 193.441 68.9178 193.565 69.3712 193.813C69.8245 194.061 70.18 194.395 70.4377 194.816C70.6954 195.237 70.8242 195.705 70.8242 196.22C70.8242 196.588 70.7573 196.949 70.6236 197.301C70.4931 197.65 70.2648 198.04 69.9387 198.47C69.6158 198.898 69.1673 199.42 68.5933 200.036L66.3427 202.443V202.521H71.0003V203.598H64.6793Z" fill="white"/>
</svg>
