<svg width="1920" height="1024" viewBox="0 0 1920 1024" fill="none" xmlns="http://www.w3.org/2000/svg">
<g clip-path="url(#clip0_1319_8824)">
<rect width="1920" height="1024" fill="#F7F7F7"/>
<g clip-path="url(#clip1_1319_8824)">
<path d="M-40.1807 67.2646V3.13831C-40.1807 -6.20831 -42.7359 -14.8153 -54.8395 -14.8153C-59.4119 -14.8153 -65.643 -12.0583 -67.8396 -8.58418C-70.5965 -4.01174 -71.3137 1.50209 -71.3137 4.97625V67.2646H-86.3311V-6.00658C-86.3311 -12.417 -86.6897 -18.8274 -87.25 -25.2377H-71.3137V-13.6946H-70.9551C-66.562 -23.5791 -58.6947 -27.0757 -47.8688 -27.0757C-39.4411 -27.0757 -29.7358 -23.6015 -26.2617 -15.1739C-21.1289 -25.0584 -12.7013 -27.0757 -4.27362 -27.0757C5.43162 -27.0757 21.0093 -24.8791 21.0093 -3.07036V67.2646H5.99194V3.13831C5.99194 -6.20831 3.4368 -14.8153 -8.66673 -14.8153C-14.3375 -14.8153 -15.9961 -14.6359 -20.0306 -11.3411C-24.4237 -7.68762 -25.1634 1.47967 -25.1634 4.95384V67.2422H-40.1807V67.2646Z" fill="#EBEBEB"/>
<path d="M53.976 25.8665C53.976 51.6873 60.9467 56.8201 72.6692 56.8201C82.9348 56.8201 88.2469 48.5718 88.7849 39.2252H105.282C105.102 59.7339 92.4608 69.0806 73.0503 69.0806C53.4605 69.0806 37.8828 63.2081 37.8828 22.3699C37.8828 -4.75096 40.9984 -27.0977 73.0503 -27.0977C99.4315 -27.0977 106.021 -12.6183 106.021 17.9544V25.8217H53.976V25.8665ZM90.0625 14.5026C90.0625 -12.4165 82.5538 -15.7114 71.571 -15.7114C62.045 -15.7114 54.1553 -11.1389 53.976 14.5026H90.0625Z" fill="#EBEBEB"/>
</g>
<g clip-path="url(#clip2_1319_8824)">
<path d="M537.145 67.2647V-65H602.728V-50.3413H554V-7.84445H600.173V6.81427H554V67.2647H537.145Z" fill="#EBEBEB"/>
<path d="M630.028 -11.3187H630.387C636.618 -25.4171 644.306 -27.0757 658.964 -27.0757V-11.498C657.687 -11.6773 656.207 -11.8566 654.93 -12.0583C653.652 -12.2377 652.375 -12.417 650.895 -12.417C634.219 -12.417 630.006 0.224495 630.006 12.6866V67.2646H614.988V-25.2602H630.006V-11.3187H630.028Z" fill="#EBEBEB"/>
<path d="M715.763 53.8839H715.404C710.832 64.5081 703.682 69.0806 692.138 69.0806C672.526 69.0806 666.855 56.4391 666.855 38.6648C666.855 10.6474 694.335 9.34741 715.404 9.90776C715.763 -2.37508 715.942 -15.7338 699.826 -15.7338C689.762 -15.7338 684.428 -8.96478 685.347 0.740458H669.052C669.792 -19.9476 680.775 -27.0977 700.387 -27.0977C724.19 -27.0977 730.421 -14.8148 730.421 0.740458V45.277C730.421 52.6063 731.161 60.115 732.259 67.265H715.763V53.8839ZM681.873 39.7855C681.873 48.7511 686.266 56.8201 696.352 56.8201C705.519 56.8201 716.861 51.1494 715.404 21.2716C701.104 21.4509 681.873 20.1733 681.873 39.7855Z" fill="#EBEBEB"/>
<path d="M797.819 67.2646V3.13831C797.819 -6.20831 795.264 -14.8153 783.161 -14.8153C778.588 -14.8153 772.357 -12.0583 770.16 -8.58418C767.403 -4.01174 766.686 1.50209 766.686 4.97625V67.2646H751.669V-6.00658C751.669 -12.417 751.31 -18.8274 750.75 -25.2377H766.686V-13.6946H767.045C771.438 -23.5791 779.305 -27.0757 790.131 -27.0757C798.559 -27.0757 808.264 -23.6015 811.738 -15.1739C816.871 -25.0584 825.299 -27.0757 833.726 -27.0757C843.432 -27.0757 859.009 -24.8791 859.009 -3.07036V67.2646H843.992V3.13831C843.992 -6.20831 841.437 -14.8153 829.333 -14.8153C823.663 -14.8153 822.004 -14.6359 817.969 -11.3411C813.576 -7.68762 812.837 1.47967 812.837 4.95384V67.2422H797.819V67.2646Z" fill="#EBEBEB"/>
<path d="M891.976 25.8665C891.976 51.6873 898.947 56.8201 910.669 56.8201C920.935 56.8201 926.247 48.5718 926.785 39.2252H943.282C943.102 59.7339 930.461 69.0806 911.05 69.0806C891.461 69.0806 875.883 63.2081 875.883 22.3699C875.883 -4.75096 878.998 -27.0977 911.05 -27.0977C937.431 -27.0977 944.021 -12.6183 944.021 17.9544V25.8217H891.976V25.8665ZM928.062 14.5026C928.062 -12.4165 920.554 -15.7114 909.571 -15.7114C900.045 -15.7114 892.155 -11.1389 891.976 14.5026H928.062Z" fill="#EBEBEB"/>
<path d="M431.754 -65V-43.0119H400.98V67.2647H373.321V-43.0119H342.547V-65H431.754Z" fill="#EBEBEB"/>
<path d="M482.431 17.6178L469.05 -39.5378H468.692L456.05 17.6178L450.559 37.9472L443.05 67.2647H415.75L452.374 -65H488.819L524.727 67.2647H495.588L488.259 37.9472L482.431 17.6178Z" fill="#EBEBEB"/>
<path d="M225.118 -10.7808H196.069L162 43.0799V67.2646H245.537V46.9127H188.561L225.118 -10.7808Z" fill="#EBEBEB"/>
<path d="M285.635 8.27108H326.653V-10.7808H257.977V67.2646H331.606V46.9127H285.635V8.27108Z" fill="#EBEBEB"/>
</g>
<g clip-path="url(#clip3_1319_8824)">
<path d="M1375.14 67.2647V-65H1440.73V-50.3413H1392V-7.84445H1438.17V6.81427H1392V67.2647H1375.14Z" fill="#EBEBEB"/>
<path d="M1468.03 -11.3187H1468.39C1474.62 -25.4171 1482.31 -27.0757 1496.96 -27.0757V-11.498C1495.69 -11.6773 1494.21 -11.8566 1492.93 -12.0583C1491.65 -12.2377 1490.37 -12.417 1488.9 -12.417C1472.22 -12.417 1468.01 0.224495 1468.01 12.6866V67.2646H1452.99V-25.2602H1468.01V-11.3187H1468.03Z" fill="#EBEBEB"/>
<path d="M1553.76 53.8839H1553.4C1548.83 64.5081 1541.68 69.0806 1530.14 69.0806C1510.53 69.0806 1504.86 56.4391 1504.86 38.6648C1504.86 10.6474 1532.33 9.34741 1553.4 9.90776C1553.76 -2.37508 1553.94 -15.7338 1537.83 -15.7338C1527.76 -15.7338 1522.43 -8.96478 1523.35 0.740458H1507.05C1507.79 -19.9476 1518.77 -27.0977 1538.39 -27.0977C1562.19 -27.0977 1568.42 -14.8148 1568.42 0.740458V45.277C1568.42 52.6063 1569.16 60.115 1570.26 67.265H1553.76V53.8839ZM1519.87 39.7855C1519.87 48.7511 1524.27 56.8201 1534.35 56.8201C1543.52 56.8201 1554.86 51.1494 1553.4 21.2716C1539.1 21.4509 1519.87 20.1733 1519.87 39.7855Z" fill="#EBEBEB"/>
<path d="M1635.82 67.2646V3.13831C1635.82 -6.20831 1633.26 -14.8153 1621.16 -14.8153C1616.59 -14.8153 1610.36 -12.0583 1608.16 -8.58418C1605.4 -4.01174 1604.69 1.50209 1604.69 4.97625V67.2646H1589.67V-6.00658C1589.67 -12.417 1589.31 -18.8274 1588.75 -25.2377H1604.69V-13.6946H1605.04C1609.44 -23.5791 1617.31 -27.0757 1628.13 -27.0757C1636.56 -27.0757 1646.26 -23.6015 1649.74 -15.1739C1654.87 -25.0584 1663.3 -27.0757 1671.73 -27.0757C1681.43 -27.0757 1697.01 -24.8791 1697.01 -3.07036V67.2646H1681.99V3.13831C1681.99 -6.20831 1679.44 -14.8153 1667.33 -14.8153C1661.66 -14.8153 1660 -14.6359 1655.97 -11.3411C1651.58 -7.68762 1650.84 1.47967 1650.84 4.95384V67.2422H1635.82V67.2646Z" fill="#EBEBEB"/>
<path d="M1729.98 25.8665C1729.98 51.6873 1736.95 56.8201 1748.67 56.8201C1758.93 56.8201 1764.25 48.5718 1764.78 39.2252H1781.28C1781.1 59.7339 1768.46 69.0806 1749.05 69.0806C1729.46 69.0806 1713.88 63.2081 1713.88 22.3699C1713.88 -4.75096 1717 -27.0977 1749.05 -27.0977C1775.43 -27.0977 1782.02 -12.6183 1782.02 17.9544V25.8217H1729.98V25.8665ZM1766.06 14.5026C1766.06 -12.4165 1758.55 -15.7114 1747.57 -15.7114C1738.05 -15.7114 1730.16 -11.1389 1729.98 14.5026H1766.06Z" fill="#EBEBEB"/>
<path d="M1269.75 -65V-43.0119H1238.98V67.2647H1211.32V-43.0119H1180.55V-65H1269.75Z" fill="#EBEBEB"/>
<path d="M1320.43 17.6178L1307.05 -39.5378H1306.69L1294.05 17.6178L1288.56 37.9472L1281.05 67.2647H1253.75L1290.37 -65H1326.82L1362.73 67.2647H1333.59L1326.26 37.9472L1320.43 17.6178Z" fill="#EBEBEB"/>
<path d="M1063.12 -10.7808H1034.07L1000 43.0799V67.2646H1083.54V46.9127H1026.56L1063.12 -10.7808Z" fill="#EBEBEB"/>
<path d="M1123.64 8.27108H1164.65V-10.7808H1095.98V67.2646H1169.61V46.9127H1123.64V8.27108Z" fill="#EBEBEB"/>
</g>
<g clip-path="url(#clip4_1319_8824)">
<path d="M1901.12 -10.7808H1872.07L1838 43.0799V67.2646H1921.54V46.9127H1864.56L1901.12 -10.7808Z" fill="#EBEBEB"/>
</g>
<g clip-path="url(#clip5_1319_8824)">
<path d="M106.145 237.345V105.08H171.728V119.739H123V162.236H169.173V176.894H123V237.345H106.145Z" fill="#EBEBEB"/>
<path d="M199.028 158.761H199.387C205.618 144.663 213.306 143.004 227.964 143.004V158.582C226.687 158.403 225.207 158.223 223.93 158.022C222.652 157.842 221.375 157.663 219.895 157.663C203.219 157.663 199.006 170.305 199.006 182.767V237.345H183.988V144.82H199.006V158.761H199.028Z" fill="#EBEBEB"/>
<path d="M284.763 223.964H284.404C279.832 234.588 272.682 239.161 261.138 239.161C241.526 239.161 235.855 226.519 235.855 208.745C235.855 180.727 263.335 179.427 284.404 179.988C284.763 167.705 284.942 154.346 268.826 154.346C258.762 154.346 253.428 161.115 254.347 170.821H238.052C238.792 150.132 249.775 142.982 269.387 142.982C293.19 142.982 299.421 155.265 299.421 170.821V215.357C299.421 222.686 300.161 230.195 301.259 237.345H284.763V223.964ZM250.873 209.866C250.873 218.831 255.266 226.9 265.352 226.9C274.519 226.9 285.861 221.229 284.404 191.352C270.104 191.531 250.873 190.253 250.873 209.866Z" fill="#EBEBEB"/>
<path d="M366.819 237.345V173.218C366.819 163.872 364.264 155.265 352.161 155.265C347.588 155.265 341.357 158.022 339.16 161.496C336.403 166.068 335.686 171.582 335.686 175.056V237.345H320.669V164.073C320.669 157.663 320.31 151.253 319.75 144.842H335.686V156.386H336.045C340.438 146.501 348.305 143.004 359.131 143.004C367.559 143.004 377.264 146.479 380.738 154.906C385.871 145.022 394.299 143.004 402.726 143.004C412.432 143.004 428.009 145.201 428.009 167.01V237.345H412.992V173.218C412.992 163.872 410.437 155.265 398.333 155.265C392.663 155.265 391.004 155.444 386.969 158.739C382.576 162.392 381.837 171.56 381.837 175.034V237.322H366.819V237.345Z" fill="#EBEBEB"/>
<path d="M460.976 195.947C460.976 221.767 467.947 226.9 479.669 226.9C489.935 226.9 495.247 218.652 495.785 209.305H512.282C512.102 229.814 499.461 239.161 480.05 239.161C460.461 239.161 444.883 233.288 444.883 192.45C444.883 165.329 447.998 142.982 480.05 142.982C506.431 142.982 513.021 157.462 513.021 188.034V195.902H460.976V195.947ZM497.062 184.583C497.062 157.664 489.554 154.369 478.571 154.369C469.045 154.369 461.155 158.941 460.976 184.583H497.062Z" fill="#EBEBEB"/>
<path d="M0.754348 105.08V127.068H-30.02V237.345H-57.6788V127.068H-88.4531V105.08H0.754348Z" fill="#EBEBEB"/>
<path d="M51.4315 187.698L38.0504 130.542H37.6917L25.0503 187.698L19.5589 208.027L12.0502 237.345H-15.25L21.3744 105.08H57.8194L93.7266 237.345H64.5885L57.2591 208.027L51.4315 187.698Z" fill="#EBEBEB"/>
</g>
<g clip-path="url(#clip6_1319_8824)">
<path d="M944.145 237.345V105.08H1009.73V119.739H961V162.236H1007.17V176.894H961V237.345H944.145Z" fill="#EBEBEB"/>
<path d="M1037.03 158.761H1037.39C1043.62 144.663 1051.31 143.004 1065.96 143.004V158.582C1064.69 158.403 1063.21 158.223 1061.93 158.022C1060.65 157.842 1059.37 157.663 1057.9 157.663C1041.22 157.663 1037.01 170.305 1037.01 182.767V237.345H1021.99V144.82H1037.01V158.761H1037.03Z" fill="#EBEBEB"/>
<path d="M1122.76 223.964H1122.4C1117.83 234.588 1110.68 239.161 1099.14 239.161C1079.53 239.161 1073.86 226.519 1073.86 208.745C1073.86 180.727 1101.33 179.427 1122.4 179.988C1122.76 167.705 1122.94 154.346 1106.83 154.346C1096.76 154.346 1091.43 161.115 1092.35 170.821H1076.05C1076.79 150.132 1087.77 142.982 1107.39 142.982C1131.19 142.982 1137.42 155.265 1137.42 170.821V215.357C1137.42 222.686 1138.16 230.195 1139.26 237.345H1122.76V223.964ZM1088.87 209.866C1088.87 218.831 1093.27 226.9 1103.35 226.9C1112.52 226.9 1123.86 221.229 1122.4 191.352C1108.1 191.531 1088.87 190.253 1088.87 209.866Z" fill="#EBEBEB"/>
<path d="M1204.82 237.345V173.218C1204.82 163.872 1202.26 155.265 1190.16 155.265C1185.59 155.265 1179.36 158.022 1177.16 161.496C1174.4 166.068 1173.69 171.582 1173.69 175.056V237.345H1158.67V164.073C1158.67 157.663 1158.31 151.253 1157.75 144.842H1173.69V156.386H1174.04C1178.44 146.501 1186.31 143.004 1197.13 143.004C1205.56 143.004 1215.26 146.479 1218.74 154.906C1223.87 145.022 1232.3 143.004 1240.73 143.004C1250.43 143.004 1266.01 145.201 1266.01 167.01V237.345H1250.99V173.218C1250.99 163.872 1248.44 155.265 1236.33 155.265C1230.66 155.265 1229 155.444 1224.97 158.739C1220.58 162.392 1219.84 171.56 1219.84 175.034V237.322H1204.82V237.345Z" fill="#EBEBEB"/>
<path d="M1298.98 195.947C1298.98 221.767 1305.95 226.9 1317.67 226.9C1327.93 226.9 1333.25 218.652 1333.78 209.305H1350.28C1350.1 229.814 1337.46 239.161 1318.05 239.161C1298.46 239.161 1282.88 233.288 1282.88 192.45C1282.88 165.329 1286 142.982 1318.05 142.982C1344.43 142.982 1351.02 157.462 1351.02 188.034V195.902H1298.98V195.947ZM1335.06 184.583C1335.06 157.664 1327.55 154.369 1316.57 154.369C1307.05 154.369 1299.16 158.941 1298.98 184.583H1335.06Z" fill="#EBEBEB"/>
<path d="M838.754 105.08V127.068H807.98V237.345H780.321V127.068H749.547V105.08H838.754Z" fill="#EBEBEB"/>
<path d="M889.431 187.698L876.05 130.542H875.692L863.05 187.698L857.559 208.027L850.05 237.345H822.75L859.374 105.08H895.819L931.727 237.345H902.588L895.259 208.027L889.431 187.698Z" fill="#EBEBEB"/>
<path d="M625.771 125.41H652.533V105.08H572.852V125.41H625.771Z" fill="#EBEBEB"/>
<path d="M632.118 159.299H603.069L569 213.16V237.345H652.537V216.993H595.561L632.118 159.299Z" fill="#EBEBEB"/>
<path d="M737.149 105.08H664.977V125.41H737.149V105.08Z" fill="#EBEBEB"/>
<path d="M692.635 178.351H733.653V159.299H664.977V237.345H738.606V216.993H692.635V178.351Z" fill="#EBEBEB"/>
</g>
<g clip-path="url(#clip7_1319_8824)">
<path d="M1782.14 237.345V105.08H1847.73V119.739H1799V162.236H1845.17V176.894H1799V237.345H1782.14Z" fill="#EBEBEB"/>
<path d="M1875.03 158.761H1875.39C1881.62 144.663 1889.31 143.004 1903.96 143.004V158.582C1902.69 158.403 1901.21 158.223 1899.93 158.022C1898.65 157.842 1897.37 157.663 1895.9 157.663C1879.22 157.663 1875.01 170.305 1875.01 182.767V237.345H1859.99V144.82H1875.01V158.761H1875.03Z" fill="#EBEBEB"/>
<path d="M1960.76 223.964H1960.4C1955.83 234.588 1948.68 239.161 1937.14 239.161C1917.53 239.161 1911.86 226.519 1911.86 208.745C1911.86 180.727 1939.33 179.427 1960.4 179.988C1960.76 167.705 1960.94 154.346 1944.83 154.346C1934.76 154.346 1929.43 161.115 1930.35 170.821H1914.05C1914.79 150.132 1925.77 142.982 1945.39 142.982C1969.19 142.982 1975.42 155.265 1975.42 170.821V215.357C1975.42 222.686 1976.16 230.195 1977.26 237.345H1960.76V223.964ZM1926.87 209.866C1926.87 218.831 1931.27 226.9 1941.35 226.9C1950.52 226.9 1961.86 221.229 1960.4 191.352C1946.1 191.531 1926.87 190.253 1926.87 209.866Z" fill="#EBEBEB"/>
<path d="M1676.75 105.08V127.068H1645.98V237.345H1618.32V127.068H1587.55V105.08H1676.75Z" fill="#EBEBEB"/>
<path d="M1727.43 187.698L1714.05 130.542H1713.69L1701.05 187.698L1695.56 208.027L1688.05 237.345H1660.75L1697.37 105.08H1733.82L1769.73 237.345H1740.59L1733.26 208.027L1727.43 187.698Z" fill="#EBEBEB"/>
<path d="M1463.77 125.41H1490.53V105.08H1410.85V125.41H1463.77Z" fill="#EBEBEB"/>
<path d="M1470.12 159.299H1441.07L1407 213.16V237.345H1490.54V216.993H1433.56L1470.12 159.299Z" fill="#EBEBEB"/>
<path d="M1575.15 105.08H1502.98V125.41H1575.15V105.08Z" fill="#EBEBEB"/>
<path d="M1530.64 178.351H1571.65V159.299H1502.98V237.345H1576.61V216.993H1530.64V178.351Z" fill="#EBEBEB"/>
</g>
<g clip-path="url(#clip8_1319_8824)">
<path d="M-40.1807 407.425V343.298C-40.1807 333.952 -42.7359 325.345 -54.8395 325.345C-59.4119 325.345 -65.643 328.102 -67.8396 331.576C-70.5965 336.148 -71.3137 341.662 -71.3137 345.136V407.425H-86.3311V334.154C-86.3311 327.743 -86.6897 321.333 -87.25 314.922H-71.3137V326.466H-70.9551C-66.562 316.581 -58.6947 313.084 -47.8688 313.084C-39.4411 313.084 -29.7358 316.559 -26.2617 324.986C-21.1289 315.102 -12.7013 313.084 -4.27362 313.084C5.43162 313.084 21.0093 315.281 21.0093 337.09V407.425H5.99194V343.298C5.99194 333.952 3.4368 325.345 -8.66673 325.345C-14.3375 325.345 -15.9961 325.524 -20.0306 328.819C-24.4237 332.473 -25.1634 341.64 -25.1634 345.114V407.402H-40.1807V407.425Z" fill="#EBEBEB"/>
<path d="M53.976 366.027C53.976 391.848 60.9467 396.98 72.6692 396.98C82.9348 396.98 88.2469 388.732 88.7849 379.385H105.282C105.102 399.894 92.4608 409.241 73.0503 409.241C53.4605 409.241 37.8828 403.368 37.8828 362.53C37.8828 335.409 40.9984 313.062 73.0503 313.062C99.4315 313.062 106.021 327.542 106.021 358.115V365.982H53.976V366.027ZM90.0625 354.663C90.0625 327.744 82.5538 324.449 71.571 324.449C62.045 324.449 54.1553 329.021 53.976 354.663H90.0625Z" fill="#EBEBEB"/>
</g>
<g clip-path="url(#clip9_1319_8824)">
<path d="M537.145 407.425V275.16H602.728V289.819H554V332.316H600.173V346.974H554V407.425H537.145Z" fill="#EBEBEB"/>
<path d="M630.028 328.841H630.387C636.618 314.743 644.306 313.084 658.964 313.084V328.662C657.687 328.483 656.207 328.304 654.93 328.102C653.652 327.923 652.375 327.743 650.895 327.743C634.219 327.743 630.006 340.385 630.006 352.847V407.425H614.988V314.9H630.006V328.841H630.028Z" fill="#EBEBEB"/>
<path d="M715.763 394.044H715.404C710.832 404.668 703.682 409.241 692.138 409.241C672.526 409.241 666.855 396.599 666.855 378.825C666.855 350.808 694.335 349.508 715.404 350.068C715.763 337.785 715.942 324.426 699.826 324.426C689.762 324.426 684.428 331.195 685.347 340.901H669.052C669.792 320.213 680.775 313.062 700.387 313.062C724.19 313.062 730.421 325.345 730.421 340.901V385.437C730.421 392.766 731.161 400.275 732.259 407.425H715.763V394.044ZM681.873 379.946C681.873 388.911 686.266 396.98 696.352 396.98C705.519 396.98 716.861 391.31 715.404 361.432C701.104 361.611 681.873 360.334 681.873 379.946Z" fill="#EBEBEB"/>
<path d="M797.819 407.425V343.298C797.819 333.952 795.264 325.345 783.161 325.345C778.588 325.345 772.357 328.102 770.16 331.576C767.403 336.148 766.686 341.662 766.686 345.136V407.425H751.669V334.154C751.669 327.743 751.31 321.333 750.75 314.922H766.686V326.466H767.045C771.438 316.581 779.305 313.084 790.131 313.084C798.559 313.084 808.264 316.559 811.738 324.986C816.871 315.102 825.299 313.084 833.726 313.084C843.432 313.084 859.009 315.281 859.009 337.09V407.425H843.992V343.298C843.992 333.952 841.437 325.345 829.333 325.345C823.663 325.345 822.004 325.524 817.969 328.819C813.576 332.473 812.837 341.64 812.837 345.114V407.402H797.819V407.425Z" fill="#EBEBEB"/>
<path d="M891.976 366.027C891.976 391.848 898.947 396.98 910.669 396.98C920.935 396.98 926.247 388.732 926.785 379.385H943.282C943.102 399.894 930.461 409.241 911.05 409.241C891.461 409.241 875.883 403.368 875.883 362.53C875.883 335.409 878.998 313.062 911.05 313.062C937.431 313.062 944.021 327.542 944.021 358.115V365.982H891.976V366.027ZM928.062 354.663C928.062 327.744 920.554 324.449 909.571 324.449C900.045 324.449 892.155 329.021 891.976 354.663H928.062Z" fill="#EBEBEB"/>
<path d="M431.754 275.16V297.148H400.98V407.425H373.321V297.148H342.547V275.16H431.754Z" fill="#EBEBEB"/>
<path d="M482.431 357.778L469.05 300.622H468.692L456.05 357.778L450.559 378.107L443.05 407.425H415.75L452.374 275.16H488.819L524.727 407.425H495.588L488.259 378.107L482.431 357.778Z" fill="#EBEBEB"/>
<path d="M218.771 295.49H245.533V275.16H165.852V295.49H218.771Z" fill="#EBEBEB"/>
<path d="M225.118 329.379H196.069L162 383.24V407.425H245.537V387.073H188.561L225.118 329.379Z" fill="#EBEBEB"/>
<path d="M330.149 275.16H257.977V295.49H330.149V275.16Z" fill="#EBEBEB"/>
<path d="M285.635 348.431H326.653V329.379H257.977V407.425H331.606V387.073H285.635V348.431Z" fill="#EBEBEB"/>
</g>
<g clip-path="url(#clip10_1319_8824)">
<path d="M1375.14 407.425V275.16H1440.73V289.819H1392V332.316H1438.17V346.974H1392V407.425H1375.14Z" fill="#EBEBEB"/>
<path d="M1468.03 328.841H1468.39C1474.62 314.743 1482.31 313.084 1496.96 313.084V328.662C1495.69 328.483 1494.21 328.304 1492.93 328.102C1491.65 327.923 1490.37 327.743 1488.9 327.743C1472.22 327.743 1468.01 340.385 1468.01 352.847V407.425H1452.99V314.9H1468.01V328.841H1468.03Z" fill="#EBEBEB"/>
<path d="M1553.76 394.044H1553.4C1548.83 404.668 1541.68 409.241 1530.14 409.241C1510.53 409.241 1504.86 396.599 1504.86 378.825C1504.86 350.808 1532.33 349.508 1553.4 350.068C1553.76 337.785 1553.94 324.426 1537.83 324.426C1527.76 324.426 1522.43 331.195 1523.35 340.901H1507.05C1507.79 320.213 1518.77 313.062 1538.39 313.062C1562.19 313.062 1568.42 325.345 1568.42 340.901V385.437C1568.42 392.766 1569.16 400.275 1570.26 407.425H1553.76V394.044ZM1519.87 379.946C1519.87 388.911 1524.27 396.98 1534.35 396.98C1543.52 396.98 1554.86 391.31 1553.4 361.432C1539.1 361.611 1519.87 360.334 1519.87 379.946Z" fill="#EBEBEB"/>
<path d="M1635.82 407.425V343.298C1635.82 333.952 1633.26 325.345 1621.16 325.345C1616.59 325.345 1610.36 328.102 1608.16 331.576C1605.4 336.148 1604.69 341.662 1604.69 345.136V407.425H1589.67V334.154C1589.67 327.743 1589.31 321.333 1588.75 314.922H1604.69V326.466H1605.04C1609.44 316.581 1617.31 313.084 1628.13 313.084C1636.56 313.084 1646.26 316.559 1649.74 324.986C1654.87 315.102 1663.3 313.084 1671.73 313.084C1681.43 313.084 1697.01 315.281 1697.01 337.09V407.425H1681.99V343.298C1681.99 333.952 1679.44 325.345 1667.33 325.345C1661.66 325.345 1660 325.524 1655.97 328.819C1651.58 332.473 1650.84 341.64 1650.84 345.114V407.402H1635.82V407.425Z" fill="#EBEBEB"/>
<path d="M1729.98 366.027C1729.98 391.848 1736.95 396.98 1748.67 396.98C1758.93 396.98 1764.25 388.732 1764.78 379.385H1781.28C1781.1 399.894 1768.46 409.241 1749.05 409.241C1729.46 409.241 1713.88 403.368 1713.88 362.53C1713.88 335.409 1717 313.062 1749.05 313.062C1775.43 313.062 1782.02 327.542 1782.02 358.115V365.982H1729.98V366.027ZM1766.06 354.663C1766.06 327.744 1758.55 324.449 1747.57 324.449C1738.05 324.449 1730.16 329.021 1729.98 354.663H1766.06Z" fill="#EBEBEB"/>
<path d="M1269.75 275.16V297.148H1238.98V407.425H1211.32V297.148H1180.55V275.16H1269.75Z" fill="#EBEBEB"/>
<path d="M1320.43 357.778L1307.05 300.622H1306.69L1294.05 357.778L1288.56 378.107L1281.05 407.425H1253.75L1290.37 275.16H1326.82L1362.73 407.425H1333.59L1326.26 378.107L1320.43 357.778Z" fill="#EBEBEB"/>
<path d="M1056.77 295.49H1083.53V275.16H1003.85V295.49H1056.77Z" fill="#EBEBEB"/>
<path d="M1063.12 329.379H1034.07L1000 383.24V407.425H1083.54V387.073H1026.56L1063.12 329.379Z" fill="#EBEBEB"/>
<path d="M1168.15 275.16H1095.98V295.49H1168.15V275.16Z" fill="#EBEBEB"/>
<path d="M1123.64 348.431H1164.65V329.379H1095.98V407.425H1169.61V387.073H1123.64V348.431Z" fill="#EBEBEB"/>
</g>
<g clip-path="url(#clip11_1319_8824)">
<path d="M1894.77 295.49H1921.53V275.16H1841.85V295.49H1894.77Z" fill="#EBEBEB"/>
<path d="M1901.12 329.379H1872.07L1838 383.24V407.425H1921.54V387.073H1864.56L1901.12 329.379Z" fill="#EBEBEB"/>
</g>
<g clip-path="url(#clip12_1319_8824)">
<path d="M106.145 577.505V445.241H171.728V459.899H123V502.396H169.173V517.055H123V577.505H106.145Z" fill="#EBEBEB"/>
<path d="M199.028 498.922H199.387C205.618 484.824 213.306 483.165 227.964 483.165V498.743C226.687 498.563 225.207 498.384 223.93 498.182C222.652 498.003 221.375 497.824 219.895 497.824C203.219 497.824 199.006 510.465 199.006 522.927V577.505H183.988V484.981H199.006V498.922H199.028Z" fill="#EBEBEB"/>
<path d="M284.763 564.125H284.404C279.832 574.749 272.682 579.321 261.138 579.321C241.526 579.321 235.855 566.68 235.855 548.906C235.855 520.888 263.335 519.588 284.404 520.148C284.763 507.866 284.942 494.507 268.826 494.507C258.762 494.507 253.428 501.276 254.347 510.981H238.052C238.792 490.293 249.775 483.143 269.387 483.143C293.19 483.143 299.421 495.426 299.421 510.981V555.518C299.421 562.847 300.161 570.356 301.259 577.506H284.763V564.125ZM250.873 550.026C250.873 558.992 255.266 567.061 265.352 567.061C274.519 567.061 285.861 561.39 284.404 531.512C270.104 531.692 250.873 530.414 250.873 550.026Z" fill="#EBEBEB"/>
<path d="M366.819 577.505V513.379C366.819 504.032 364.264 495.425 352.161 495.425C347.588 495.425 341.357 498.182 339.16 501.657C336.403 506.229 335.686 511.743 335.686 515.217V577.505H320.669V504.234C320.669 497.824 320.31 491.413 319.75 485.003H335.686V496.546H336.045C340.438 486.662 348.305 483.165 359.131 483.165C367.559 483.165 377.264 486.639 380.738 495.067C385.871 485.182 394.299 483.165 402.726 483.165C412.432 483.165 428.009 485.362 428.009 507.17V577.505H412.992V513.379C412.992 504.032 410.437 495.425 398.333 495.425C392.663 495.425 391.004 495.605 386.969 498.9C382.576 502.553 381.837 511.72 381.837 515.195V577.483H366.819V577.505Z" fill="#EBEBEB"/>
<path d="M460.976 536.107C460.976 561.928 467.947 567.061 479.669 567.061C489.935 567.061 495.247 558.813 495.785 549.466H512.282C512.102 569.975 499.461 579.321 480.05 579.321C460.461 579.321 444.883 573.449 444.883 532.611C444.883 505.49 447.998 483.143 480.05 483.143C506.431 483.143 513.021 497.622 513.021 528.195V536.062H460.976V536.107ZM497.062 524.743C497.062 497.824 489.554 494.529 478.571 494.529C469.045 494.529 461.155 499.102 460.976 524.743H497.062Z" fill="#EBEBEB"/>
<path d="M0.754348 445.241V467.229H-30.02V577.505H-57.6788V467.229H-88.4531V445.241H0.754348Z" fill="#EBEBEB"/>
<path d="M51.4315 527.859L38.0504 470.703H37.6917L25.0503 527.859L19.5589 548.188L12.0502 577.505H-15.25L21.3744 445.241H57.8194L93.7266 577.505H64.5885L57.2591 548.188L51.4315 527.859Z" fill="#EBEBEB"/>
</g>
<g clip-path="url(#clip13_1319_8824)">
<path d="M944.145 577.505V445.241H1009.73V459.899H961V502.396H1007.17V517.055H961V577.505H944.145Z" fill="#EBEBEB"/>
<path d="M1037.03 498.922H1037.39C1043.62 484.824 1051.31 483.165 1065.96 483.165V498.743C1064.69 498.563 1063.21 498.384 1061.93 498.182C1060.65 498.003 1059.37 497.824 1057.9 497.824C1041.22 497.824 1037.01 510.465 1037.01 522.927V577.505H1021.99V484.981H1037.01V498.922H1037.03Z" fill="#EBEBEB"/>
<path d="M1122.76 564.125H1122.4C1117.83 574.749 1110.68 579.321 1099.14 579.321C1079.53 579.321 1073.86 566.68 1073.86 548.906C1073.86 520.888 1101.33 519.588 1122.4 520.148C1122.76 507.866 1122.94 494.507 1106.83 494.507C1096.76 494.507 1091.43 501.276 1092.35 510.981H1076.05C1076.79 490.293 1087.77 483.143 1107.39 483.143C1131.19 483.143 1137.42 495.426 1137.42 510.981V555.518C1137.42 562.847 1138.16 570.356 1139.26 577.506H1122.76V564.125ZM1088.87 550.026C1088.87 558.992 1093.27 567.061 1103.35 567.061C1112.52 567.061 1123.86 561.39 1122.4 531.512C1108.1 531.692 1088.87 530.414 1088.87 550.026Z" fill="#EBEBEB"/>
<path d="M1204.82 577.505V513.379C1204.82 504.032 1202.26 495.425 1190.16 495.425C1185.59 495.425 1179.36 498.182 1177.16 501.657C1174.4 506.229 1173.69 511.743 1173.69 515.217V577.505H1158.67V504.234C1158.67 497.824 1158.31 491.413 1157.75 485.003H1173.69V496.546H1174.04C1178.44 486.662 1186.31 483.165 1197.13 483.165C1205.56 483.165 1215.26 486.639 1218.74 495.067C1223.87 485.182 1232.3 483.165 1240.73 483.165C1250.43 483.165 1266.01 485.362 1266.01 507.17V577.505H1250.99V513.379C1250.99 504.032 1248.44 495.425 1236.33 495.425C1230.66 495.425 1229 495.605 1224.97 498.9C1220.58 502.553 1219.84 511.72 1219.84 515.195V577.483H1204.82V577.505Z" fill="#EBEBEB"/>
<path d="M1298.98 536.107C1298.98 561.928 1305.95 567.061 1317.67 567.061C1327.93 567.061 1333.25 558.813 1333.78 549.466H1350.28C1350.1 569.975 1337.46 579.321 1318.05 579.321C1298.46 579.321 1282.88 573.449 1282.88 532.611C1282.88 505.49 1286 483.143 1318.05 483.143C1344.43 483.143 1351.02 497.622 1351.02 528.195V536.062H1298.98V536.107ZM1335.06 524.743C1335.06 497.824 1327.55 494.529 1316.57 494.529C1307.05 494.529 1299.16 499.102 1298.98 524.743H1335.06Z" fill="#EBEBEB"/>
<path d="M838.754 445.241V467.229H807.98V577.505H780.321V467.229H749.547V445.241H838.754Z" fill="#EBEBEB"/>
<path d="M889.431 527.859L876.05 470.703H875.692L863.05 527.859L857.559 548.188L850.05 577.505H822.75L859.374 445.241H895.819L931.727 577.505H902.588L895.259 548.188L889.431 527.859Z" fill="#EBEBEB"/>
<path d="M625.771 465.57H652.533V445.241H572.852V465.57H625.771Z" fill="#EBEBEB"/>
<path d="M632.118 499.46H603.069L569 553.321V577.505H652.537V557.153H595.561L632.118 499.46Z" fill="#EBEBEB"/>
<path d="M737.149 445.241H664.977V465.57H737.149V445.241Z" fill="#EBEBEB"/>
<path d="M692.635 518.512H733.653V499.46H664.977V577.505H738.606V557.153H692.635V518.512Z" fill="#EBEBEB"/>
</g>
<g clip-path="url(#clip14_1319_8824)">
<path d="M1782.14 577.505V445.241H1847.73V459.899H1799V502.396H1845.17V517.055H1799V577.505H1782.14Z" fill="#EBEBEB"/>
<path d="M1875.03 498.922H1875.39C1881.62 484.824 1889.31 483.165 1903.96 483.165V498.743C1902.69 498.563 1901.21 498.384 1899.93 498.182C1898.65 498.003 1897.37 497.824 1895.9 497.824C1879.22 497.824 1875.01 510.465 1875.01 522.927V577.505H1859.99V484.981H1875.01V498.922H1875.03Z" fill="#EBEBEB"/>
<path d="M1960.76 564.125H1960.4C1955.83 574.749 1948.68 579.321 1937.14 579.321C1917.53 579.321 1911.86 566.68 1911.86 548.906C1911.86 520.888 1939.33 519.588 1960.4 520.148C1960.76 507.866 1960.94 494.507 1944.83 494.507C1934.76 494.507 1929.43 501.276 1930.35 510.981H1914.05C1914.79 490.293 1925.77 483.143 1945.39 483.143C1969.19 483.143 1975.42 495.426 1975.42 510.981V555.518C1975.42 562.847 1976.16 570.356 1977.26 577.506H1960.76V564.125ZM1926.87 550.026C1926.87 558.992 1931.27 567.061 1941.35 567.061C1950.52 567.061 1961.86 561.39 1960.4 531.512C1946.1 531.692 1926.87 530.414 1926.87 550.026Z" fill="#EBEBEB"/>
<path d="M1676.75 445.241V467.229H1645.98V577.505H1618.32V467.229H1587.55V445.241H1676.75Z" fill="#EBEBEB"/>
<path d="M1727.43 527.859L1714.05 470.703H1713.69L1701.05 527.859L1695.56 548.188L1688.05 577.505H1660.75L1697.37 445.241H1733.82L1769.73 577.505H1740.59L1733.26 548.188L1727.43 527.859Z" fill="#EBEBEB"/>
<path d="M1463.77 465.57H1490.53V445.241H1410.85V465.57H1463.77Z" fill="#EBEBEB"/>
<path d="M1470.12 499.46H1441.07L1407 553.321V577.505H1490.54V557.153H1433.56L1470.12 499.46Z" fill="#EBEBEB"/>
<path d="M1575.15 445.241H1502.98V465.57H1575.15V445.241Z" fill="#EBEBEB"/>
<path d="M1530.64 518.512H1571.65V499.46H1502.98V577.505H1576.61V557.153H1530.64V518.512Z" fill="#EBEBEB"/>
</g>
<g clip-path="url(#clip15_1319_8824)">
<path d="M-40.1807 747.585V683.459C-40.1807 674.112 -42.7359 665.506 -54.8395 665.506C-59.4119 665.506 -65.643 668.262 -67.8396 671.737C-70.5965 676.309 -71.3137 681.823 -71.3137 685.297V747.585H-86.3311V674.314C-86.3311 667.904 -86.6897 661.493 -87.25 655.083H-71.3137V666.626H-70.9551C-66.562 656.742 -58.6947 653.245 -47.8688 653.245C-39.4411 653.245 -29.7358 656.719 -26.2617 665.147C-21.1289 655.262 -12.7013 653.245 -4.27362 653.245C5.43162 653.245 21.0093 655.442 21.0093 677.25V747.585H5.99194V683.459C5.99194 674.112 3.4368 665.506 -8.66673 665.506C-14.3375 665.506 -15.9961 665.685 -20.0306 668.98C-24.4237 672.633 -25.1634 681.8 -25.1634 685.275V747.563H-40.1807V747.585Z" fill="#EBEBEB"/>
<path d="M53.976 706.187C53.976 732.008 60.9467 737.141 72.6692 737.141C82.9348 737.141 88.2469 728.893 88.7849 719.546H105.282C105.102 740.055 92.4608 749.401 73.0503 749.401C53.4605 749.401 37.8828 743.529 37.8828 702.691C37.8828 675.57 40.9984 653.223 73.0503 653.223C99.4315 653.223 106.021 667.703 106.021 698.275V706.142H53.976V706.187ZM90.0625 694.823C90.0625 667.904 82.5538 664.609 71.571 664.609C62.045 664.609 54.1553 669.182 53.976 694.823H90.0625Z" fill="#EBEBEB"/>
</g>
<g clip-path="url(#clip16_1319_8824)">
<path d="M537.145 747.585V615.321H602.728V629.98H554V672.476H600.173V687.135H554V747.585H537.145Z" fill="#EBEBEB"/>
<path d="M630.028 669.002H630.387C636.618 654.904 644.306 653.245 658.964 653.245V668.823C657.687 668.643 656.207 668.464 654.93 668.262C653.652 668.083 652.375 667.904 650.895 667.904C634.219 667.904 630.006 680.545 630.006 693.007V747.585H614.988V655.061H630.006V669.002H630.028Z" fill="#EBEBEB"/>
<path d="M715.763 734.205H715.404C710.832 744.829 703.682 749.401 692.138 749.401C672.526 749.401 666.855 736.76 666.855 718.986C666.855 690.968 694.335 689.668 715.404 690.229C715.763 677.946 715.942 664.587 699.826 664.587C689.762 664.587 684.428 671.356 685.347 681.061H669.052C669.792 660.373 680.775 653.223 700.387 653.223C724.19 653.223 730.421 665.506 730.421 681.061V725.598C730.421 732.927 731.161 740.436 732.259 747.586H715.763V734.205ZM681.873 720.106C681.873 729.072 686.266 737.141 696.352 737.141C705.519 737.141 716.861 731.47 715.404 701.592C701.104 701.772 681.873 700.494 681.873 720.106Z" fill="#EBEBEB"/>
<path d="M797.819 747.585V683.459C797.819 674.112 795.264 665.506 783.161 665.506C778.588 665.506 772.357 668.262 770.16 671.737C767.403 676.309 766.686 681.823 766.686 685.297V747.585H751.669V674.314C751.669 667.904 751.31 661.493 750.75 655.083H766.686V666.626H767.045C771.438 656.742 779.305 653.245 790.131 653.245C798.559 653.245 808.264 656.719 811.738 665.147C816.871 655.262 825.299 653.245 833.726 653.245C843.432 653.245 859.009 655.442 859.009 677.25V747.585H843.992V683.459C843.992 674.112 841.437 665.506 829.333 665.506C823.663 665.506 822.004 665.685 817.969 668.98C813.576 672.633 812.837 681.8 812.837 685.275V747.563H797.819V747.585Z" fill="#EBEBEB"/>
<path d="M891.976 706.187C891.976 732.008 898.947 737.141 910.669 737.141C920.935 737.141 926.247 728.893 926.785 719.546H943.282C943.102 740.055 930.461 749.401 911.05 749.401C891.461 749.401 875.883 743.529 875.883 702.691C875.883 675.57 878.998 653.223 911.05 653.223C937.431 653.223 944.021 667.703 944.021 698.275V706.142H891.976V706.187ZM928.062 694.823C928.062 667.904 920.554 664.609 909.571 664.609C900.045 664.609 892.155 669.182 891.976 694.823H928.062Z" fill="#EBEBEB"/>
<path d="M431.754 615.321V637.309H400.98V747.585H373.321V637.309H342.547V615.321H431.754Z" fill="#EBEBEB"/>
<path d="M482.431 697.939L469.05 640.783H468.692L456.05 697.939L450.559 718.268L443.05 747.585H415.75L452.374 615.321H488.819L524.727 747.585H495.588L488.259 718.268L482.431 697.939Z" fill="#EBEBEB"/>
<path d="M218.771 635.65H245.533V615.321H165.852V635.65H218.771Z" fill="#EBEBEB"/>
<path d="M225.118 669.54H196.069L162 723.401V747.585H245.537V727.234H188.561L225.118 669.54Z" fill="#EBEBEB"/>
<path d="M330.149 615.321H257.977V635.65H330.149V615.321Z" fill="#EBEBEB"/>
<path d="M285.635 688.592H326.653V669.54H257.977V747.585H331.606V727.234H285.635V688.592Z" fill="#EBEBEB"/>
</g>
<g clip-path="url(#clip17_1319_8824)">
<path d="M1375.14 747.585V615.321H1440.73V629.98H1392V672.476H1438.17V687.135H1392V747.585H1375.14Z" fill="#EBEBEB"/>
<path d="M1468.03 669.002H1468.39C1474.62 654.904 1482.31 653.245 1496.96 653.245V668.823C1495.69 668.643 1494.21 668.464 1492.93 668.262C1491.65 668.083 1490.37 667.904 1488.9 667.904C1472.22 667.904 1468.01 680.545 1468.01 693.007V747.585H1452.99V655.061H1468.01V669.002H1468.03Z" fill="#EBEBEB"/>
<path d="M1553.76 734.205H1553.4C1548.83 744.829 1541.68 749.401 1530.14 749.401C1510.53 749.401 1504.86 736.76 1504.86 718.986C1504.86 690.968 1532.33 689.668 1553.4 690.229C1553.76 677.946 1553.94 664.587 1537.83 664.587C1527.76 664.587 1522.43 671.356 1523.35 681.061H1507.05C1507.79 660.373 1518.77 653.223 1538.39 653.223C1562.19 653.223 1568.42 665.506 1568.42 681.061V725.598C1568.42 732.927 1569.16 740.436 1570.26 747.586H1553.76V734.205ZM1519.87 720.106C1519.87 729.072 1524.27 737.141 1534.35 737.141C1543.52 737.141 1554.86 731.47 1553.4 701.592C1539.1 701.772 1519.87 700.494 1519.87 720.106Z" fill="#EBEBEB"/>
<path d="M1635.82 747.585V683.459C1635.82 674.112 1633.26 665.506 1621.16 665.506C1616.59 665.506 1610.36 668.262 1608.16 671.737C1605.4 676.309 1604.69 681.823 1604.69 685.297V747.585H1589.67V674.314C1589.67 667.904 1589.31 661.493 1588.75 655.083H1604.69V666.626H1605.04C1609.44 656.742 1617.31 653.245 1628.13 653.245C1636.56 653.245 1646.26 656.719 1649.74 665.147C1654.87 655.262 1663.3 653.245 1671.73 653.245C1681.43 653.245 1697.01 655.442 1697.01 677.25V747.585H1681.99V683.459C1681.99 674.112 1679.44 665.506 1667.33 665.506C1661.66 665.506 1660 665.685 1655.97 668.98C1651.58 672.633 1650.84 681.8 1650.84 685.275V747.563H1635.82V747.585Z" fill="#EBEBEB"/>
<path d="M1729.98 706.187C1729.98 732.008 1736.95 737.141 1748.67 737.141C1758.93 737.141 1764.25 728.893 1764.78 719.546H1781.28C1781.1 740.055 1768.46 749.401 1749.05 749.401C1729.46 749.401 1713.88 743.529 1713.88 702.691C1713.88 675.57 1717 653.223 1749.05 653.223C1775.43 653.223 1782.02 667.703 1782.02 698.275V706.142H1729.98V706.187ZM1766.06 694.823C1766.06 667.904 1758.55 664.609 1747.57 664.609C1738.05 664.609 1730.16 669.182 1729.98 694.823H1766.06Z" fill="#EBEBEB"/>
<path d="M1269.75 615.321V637.309H1238.98V747.585H1211.32V637.309H1180.55V615.321H1269.75Z" fill="#EBEBEB"/>
<path d="M1320.43 697.939L1307.05 640.783H1306.69L1294.05 697.939L1288.56 718.268L1281.05 747.585H1253.75L1290.37 615.321H1326.82L1362.73 747.585H1333.59L1326.26 718.268L1320.43 697.939Z" fill="#EBEBEB"/>
<path d="M1056.77 635.65H1083.53V615.321H1003.85V635.65H1056.77Z" fill="#EBEBEB"/>
<path d="M1063.12 669.54H1034.07L1000 723.401V747.585H1083.54V727.234H1026.56L1063.12 669.54Z" fill="#EBEBEB"/>
<path d="M1168.15 615.321H1095.98V635.65H1168.15V615.321Z" fill="#EBEBEB"/>
<path d="M1123.64 688.592H1164.65V669.54H1095.98V747.585H1169.61V727.234H1123.64V688.592Z" fill="#EBEBEB"/>
</g>
<g clip-path="url(#clip18_1319_8824)">
<path d="M1894.77 635.65H1921.53V615.321H1841.85V635.65H1894.77Z" fill="#EBEBEB"/>
<path d="M1901.12 669.54H1872.07L1838 723.401V747.585H1921.54V727.234H1864.56L1901.12 669.54Z" fill="#EBEBEB"/>
</g>
<g clip-path="url(#clip19_1319_8824)">
<path d="M106.145 917.666V785.401H171.728V800.06H123V842.556H169.173V857.215H123V917.666H106.145Z" fill="#EBEBEB"/>
<path d="M199.028 839.082H199.387C205.618 824.984 213.306 823.325 227.964 823.325V838.903C226.687 838.724 225.207 838.544 223.93 838.343C222.652 838.163 221.375 837.984 219.895 837.984C203.219 837.984 199.006 850.625 199.006 863.088V917.665H183.988V825.141H199.006V839.082H199.028Z" fill="#EBEBEB"/>
<path d="M284.763 904.285H284.404C279.832 914.909 272.682 919.481 261.138 919.481C241.526 919.481 235.855 906.84 235.855 889.066C235.855 861.048 263.335 859.748 284.404 860.309C284.763 848.026 284.942 834.667 268.826 834.667C258.762 834.667 253.428 841.436 254.347 851.141H238.052C238.792 830.453 249.775 823.303 269.387 823.303C293.19 823.303 299.421 835.586 299.421 851.141V895.678C299.421 903.007 300.161 910.516 301.259 917.666H284.763V904.285ZM250.873 890.186C250.873 899.152 255.266 907.221 265.352 907.221C274.519 907.221 285.861 901.55 284.404 871.673C270.104 871.852 250.873 870.574 250.873 890.186Z" fill="#EBEBEB"/>
<path d="M366.819 917.665V853.539C366.819 844.193 364.264 835.586 352.161 835.586C347.588 835.586 341.357 838.343 339.16 841.817C336.403 846.389 335.686 851.903 335.686 855.377V917.665H320.669V844.394C320.669 837.984 320.31 831.574 319.75 825.163H335.686V836.706H336.045C340.438 826.822 348.305 823.325 359.131 823.325C367.559 823.325 377.264 826.799 380.738 835.227C385.871 825.342 394.299 823.325 402.726 823.325C412.432 823.325 428.009 825.522 428.009 847.331V917.665H412.992V853.539C412.992 844.193 410.437 835.586 398.333 835.586C392.663 835.586 391.004 835.765 386.969 839.06C382.576 842.713 381.837 851.881 381.837 855.355V917.643H366.819V917.665Z" fill="#EBEBEB"/>
<path d="M460.976 876.267C460.976 902.088 467.947 907.221 479.669 907.221C489.935 907.221 495.247 898.973 495.785 889.626H512.282C512.102 910.135 499.461 919.481 480.05 919.481C460.461 919.481 444.883 913.609 444.883 872.771C444.883 845.65 447.998 823.303 480.05 823.303C506.431 823.303 513.021 837.783 513.021 868.355V876.223H460.976V876.267ZM497.062 864.903C497.062 837.984 489.554 834.69 478.571 834.69C469.045 834.69 461.155 839.262 460.976 864.903H497.062Z" fill="#EBEBEB"/>
<path d="M0.754348 785.401V807.389H-30.02V917.666H-57.6788V807.389H-88.4531V785.401H0.754348Z" fill="#EBEBEB"/>
<path d="M51.4315 868.019L38.0504 810.863H37.6917L25.0503 868.019L19.5589 888.348L12.0502 917.666H-15.25L21.3744 785.401H57.8194L93.7266 917.666H64.5885L57.2591 888.348L51.4315 868.019Z" fill="#EBEBEB"/>
</g>
<g clip-path="url(#clip20_1319_8824)">
<path d="M944.145 917.666V785.401H1009.73V800.06H961V842.556H1007.17V857.215H961V917.666H944.145Z" fill="#EBEBEB"/>
<path d="M1037.03 839.082H1037.39C1043.62 824.984 1051.31 823.325 1065.96 823.325V838.903C1064.69 838.724 1063.21 838.544 1061.93 838.343C1060.65 838.163 1059.37 837.984 1057.9 837.984C1041.22 837.984 1037.01 850.625 1037.01 863.088V917.665H1021.99V825.141H1037.01V839.082H1037.03Z" fill="#EBEBEB"/>
<path d="M1122.76 904.285H1122.4C1117.83 914.909 1110.68 919.481 1099.14 919.481C1079.53 919.481 1073.86 906.84 1073.86 889.066C1073.86 861.048 1101.33 859.748 1122.4 860.309C1122.76 848.026 1122.94 834.667 1106.83 834.667C1096.76 834.667 1091.43 841.436 1092.35 851.141H1076.05C1076.79 830.453 1087.77 823.303 1107.39 823.303C1131.19 823.303 1137.42 835.586 1137.42 851.141V895.678C1137.42 903.007 1138.16 910.516 1139.26 917.666H1122.76V904.285ZM1088.87 890.186C1088.87 899.152 1093.27 907.221 1103.35 907.221C1112.52 907.221 1123.86 901.55 1122.4 871.673C1108.1 871.852 1088.87 870.574 1088.87 890.186Z" fill="#EBEBEB"/>
<path d="M1204.82 917.665V853.539C1204.82 844.193 1202.26 835.586 1190.16 835.586C1185.59 835.586 1179.36 838.343 1177.16 841.817C1174.4 846.389 1173.69 851.903 1173.69 855.377V917.665H1158.67V844.394C1158.67 837.984 1158.31 831.574 1157.75 825.163H1173.69V836.706H1174.04C1178.44 826.822 1186.31 823.325 1197.13 823.325C1205.56 823.325 1215.26 826.799 1218.74 835.227C1223.87 825.342 1232.3 823.325 1240.73 823.325C1250.43 823.325 1266.01 825.522 1266.01 847.331V917.665H1250.99V853.539C1250.99 844.193 1248.44 835.586 1236.33 835.586C1230.66 835.586 1229 835.765 1224.97 839.06C1220.58 842.713 1219.84 851.881 1219.84 855.355V917.643H1204.82V917.665Z" fill="#EBEBEB"/>
<path d="M1298.98 876.267C1298.98 902.088 1305.95 907.221 1317.67 907.221C1327.93 907.221 1333.25 898.973 1333.78 889.626H1350.28C1350.1 910.135 1337.46 919.481 1318.05 919.481C1298.46 919.481 1282.88 913.609 1282.88 872.771C1282.88 845.65 1286 823.303 1318.05 823.303C1344.43 823.303 1351.02 837.783 1351.02 868.355V876.223H1298.98V876.267ZM1335.06 864.903C1335.06 837.984 1327.55 834.69 1316.57 834.69C1307.05 834.69 1299.16 839.262 1298.98 864.903H1335.06Z" fill="#EBEBEB"/>
<path d="M838.754 785.401V807.389H807.98V917.666H780.321V807.389H749.547V785.401H838.754Z" fill="#EBEBEB"/>
<path d="M889.431 868.019L876.05 810.863H875.692L863.05 868.019L857.559 888.348L850.05 917.666H822.75L859.374 785.401H895.819L931.727 917.666H902.588L895.259 888.348L889.431 868.019Z" fill="#EBEBEB"/>
<path d="M625.771 805.73H652.533V785.401H572.852V805.73H625.771Z" fill="#EBEBEB"/>
<path d="M632.118 839.62H603.069L569 893.481V917.665H652.537V897.314H595.561L632.118 839.62Z" fill="#EBEBEB"/>
<path d="M737.149 785.401H664.977V805.73H737.149V785.401Z" fill="#EBEBEB"/>
<path d="M692.635 858.672H733.653V839.62H664.977V917.665H738.606V897.314H692.635V858.672Z" fill="#EBEBEB"/>
</g>
<g clip-path="url(#clip21_1319_8824)">
<path d="M1782.14 917.666V785.401H1847.73V800.06H1799V842.556H1845.17V857.215H1799V917.666H1782.14Z" fill="#EBEBEB"/>
<path d="M1875.03 839.082H1875.39C1881.62 824.984 1889.31 823.325 1903.96 823.325V838.903C1902.69 838.724 1901.21 838.544 1899.93 838.343C1898.65 838.163 1897.37 837.984 1895.9 837.984C1879.22 837.984 1875.01 850.625 1875.01 863.088V917.665H1859.99V825.141H1875.01V839.082H1875.03Z" fill="#EBEBEB"/>
<path d="M1960.76 904.285H1960.4C1955.83 914.909 1948.68 919.481 1937.14 919.481C1917.53 919.481 1911.86 906.84 1911.86 889.066C1911.86 861.048 1939.33 859.748 1960.4 860.309C1960.76 848.026 1960.94 834.667 1944.83 834.667C1934.76 834.667 1929.43 841.436 1930.35 851.141H1914.05C1914.79 830.453 1925.77 823.303 1945.39 823.303C1969.19 823.303 1975.42 835.586 1975.42 851.141V895.678C1975.42 903.007 1976.16 910.516 1977.26 917.666H1960.76V904.285ZM1926.87 890.186C1926.87 899.152 1931.27 907.221 1941.35 907.221C1950.52 907.221 1961.86 901.55 1960.4 871.673C1946.1 871.852 1926.87 870.574 1926.87 890.186Z" fill="#EBEBEB"/>
<path d="M1676.75 785.401V807.389H1645.98V917.666H1618.32V807.389H1587.55V785.401H1676.75Z" fill="#EBEBEB"/>
<path d="M1727.43 868.019L1714.05 810.863H1713.69L1701.05 868.019L1695.56 888.348L1688.05 917.666H1660.75L1697.37 785.401H1733.82L1769.73 917.666H1740.59L1733.26 888.348L1727.43 868.019Z" fill="#EBEBEB"/>
<path d="M1463.77 805.73H1490.53V785.401H1410.85V805.73H1463.77Z" fill="#EBEBEB"/>
<path d="M1470.12 839.62H1441.07L1407 893.481V917.665H1490.54V897.314H1433.56L1470.12 839.62Z" fill="#EBEBEB"/>
<path d="M1575.15 785.401H1502.98V805.73H1575.15V785.401Z" fill="#EBEBEB"/>
<path d="M1530.64 858.672H1571.65V839.62H1502.98V917.665H1576.61V897.314H1530.64V858.672Z" fill="#EBEBEB"/>
</g>
<g clip-path="url(#clip22_1319_8824)">
<path d="M-40.1807 1087.75V1023.62C-40.1807 1014.27 -42.7359 1005.67 -54.8395 1005.67C-59.4119 1005.67 -65.643 1008.42 -67.8396 1011.9C-70.5965 1016.47 -71.3137 1021.98 -71.3137 1025.46V1087.75H-86.3311V1014.47C-86.3311 1008.06 -86.6897 1001.65 -87.25 995.243H-71.3137V1006.79H-70.9551C-66.562 996.902 -58.6947 993.405 -47.8688 993.405C-39.4411 993.405 -29.7358 996.879 -26.2617 1005.31C-21.1289 995.423 -12.7013 993.405 -4.27362 993.405C5.43162 993.405 21.0093 995.602 21.0093 1017.41V1087.75H5.99194V1023.62C5.99194 1014.27 3.4368 1005.67 -8.66673 1005.67C-14.3375 1005.67 -15.9961 1005.85 -20.0306 1009.14C-24.4237 1012.79 -25.1634 1021.96 -25.1634 1025.43V1087.72H-40.1807V1087.75Z" fill="#EBEBEB"/>
<path d="M53.976 1046.35C53.976 1072.17 60.9467 1077.3 72.6692 1077.3C82.9348 1077.3 88.2469 1069.05 88.7849 1059.71H105.282C105.102 1080.21 92.4608 1089.56 73.0503 1089.56C53.4605 1089.56 37.8828 1083.69 37.8828 1042.85C37.8828 1015.73 40.9984 993.383 73.0503 993.383C99.4315 993.383 106.021 1007.86 106.021 1038.44V1046.3H53.976V1046.35ZM90.0625 1034.98C90.0625 1008.06 82.5538 1004.77 71.571 1004.77C62.045 1004.77 54.1553 1009.34 53.976 1034.98H90.0625Z" fill="#EBEBEB"/>
</g>
<g clip-path="url(#clip23_1319_8824)">
<path d="M537.145 1087.75V955.481H602.728V970.14H554V1012.64H600.173V1027.3H554V1087.75H537.145Z" fill="#EBEBEB"/>
<path d="M630.028 1009.16H630.387C636.618 995.064 644.306 993.405 658.964 993.405V1008.98C657.687 1008.8 656.207 1008.62 654.93 1008.42C653.652 1008.24 652.375 1008.06 650.895 1008.06C634.219 1008.06 630.006 1020.71 630.006 1033.17V1087.75H614.988V995.221H630.006V1009.16H630.028Z" fill="#EBEBEB"/>
<path d="M715.763 1074.36H715.404C710.832 1084.99 703.682 1089.56 692.138 1089.56C672.526 1089.56 666.855 1076.92 666.855 1059.15C666.855 1031.13 694.335 1029.83 715.404 1030.39C715.763 1018.11 715.942 1004.75 699.826 1004.75C689.762 1004.75 684.428 1011.52 685.347 1021.22H669.052C669.792 1000.53 680.775 993.383 700.387 993.383C724.19 993.383 730.421 1005.67 730.421 1021.22V1065.76C730.421 1073.09 731.161 1080.6 732.259 1087.75H715.763V1074.36ZM681.873 1060.27C681.873 1069.23 686.266 1077.3 696.352 1077.3C705.519 1077.3 716.861 1071.63 715.404 1041.75C701.104 1041.93 681.873 1040.65 681.873 1060.27Z" fill="#EBEBEB"/>
<path d="M797.819 1087.75V1023.62C797.819 1014.27 795.264 1005.67 783.161 1005.67C778.588 1005.67 772.357 1008.42 770.16 1011.9C767.403 1016.47 766.686 1021.98 766.686 1025.46V1087.75H751.669V1014.47C751.669 1008.06 751.31 1001.65 750.75 995.243H766.686V1006.79H767.045C771.438 996.902 779.305 993.405 790.131 993.405C798.559 993.405 808.264 996.879 811.738 1005.31C816.871 995.423 825.299 993.405 833.726 993.405C843.432 993.405 859.009 995.602 859.009 1017.41V1087.75H843.992V1023.62C843.992 1014.27 841.437 1005.67 829.333 1005.67C823.663 1005.67 822.004 1005.85 817.969 1009.14C813.576 1012.79 812.837 1021.96 812.837 1025.43V1087.72H797.819V1087.75Z" fill="#EBEBEB"/>
<path d="M891.976 1046.35C891.976 1072.17 898.947 1077.3 910.669 1077.3C920.935 1077.3 926.247 1069.05 926.785 1059.71H943.282C943.102 1080.21 930.461 1089.56 911.05 1089.56C891.461 1089.56 875.883 1083.69 875.883 1042.85C875.883 1015.73 878.998 993.383 911.05 993.383C937.431 993.383 944.021 1007.86 944.021 1038.44V1046.3H891.976V1046.35ZM928.062 1034.98C928.062 1008.06 920.554 1004.77 909.571 1004.77C900.045 1004.77 892.155 1009.34 891.976 1034.98H928.062Z" fill="#EBEBEB"/>
<path d="M431.754 955.481V977.469H400.98V1087.75H373.321V977.469H342.547V955.481H431.754Z" fill="#EBEBEB"/>
<path d="M482.431 1038.1L469.05 980.943H468.692L456.05 1038.1L450.559 1058.43L443.05 1087.75H415.75L452.374 955.481H488.819L524.727 1087.75H495.588L488.259 1058.43L482.431 1038.1Z" fill="#EBEBEB"/>
<path d="M218.771 975.81H245.533V955.481H165.852V975.81H218.771Z" fill="#EBEBEB"/>
<path d="M225.118 1009.7H196.069L162 1063.56V1087.75H245.537V1067.39H188.561L225.118 1009.7Z" fill="#EBEBEB"/>
<path d="M330.149 955.481H257.977V975.81H330.149V955.481Z" fill="#EBEBEB"/>
<path d="M285.635 1028.75H326.653V1009.7H257.977V1087.75H331.606V1067.39H285.635V1028.75Z" fill="#EBEBEB"/>
</g>
<g clip-path="url(#clip24_1319_8824)">
<path d="M1375.14 1087.75V955.481H1440.73V970.14H1392V1012.64H1438.17V1027.3H1392V1087.75H1375.14Z" fill="#EBEBEB"/>
<path d="M1468.03 1009.16H1468.39C1474.62 995.064 1482.31 993.405 1496.96 993.405V1008.98C1495.69 1008.8 1494.21 1008.62 1492.93 1008.42C1491.65 1008.24 1490.37 1008.06 1488.9 1008.06C1472.22 1008.06 1468.01 1020.71 1468.01 1033.17V1087.75H1452.99V995.221H1468.01V1009.16H1468.03Z" fill="#EBEBEB"/>
<path d="M1553.76 1074.36H1553.4C1548.83 1084.99 1541.68 1089.56 1530.14 1089.56C1510.53 1089.56 1504.86 1076.92 1504.86 1059.15C1504.86 1031.13 1532.33 1029.83 1553.4 1030.39C1553.76 1018.11 1553.94 1004.75 1537.83 1004.75C1527.76 1004.75 1522.43 1011.52 1523.35 1021.22H1507.05C1507.79 1000.53 1518.77 993.383 1538.39 993.383C1562.19 993.383 1568.42 1005.67 1568.42 1021.22V1065.76C1568.42 1073.09 1569.16 1080.6 1570.26 1087.75H1553.76V1074.36ZM1519.87 1060.27C1519.87 1069.23 1524.27 1077.3 1534.35 1077.3C1543.52 1077.3 1554.86 1071.63 1553.4 1041.75C1539.1 1041.93 1519.87 1040.65 1519.87 1060.27Z" fill="#EBEBEB"/>
<path d="M1635.82 1087.75V1023.62C1635.82 1014.27 1633.26 1005.67 1621.16 1005.67C1616.59 1005.67 1610.36 1008.42 1608.16 1011.9C1605.4 1016.47 1604.69 1021.98 1604.69 1025.46V1087.75H1589.67V1014.47C1589.67 1008.06 1589.31 1001.65 1588.75 995.243H1604.69V1006.79H1605.04C1609.44 996.902 1617.31 993.405 1628.13 993.405C1636.56 993.405 1646.26 996.879 1649.74 1005.31C1654.87 995.423 1663.3 993.405 1671.73 993.405C1681.43 993.405 1697.01 995.602 1697.01 1017.41V1087.75H1681.99V1023.62C1681.99 1014.27 1679.44 1005.67 1667.33 1005.67C1661.66 1005.67 1660 1005.85 1655.97 1009.14C1651.58 1012.79 1650.84 1021.96 1650.84 1025.43V1087.72H1635.82V1087.75Z" fill="#EBEBEB"/>
<path d="M1729.98 1046.35C1729.98 1072.17 1736.95 1077.3 1748.67 1077.3C1758.93 1077.3 1764.25 1069.05 1764.78 1059.71H1781.28C1781.1 1080.21 1768.46 1089.56 1749.05 1089.56C1729.46 1089.56 1713.88 1083.69 1713.88 1042.85C1713.88 1015.73 1717 993.383 1749.05 993.383C1775.43 993.383 1782.02 1007.86 1782.02 1038.44V1046.3H1729.98V1046.35ZM1766.06 1034.98C1766.06 1008.06 1758.55 1004.77 1747.57 1004.77C1738.05 1004.77 1730.16 1009.34 1729.98 1034.98H1766.06Z" fill="#EBEBEB"/>
<path d="M1269.75 955.481V977.469H1238.98V1087.75H1211.32V977.469H1180.55V955.481H1269.75Z" fill="#EBEBEB"/>
<path d="M1320.43 1038.1L1307.05 980.943H1306.69L1294.05 1038.1L1288.56 1058.43L1281.05 1087.75H1253.75L1290.37 955.481H1326.82L1362.73 1087.75H1333.59L1326.26 1058.43L1320.43 1038.1Z" fill="#EBEBEB"/>
<path d="M1056.77 975.81H1083.53V955.481H1003.85V975.81H1056.77Z" fill="#EBEBEB"/>
<path d="M1063.12 1009.7H1034.07L1000 1063.56V1087.75H1083.54V1067.39H1026.56L1063.12 1009.7Z" fill="#EBEBEB"/>
<path d="M1168.15 955.481H1095.98V975.81H1168.15V955.481Z" fill="#EBEBEB"/>
<path d="M1123.64 1028.75H1164.65V1009.7H1095.98V1087.75H1169.61V1067.39H1123.64V1028.75Z" fill="#EBEBEB"/>
</g>
<g clip-path="url(#clip25_1319_8824)">
<path d="M1894.77 975.81H1921.53V955.481H1841.85V975.81H1894.77Z" fill="#EBEBEB"/>
<path d="M1901.12 1009.7H1872.07L1838 1063.56V1087.75H1921.54V1067.39H1864.56L1901.12 1009.7Z" fill="#EBEBEB"/>
</g>
<g clip-path="url(#clip26_1319_8824)">
<path d="M945.145 578.425V446.16H1010.73V460.819H962V503.316H1008.17V517.974H962V578.425H945.145Z" fill="black"/>
<path d="M1038.03 499.841H1038.39C1044.62 485.743 1052.31 484.084 1066.96 484.084V499.662C1065.69 499.483 1064.21 499.304 1062.93 499.102C1061.65 498.923 1060.37 498.743 1058.9 498.743C1042.22 498.743 1038.01 511.385 1038.01 523.847V578.425H1022.99V485.9H1038.01V499.841H1038.03Z" fill="black"/>
<path d="M1123.76 565.044H1123.4C1118.83 575.668 1111.68 580.241 1100.14 580.241C1080.53 580.241 1074.86 567.599 1074.86 549.825C1074.86 521.808 1102.33 520.508 1123.4 521.068C1123.76 508.785 1123.94 495.426 1107.83 495.426C1097.76 495.426 1092.43 502.195 1093.35 511.901H1077.05C1077.79 491.213 1088.77 484.062 1108.39 484.062C1132.19 484.062 1138.42 496.345 1138.42 511.901V556.437C1138.42 563.766 1139.16 571.275 1140.26 578.425H1123.76V565.044ZM1089.87 550.946C1089.87 559.911 1094.27 567.98 1104.35 567.98C1113.52 567.98 1124.86 562.31 1123.4 532.432C1109.1 532.611 1089.87 531.334 1089.87 550.946Z" fill="black"/>
<path d="M1205.82 578.425V514.298C1205.82 504.952 1203.26 496.345 1191.16 496.345C1186.59 496.345 1180.36 499.102 1178.16 502.576C1175.4 507.148 1174.69 512.662 1174.69 516.136V578.425H1159.67V505.154C1159.67 498.743 1159.31 492.333 1158.75 485.922H1174.69V497.466H1175.04C1179.44 487.581 1187.31 484.084 1198.13 484.084C1206.56 484.084 1216.26 487.559 1219.74 495.986C1224.87 486.102 1233.3 484.084 1241.73 484.084C1251.43 484.084 1267.01 486.281 1267.01 508.09V578.425H1251.99V514.298C1251.99 504.952 1249.44 496.345 1237.33 496.345C1231.66 496.345 1230 496.524 1225.97 499.819C1221.58 503.473 1220.84 512.64 1220.84 516.114V578.402H1205.82V578.425Z" fill="black"/>
<path d="M1299.98 537.027C1299.98 562.848 1306.95 567.98 1318.67 567.98C1328.93 567.98 1334.25 559.732 1334.78 550.385H1351.28C1351.1 570.894 1338.46 580.241 1319.05 580.241C1299.46 580.241 1283.88 574.368 1283.88 533.53C1283.88 506.409 1287 484.062 1319.05 484.062C1345.43 484.062 1352.02 498.542 1352.02 529.115V536.982H1299.98V537.027ZM1336.06 525.663C1336.06 498.744 1328.55 495.449 1317.57 495.449C1308.05 495.449 1300.16 500.021 1299.98 525.663H1336.06Z" fill="black"/>
<path d="M839.754 446.16V468.148H808.98V578.425H781.321V468.148H750.547V446.16H839.754Z" fill="black"/>
<path d="M890.431 528.778L877.05 471.622H876.692L864.05 528.778L858.559 549.107L851.05 578.425H823.75L860.374 446.16H896.819L932.727 578.425H903.588L896.259 549.107L890.431 528.778Z" fill="black"/>
<path d="M626.771 466.49H653.533V446.16H573.852V466.49H626.771Z" fill="black"/>
<path d="M633.118 500.379H604.069L570 554.24V578.425H653.537V558.073H596.561L633.118 500.379Z" fill="black"/>
<path d="M738.149 446.16H665.977V466.49H738.149V446.16Z" fill="black"/>
<path d="M693.635 519.431H734.653V500.379H665.977V578.425H739.606V558.073H693.635V519.431Z" fill="black"/>
</g>
</g>
<defs>
<clipPath id="clip0_1319_8824">
<rect width="1920" height="1024" fill="white"/>
</clipPath>
<clipPath id="clip1_1319_8824">
<rect width="782" height="134.08" fill="white" transform="translate(-676 -65)"/>
</clipPath>
<clipPath id="clip2_1319_8824">
<rect width="782" height="134.08" fill="white" transform="translate(162 -65)"/>
</clipPath>
<clipPath id="clip3_1319_8824">
<rect width="782" height="134.08" fill="white" transform="translate(1000 -65)"/>
</clipPath>
<clipPath id="clip4_1319_8824">
<rect width="782" height="134.08" fill="white" transform="translate(1838 -65)"/>
</clipPath>
<clipPath id="clip5_1319_8824">
<rect width="782" height="134.08" fill="white" transform="translate(-269 105.08)"/>
</clipPath>
<clipPath id="clip6_1319_8824">
<rect width="782" height="134.08" fill="white" transform="translate(569 105.08)"/>
</clipPath>
<clipPath id="clip7_1319_8824">
<rect width="782" height="134.08" fill="white" transform="translate(1407 105.08)"/>
</clipPath>
<clipPath id="clip8_1319_8824">
<rect width="782" height="134.08" fill="white" transform="translate(-676 275.16)"/>
</clipPath>
<clipPath id="clip9_1319_8824">
<rect width="782" height="134.08" fill="white" transform="translate(162 275.16)"/>
</clipPath>
<clipPath id="clip10_1319_8824">
<rect width="782" height="134.08" fill="white" transform="translate(1000 275.16)"/>
</clipPath>
<clipPath id="clip11_1319_8824">
<rect width="782" height="134.08" fill="white" transform="translate(1838 275.16)"/>
</clipPath>
<clipPath id="clip12_1319_8824">
<rect width="782" height="134.08" fill="white" transform="translate(-269 445.241)"/>
</clipPath>
<clipPath id="clip13_1319_8824">
<rect width="782" height="134.08" fill="white" transform="translate(569 445.241)"/>
</clipPath>
<clipPath id="clip14_1319_8824">
<rect width="782" height="134.08" fill="white" transform="translate(1407 445.241)"/>
</clipPath>
<clipPath id="clip15_1319_8824">
<rect width="782" height="134.08" fill="white" transform="translate(-676 615.321)"/>
</clipPath>
<clipPath id="clip16_1319_8824">
<rect width="782" height="134.08" fill="white" transform="translate(162 615.321)"/>
</clipPath>
<clipPath id="clip17_1319_8824">
<rect width="782" height="134.08" fill="white" transform="translate(1000 615.321)"/>
</clipPath>
<clipPath id="clip18_1319_8824">
<rect width="782" height="134.08" fill="white" transform="translate(1838 615.321)"/>
</clipPath>
<clipPath id="clip19_1319_8824">
<rect width="782" height="134.08" fill="white" transform="translate(-269 785.401)"/>
</clipPath>
<clipPath id="clip20_1319_8824">
<rect width="782" height="134.08" fill="white" transform="translate(569 785.401)"/>
</clipPath>
<clipPath id="clip21_1319_8824">
<rect width="782" height="134.08" fill="white" transform="translate(1407 785.401)"/>
</clipPath>
<clipPath id="clip22_1319_8824">
<rect width="782" height="134.08" fill="white" transform="translate(-676 955.481)"/>
</clipPath>
<clipPath id="clip23_1319_8824">
<rect width="782" height="134.08" fill="white" transform="translate(162 955.481)"/>
</clipPath>
<clipPath id="clip24_1319_8824">
<rect width="782" height="134.08" fill="white" transform="translate(1000 955.481)"/>
</clipPath>
<clipPath id="clip25_1319_8824">
<rect width="782" height="134.08" fill="white" transform="translate(1838 955.481)"/>
</clipPath>
<clipPath id="clip26_1319_8824">
<rect width="782" height="134.08" fill="white" transform="translate(570 446.16)"/>
</clipPath>
</defs>
</svg>
