<?xml version="1.0" encoding="utf-8"?>
<!-- Generator: Adobe Illustrator 27.6.1, SVG Export Plug-In . SVG Version: 6.00 Build 0)  -->
<svg version="1.1" id="Orignal" xmlns="http://www.w3.org/2000/svg" xmlns:xlink="http://www.w3.org/1999/xlink" x="0px" y="0px"
	 viewBox="0 0 348.89 59.82" style="enable-background:new 0 0 348.89 59.82;" xml:space="preserve">
<g>
	<g>
		<g>
			<path d="M167.37,59.01V0h29.26v6.54h-21.74V25.5h20.6v6.54h-20.6v26.97H167.37z"/>
			<path d="M208.81,23.95h0.16c2.78-6.29,6.21-7.03,12.75-7.03v6.95c-0.57-0.08-1.23-0.16-1.8-0.25c-0.57-0.08-1.14-0.16-1.8-0.16
				c-7.44,0-9.32,5.64-9.32,11.2v24.35h-6.7V17.73h6.7V23.95z"/>
			<path d="M247.06,53.04h-0.16c-2.04,4.74-5.23,6.78-10.38,6.78c-8.75,0-11.28-5.64-11.28-13.57c0-12.5,12.26-13.08,21.66-12.83
				c0.16-5.48,0.24-11.44-6.95-11.44c-4.49,0-6.87,3.02-6.46,7.35h-7.27c0.33-9.23,5.23-12.42,13.98-12.42
				c10.62,0,13.4,5.48,13.4,12.42V49.2c0,3.27,0.33,6.62,0.82,9.81h-7.36V53.04z M231.94,46.75c0,4,1.96,7.6,6.46,7.6
				c4.09,0,9.15-2.53,8.5-15.86C240.52,38.57,231.94,38,231.94,46.75z"/>
			<path d="M283.67,59.01V30.4c0-4.17-1.14-8.01-6.54-8.01c-2.04,0-4.82,1.23-5.8,2.78c-1.23,2.04-1.55,4.5-1.55,6.05v27.79h-6.7
				V26.32c0-2.86-0.16-5.72-0.41-8.58h7.11v5.15h0.16c1.96-4.41,5.47-5.97,10.3-5.97c3.76,0,8.09,1.55,9.64,5.31
				c2.29-4.41,6.05-5.31,9.81-5.31c4.33,0,11.28,0.98,11.28,10.71v31.38h-6.7V30.4c0-4.17-1.14-8.01-6.54-8.01
				c-2.53,0-3.27,0.08-5.07,1.55c-1.96,1.63-2.29,5.72-2.29,7.27v27.79H283.67z"/>
			<path d="M325.68,40.54c0,11.52,3.11,13.81,8.34,13.81c4.58,0,6.95-3.68,7.19-7.85h7.36c-0.08,9.15-5.72,13.32-14.38,13.32
				c-8.74,0-15.69-2.62-15.69-20.84c0-12.1,1.39-22.07,15.69-22.07c11.77,0,14.71,6.46,14.71,20.1v3.51H325.68z M341.78,35.47
				c0-12.01-3.35-13.48-8.25-13.48c-4.25,0-7.77,2.04-7.85,13.48H341.78z"/>
		</g>
	</g>
	<g>
		<path d="M120.35,0v9.81h-13.73v49.2H94.28V9.81H80.55V0H120.35z"/>
		<path d="M142.96,36.86l-5.97-25.5h-0.16l-5.64,25.5l-2.45,9.07l-3.35,13.08h-12.18L129.55,0h16.26l16.02,59.01h-13l-3.27-13.08
			L142.96,36.86z"/>
		<polygon points="25.33,9.07 37.27,9.07 37.27,0 1.72,0 1.72,9.07 25.33,9.07 		"/>
		<polygon points="28.16,24.19 15.2,24.19 0,48.22 0,59.01 37.27,59.01 37.27,49.93 11.85,49.93 		"/>
		<g>
			<rect x="42.82" width="32.2" height="9.07"/>
			<polygon points="55.16,32.69 73.46,32.69 73.46,24.19 42.82,24.19 42.82,59.01 75.67,59.01 75.67,49.93 55.16,49.93 			"/>
		</g>
	</g>
</g>
</svg>
