<svg width="68" height="32" viewBox="0 0 68 32" fill="none" xmlns="http://www.w3.org/2000/svg">
<path d="M10.7727 17H9.36364C9.2803 16.5947 9.13447 16.2386 8.92614 15.9318C8.72159 15.625 8.47159 15.3674 8.17614 15.1591C7.88447 14.947 7.56061 14.7879 7.20455 14.6818C6.84849 14.5758 6.47727 14.5227 6.09091 14.5227C5.38636 14.5227 4.74811 14.7008 4.17614 15.0568C3.60795 15.4129 3.1553 15.9375 2.81818 16.6307C2.48485 17.3239 2.31818 18.1742 2.31818 19.1818C2.31818 20.1894 2.48485 21.0398 2.81818 21.733C3.1553 22.4261 3.60795 22.9508 4.17614 23.3068C4.74811 23.6629 5.38636 23.8409 6.09091 23.8409C6.47727 23.8409 6.84849 23.7879 7.20455 23.6818C7.56061 23.5758 7.88447 23.4186 8.17614 23.2102C8.47159 22.9981 8.72159 22.7386 8.92614 22.4318C9.13447 22.1212 9.2803 21.7652 9.36364 21.3636H10.7727C10.6667 21.9583 10.4735 22.4905 10.1932 22.9602C9.91288 23.4299 9.56439 23.8295 9.14773 24.1591C8.73106 24.4848 8.26326 24.733 7.74432 24.9034C7.22917 25.0739 6.67803 25.1591 6.09091 25.1591C5.09849 25.1591 4.21591 24.9167 3.44318 24.4318C2.67045 23.947 2.0625 23.2576 1.61932 22.3636C1.17614 21.4697 0.954545 20.4091 0.954545 19.1818C0.954545 17.9545 1.17614 16.8939 1.61932 16C2.0625 15.1061 2.67045 14.4167 3.44318 13.9318C4.21591 13.447 5.09849 13.2045 6.09091 13.2045C6.67803 13.2045 7.22917 13.2898 7.74432 13.4602C8.26326 13.6307 8.73106 13.8807 9.14773 14.2102C9.56439 14.536 9.91288 14.9337 10.1932 15.4034C10.4735 15.8693 10.6667 16.4015 10.7727 17ZM15.4361 25.2045C14.883 25.2045 14.3812 25.1004 13.9304 24.892C13.4796 24.6799 13.1217 24.375 12.8565 23.9773C12.5914 23.5758 12.4588 23.0909 12.4588 22.5227C12.4588 22.0227 12.5573 21.6174 12.7543 21.3068C12.9512 20.9924 13.2145 20.7462 13.544 20.5682C13.8736 20.3902 14.2372 20.2576 14.6349 20.1705C15.0365 20.0795 15.4399 20.0076 15.8452 19.9545C16.3755 19.8864 16.8054 19.8352 17.1349 19.8011C17.4683 19.7633 17.7107 19.7008 17.8622 19.6136C18.0175 19.5265 18.0952 19.375 18.0952 19.1591V19.1136C18.0952 18.553 17.9418 18.1174 17.6349 17.8068C17.3319 17.4962 16.8717 17.3409 16.2543 17.3409C15.6141 17.3409 15.1122 17.4811 14.7486 17.7614C14.3849 18.0417 14.1293 18.3409 13.9815 18.6591L12.7088 18.2045C12.9361 17.6742 13.2391 17.2614 13.6179 16.9659C14.0005 16.6667 14.4171 16.4583 14.8679 16.3409C15.3224 16.2197 15.7694 16.1591 16.2088 16.1591C16.4891 16.1591 16.8111 16.1932 17.1747 16.2614C17.5421 16.3258 17.8963 16.4602 18.2372 16.6648C18.5819 16.8693 18.8679 17.178 19.0952 17.5909C19.3224 18.0038 19.4361 18.5568 19.4361 19.25V25H18.0952V23.8182H18.027C17.9361 24.0076 17.7846 24.2102 17.5724 24.4261C17.3603 24.642 17.0781 24.8258 16.7259 24.9773C16.3736 25.1288 15.9437 25.2045 15.4361 25.2045ZM15.6406 24C16.1709 24 16.6179 23.8958 16.9815 23.6875C17.349 23.4792 17.6255 23.2102 17.8111 22.8807C18.0005 22.5511 18.0952 22.2045 18.0952 21.8409V20.6136C18.0384 20.6818 17.9134 20.7443 17.7202 20.8011C17.5308 20.8542 17.3111 20.9015 17.0611 20.9432C16.8149 20.9811 16.5743 21.0152 16.3395 21.0455C16.1084 21.072 15.9209 21.0947 15.777 21.1136C15.4285 21.1591 15.1027 21.233 14.7997 21.3352C14.5005 21.4337 14.258 21.5833 14.0724 21.7841C13.8906 21.9811 13.7997 22.25 13.7997 22.5909C13.7997 23.0568 13.9721 23.4091 14.3168 23.6477C14.6652 23.8826 15.1065 24 15.6406 24ZM21.8835 28.2727V16.2727H23.179V17.6591H23.3381C23.4366 17.5076 23.5729 17.3144 23.7472 17.0795C23.9252 16.8409 24.179 16.6288 24.5085 16.4432C24.8419 16.2538 25.2926 16.1591 25.8608 16.1591C26.5956 16.1591 27.2434 16.3428 27.804 16.7102C28.3646 17.0777 28.8021 17.5985 29.1165 18.2727C29.4309 18.947 29.5881 19.7424 29.5881 20.6591C29.5881 21.5833 29.4309 22.3845 29.1165 23.0625C28.8021 23.7367 28.3665 24.2595 27.8097 24.6307C27.2528 24.9981 26.6108 25.1818 25.8835 25.1818C25.3229 25.1818 24.8741 25.089 24.5369 24.9034C24.1998 24.714 23.9403 24.5 23.7585 24.2614C23.5767 24.0189 23.4366 23.8182 23.3381 23.6591H23.2244V28.2727H21.8835ZM23.2017 20.6364C23.2017 21.2955 23.2983 21.8769 23.4915 22.3807C23.6847 22.8807 23.9669 23.2727 24.3381 23.5568C24.7093 23.8371 25.1638 23.9773 25.7017 23.9773C26.2623 23.9773 26.7301 23.8295 27.1051 23.5341C27.4839 23.2348 27.768 22.8333 27.9574 22.3295C28.1506 21.822 28.2472 21.2576 28.2472 20.6364C28.2472 20.0227 28.1525 19.4697 27.9631 18.9773C27.7775 18.4811 27.4953 18.089 27.1165 17.8011C26.7415 17.5095 26.2699 17.3636 25.7017 17.3636C25.1563 17.3636 24.6979 17.5019 24.3267 17.7784C23.9555 18.0511 23.6752 18.4337 23.4858 18.9261C23.2964 19.4148 23.2017 19.9848 23.2017 20.6364ZM35.429 16.2727V17.4091H30.9062V16.2727H35.429ZM32.2244 14.1818H33.5653V22.5C33.5653 22.8788 33.6203 23.1629 33.7301 23.3523C33.8438 23.5379 33.9877 23.6629 34.1619 23.7273C34.34 23.7879 34.5275 23.8182 34.7244 23.8182C34.8722 23.8182 34.9934 23.8106 35.0881 23.7955C35.1828 23.7765 35.2585 23.7614 35.3153 23.75L35.5881 24.9545C35.4972 24.9886 35.3703 25.0227 35.2074 25.0568C35.0445 25.0947 34.8381 25.1136 34.5881 25.1136C34.2093 25.1136 33.8381 25.0322 33.4744 24.8693C33.1146 24.7064 32.8153 24.4583 32.5767 24.125C32.3419 23.7917 32.2244 23.3712 32.2244 22.8636V14.1818ZM37.446 25V16.2727H38.7869V25H37.446ZM38.1278 14.8182C37.8665 14.8182 37.6411 14.7292 37.4517 14.5511C37.2661 14.3731 37.1733 14.1591 37.1733 13.9091C37.1733 13.6591 37.2661 13.4451 37.4517 13.267C37.6411 13.089 37.8665 13 38.1278 13C38.3892 13 38.6127 13.089 38.7983 13.267C38.9877 13.4451 39.0824 13.6591 39.0824 13.9091C39.0824 14.1591 38.9877 14.3731 38.7983 14.5511C38.6127 14.7292 38.3892 14.8182 38.1278 14.8182ZM44.7884 25.1818C44.0005 25.1818 43.3092 24.9943 42.7145 24.6193C42.1236 24.2443 41.6615 23.7197 41.3281 23.0455C40.9986 22.3712 40.8338 21.5833 40.8338 20.6818C40.8338 19.7727 40.9986 18.9792 41.3281 18.3011C41.6615 17.6231 42.1236 17.0966 42.7145 16.7216C43.3092 16.3466 44.0005 16.1591 44.7884 16.1591C45.5762 16.1591 46.2656 16.3466 46.8565 16.7216C47.4512 17.0966 47.9134 17.6231 48.2429 18.3011C48.5762 18.9792 48.7429 19.7727 48.7429 20.6818C48.7429 21.5833 48.5762 22.3712 48.2429 23.0455C47.9134 23.7197 47.4512 24.2443 46.8565 24.6193C46.2656 24.9943 45.5762 25.1818 44.7884 25.1818ZM44.7884 23.9773C45.3868 23.9773 45.8793 23.8239 46.2656 23.517C46.652 23.2102 46.938 22.8068 47.1236 22.3068C47.3092 21.8068 47.402 21.2652 47.402 20.6818C47.402 20.0985 47.3092 19.5549 47.1236 19.0511C46.938 18.5473 46.652 18.1402 46.2656 17.8295C45.8793 17.5189 45.3868 17.3636 44.7884 17.3636C44.1899 17.3636 43.6974 17.5189 43.3111 17.8295C42.9247 18.1402 42.6387 18.5473 42.4531 19.0511C42.2675 19.5549 42.1747 20.0985 42.1747 20.6818C42.1747 21.2652 42.2675 21.8068 42.4531 22.3068C42.6387 22.8068 42.9247 23.2102 43.3111 23.517C43.6974 23.8239 44.1899 23.9773 44.7884 23.9773ZM52.1307 19.75V25H50.7898V16.2727H52.0852V17.6364H52.1989C52.4034 17.1932 52.714 16.8371 53.1307 16.5682C53.5473 16.2955 54.0852 16.1591 54.7443 16.1591C55.3352 16.1591 55.8523 16.2803 56.2955 16.5227C56.7386 16.7614 57.0833 17.125 57.3295 17.6136C57.5758 18.0985 57.6989 18.7121 57.6989 19.4545V25H56.358V19.5455C56.358 18.8598 56.1799 18.3258 55.8239 17.9432C55.4678 17.5568 54.9792 17.3636 54.358 17.3636C53.9299 17.3636 53.5473 17.4564 53.2102 17.642C52.8769 17.8277 52.6136 18.0985 52.4205 18.4545C52.2273 18.8106 52.1307 19.2424 52.1307 19.75ZM66.331 18.2273L65.1264 18.5682C65.0507 18.3674 64.9389 18.1723 64.7912 17.983C64.6473 17.7898 64.4503 17.6307 64.2003 17.5057C63.9503 17.3807 63.6302 17.3182 63.2401 17.3182C62.706 17.3182 62.2609 17.4413 61.9048 17.6875C61.5526 17.9299 61.3764 18.2386 61.3764 18.6136C61.3764 18.947 61.4976 19.2102 61.7401 19.4034C61.9825 19.5966 62.3613 19.7576 62.8764 19.8864L64.1719 20.2045C64.9522 20.3939 65.5336 20.6837 65.9162 21.0739C66.2988 21.4602 66.4901 21.9583 66.4901 22.5682C66.4901 23.0682 66.3461 23.5152 66.0582 23.9091C65.7741 24.303 65.3764 24.6136 64.8651 24.8409C64.3537 25.0682 63.759 25.1818 63.081 25.1818C62.1908 25.1818 61.4541 24.9886 60.8707 24.6023C60.2874 24.2159 59.9181 23.6515 59.7628 22.9091L61.0355 22.5909C61.1567 23.0606 61.3859 23.4129 61.723 23.6477C62.0639 23.8826 62.509 24 63.0582 24C63.6832 24 64.1795 23.8674 64.5469 23.6023C64.9181 23.3333 65.1037 23.0114 65.1037 22.6364C65.1037 22.3333 64.9976 22.0795 64.7855 21.875C64.5734 21.6667 64.2476 21.5114 63.8082 21.4091L62.3537 21.0682C61.5545 20.8788 60.9673 20.5852 60.5923 20.1875C60.2211 19.786 60.0355 19.2841 60.0355 18.6818C60.0355 18.1894 60.1738 17.7538 60.4503 17.375C60.7306 16.9962 61.1113 16.6989 61.5923 16.483C62.0772 16.267 62.6264 16.1591 63.2401 16.1591C64.1037 16.1591 64.7817 16.3485 65.2741 16.7273C65.7704 17.1061 66.1226 17.6061 66.331 18.2273Z" fill="#48484A"/>
</svg>
