<svg width="238" height="70" viewBox="0 0 238 70" fill="none" xmlns="http://www.w3.org/2000/svg">
<path d="M3.03409 56V21.0909H10.4148V35.4943H25.3977V21.0909H32.7614V56H25.3977V41.5795H10.4148V56H3.03409ZM50.642 56.5114C47.9489 56.5114 45.6307 55.9659 43.6875 54.875C41.7557 53.7727 40.267 52.2159 39.2216 50.2045C38.1761 48.1818 37.6534 45.7898 37.6534 43.0284C37.6534 40.3352 38.1761 37.9716 39.2216 35.9375C40.267 33.9034 41.7386 32.3182 43.6364 31.1818C45.5455 30.0455 47.7841 29.4773 50.3523 29.4773C52.0795 29.4773 53.6875 29.7557 55.1761 30.3125C56.6761 30.858 57.983 31.6818 59.0966 32.7841C60.2216 33.8864 61.0966 35.2727 61.7216 36.9432C62.3466 38.6023 62.6591 40.5455 62.6591 42.7727V44.767H40.5511V40.267H55.8239C55.8239 39.2216 55.5966 38.2955 55.142 37.4886C54.6875 36.6818 54.0568 36.0511 53.25 35.5966C52.4545 35.1307 51.5284 34.8977 50.4716 34.8977C49.3693 34.8977 48.392 35.1534 47.5398 35.6648C46.6989 36.1648 46.0398 36.8409 45.5625 37.6932C45.0852 38.5341 44.8409 39.4716 44.8295 40.5057V44.7841C44.8295 46.0795 45.0682 47.1989 45.5455 48.142C46.0341 49.0852 46.7216 49.8125 47.608 50.3239C48.4943 50.8352 49.5455 51.0909 50.7614 51.0909C51.5682 51.0909 52.3068 50.9773 52.9773 50.75C53.6477 50.5227 54.2216 50.1818 54.6989 49.7273C55.1761 49.2727 55.5398 48.7159 55.7898 48.0568L62.5057 48.5C62.1648 50.1136 61.4659 51.5227 60.4091 52.7273C59.3636 53.9205 58.0114 54.8523 56.3523 55.5227C54.7045 56.1818 52.8011 56.5114 50.642 56.5114ZM74.8636 56.4943C73.1932 56.4943 71.7045 56.2045 70.3977 55.625C69.0909 55.0341 68.0568 54.1648 67.2955 53.017C66.5455 51.858 66.1705 50.4148 66.1705 48.6875C66.1705 47.233 66.4375 46.0114 66.9716 45.0227C67.5057 44.0341 68.233 43.2386 69.1534 42.6364C70.0739 42.0341 71.1193 41.5795 72.2898 41.2727C73.4716 40.9659 74.7102 40.75 76.0057 40.625C77.5284 40.4659 78.7557 40.3182 79.6875 40.1818C80.6193 40.0341 81.2955 39.8182 81.7159 39.5341C82.1364 39.25 82.3466 38.8295 82.3466 38.2727V38.1705C82.3466 37.0909 82.0057 36.2557 81.3239 35.6648C80.6534 35.0739 79.6989 34.7784 78.4602 34.7784C77.1534 34.7784 76.1136 35.0682 75.3409 35.6477C74.5682 36.2159 74.0568 36.9318 73.8068 37.7955L67.0909 37.25C67.4318 35.6591 68.1023 34.2841 69.1023 33.125C70.1023 31.9545 71.392 31.0568 72.9716 30.4318C74.5625 29.7955 76.4034 29.4773 78.4943 29.4773C79.9489 29.4773 81.3409 29.6477 82.6705 29.9886C84.0114 30.3295 85.1989 30.858 86.233 31.5739C87.2784 32.2898 88.1023 33.2102 88.7045 34.3352C89.3068 35.4489 89.608 36.7841 89.608 38.3409V56H82.7216V52.3693H82.517C82.0966 53.1875 81.5341 53.9091 80.8295 54.5341C80.125 55.1477 79.2784 55.6307 78.2898 55.983C77.3011 56.3239 76.1591 56.4943 74.8636 56.4943ZM76.9432 51.483C78.0114 51.483 78.9545 51.2727 79.7727 50.8523C80.5909 50.4205 81.233 49.8409 81.6989 49.1136C82.1648 48.3864 82.3977 47.5625 82.3977 46.642V43.8636C82.1705 44.0114 81.858 44.1477 81.4602 44.2727C81.0739 44.3864 80.6364 44.4943 80.1477 44.5966C79.6591 44.6875 79.1705 44.7727 78.6818 44.8523C78.1932 44.9205 77.75 44.983 77.3523 45.0398C76.5 45.1648 75.7557 45.3636 75.1193 45.6364C74.483 45.9091 73.9886 46.2784 73.6364 46.7443C73.2841 47.1989 73.108 47.767 73.108 48.4489C73.108 49.4375 73.4659 50.1932 74.1818 50.7159C74.9091 51.2273 75.8295 51.483 76.9432 51.483ZM104.889 56.4261C102.901 56.4261 101.099 55.9148 99.4858 54.892C97.8835 53.858 96.6108 52.3409 95.6676 50.3409C94.7358 48.3295 94.2699 45.8636 94.2699 42.9432C94.2699 39.9432 94.7528 37.4489 95.7188 35.4602C96.6847 33.4602 97.9688 31.9659 99.571 30.9773C101.185 29.9773 102.952 29.4773 104.872 29.4773C106.338 29.4773 107.56 29.7273 108.537 30.2273C109.526 30.7159 110.321 31.3295 110.923 32.0682C111.537 32.7955 112.003 33.5114 112.321 34.2159H112.543V21.0909H119.787V56H112.628V51.8068H112.321C111.98 52.5341 111.497 53.2557 110.872 53.9716C110.259 54.6761 109.457 55.2614 108.469 55.7273C107.491 56.1932 106.298 56.4261 104.889 56.4261ZM107.19 50.6477C108.361 50.6477 109.349 50.3295 110.156 49.6932C110.974 49.0455 111.599 48.142 112.031 46.983C112.474 45.8239 112.696 44.4659 112.696 42.9091C112.696 41.3523 112.48 40 112.048 38.8523C111.616 37.7045 110.991 36.8182 110.173 36.1932C109.355 35.5682 108.361 35.2557 107.19 35.2557C105.997 35.2557 104.991 35.5795 104.173 36.2273C103.355 36.875 102.736 37.7727 102.315 38.9205C101.895 40.0682 101.685 41.3977 101.685 42.9091C101.685 44.4318 101.895 45.7784 102.315 46.9489C102.747 48.108 103.366 49.017 104.173 49.6761C104.991 50.3239 105.997 50.6477 107.19 50.6477ZM125.757 56V29.8182H133.018V56H125.757ZM129.405 26.4432C128.325 26.4432 127.399 26.0852 126.626 25.3693C125.865 24.642 125.484 23.7727 125.484 22.7614C125.484 21.7614 125.865 20.9034 126.626 20.1875C127.399 19.4602 128.325 19.0966 129.405 19.0966C130.484 19.0966 131.405 19.4602 132.166 20.1875C132.939 20.9034 133.325 21.7614 133.325 22.7614C133.325 23.7727 132.939 24.642 132.166 25.3693C131.405 26.0852 130.484 26.4432 129.405 26.4432ZM146.097 40.8636V56H138.835V29.8182H145.756V34.4375H146.062C146.642 32.9148 147.614 31.7102 148.977 30.8239C150.341 29.9261 151.994 29.4773 153.938 29.4773C155.756 29.4773 157.341 29.875 158.693 30.6705C160.045 31.4659 161.097 32.6023 161.847 34.0795C162.597 35.5455 162.972 37.2955 162.972 39.3295V56H155.71V40.625C155.722 39.0227 155.313 37.7727 154.483 36.875C153.653 35.9659 152.511 35.5114 151.057 35.5114C150.08 35.5114 149.216 35.7216 148.466 36.142C147.727 36.5625 147.148 37.1761 146.727 37.983C146.318 38.7784 146.108 39.7386 146.097 40.8636ZM180.49 66.3636C178.138 66.3636 176.121 66.0398 174.439 65.392C172.768 64.7557 171.439 63.8864 170.45 62.7841C169.462 61.6818 168.82 60.4432 168.524 59.0682L175.24 58.1648C175.445 58.6875 175.768 59.1761 176.212 59.6307C176.655 60.0852 177.24 60.4489 177.967 60.7216C178.706 61.0057 179.604 61.1477 180.661 61.1477C182.24 61.1477 183.541 60.7614 184.564 59.9886C185.598 59.2273 186.115 57.9489 186.115 56.1534V51.3636H185.808C185.49 52.0909 185.013 52.7784 184.376 53.4261C183.74 54.0739 182.922 54.6023 181.922 55.0114C180.922 55.4205 179.729 55.625 178.342 55.625C176.376 55.625 174.587 55.1705 172.973 54.2614C171.371 53.3409 170.092 51.9375 169.138 50.0511C168.195 48.1534 167.723 45.7557 167.723 42.858C167.723 39.892 168.206 37.4148 169.172 35.4261C170.138 33.4375 171.422 31.9489 173.024 30.9602C174.638 29.9716 176.405 29.4773 178.325 29.4773C179.791 29.4773 181.018 29.7273 182.007 30.2273C182.996 30.7159 183.791 31.3295 184.393 32.0682C185.007 32.7955 185.479 33.5114 185.808 34.2159H186.081V29.8182H193.291V56.2557C193.291 58.483 192.746 60.3466 191.655 61.8466C190.564 63.3466 189.053 64.4716 187.121 65.2216C185.2 65.983 182.99 66.3636 180.49 66.3636ZM180.643 50.1705C181.814 50.1705 182.803 49.8807 183.609 49.3011C184.428 48.7102 185.053 47.8693 185.484 46.7784C185.928 45.6761 186.149 44.358 186.149 42.8239C186.149 41.2898 185.933 39.9602 185.501 38.8352C185.07 37.6989 184.445 36.8182 183.626 36.1932C182.808 35.5682 181.814 35.2557 180.643 35.2557C179.45 35.2557 178.445 35.5795 177.626 36.2273C176.808 36.8636 176.189 37.75 175.768 38.8864C175.348 40.0227 175.138 41.3352 175.138 42.8239C175.138 44.3352 175.348 45.642 175.768 46.7443C176.2 47.8352 176.82 48.6818 177.626 49.2841C178.445 49.875 179.45 50.1705 180.643 50.1705ZM210.111 56V50.6818L222.537 39.1761C223.594 38.1534 224.48 37.233 225.196 36.4148C225.923 35.5966 226.474 34.7955 226.849 34.0114C227.224 33.2159 227.412 32.358 227.412 31.4375C227.412 30.4148 227.179 29.5341 226.713 28.7955C226.247 28.0455 225.611 27.4716 224.804 27.0739C223.997 26.6648 223.082 26.4602 222.06 26.4602C220.991 26.4602 220.06 26.6761 219.264 27.108C218.469 27.5398 217.855 28.1591 217.423 28.9659C216.991 29.7727 216.776 30.733 216.776 31.8466H209.77C209.77 29.5625 210.287 27.5795 211.321 25.8977C212.355 24.2159 213.804 22.9148 215.668 21.9943C217.531 21.0739 219.679 20.6136 222.111 20.6136C224.611 20.6136 226.787 21.0568 228.639 21.9432C230.503 22.8182 231.952 24.0341 232.986 25.5909C234.02 27.1477 234.537 28.9318 234.537 30.9432C234.537 32.2614 234.276 33.5625 233.753 34.8466C233.241 36.1307 232.327 37.5568 231.009 39.125C229.69 40.6818 227.832 42.5511 225.435 44.733L220.338 49.7273V49.9659H234.997V56H210.111Z" fill="black"/>
</svg>
