<svg width="340" height="92" viewBox="0 0 340 92" fill="none" xmlns="http://www.w3.org/2000/svg">
<path d="M5.69744 7.63636V28H2.00852V7.63636H5.69744ZM13.1325 19.0511V28H9.53303V12.7273H12.9734V15.3224H13.1523C13.5037 14.4673 14.0638 13.7879 14.8327 13.2841C15.6083 12.7803 16.5662 12.5284 17.7063 12.5284C18.7603 12.5284 19.6784 12.7538 20.4606 13.2045C21.2494 13.6553 21.8593 14.3082 22.2901 15.1634C22.7276 16.0185 22.9431 17.0559 22.9364 18.2756V28H19.337V18.8324C19.337 17.8116 19.0719 17.0128 18.5415 16.4361C18.0179 15.8594 17.292 15.571 16.364 15.571C15.7343 15.571 15.1741 15.7102 14.6836 15.9886C14.1997 16.2604 13.8185 16.6548 13.5401 17.1719C13.2683 17.6889 13.1325 18.3153 13.1325 19.0511ZM34.2219 12.7273V15.5114H25.4421V12.7273H34.2219ZM27.6097 9.06818H31.2092V23.4062C31.2092 23.8902 31.2821 24.2614 31.4279 24.5199C31.5804 24.7718 31.7792 24.9441 32.0245 25.0369C32.2698 25.1297 32.5415 25.1761 32.8398 25.1761C33.0652 25.1761 33.2707 25.1596 33.4563 25.1264C33.6486 25.0933 33.7944 25.0634 33.8938 25.0369L34.5004 27.8509C34.3081 27.9171 34.033 27.9901 33.6751 28.0696C33.3237 28.1491 32.8929 28.1955 32.3825 28.2088C31.4809 28.2353 30.6689 28.0994 29.9464 27.8011C29.2238 27.4962 28.6504 27.0256 28.2262 26.3892C27.8086 25.7528 27.6031 24.9574 27.6097 24.0028V9.06818ZM43.8295 28.2983C42.2983 28.2983 40.9759 27.9801 39.8622 27.3438C38.7552 26.7008 37.9034 25.7926 37.3068 24.6193C36.7102 23.4394 36.4119 22.0507 36.4119 20.4531C36.4119 18.8821 36.7102 17.5033 37.3068 16.3168C37.91 15.1236 38.7519 14.1955 39.8324 13.5327C40.9129 12.8632 42.1823 12.5284 43.6406 12.5284C44.5819 12.5284 45.4702 12.6809 46.3054 12.9858C47.1473 13.2841 47.8897 13.7481 48.5327 14.3778C49.1823 15.0076 49.6927 15.8097 50.0639 16.7841C50.4351 17.7519 50.6207 18.9053 50.6207 20.2443V21.348H38.1023V18.9219H47.1705C47.1638 18.2325 47.0147 17.6193 46.723 17.0824C46.4313 16.5388 46.0237 16.1113 45.5 15.7997C44.983 15.4882 44.3797 15.3324 43.6903 15.3324C42.9545 15.3324 42.3082 15.5114 41.7514 15.8693C41.1946 16.2206 40.7604 16.6847 40.4489 17.2614C40.1439 17.8314 39.9882 18.4579 39.9815 19.1406V21.2585C39.9815 22.1468 40.1439 22.9091 40.4688 23.5455C40.7936 24.1752 41.2476 24.6591 41.831 24.9972C42.4143 25.3286 43.0971 25.4943 43.8793 25.4943C44.4029 25.4943 44.8769 25.4214 45.3011 25.2756C45.7254 25.1231 46.0933 24.901 46.4048 24.6094C46.7164 24.3177 46.9517 23.9564 47.1108 23.5256L50.4716 23.9034C50.2595 24.7917 49.8551 25.5672 49.2585 26.2301C48.6686 26.8864 47.9129 27.3968 46.9915 27.7614C46.0701 28.1193 45.0161 28.2983 43.8295 28.2983ZM53.6658 28V12.7273H57.1559V15.2727H57.315C57.5934 14.3911 58.0707 13.7116 58.7468 13.2344C59.4296 12.7505 60.2085 12.5085 61.0835 12.5085C61.2823 12.5085 61.5044 12.5185 61.7496 12.5384C62.0015 12.5516 62.2103 12.5748 62.3761 12.608V15.919C62.2236 15.866 61.9817 15.8196 61.6502 15.7798C61.3254 15.7334 61.0105 15.7102 60.7056 15.7102C60.0494 15.7102 59.4594 15.8527 58.9357 16.1378C58.4187 16.4162 58.011 16.804 57.7127 17.3011C57.4144 17.7983 57.2653 18.3717 57.2653 19.0213V28H53.6658Z" fill="#10130E"/>
<path d="M8.26989 57.2301C7.64773 57.2301 7.0831 57.1129 6.57599 56.8786C6.06889 56.6399 5.66619 56.2969 5.3679 55.8494C5.0696 55.3977 4.92045 54.8523 4.92045 54.2131C4.92045 53.6506 5.03125 53.1946 5.25284 52.8452C5.47443 52.4915 5.7706 52.2145 6.14134 52.0142C6.51207 51.8139 6.92116 51.6648 7.36861 51.5668C7.82031 51.4645 8.27415 51.3835 8.73011 51.3239C9.3267 51.2472 9.81037 51.1896 10.1811 51.1513C10.5561 51.1087 10.8288 51.0384 10.9993 50.9403C11.174 50.8423 11.2614 50.6719 11.2614 50.429V50.3778C11.2614 49.7472 11.0888 49.2571 10.7436 48.9077C10.4027 48.5582 9.88494 48.3835 9.19034 48.3835C8.47017 48.3835 7.90554 48.5412 7.49645 48.8565C7.08736 49.1719 6.79972 49.5085 6.63352 49.8665L5.2017 49.3551C5.45739 48.7585 5.7983 48.294 6.22443 47.9616C6.65483 47.625 7.12358 47.3906 7.63068 47.2585C8.14205 47.1222 8.64489 47.054 9.1392 47.054C9.45455 47.054 9.81676 47.0923 10.2259 47.169C10.6392 47.2415 11.0376 47.3928 11.4212 47.6229C11.8089 47.853 12.1307 48.2003 12.3864 48.6648C12.642 49.1293 12.7699 49.7514 12.7699 50.5312V57H11.2614V55.6705H11.1847C11.0824 55.8835 10.9119 56.1115 10.6733 56.3544C10.4347 56.5973 10.1172 56.804 9.72088 56.9744C9.32457 57.1449 8.84091 57.2301 8.26989 57.2301ZM8.5 55.875C9.09659 55.875 9.59943 55.7578 10.0085 55.5234C10.4219 55.2891 10.733 54.9865 10.9418 54.6158C11.1548 54.245 11.2614 53.8551 11.2614 53.446V52.0653C11.1974 52.142 11.0568 52.2124 10.8395 52.2763C10.6264 52.3359 10.3793 52.3892 10.098 52.4361C9.82102 52.4787 9.55043 52.517 9.28622 52.5511C9.02628 52.581 8.81534 52.6065 8.65341 52.6278C8.26136 52.679 7.89489 52.7621 7.55398 52.8771C7.21733 52.9879 6.9446 53.1562 6.7358 53.3821C6.53125 53.6037 6.42898 53.9062 6.42898 54.2898C6.42898 54.8139 6.62287 55.2102 7.01065 55.4787C7.4027 55.7429 7.89915 55.875 8.5 55.875ZM28.6142 47.1818L24.9835 57H23.4494L19.8187 47.1818H21.4551L24.1653 55.0057H24.2676L26.9778 47.1818H28.6142ZM33.1957 57.2301C32.5735 57.2301 32.0089 57.1129 31.5018 56.8786C30.9947 56.6399 30.592 56.2969 30.2937 55.8494C29.9954 55.3977 29.8462 54.8523 29.8462 54.2131C29.8462 53.6506 29.957 53.1946 30.1786 52.8452C30.4002 52.4915 30.6964 52.2145 31.0671 52.0142C31.4379 51.8139 31.8469 51.6648 32.2944 51.5668C32.7461 51.4645 33.1999 51.3835 33.6559 51.3239C34.2525 51.2472 34.7362 51.1896 35.1069 51.1513C35.4819 51.1087 35.7546 51.0384 35.9251 50.9403C36.0998 50.8423 36.1871 50.6719 36.1871 50.429V50.3778C36.1871 49.7472 36.0146 49.2571 35.6694 48.9077C35.3285 48.5582 34.8107 48.3835 34.1161 48.3835C33.396 48.3835 32.8313 48.5412 32.4222 48.8565C32.0131 49.1719 31.7255 49.5085 31.5593 49.8665L30.1275 49.3551C30.3832 48.7585 30.7241 48.294 31.1502 47.9616C31.5806 47.625 32.0494 47.3906 32.5565 47.2585C33.0678 47.1222 33.5707 47.054 34.065 47.054C34.3803 47.054 34.7425 47.0923 35.1516 47.169C35.565 47.2415 35.9634 47.3928 36.3469 47.6229C36.7347 47.853 37.0565 48.2003 37.3121 48.6648C37.5678 49.1293 37.6957 49.7514 37.6957 50.5312V57H36.1871V55.6705H36.1104C36.0082 55.8835 35.8377 56.1115 35.5991 56.3544C35.3604 56.5973 35.043 56.804 34.6467 56.9744C34.2504 57.1449 33.7667 57.2301 33.1957 57.2301ZM33.4258 55.875C34.0224 55.875 34.5252 55.7578 34.9343 55.5234C35.3477 55.2891 35.6587 54.9865 35.8675 54.6158C36.0806 54.245 36.1871 53.8551 36.1871 53.446V52.0653C36.1232 52.142 35.9826 52.2124 35.7653 52.2763C35.5522 52.3359 35.305 52.3892 35.0238 52.4361C34.7468 52.4787 34.4762 52.517 34.212 52.5511C33.9521 52.581 33.7411 52.6065 33.5792 52.6278C33.1871 52.679 32.8207 52.7621 32.4798 52.8771C32.1431 52.9879 31.8704 53.1562 31.6616 53.3821C31.457 53.6037 31.3548 53.9062 31.3548 54.2898C31.3548 54.8139 31.5487 55.2102 31.9364 55.4787C32.3285 55.7429 32.8249 55.875 33.4258 55.875ZM40.449 57V47.1818H41.9064V48.6648H42.0087C42.1877 48.179 42.5115 47.7848 42.9803 47.4822C43.449 47.1797 43.9775 47.0284 44.5655 47.0284C44.6763 47.0284 44.8148 47.0305 44.981 47.0348C45.1472 47.0391 45.2729 47.0455 45.3581 47.054V48.5881C45.307 48.5753 45.1898 48.5561 45.0066 48.5305C44.8276 48.5007 44.638 48.4858 44.4377 48.4858C43.9604 48.4858 43.5343 48.5859 43.1593 48.7862C42.7885 48.9822 42.4945 49.255 42.2772 49.6044C42.0641 49.9496 41.9576 50.3437 41.9576 50.7869V57H40.449ZM47.1463 57V47.1818H48.6548V57H47.1463ZM47.9134 45.5455C47.6193 45.5455 47.3658 45.4453 47.1527 45.245C46.9439 45.0447 46.8395 44.804 46.8395 44.5227C46.8395 44.2415 46.9439 44.0007 47.1527 43.8004C47.3658 43.6001 47.6193 43.5 47.9134 43.5C48.2074 43.5 48.4588 43.6001 48.6676 43.8004C48.8807 44.0007 48.9872 44.2415 48.9872 44.5227C48.9872 44.804 48.8807 45.0447 48.6676 45.245C48.4588 45.4453 48.2074 45.5455 47.9134 45.5455ZM54.307 57.2301C53.6848 57.2301 53.1202 57.1129 52.6131 56.8786C52.106 56.6399 51.7033 56.2969 51.405 55.8494C51.1067 55.3977 50.9576 54.8523 50.9576 54.2131C50.9576 53.6506 51.0684 53.1946 51.29 52.8452C51.5115 52.4915 51.8077 52.2145 52.1784 52.0142C52.5492 51.8139 52.9583 51.6648 53.4057 51.5668C53.8574 51.4645 54.3113 51.3835 54.7672 51.3239C55.3638 51.2472 55.8475 51.1896 56.2182 51.1513C56.5932 51.1087 56.8659 51.0384 57.0364 50.9403C57.2111 50.8423 57.2985 50.6719 57.2985 50.429V50.3778C57.2985 49.7472 57.1259 49.2571 56.7807 48.9077C56.4398 48.5582 55.9221 48.3835 55.2275 48.3835C54.5073 48.3835 53.9426 48.5412 53.5336 48.8565C53.1245 49.1719 52.8368 49.5085 52.6706 49.8665L51.2388 49.3551C51.4945 48.7585 51.8354 48.294 52.2615 47.9616C52.6919 47.625 53.1607 47.3906 53.6678 47.2585C54.1792 47.1222 54.682 47.054 55.1763 47.054C55.4917 47.054 55.8539 47.0923 56.263 47.169C56.6763 47.2415 57.0748 47.3928 57.4583 47.6229C57.8461 47.853 58.1678 48.2003 58.4235 48.6648C58.6792 49.1293 58.807 49.7514 58.807 50.5312V57H57.2985V55.6705H57.2218C57.1195 55.8835 56.949 56.1115 56.7104 56.3544C56.4718 56.5973 56.1543 56.804 55.758 56.9744C55.3617 57.1449 54.878 57.2301 54.307 57.2301ZM54.5371 55.875C55.1337 55.875 55.6365 55.7578 56.0456 55.5234C56.459 55.2891 56.7701 54.9865 56.9789 54.6158C57.1919 54.245 57.2985 53.8551 57.2985 53.446V52.0653C57.2346 52.142 57.0939 52.2124 56.8766 52.2763C56.6635 52.3359 56.4164 52.3892 56.1351 52.4361C55.8581 52.4787 55.5875 52.517 55.3233 52.5511C55.0634 52.581 54.8525 52.6065 54.6905 52.6278C54.2985 52.679 53.932 52.7621 53.5911 52.8771C53.2544 52.9879 52.9817 53.1562 52.7729 53.3821C52.5684 53.6037 52.4661 53.9062 52.4661 54.2898C52.4661 54.8139 52.66 55.2102 53.0478 55.4787C53.4398 55.7429 53.9363 55.875 54.5371 55.875ZM61.7649 57V43.9091H63.2734V48.7415H63.4013C63.5121 48.571 63.6655 48.3537 63.8615 48.0895C64.0618 47.821 64.3473 47.5824 64.718 47.3736C65.093 47.1605 65.6001 47.054 66.2393 47.054C67.0661 47.054 67.7947 47.2607 68.4254 47.674C69.0561 48.0874 69.5483 48.6733 69.902 49.4318C70.2557 50.1903 70.4325 51.0852 70.4325 52.1165C70.4325 53.1562 70.2557 54.0575 69.902 54.8203C69.5483 55.5788 69.0582 56.1669 68.4318 56.5845C67.8054 56.9979 67.0831 57.2045 66.2649 57.2045C65.6342 57.2045 65.1293 57.1001 64.75 56.8913C64.3707 56.6783 64.0788 56.4375 63.8743 56.169C63.6697 55.8963 63.5121 55.6705 63.4013 55.4915H63.2223V57H61.7649ZM63.2479 52.0909C63.2479 52.8324 63.3565 53.4865 63.5739 54.0533C63.7912 54.6158 64.1087 55.0568 64.5263 55.3764C64.9439 55.6918 65.4553 55.8494 66.0604 55.8494C66.6911 55.8494 67.2173 55.6832 67.6392 55.3509C68.0653 55.0142 68.3849 54.5625 68.598 53.9957C68.8153 53.4247 68.924 52.7898 68.924 52.0909C68.924 51.4006 68.8175 50.7784 68.6044 50.2244C68.3956 49.6662 68.0781 49.2251 67.652 48.9013C67.2301 48.5732 66.6996 48.4091 66.0604 48.4091C65.4467 48.4091 64.9311 48.5646 64.5135 48.8757C64.0959 49.1825 63.7805 49.6129 63.5675 50.1669C63.3544 50.7166 63.2479 51.358 63.2479 52.0909ZM74.2486 43.9091V57H72.7401V43.9091H74.2486ZM81.128 57.2045C80.182 57.2045 79.3659 56.9957 78.6799 56.5781C77.998 56.1562 77.4718 55.5682 77.101 54.8139C76.7346 54.0554 76.5513 53.1733 76.5513 52.1676C76.5513 51.1619 76.7346 50.2756 77.101 49.5085C77.4718 48.7372 77.9874 48.1364 78.6479 47.706C79.3127 47.2713 80.0882 47.054 80.9746 47.054C81.486 47.054 81.9909 47.1392 82.4895 47.3097C82.9881 47.4801 83.4419 47.7571 83.851 48.1406C84.2601 48.5199 84.5861 49.0227 84.829 49.6491C85.0719 50.2756 85.1934 51.0469 85.1934 51.9631V52.6023H77.6252V51.2983H83.6593C83.6593 50.7443 83.5485 50.25 83.3269 49.8153C83.1096 49.3807 82.7985 49.0376 82.3936 48.7862C81.9931 48.5348 81.5201 48.4091 80.9746 48.4091C80.3738 48.4091 79.8539 48.5582 79.415 48.8565C78.9803 49.1506 78.6458 49.5341 78.4114 50.0071C78.177 50.4801 78.0598 50.9872 78.0598 51.5284V52.3977C78.0598 53.1392 78.1877 53.7678 78.4434 54.2834C78.7033 54.7947 79.0634 55.1847 79.5236 55.4531C79.9838 55.7173 80.5186 55.8494 81.128 55.8494C81.5243 55.8494 81.8823 55.794 82.2019 55.6832C82.5257 55.5682 82.8049 55.3977 83.0392 55.1719C83.2736 54.9418 83.4547 54.6562 83.5826 54.3153L85.04 54.7244C84.8865 55.2188 84.6287 55.6534 84.2665 56.0284C83.9043 56.3991 83.4569 56.6889 82.9242 56.8977C82.3915 57.1023 81.7928 57.2045 81.128 57.2045ZM96.9228 47.1818V48.4602H91.6301V47.1818H96.9228ZM93.2154 57V45.8267C93.2154 45.2642 93.3475 44.7955 93.6117 44.4205C93.8759 44.0455 94.2189 43.7642 94.6408 43.5767C95.0627 43.3892 95.508 43.2955 95.9767 43.2955C96.3475 43.2955 96.65 43.3253 96.8844 43.3849C97.1188 43.4446 97.2935 43.5 97.4086 43.5511L96.9739 44.8551C96.8972 44.8295 96.7907 44.7976 96.6543 44.7592C96.5222 44.7209 96.3475 44.7017 96.1301 44.7017C95.6316 44.7017 95.2715 44.8274 95.0499 45.0788C94.8326 45.3303 94.7239 45.6989 94.7239 46.1847V57H93.2154ZM102.621 57.2045C101.735 57.2045 100.957 56.9936 100.288 56.5717C99.6234 56.1499 99.1035 55.5597 98.7285 54.8011C98.3578 54.0426 98.1724 53.1562 98.1724 52.142C98.1724 51.1193 98.3578 50.2266 98.7285 49.4638C99.1035 48.701 99.6234 48.1087 100.288 47.6868C100.957 47.2649 101.735 47.054 102.621 47.054C103.508 47.054 104.283 47.2649 104.948 47.6868C105.617 48.1087 106.137 48.701 106.508 49.4638C106.883 50.2266 107.07 51.1193 107.07 52.142C107.07 53.1562 106.883 54.0426 106.508 54.8011C106.137 55.5597 105.617 56.1499 104.948 56.5717C104.283 56.9936 103.508 57.2045 102.621 57.2045ZM102.621 55.8494C103.295 55.8494 103.849 55.6768 104.283 55.3317C104.718 54.9865 105.04 54.5327 105.248 53.9702C105.457 53.4077 105.562 52.7983 105.562 52.142C105.562 51.4858 105.457 50.8743 105.248 50.3075C105.04 49.7408 104.718 49.2827 104.283 48.9332C103.849 48.5838 103.295 48.4091 102.621 48.4091C101.948 48.4091 101.394 48.5838 100.959 48.9332C100.525 49.2827 100.203 49.7408 99.9941 50.3075C99.7853 50.8743 99.6809 51.4858 99.6809 52.142C99.6809 52.7983 99.7853 53.4077 99.9941 53.9702C100.203 54.5327 100.525 54.9865 100.959 55.3317C101.394 55.6768 101.948 55.8494 102.621 55.8494ZM110.881 51.0938V57H109.373V47.1818H110.83V48.7159H110.958C111.188 48.2173 111.538 47.8168 112.006 47.5142C112.475 47.2074 113.08 47.054 113.822 47.054C114.487 47.054 115.068 47.1903 115.567 47.4631C116.065 47.7315 116.453 48.1406 116.73 48.6903C117.007 49.2358 117.146 49.9261 117.146 50.7614V57H115.637V50.8636C115.637 50.0923 115.437 49.4915 115.036 49.0611C114.636 48.6264 114.086 48.4091 113.387 48.4091C112.906 48.4091 112.475 48.5135 112.096 48.7223C111.721 48.9311 111.425 49.2358 111.207 49.6364C110.99 50.0369 110.881 50.5227 110.881 51.0938ZM124.172 47.1818V48.4602H119.084V47.1818H124.172ZM120.567 44.8295H122.075V54.1875C122.075 54.6136 122.137 54.9332 122.261 55.1463C122.389 55.3551 122.551 55.4957 122.747 55.5682C122.947 55.6364 123.158 55.6705 123.379 55.6705C123.546 55.6705 123.682 55.6619 123.789 55.6449C123.895 55.6236 123.98 55.6065 124.044 55.5938L124.351 56.9489C124.249 56.9872 124.106 57.0256 123.923 57.0639C123.74 57.1065 123.507 57.1278 123.226 57.1278C122.8 57.1278 122.382 57.0362 121.973 56.853C121.568 56.6697 121.232 56.3906 120.963 56.0156C120.699 55.6406 120.567 55.1676 120.567 54.5966V44.8295ZM135.492 57.2045C134.572 57.2045 133.779 56.9872 133.115 56.5526C132.45 56.1179 131.938 55.5192 131.58 54.7564C131.222 53.9936 131.044 53.1222 131.044 52.142C131.044 51.1449 131.227 50.2649 131.593 49.5021C131.964 48.7351 132.48 48.1364 133.14 47.706C133.805 47.2713 134.58 47.054 135.467 47.054C136.157 47.054 136.779 47.1818 137.333 47.4375C137.887 47.6932 138.341 48.0511 138.695 48.5114C139.048 48.9716 139.268 49.5085 139.353 50.1222H137.845C137.73 49.6747 137.474 49.2784 137.078 48.9332C136.686 48.5838 136.157 48.4091 135.492 48.4091C134.904 48.4091 134.389 48.5625 133.945 48.8693C133.507 49.1719 133.164 49.6001 132.916 50.1541C132.673 50.7038 132.552 51.3494 132.552 52.0909C132.552 52.8494 132.671 53.5099 132.91 54.0724C133.153 54.6349 133.494 55.0717 133.933 55.3828C134.376 55.6939 134.896 55.8494 135.492 55.8494C135.884 55.8494 136.24 55.7812 136.56 55.6449C136.879 55.5085 137.15 55.3125 137.372 55.0568C137.593 54.8011 137.751 54.4943 137.845 54.1364H139.353C139.268 54.7159 139.057 55.2379 138.72 55.7024C138.388 56.1626 137.947 56.5291 137.397 56.8018C136.852 57.0703 136.217 57.2045 135.492 57.2045ZM144.448 57.2301C143.825 57.2301 143.261 57.1129 142.754 56.8786C142.247 56.6399 141.844 56.2969 141.546 55.8494C141.247 55.3977 141.098 54.8523 141.098 54.2131C141.098 53.6506 141.209 53.1946 141.431 52.8452C141.652 52.4915 141.948 52.2145 142.319 52.0142C142.69 51.8139 143.099 51.6648 143.546 51.5668C143.998 51.4645 144.452 51.3835 144.908 51.3239C145.504 51.2472 145.988 51.1896 146.359 51.1513C146.734 51.1087 147.007 51.0384 147.177 50.9403C147.352 50.8423 147.439 50.6719 147.439 50.429V50.3778C147.439 49.7472 147.267 49.2571 146.921 48.9077C146.58 48.5582 146.063 48.3835 145.368 48.3835C144.648 48.3835 144.083 48.5412 143.674 48.8565C143.265 49.1719 142.977 49.5085 142.811 49.8665L141.379 49.3551C141.635 48.7585 141.976 48.294 142.402 47.9616C142.833 47.625 143.301 47.3906 143.808 47.2585C144.32 47.1222 144.823 47.054 145.317 47.054C145.632 47.054 145.994 47.0923 146.404 47.169C146.817 47.2415 147.215 47.3928 147.599 47.6229C147.987 47.853 148.308 48.2003 148.564 48.6648C148.82 49.1293 148.948 49.7514 148.948 50.5312V57H147.439V55.6705H147.362C147.26 55.8835 147.09 56.1115 146.851 56.3544C146.612 56.5973 146.295 56.804 145.899 56.9744C145.502 57.1449 145.019 57.2301 144.448 57.2301ZM144.678 55.875C145.274 55.875 145.777 55.7578 146.186 55.5234C146.6 55.2891 146.911 54.9865 147.119 54.6158C147.333 54.245 147.439 53.8551 147.439 53.446V52.0653C147.375 52.142 147.235 52.2124 147.017 52.2763C146.804 52.3359 146.557 52.3892 146.276 52.4361C145.999 52.4787 145.728 52.517 145.464 52.5511C145.204 52.581 144.993 52.6065 144.831 52.6278C144.439 52.679 144.073 52.7621 143.732 52.8771C143.395 52.9879 143.122 53.1562 142.914 53.3821C142.709 53.6037 142.607 53.9062 142.607 54.2898C142.607 54.8139 142.801 55.2102 143.188 55.4787C143.58 55.7429 144.077 55.875 144.678 55.875ZM151.701 57V47.1818H153.158V48.6648H153.261C153.44 48.179 153.763 47.7848 154.232 47.4822C154.701 47.1797 155.229 47.0284 155.817 47.0284C155.928 47.0284 156.067 47.0305 156.233 47.0348C156.399 47.0391 156.525 47.0455 156.61 47.054V48.5881C156.559 48.5753 156.442 48.5561 156.259 48.5305C156.08 48.5007 155.89 48.4858 155.69 48.4858C155.212 48.4858 154.786 48.5859 154.411 48.7862C154.04 48.9822 153.746 49.255 153.529 49.6044C153.316 49.9496 153.21 50.3437 153.21 50.7869V57H151.701ZM162.216 57.2045C161.27 57.2045 160.454 56.9957 159.768 56.5781C159.086 56.1562 158.56 55.5682 158.189 54.8139C157.822 54.0554 157.639 53.1733 157.639 52.1676C157.639 51.1619 157.822 50.2756 158.189 49.5085C158.56 48.7372 159.075 48.1364 159.736 47.706C160.401 47.2713 161.176 47.054 162.062 47.054C162.574 47.054 163.079 47.1392 163.577 47.3097C164.076 47.4801 164.53 47.7571 164.939 48.1406C165.348 48.5199 165.674 49.0227 165.917 49.6491C166.16 50.2756 166.281 51.0469 166.281 51.9631V52.6023H158.713V51.2983H164.747C164.747 50.7443 164.636 50.25 164.415 49.8153C164.197 49.3807 163.886 49.0376 163.482 48.7862C163.081 48.5348 162.608 48.4091 162.062 48.4091C161.462 48.4091 160.942 48.5582 160.503 48.8565C160.068 49.1506 159.734 49.5341 159.499 50.0071C159.265 50.4801 159.148 50.9872 159.148 51.5284V52.3977C159.148 53.1392 159.276 53.7678 159.531 54.2834C159.791 54.7947 160.151 55.1847 160.612 55.4531C161.072 55.7173 161.607 55.8494 162.216 55.8494C162.612 55.8494 162.97 55.794 163.29 55.6832C163.614 55.5682 163.893 55.3977 164.127 55.1719C164.362 54.9418 164.543 54.6562 164.67 54.3153L166.128 54.7244C165.974 55.2188 165.717 55.6534 165.354 56.0284C164.992 56.3991 164.545 56.6889 164.012 56.8977C163.479 57.1023 162.881 57.2045 162.216 57.2045ZM172.948 47.1818V48.4602H167.656V47.1818H172.948ZM169.241 57V45.8267C169.241 45.2642 169.373 44.7955 169.637 44.4205C169.901 44.0455 170.244 43.7642 170.666 43.5767C171.088 43.3892 171.533 43.2955 172.002 43.2955C172.373 43.2955 172.675 43.3253 172.91 43.3849C173.144 43.4446 173.319 43.5 173.434 43.5511L172.999 44.8551C172.923 44.8295 172.816 44.7976 172.68 44.7592C172.548 44.7209 172.373 44.7017 172.156 44.7017C171.657 44.7017 171.297 44.8274 171.075 45.0788C170.858 45.3303 170.749 45.6989 170.749 46.1847V57H169.241ZM181.25 52.9858V47.1818H182.758V57H181.25V55.3381H181.148C180.917 55.8366 180.559 56.2607 180.074 56.6101C179.588 56.9553 178.974 57.1278 178.233 57.1278C177.619 57.1278 177.074 56.9936 176.596 56.7251C176.119 56.4524 175.744 56.0433 175.471 55.4979C175.199 54.9482 175.062 54.2557 175.062 53.4205V47.1818H176.571V53.3182C176.571 54.0341 176.771 54.6051 177.172 55.0312C177.577 55.4574 178.092 55.6705 178.719 55.6705C179.094 55.6705 179.475 55.5746 179.863 55.3828C180.255 55.1911 180.583 54.897 180.847 54.5007C181.116 54.1044 181.25 53.5994 181.25 52.9858ZM187.03 43.9091V57H185.521V43.9091H187.03ZM191.301 43.9091V57H189.793V43.9091H191.301ZM195.036 60.6818C194.78 60.6818 194.552 60.6605 194.352 60.6179C194.152 60.5795 194.013 60.5412 193.936 60.5028L194.32 59.1733C194.686 59.267 195.01 59.3011 195.292 59.2756C195.573 59.25 195.822 59.1243 196.039 58.8984C196.261 58.6768 196.463 58.3168 196.647 57.8182L196.928 57.0511L193.297 47.1818H194.934L197.644 55.0057H197.746L200.456 47.1818H202.093L197.925 58.4318C197.738 58.9389 197.505 59.3587 197.228 59.6911C196.951 60.0277 196.63 60.277 196.263 60.4389C195.901 60.6009 195.492 60.6818 195.036 60.6818ZM213.135 57.2045C212.214 57.2045 211.422 56.9872 210.757 56.5526C210.092 56.1179 209.581 55.5192 209.223 54.7564C208.865 53.9936 208.686 53.1222 208.686 52.142C208.686 51.1449 208.869 50.2649 209.236 49.5021C209.607 48.7351 210.122 48.1364 210.783 47.706C211.447 47.2713 212.223 47.054 213.109 47.054C213.8 47.054 214.422 47.1818 214.976 47.4375C215.53 47.6932 215.984 48.0511 216.337 48.5114C216.691 48.9716 216.911 49.5085 216.996 50.1222H215.487C215.372 49.6747 215.116 49.2784 214.72 48.9332C214.328 48.5838 213.8 48.4091 213.135 48.4091C212.547 48.4091 212.031 48.5625 211.588 48.8693C211.149 49.1719 210.806 49.6001 210.559 50.1541C210.316 50.7038 210.195 51.3494 210.195 52.0909C210.195 52.8494 210.314 53.5099 210.553 54.0724C210.795 54.6349 211.136 55.0717 211.575 55.3828C212.018 55.6939 212.538 55.8494 213.135 55.8494C213.527 55.8494 213.883 55.7812 214.202 55.6449C214.522 55.5085 214.793 55.3125 215.014 55.0568C215.236 54.8011 215.393 54.4943 215.487 54.1364H216.996C216.911 54.7159 216.7 55.2379 216.363 55.7024C216.031 56.1626 215.589 56.5291 215.04 56.8018C214.494 57.0703 213.859 57.2045 213.135 57.2045ZM219.201 57V47.1818H220.658V48.6648H220.761C220.94 48.179 221.263 47.7848 221.732 47.4822C222.201 47.1797 222.729 47.0284 223.317 47.0284C223.428 47.0284 223.567 47.0305 223.733 47.0348C223.899 47.0391 224.025 47.0455 224.11 47.054V48.5881C224.059 48.5753 223.942 48.5561 223.759 48.5305C223.58 48.5007 223.39 48.4858 223.19 48.4858C222.712 48.4858 222.286 48.5859 221.911 48.7862C221.54 48.9822 221.246 49.255 221.029 49.6044C220.816 49.9496 220.71 50.3437 220.71 50.7869V57H219.201ZM228.787 57.2301C228.165 57.2301 227.601 57.1129 227.094 56.8786C226.586 56.6399 226.184 56.2969 225.885 55.8494C225.587 55.3977 225.438 54.8523 225.438 54.2131C225.438 53.6506 225.549 53.1946 225.77 52.8452C225.992 52.4915 226.288 52.2145 226.659 52.0142C227.03 51.8139 227.439 51.6648 227.886 51.5668C228.338 51.4645 228.792 51.3835 229.248 51.3239C229.844 51.2472 230.328 51.1896 230.699 51.1513C231.074 51.1087 231.346 51.0384 231.517 50.9403C231.692 50.8423 231.779 50.6719 231.779 50.429V50.3778C231.779 49.7472 231.606 49.2571 231.261 48.9077C230.92 48.5582 230.403 48.3835 229.708 48.3835C228.988 48.3835 228.423 48.5412 228.014 48.8565C227.605 49.1719 227.317 49.5085 227.151 49.8665L225.719 49.3551C225.975 48.7585 226.316 48.294 226.742 47.9616C227.172 47.625 227.641 47.3906 228.148 47.2585C228.66 47.1222 229.162 47.054 229.657 47.054C229.972 47.054 230.334 47.0923 230.743 47.169C231.157 47.2415 231.555 47.3928 231.939 47.6229C232.327 47.853 232.648 48.2003 232.904 48.6648C233.16 49.1293 233.287 49.7514 233.287 50.5312V57H231.779V55.6705H231.702C231.6 55.8835 231.43 56.1115 231.191 56.3544C230.952 56.5973 230.635 56.804 230.238 56.9744C229.842 57.1449 229.358 57.2301 228.787 57.2301ZM229.018 55.875C229.614 55.875 230.117 55.7578 230.526 55.5234C230.939 55.2891 231.251 54.9865 231.459 54.6158C231.672 54.245 231.779 53.8551 231.779 53.446V52.0653C231.715 52.142 231.574 52.2124 231.357 52.2763C231.144 52.3359 230.897 52.3892 230.616 52.4361C230.339 52.4787 230.068 52.517 229.804 52.5511C229.544 52.581 229.333 52.6065 229.171 52.6278C228.779 52.679 228.412 52.7621 228.072 52.8771C227.735 52.9879 227.462 53.1562 227.253 53.3821C227.049 53.6037 226.947 53.9062 226.947 54.2898C226.947 54.8139 227.14 55.2102 227.528 55.4787C227.92 55.7429 228.417 55.875 229.018 55.875ZM240.413 47.1818V48.4602H235.12V47.1818H240.413ZM236.706 57V45.8267C236.706 45.2642 236.838 44.7955 237.102 44.4205C237.366 44.0455 237.709 43.7642 238.131 43.5767C238.553 43.3892 238.998 43.2955 239.467 43.2955C239.838 43.2955 240.14 43.3253 240.375 43.3849C240.609 43.4446 240.784 43.5 240.899 43.5511L240.464 44.8551C240.387 44.8295 240.281 44.7976 240.145 44.7592C240.012 44.7209 239.838 44.7017 239.62 44.7017C239.122 44.7017 238.762 44.8274 238.54 45.0788C238.323 45.3303 238.214 45.6989 238.214 46.1847V57H236.706ZM246.797 47.1818V48.4602H241.709V47.1818H246.797ZM243.192 44.8295H244.7V54.1875C244.7 54.6136 244.762 54.9332 244.886 55.1463C245.014 55.3551 245.176 55.4957 245.372 55.5682C245.572 55.6364 245.783 55.6705 246.004 55.6705C246.171 55.6705 246.307 55.6619 246.414 55.6449C246.52 55.6236 246.605 55.6065 246.669 55.5938L246.976 56.9489C246.874 56.9872 246.731 57.0256 246.548 57.0639C246.365 57.1065 246.132 57.1278 245.851 57.1278C245.425 57.1278 245.007 57.0362 244.598 56.853C244.193 56.6697 243.857 56.3906 243.588 56.0156C243.324 55.6406 243.192 55.1676 243.192 54.5966V44.8295ZM253.077 57.2045C252.131 57.2045 251.315 56.9957 250.629 56.5781C249.947 56.1562 249.421 55.5682 249.05 54.8139C248.684 54.0554 248.501 53.1733 248.501 52.1676C248.501 51.1619 248.684 50.2756 249.05 49.5085C249.421 48.7372 249.937 48.1364 250.597 47.706C251.262 47.2713 252.037 47.054 252.924 47.054C253.435 47.054 253.94 47.1392 254.439 47.3097C254.937 47.4801 255.391 47.7571 255.8 48.1406C256.209 48.5199 256.535 49.0227 256.778 49.6491C257.021 50.2756 257.143 51.0469 257.143 51.9631V52.6023H249.574V51.2983H255.608C255.608 50.7443 255.498 50.25 255.276 49.8153C255.059 49.3807 254.748 49.0376 254.343 48.7862C253.942 48.5348 253.469 48.4091 252.924 48.4091C252.323 48.4091 251.803 48.5582 251.364 48.8565C250.93 49.1506 250.595 49.5341 250.361 50.0071C250.126 50.4801 250.009 50.9872 250.009 51.5284V52.3977C250.009 53.1392 250.137 53.7678 250.393 54.2834C250.653 54.7947 251.013 55.1847 251.473 55.4531C251.933 55.7173 252.468 55.8494 253.077 55.8494C253.474 55.8494 253.831 55.794 254.151 55.6832C254.475 55.5682 254.754 55.3977 254.988 55.1719C255.223 54.9418 255.404 54.6562 255.532 54.3153L256.989 54.7244C256.836 55.2188 256.578 55.6534 256.216 56.0284C255.854 56.3991 255.406 56.6889 254.873 56.8977C254.341 57.1023 253.742 57.2045 253.077 57.2045ZM263.145 57.2045C262.327 57.2045 261.604 56.9979 260.978 56.5845C260.351 56.1669 259.861 55.5788 259.508 54.8203C259.154 54.0575 258.977 53.1562 258.977 52.1165C258.977 51.0852 259.154 50.1903 259.508 49.4318C259.861 48.6733 260.354 48.0874 260.984 47.674C261.615 47.2607 262.344 47.054 263.17 47.054C263.809 47.054 264.314 47.1605 264.685 47.3736C265.06 47.5824 265.346 47.821 265.542 48.0895C265.742 48.3537 265.898 48.571 266.008 48.7415H266.136V43.9091H267.645V57H266.187V55.4915H266.008C265.898 55.6705 265.74 55.8963 265.535 56.169C265.331 56.4375 265.039 56.6783 264.66 56.8913C264.28 57.1001 263.775 57.2045 263.145 57.2045ZM263.349 55.8494C263.954 55.8494 264.466 55.6918 264.883 55.3764C265.301 55.0568 265.618 54.6158 265.836 54.0533C266.053 53.4865 266.162 52.8324 266.162 52.0909C266.162 51.358 266.055 50.7166 265.842 50.1669C265.629 49.6129 265.314 49.1825 264.896 48.8757C264.479 48.5646 263.963 48.4091 263.349 48.4091C262.71 48.4091 262.177 48.5732 261.751 48.9013C261.329 49.2251 261.012 49.6662 260.799 50.2244C260.59 50.7784 260.486 51.4006 260.486 52.0909C260.486 52.7898 260.592 53.4247 260.805 53.9957C261.023 54.5625 261.342 55.0142 261.764 55.3509C262.19 55.6832 262.719 55.8494 263.349 55.8494ZM9.08807 85.179C8.22727 85.179 7.4858 85.0213 6.86364 84.706C6.24148 84.3906 5.76207 83.9581 5.42543 83.4084C5.08878 82.8587 4.92045 82.2301 4.92045 81.5227C4.92045 80.9773 5.03551 80.4936 5.26562 80.0717C5.5 79.6456 5.82173 79.2514 6.23082 78.8892C6.64418 78.5227 7.11932 78.1562 7.65625 77.7898L9.5483 76.3835C9.91903 76.1406 10.2152 75.8807 10.4368 75.6037C10.6626 75.3267 10.7756 74.9645 10.7756 74.517C10.7756 74.1847 10.6286 73.8629 10.3345 73.5518C10.0447 73.2408 9.66335 73.0852 9.19034 73.0852C8.85795 73.0852 8.56392 73.1705 8.30824 73.3409C8.05682 73.5071 7.85866 73.7202 7.71378 73.9801C7.57315 74.2358 7.50284 74.5 7.50284 74.7727C7.50284 75.0795 7.58594 75.3906 7.75213 75.706C7.92259 76.017 8.13778 76.3366 8.39773 76.6648C8.66193 76.9886 8.93466 77.321 9.21591 77.6619L15.2244 85H13.4091L8.44886 79.017C7.98864 78.4631 7.57102 77.9602 7.19602 77.5085C6.82102 77.0568 6.52273 76.6115 6.30114 76.1726C6.07955 75.7337 5.96875 75.2585 5.96875 74.7472C5.96875 74.1591 6.09872 73.6435 6.35866 73.2003C6.62287 72.7528 6.99148 72.4055 7.46449 72.1584C7.94176 71.907 8.5 71.7812 9.1392 71.7812C9.79545 71.7812 10.3601 71.9091 10.8331 72.1648C11.3061 72.4162 11.6705 72.7507 11.9261 73.1683C12.1818 73.5817 12.3097 74.0312 12.3097 74.517C12.3097 75.1435 12.1541 75.6868 11.843 76.147C11.532 76.6072 11.108 77.0355 10.571 77.4318L7.96307 79.375C7.375 79.8097 6.97656 80.2315 6.76776 80.6406C6.55895 81.0497 6.45455 81.3437 6.45455 81.5227C6.45455 81.9318 6.56108 82.3132 6.77415 82.6669C6.98722 83.0206 7.28764 83.3061 7.67543 83.5234C8.06321 83.7408 8.51705 83.8494 9.03693 83.8494C9.53125 83.8494 10.0128 83.745 10.4815 83.5362C10.9503 83.3232 11.3743 83.0163 11.7536 82.6158C12.1371 82.2152 12.4396 81.7337 12.6612 81.1712C12.8871 80.6087 13 79.9759 13 79.2727H14.4574C14.4574 80.142 14.3572 80.8516 14.157 81.4013C13.9567 81.951 13.7308 82.3814 13.4794 82.6925C13.228 83.0036 13.0256 83.2358 12.8722 83.3892C12.821 83.4531 12.7741 83.517 12.7315 83.581C12.6889 83.6449 12.642 83.7088 12.5909 83.7727C12.169 84.2457 11.6364 84.5994 10.9929 84.8338C10.3494 85.0639 9.71449 85.179 9.08807 85.179ZM25.6642 85.2045C24.8461 85.2045 24.1238 84.9979 23.4973 84.5845C22.8709 84.1669 22.3809 83.5788 22.0272 82.8203C21.6735 82.0575 21.4966 81.1562 21.4966 80.1165C21.4966 79.0852 21.6735 78.1903 22.0272 77.4318C22.3809 76.6733 22.873 76.0874 23.5037 75.674C24.1344 75.2607 24.8631 75.054 25.6898 75.054C26.329 75.054 26.834 75.1605 27.2047 75.3736C27.5797 75.5824 27.8652 75.821 28.0613 76.0895C28.2615 76.3537 28.4171 76.571 28.5279 76.7415H28.6557V71.9091H30.1642V85H28.7069V83.4915H28.5279C28.4171 83.6705 28.2594 83.8963 28.0549 84.169C27.8503 84.4375 27.5584 84.6783 27.1792 84.8913C26.7999 85.1001 26.2949 85.2045 25.6642 85.2045ZM25.8688 83.8494C26.4739 83.8494 26.9853 83.6918 27.4029 83.3764C27.8205 83.0568 28.138 82.6158 28.3553 82.0533C28.5726 81.4865 28.6813 80.8324 28.6813 80.0909C28.6813 79.358 28.5748 78.7166 28.3617 78.1669C28.1486 77.6129 27.8333 77.1825 27.4157 76.8757C26.998 76.5646 26.4824 76.4091 25.8688 76.4091C25.2296 76.4091 24.6969 76.5732 24.2708 76.9013C23.8489 77.2251 23.5314 77.6662 23.3184 78.2244C23.1096 78.7784 23.0051 79.4006 23.0051 80.0909C23.0051 80.7898 23.1117 81.4247 23.3248 81.9957C23.5421 82.5625 23.8617 83.0142 24.2836 83.3509C24.7097 83.6832 25.2381 83.8494 25.8688 83.8494ZM37.253 85.2045C36.307 85.2045 35.4909 84.9957 34.8049 84.5781C34.123 84.1562 33.5968 83.5682 33.226 82.8139C32.8596 82.0554 32.6763 81.1733 32.6763 80.1676C32.6763 79.1619 32.8596 78.2756 33.226 77.5085C33.5968 76.7372 34.1124 76.1364 34.7729 75.706C35.4377 75.2713 36.2132 75.054 37.0996 75.054C37.611 75.054 38.1159 75.1392 38.6145 75.3097C39.1131 75.4801 39.5669 75.7571 39.976 76.1406C40.3851 76.5199 40.7111 77.0227 40.954 77.6491C41.1969 78.2756 41.3184 79.0469 41.3184 79.9631V80.6023H33.7502V79.2983H39.7843C39.7843 78.7443 39.6735 78.25 39.4519 77.8153C39.2346 77.3807 38.9235 77.0376 38.5186 76.7862C38.1181 76.5348 37.6451 76.4091 37.0996 76.4091C36.4988 76.4091 35.9789 76.5582 35.54 76.8565C35.1053 77.1506 34.7708 77.5341 34.5364 78.0071C34.302 78.4801 34.1848 78.9872 34.1848 79.5284V80.3977C34.1848 81.1392 34.3127 81.7678 34.5684 82.2834C34.8283 82.7947 35.1884 83.1847 35.6486 83.4531C36.1088 83.7173 36.6436 83.8494 37.253 83.8494C37.6493 83.8494 38.0073 83.794 38.3269 83.6832C38.6507 83.5682 38.9299 83.3977 39.1642 83.1719C39.3986 82.9418 39.5797 82.6562 39.7076 82.3153L41.165 82.7244C41.0115 83.2188 40.7537 83.6534 40.3915 84.0284C40.0293 84.3991 39.5819 84.6889 39.0492 84.8977C38.5165 85.1023 37.9178 85.2045 37.253 85.2045ZM50.5676 77.3807L49.2125 77.7642C49.1273 77.5384 49.0016 77.3189 48.8354 77.1058C48.6735 76.8885 48.4519 76.7095 48.1706 76.5689C47.8894 76.4283 47.5293 76.358 47.0904 76.358C46.4895 76.358 45.9888 76.4964 45.5882 76.7734C45.1919 77.0462 44.9938 77.3935 44.9938 77.8153C44.9938 78.1903 45.1301 78.4865 45.4029 78.7038C45.6756 78.9212 46.1017 79.1023 46.6813 79.2472L48.1387 79.6051C49.0165 79.8182 49.6706 80.1442 50.101 80.5831C50.5314 81.0178 50.7466 81.5781 50.7466 82.2642C50.7466 82.8267 50.5847 83.3295 50.2608 83.7727C49.9412 84.2159 49.4938 84.5653 48.9185 84.821C48.3432 85.0767 47.6742 85.2045 46.9114 85.2045C45.91 85.2045 45.0811 84.9872 44.4249 84.5526C43.7686 84.1179 43.3532 83.483 43.1784 82.6477L44.6103 82.2898C44.7466 82.8182 45.0044 83.2145 45.3837 83.4787C45.7672 83.7429 46.2679 83.875 46.8858 83.875C47.589 83.875 48.1472 83.7259 48.5605 83.4276C48.9782 83.125 49.187 82.7628 49.187 82.3409C49.187 82 49.0676 81.7145 48.829 81.4844C48.5904 81.25 48.2239 81.0753 47.7296 80.9602L46.0932 80.5767C45.1941 80.3636 44.5336 80.0334 44.1117 79.5859C43.6941 79.1342 43.4853 78.5696 43.4853 77.892C43.4853 77.3381 43.6408 76.848 43.9519 76.4219C44.2672 75.9957 44.6955 75.6612 45.2367 75.4183C45.7821 75.1754 46.4 75.054 47.0904 75.054C48.062 75.054 48.8248 75.267 49.3787 75.6932C49.937 76.1193 50.3333 76.6818 50.5676 77.3807ZM53.0174 85V75.1818H54.5259V85H53.0174ZM53.7844 73.5455C53.4904 73.5455 53.2369 73.4453 53.0238 73.245C52.815 73.0447 52.7106 72.804 52.7106 72.5227C52.7106 72.2415 52.815 72.0007 53.0238 71.8004C53.2369 71.6001 53.4904 71.5 53.7844 71.5C54.0785 71.5 54.3299 71.6001 54.5387 71.8004C54.7518 72.0007 54.8583 72.2415 54.8583 72.5227C54.8583 72.804 54.7518 73.0447 54.5387 73.245C54.3299 73.4453 54.0785 73.5455 53.7844 73.5455ZM61.252 88.8864C60.5233 88.8864 59.8968 88.7926 59.3727 88.6051C58.8485 88.4219 58.4118 88.179 58.0623 87.8764C57.7172 87.5781 57.4423 87.2585 57.2377 86.9176L58.4395 86.0739C58.5758 86.2528 58.7484 86.4574 58.9572 86.6875C59.166 86.9219 59.4515 87.1243 59.8137 87.2947C60.1802 87.4695 60.6596 87.5568 61.252 87.5568C62.0446 87.5568 62.6987 87.3651 63.2143 86.9815C63.7299 86.598 63.9877 85.9972 63.9877 85.179V83.1847H63.8599C63.7491 83.3636 63.5914 83.5852 63.3869 83.8494C63.1866 84.1094 62.8968 84.3416 62.5176 84.5462C62.1426 84.7464 61.6355 84.8466 60.9963 84.8466C60.2037 84.8466 59.492 84.6591 58.8613 84.2841C58.2349 83.9091 57.7385 83.3636 57.372 82.6477C57.0098 81.9318 56.8287 81.0625 56.8287 80.0398C56.8287 79.0341 57.0055 78.1584 57.3592 77.4126C57.7129 76.6626 58.2051 76.0831 58.8358 75.674C59.4664 75.2607 60.1951 75.054 61.0218 75.054C61.661 75.054 62.1681 75.1605 62.5431 75.3736C62.9224 75.5824 63.2122 75.821 63.4125 76.0895C63.617 76.3537 63.7747 76.571 63.8855 76.7415H64.0389V75.1818H65.4963V85.2812C65.4963 86.125 65.3045 86.8111 64.921 87.3395C64.5417 87.8722 64.0304 88.2621 63.3869 88.5092C62.7477 88.7607 62.036 88.8864 61.252 88.8864ZM61.2008 83.4915C61.8059 83.4915 62.3173 83.353 62.7349 83.076C63.1525 82.799 63.47 82.4006 63.6873 81.8807C63.9047 81.3608 64.0133 80.7386 64.0133 80.0142C64.0133 79.3068 63.9068 78.6825 63.6937 78.1413C63.4806 77.6001 63.1653 77.1761 62.7477 76.8693C62.3301 76.5625 61.8145 76.4091 61.2008 76.4091C60.5616 76.4091 60.0289 76.571 59.6028 76.8949C59.1809 77.2187 58.8635 77.6534 58.6504 78.1989C58.4416 78.7443 58.3372 79.3494 58.3372 80.0142C58.3372 80.696 58.4437 81.299 58.6568 81.8232C58.8741 82.343 59.1937 82.7521 59.6156 83.0504C60.0417 83.3445 60.5701 83.4915 61.2008 83.4915ZM69.7662 79.0938V85H68.2576V75.1818H69.715V76.7159H69.8429C70.073 76.2173 70.4224 75.8168 70.8912 75.5142C71.3599 75.2074 71.965 75.054 72.7065 75.054C73.3713 75.054 73.9529 75.1903 74.4515 75.4631C74.9501 75.7315 75.3379 76.1406 75.6149 76.6903C75.8919 77.2358 76.0304 77.9261 76.0304 78.7614V85H74.5218V78.8636C74.5218 78.0923 74.3216 77.4915 73.921 77.0611C73.5204 76.6264 72.9707 76.4091 72.2718 76.4091C71.7903 76.4091 71.3599 76.5135 70.9806 76.7223C70.6056 76.9311 70.3095 77.2358 70.0922 77.6364C69.8748 78.0369 69.7662 78.5227 69.7662 79.0938ZM82.9034 85.2045C81.9574 85.2045 81.1413 84.9957 80.4553 84.5781C79.7734 84.1562 79.2472 83.5682 78.8764 82.8139C78.5099 82.0554 78.3267 81.1733 78.3267 80.1676C78.3267 79.1619 78.5099 78.2756 78.8764 77.5085C79.2472 76.7372 79.7628 76.1364 80.4233 75.706C81.0881 75.2713 81.8636 75.054 82.75 75.054C83.2614 75.054 83.7663 75.1392 84.2649 75.3097C84.7635 75.4801 85.2173 75.7571 85.6264 76.1406C86.0355 76.5199 86.3615 77.0227 86.6044 77.6491C86.8473 78.2756 86.9688 79.0469 86.9688 79.9631V80.6023H79.4006V79.2983H85.4347C85.4347 78.7443 85.3239 78.25 85.1023 77.8153C84.8849 77.3807 84.5739 77.0376 84.169 76.7862C83.7685 76.5348 83.2955 76.4091 82.75 76.4091C82.1491 76.4091 81.6293 76.5582 81.1903 76.8565C80.7557 77.1506 80.4212 77.5341 80.1868 78.0071C79.9524 78.4801 79.8352 78.9872 79.8352 79.5284V80.3977C79.8352 81.1392 79.9631 81.7678 80.2188 82.2834C80.4787 82.7947 80.8388 83.1847 81.299 83.4531C81.7592 83.7173 82.294 83.8494 82.9034 83.8494C83.2997 83.8494 83.6577 83.794 83.9773 83.6832C84.3011 83.5682 84.5803 83.3977 84.8146 83.1719C85.049 82.9418 85.2301 82.6562 85.358 82.3153L86.8153 82.7244C86.6619 83.2188 86.4041 83.6534 86.0419 84.0284C85.6797 84.3991 85.2322 84.6889 84.6996 84.8977C84.1669 85.1023 83.5682 85.2045 82.9034 85.2045ZM92.9709 85.2045C92.1527 85.2045 91.4304 84.9979 90.804 84.5845C90.1776 84.1669 89.6875 83.5788 89.3338 82.8203C88.9801 82.0575 88.8033 81.1562 88.8033 80.1165C88.8033 79.0852 88.9801 78.1903 89.3338 77.4318C89.6875 76.6733 90.1797 76.0874 90.8104 75.674C91.4411 75.2607 92.1697 75.054 92.9964 75.054C93.6357 75.054 94.1406 75.1605 94.5114 75.3736C94.8864 75.5824 95.1719 75.821 95.3679 76.0895C95.5682 76.3537 95.7237 76.571 95.8345 76.7415H95.9624V71.9091H97.4709V85H96.0135V83.4915H95.8345C95.7237 83.6705 95.5661 83.8963 95.3615 84.169C95.157 84.4375 94.8651 84.6783 94.4858 84.8913C94.1065 85.1001 93.6016 85.2045 92.9709 85.2045ZM93.1754 83.8494C93.7805 83.8494 94.2919 83.6918 94.7095 83.3764C95.1271 83.0568 95.4446 82.6158 95.6619 82.0533C95.8793 81.4865 95.9879 80.8324 95.9879 80.0909C95.9879 79.358 95.8814 78.7166 95.6683 78.1669C95.4553 77.6129 95.1399 77.1825 94.7223 76.8757C94.3047 76.5646 93.7891 76.4091 93.1754 76.4091C92.5362 76.4091 92.0036 76.5732 91.5774 76.9013C91.1555 77.2251 90.8381 77.6662 90.625 78.2244C90.4162 78.7784 90.3118 79.4006 90.3118 80.0909C90.3118 80.7898 90.4183 81.4247 90.6314 81.9957C90.8487 82.5625 91.1683 83.0142 91.5902 83.3509C92.0163 83.6832 92.5447 83.8494 93.1754 83.8494ZM109.878 75.1818V76.4602H104.585V75.1818H109.878ZM106.17 85V73.8267C106.17 73.2642 106.303 72.7955 106.567 72.4205C106.831 72.0455 107.174 71.7642 107.596 71.5767C108.018 71.3892 108.463 71.2955 108.932 71.2955C109.303 71.2955 109.605 71.3253 109.839 71.3849C110.074 71.4446 110.249 71.5 110.364 71.5511L109.929 72.8551C109.852 72.8295 109.746 72.7976 109.609 72.7592C109.477 72.7209 109.303 72.7017 109.085 72.7017C108.587 72.7017 108.227 72.8274 108.005 73.0788C107.788 73.3303 107.679 73.6989 107.679 74.1847V85H106.17ZM115.576 85.2045C114.69 85.2045 113.912 84.9936 113.243 84.5717C112.578 84.1499 112.059 83.5597 111.684 82.8011C111.313 82.0426 111.127 81.1562 111.127 80.142C111.127 79.1193 111.313 78.2266 111.684 77.4638C112.059 76.701 112.578 76.1087 113.243 75.6868C113.912 75.2649 114.69 75.054 115.576 75.054C116.463 75.054 117.238 75.2649 117.903 75.6868C118.572 76.1087 119.092 76.701 119.463 77.4638C119.838 78.2266 120.025 79.1193 120.025 80.142C120.025 81.1562 119.838 82.0426 119.463 82.8011C119.092 83.5597 118.572 84.1499 117.903 84.5717C117.238 84.9936 116.463 85.2045 115.576 85.2045ZM115.576 83.8494C116.25 83.8494 116.804 83.6768 117.238 83.3317C117.673 82.9865 117.995 82.5327 118.203 81.9702C118.412 81.4077 118.517 80.7983 118.517 80.142C118.517 79.4858 118.412 78.8743 118.203 78.3075C117.995 77.7408 117.673 77.2827 117.238 76.9332C116.804 76.5838 116.25 76.4091 115.576 76.4091C114.903 76.4091 114.349 76.5838 113.914 76.9332C113.48 77.2827 113.158 77.7408 112.949 78.3075C112.74 78.8743 112.636 79.4858 112.636 80.142C112.636 80.7983 112.74 81.4077 112.949 81.9702C113.158 82.5327 113.48 82.9865 113.914 83.3317C114.349 83.6768 114.903 83.8494 115.576 83.8494ZM122.328 85V75.1818H123.785V76.6648H123.888C124.067 76.179 124.39 75.7848 124.859 75.4822C125.328 75.1797 125.856 75.0284 126.444 75.0284C126.555 75.0284 126.694 75.0305 126.86 75.0348C127.026 75.0391 127.152 75.0455 127.237 75.054V76.5881C127.186 76.5753 127.069 76.5561 126.885 76.5305C126.706 76.5007 126.517 76.4858 126.317 76.4858C125.839 76.4858 125.413 76.5859 125.038 76.7862C124.667 76.9822 124.373 77.255 124.156 77.6044C123.943 77.9496 123.836 78.3437 123.836 78.7869V85H122.328ZM138.076 85.2045C137.156 85.2045 136.363 84.9872 135.699 84.5526C135.034 84.1179 134.522 83.5192 134.164 82.7564C133.806 81.9936 133.627 81.1222 133.627 80.142C133.627 79.1449 133.811 78.2649 134.177 77.5021C134.548 76.7351 135.064 76.1364 135.724 75.706C136.389 75.2713 137.164 75.054 138.051 75.054C138.741 75.054 139.363 75.1818 139.917 75.4375C140.471 75.6932 140.925 76.0511 141.279 76.5114C141.632 76.9716 141.852 77.5085 141.937 78.1222H140.429C140.314 77.6747 140.058 77.2784 139.662 76.9332C139.27 76.5838 138.741 76.4091 138.076 76.4091C137.488 76.4091 136.973 76.5625 136.529 76.8693C136.091 77.1719 135.748 77.6001 135.5 78.1541C135.257 78.7038 135.136 79.3494 135.136 80.0909C135.136 80.8494 135.255 81.5099 135.494 82.0724C135.737 82.6349 136.078 83.0717 136.517 83.3828C136.96 83.6939 137.48 83.8494 138.076 83.8494C138.468 83.8494 138.824 83.7812 139.144 83.6449C139.463 83.5085 139.734 83.3125 139.956 83.0568C140.177 82.8011 140.335 82.4943 140.429 82.1364H141.937C141.852 82.7159 141.641 83.2379 141.304 83.7024C140.972 84.1626 140.531 84.5291 139.981 84.8018C139.436 85.0703 138.801 85.2045 138.076 85.2045ZM148.131 85.2045C147.245 85.2045 146.467 84.9936 145.798 84.5717C145.133 84.1499 144.613 83.5597 144.238 82.8011C143.868 82.0426 143.682 81.1562 143.682 80.142C143.682 79.1193 143.868 78.2266 144.238 77.4638C144.613 76.701 145.133 76.1087 145.798 75.6868C146.467 75.2649 147.245 75.054 148.131 75.054C149.017 75.054 149.793 75.2649 150.458 75.6868C151.127 76.1087 151.647 76.701 152.017 77.4638C152.392 78.2266 152.58 79.1193 152.58 80.142C152.58 81.1562 152.392 82.0426 152.017 82.8011C151.647 83.5597 151.127 84.1499 150.458 84.5717C149.793 84.9936 149.017 85.2045 148.131 85.2045ZM148.131 83.8494C148.804 83.8494 149.358 83.6768 149.793 83.3317C150.228 82.9865 150.549 82.5327 150.758 81.9702C150.967 81.4077 151.071 80.7983 151.071 80.142C151.071 79.4858 150.967 78.8743 150.758 78.3075C150.549 77.7408 150.228 77.2827 149.793 76.9332C149.358 76.5838 148.804 76.4091 148.131 76.4091C147.458 76.4091 146.904 76.5838 146.469 76.9332C146.034 77.2827 145.713 77.7408 145.504 78.3075C145.295 78.8743 145.191 79.4858 145.191 80.142C145.191 80.7983 145.295 81.4077 145.504 81.9702C145.713 82.5327 146.034 82.9865 146.469 83.3317C146.904 83.6768 147.458 83.8494 148.131 83.8494ZM154.883 85V75.1818H156.34V76.7159H156.468C156.672 76.1918 157.003 75.7848 157.459 75.495C157.915 75.201 158.462 75.054 159.101 75.054C159.749 75.054 160.288 75.201 160.719 75.495C161.153 75.7848 161.492 76.1918 161.735 76.7159H161.837C162.089 76.2088 162.466 75.8061 162.969 75.5078C163.471 75.2053 164.074 75.054 164.778 75.054C165.655 75.054 166.373 75.3288 166.932 75.8786C167.49 76.424 167.769 77.2741 167.769 78.429V85H166.26V78.429C166.26 77.7045 166.062 77.1868 165.666 76.8757C165.27 76.5646 164.803 76.4091 164.266 76.4091C163.576 76.4091 163.041 76.6179 162.662 77.0355C162.282 77.4489 162.093 77.973 162.093 78.608V85H160.559V78.2756C160.559 77.7173 160.378 77.2678 160.015 76.9268C159.653 76.5817 159.187 76.4091 158.616 76.4091C158.224 76.4091 157.857 76.5135 157.516 76.7223C157.18 76.9311 156.907 77.2209 156.698 77.5916C156.493 77.9581 156.391 78.3821 156.391 78.8636V85H154.883ZM170.527 88.6818V75.1818H171.985V76.7415H172.164C172.274 76.571 172.428 76.3537 172.624 76.0895C172.824 75.821 173.11 75.5824 173.48 75.3736C173.855 75.1605 174.362 75.054 175.002 75.054C175.828 75.054 176.557 75.2607 177.188 75.674C177.818 76.0874 178.311 76.6733 178.664 77.4318C179.018 78.1903 179.195 79.0852 179.195 80.1165C179.195 81.1562 179.018 82.0575 178.664 82.8203C178.311 83.5788 177.82 84.1669 177.194 84.5845C176.568 84.9979 175.845 85.2045 175.027 85.2045C174.396 85.2045 173.892 85.1001 173.512 84.8913C173.133 84.6783 172.841 84.4375 172.637 84.169C172.432 83.8963 172.274 83.6705 172.164 83.4915H172.036V88.6818H170.527ZM172.01 80.0909C172.01 80.8324 172.119 81.4865 172.336 82.0533C172.553 82.6158 172.871 83.0568 173.289 83.3764C173.706 83.6918 174.218 83.8494 174.823 83.8494C175.453 83.8494 175.98 83.6832 176.401 83.3509C176.828 83.0142 177.147 82.5625 177.36 81.9957C177.578 81.4247 177.686 80.7898 177.686 80.0909C177.686 79.4006 177.58 78.7784 177.367 78.2244C177.158 77.6662 176.84 77.2251 176.414 76.9013C175.992 76.5732 175.462 76.4091 174.823 76.4091C174.209 76.4091 173.693 76.5646 173.276 76.8757C172.858 77.1825 172.543 77.6129 172.33 78.1669C172.117 78.7166 172.01 79.358 172.01 80.0909ZM187.683 80.9858V75.1818H189.192V85H187.683V83.3381H187.581C187.351 83.8366 186.993 84.2607 186.507 84.6101C186.021 84.9553 185.408 85.1278 184.666 85.1278C184.053 85.1278 183.507 84.9936 183.03 84.7251C182.553 84.4524 182.178 84.0433 181.905 83.4979C181.632 82.9482 181.496 82.2557 181.496 81.4205V75.1818H183.004V81.3182C183.004 82.0341 183.205 82.6051 183.605 83.0312C184.01 83.4574 184.526 83.6705 185.152 83.6705C185.527 83.6705 185.909 83.5746 186.296 83.3828C186.688 83.1911 187.017 82.897 187.281 82.5007C187.549 82.1044 187.683 81.5994 187.683 80.9858ZM196.225 75.1818V76.4602H191.137V75.1818H196.225ZM192.62 72.8295H194.128V82.1875C194.128 82.6136 194.19 82.9332 194.314 83.1463C194.441 83.3551 194.603 83.4957 194.799 83.5682C195 83.6364 195.211 83.6705 195.432 83.6705C195.598 83.6705 195.735 83.6619 195.841 83.6449C195.948 83.6236 196.033 83.6065 196.097 83.5938L196.404 84.9489C196.301 84.9872 196.159 85.0256 195.975 85.0639C195.792 85.1065 195.56 85.1278 195.279 85.1278C194.853 85.1278 194.435 85.0362 194.026 84.853C193.621 84.6697 193.284 84.3906 193.016 84.0156C192.752 83.6406 192.62 83.1676 192.62 82.5966V72.8295ZM202.505 85.2045C201.559 85.2045 200.743 84.9957 200.057 84.5781C199.375 84.1562 198.849 83.5682 198.478 82.8139C198.112 82.0554 197.928 81.1733 197.928 80.1676C197.928 79.1619 198.112 78.2756 198.478 77.5085C198.849 76.7372 199.364 76.1364 200.025 75.706C200.69 75.2713 201.465 75.054 202.352 75.054C202.863 75.054 203.368 75.1392 203.866 75.3097C204.365 75.4801 204.819 75.7571 205.228 76.1406C205.637 76.5199 205.963 77.0227 206.206 77.6491C206.449 78.2756 206.57 79.0469 206.57 79.9631V80.6023H199.002V79.2983H205.036C205.036 78.7443 204.925 78.25 204.704 77.8153C204.487 77.3807 204.175 77.0376 203.771 76.7862C203.37 76.5348 202.897 76.4091 202.352 76.4091C201.751 76.4091 201.231 76.5582 200.792 76.8565C200.357 77.1506 200.023 77.5341 199.788 78.0071C199.554 78.4801 199.437 78.9872 199.437 79.5284V80.3977C199.437 81.1392 199.565 81.7678 199.82 82.2834C200.08 82.7947 200.44 83.1847 200.901 83.4531C201.361 83.7173 201.896 83.8494 202.505 83.8494C202.901 83.8494 203.259 83.794 203.579 83.6832C203.903 83.5682 204.182 83.3977 204.416 83.1719C204.651 82.9418 204.832 82.6562 204.96 82.3153L206.417 82.7244C206.263 83.2188 206.006 83.6534 205.643 84.0284C205.281 84.3991 204.834 84.6889 204.301 84.8977C203.768 85.1023 203.17 85.2045 202.505 85.2045ZM208.865 85V75.1818H210.322V76.6648H210.425C210.604 76.179 210.928 75.7848 211.396 75.4822C211.865 75.1797 212.393 75.0284 212.982 75.0284C213.092 75.0284 213.231 75.0305 213.397 75.0348C213.563 75.0391 213.689 75.0455 213.774 75.054V76.5881C213.723 76.5753 213.606 76.5561 213.423 76.5305C213.244 76.5007 213.054 76.4858 212.854 76.4858C212.376 76.4858 211.95 76.5859 211.575 76.7862C211.205 76.9822 210.911 77.255 210.693 77.6044C210.48 77.9496 210.374 78.3437 210.374 78.7869V85H208.865ZM227.579 77.3807L226.224 77.7642C226.139 77.5384 226.013 77.3189 225.847 77.1058C225.685 76.8885 225.464 76.7095 225.182 76.5689C224.901 76.4283 224.541 76.358 224.102 76.358C223.501 76.358 223.001 76.4964 222.6 76.7734C222.204 77.0462 222.006 77.3935 222.006 77.8153C222.006 78.1903 222.142 78.4865 222.415 78.7038C222.687 78.9212 223.113 79.1023 223.693 79.2472L225.15 79.6051C226.028 79.8182 226.682 80.1442 227.113 80.5831C227.543 81.0178 227.758 81.5781 227.758 82.2642C227.758 82.8267 227.596 83.3295 227.273 83.7727C226.953 84.2159 226.506 84.5653 225.93 84.821C225.355 85.0767 224.686 85.2045 223.923 85.2045C222.922 85.2045 222.093 84.9872 221.437 84.5526C220.78 84.1179 220.365 83.483 220.19 82.6477L221.622 82.2898C221.758 82.8182 222.016 83.2145 222.395 83.4787C222.779 83.7429 223.28 83.875 223.898 83.875C224.601 83.875 225.159 83.7259 225.572 83.4276C225.99 83.125 226.199 82.7628 226.199 82.3409C226.199 82 226.079 81.7145 225.841 81.4844C225.602 81.25 225.236 81.0753 224.741 80.9602L223.105 80.5767C222.206 80.3636 221.545 80.0334 221.123 79.5859C220.706 79.1342 220.497 78.5696 220.497 77.892C220.497 77.3381 220.653 76.848 220.964 76.4219C221.279 75.9957 221.707 75.6612 222.248 75.4183C222.794 75.1754 223.412 75.054 224.102 75.054C225.074 75.054 225.836 75.267 226.39 75.6932C226.949 76.1193 227.345 76.6818 227.579 77.3807ZM234.018 85.2045C233.097 85.2045 232.305 84.9872 231.64 84.5526C230.975 84.1179 230.464 83.5192 230.106 82.7564C229.748 81.9936 229.569 81.1222 229.569 80.142C229.569 79.1449 229.752 78.2649 230.119 77.5021C230.489 76.7351 231.005 76.1364 231.665 75.706C232.33 75.2713 233.106 75.054 233.992 75.054C234.683 75.054 235.305 75.1818 235.859 75.4375C236.413 75.6932 236.866 76.0511 237.22 76.5114C237.574 76.9716 237.793 77.5085 237.879 78.1222H236.37C236.255 77.6747 235.999 77.2784 235.603 76.9332C235.211 76.5838 234.683 76.4091 234.018 76.4091C233.43 76.4091 232.914 76.5625 232.471 76.8693C232.032 77.1719 231.689 77.6001 231.442 78.1541C231.199 78.7038 231.077 79.3494 231.077 80.0909C231.077 80.8494 231.197 81.5099 231.435 82.0724C231.678 82.6349 232.019 83.0717 232.458 83.3828C232.901 83.6939 233.421 83.8494 234.018 83.8494C234.41 83.8494 234.766 83.7812 235.085 83.6449C235.405 83.5085 235.675 83.3125 235.897 83.0568C236.119 82.8011 236.276 82.4943 236.37 82.1364H237.879C237.793 82.7159 237.582 83.2379 237.246 83.7024C236.913 84.1626 236.472 84.5291 235.923 84.8018C235.377 85.0703 234.742 85.2045 234.018 85.2045ZM240.084 85V75.1818H241.541V76.6648H241.643C241.822 76.179 242.146 75.7848 242.615 75.4822C243.084 75.1797 243.612 75.0284 244.2 75.0284C244.311 75.0284 244.45 75.0305 244.616 75.0348C244.782 75.0391 244.908 75.0455 244.993 75.054V76.5881C244.942 76.5753 244.825 76.5561 244.641 76.5305C244.462 76.5007 244.273 76.4858 244.072 76.4858C243.595 76.4858 243.169 76.5859 242.794 76.7862C242.423 76.9822 242.129 77.255 241.912 77.6044C241.699 77.9496 241.592 78.3437 241.592 78.7869V85H240.084ZM250.599 85.2045C249.653 85.2045 248.837 84.9957 248.151 84.5781C247.469 84.1562 246.942 83.5682 246.572 82.8139C246.205 82.0554 246.022 81.1733 246.022 80.1676C246.022 79.1619 246.205 78.2756 246.572 77.5085C246.942 76.7372 247.458 76.1364 248.119 75.706C248.783 75.2713 249.559 75.054 250.445 75.054C250.957 75.054 251.462 75.1392 251.96 75.3097C252.459 75.4801 252.913 75.7571 253.322 76.1406C253.731 76.5199 254.057 77.0227 254.3 77.6491C254.543 78.2756 254.664 79.0469 254.664 79.9631V80.6023H247.096V79.2983H253.13C253.13 78.7443 253.019 78.25 252.798 77.8153C252.58 77.3807 252.269 77.0376 251.864 76.7862C251.464 76.5348 250.991 76.4091 250.445 76.4091C249.844 76.4091 249.325 76.5582 248.886 76.8565C248.451 77.1506 248.116 77.5341 247.882 78.0071C247.648 78.4801 247.531 78.9872 247.531 79.5284V80.3977C247.531 81.1392 247.658 81.7678 247.914 82.2834C248.174 82.7947 248.534 83.1847 248.994 83.4531C249.455 83.7173 249.989 83.8494 250.599 83.8494C250.995 83.8494 251.353 83.794 251.673 83.6832C251.996 83.5682 252.276 83.3977 252.51 83.1719C252.744 82.9418 252.925 82.6562 253.053 82.3153L254.511 82.7244C254.357 83.2188 254.099 83.6534 253.737 84.0284C253.375 84.3991 252.928 84.6889 252.395 84.8977C251.862 85.1023 251.263 85.2045 250.599 85.2045ZM261.075 85.2045C260.129 85.2045 259.313 84.9957 258.627 84.5781C257.945 84.1562 257.419 83.5682 257.048 82.8139C256.682 82.0554 256.499 81.1733 256.499 80.1676C256.499 79.1619 256.682 78.2756 257.048 77.5085C257.419 76.7372 257.935 76.1364 258.595 75.706C259.26 75.2713 260.036 75.054 260.922 75.054C261.433 75.054 261.938 75.1392 262.437 75.3097C262.935 75.4801 263.389 75.7571 263.798 76.1406C264.207 76.5199 264.533 77.0227 264.776 77.6491C265.019 78.2756 265.141 79.0469 265.141 79.9631V80.6023H257.572V79.2983H263.607C263.607 78.7443 263.496 78.25 263.274 77.8153C263.057 77.3807 262.746 77.0376 262.341 76.7862C261.94 76.5348 261.467 76.4091 260.922 76.4091C260.321 76.4091 259.801 76.5582 259.362 76.8565C258.928 77.1506 258.593 77.5341 258.359 78.0071C258.124 78.4801 258.007 78.9872 258.007 79.5284V80.3977C258.007 81.1392 258.135 81.7678 258.391 82.2834C258.651 82.7947 259.011 83.1847 259.471 83.4531C259.931 83.7173 260.466 83.8494 261.075 83.8494C261.472 83.8494 261.83 83.794 262.149 83.6832C262.473 83.5682 262.752 83.3977 262.987 83.1719C263.221 82.9418 263.402 82.6562 263.53 82.3153L264.987 82.7244C264.834 83.2188 264.576 83.6534 264.214 84.0284C263.852 84.3991 263.404 84.6889 262.871 84.8977C262.339 85.1023 261.74 85.2045 261.075 85.2045ZM268.944 79.0938V85H267.435V75.1818H268.893V76.7159H269.021C269.251 76.2173 269.6 75.8168 270.069 75.5142C270.538 75.2074 271.143 75.054 271.884 75.054C272.549 75.054 273.131 75.1903 273.629 75.4631C274.128 75.7315 274.516 76.1406 274.793 76.6903C275.07 77.2358 275.208 77.9261 275.208 78.7614V85H273.7V78.8636C273.7 78.0923 273.499 77.4915 273.099 77.0611C272.698 76.6264 272.148 76.4091 271.45 76.4091C270.968 76.4091 270.538 76.5135 270.158 76.7223C269.783 76.9311 269.487 77.2358 269.27 77.6364C269.053 78.0369 268.944 78.5227 268.944 79.0938ZM284.919 77.3807L283.564 77.7642C283.479 77.5384 283.353 77.3189 283.187 77.1058C283.025 76.8885 282.803 76.7095 282.522 76.5689C282.241 76.4283 281.881 76.358 281.442 76.358C280.841 76.358 280.34 76.4964 279.94 76.7734C279.544 77.0462 279.345 77.3935 279.345 77.8153C279.345 78.1903 279.482 78.4865 279.754 78.7038C280.027 78.9212 280.453 79.1023 281.033 79.2472L282.49 79.6051C283.368 79.8182 284.022 80.1442 284.453 80.5831C284.883 81.0178 285.098 81.5781 285.098 82.2642C285.098 82.8267 284.936 83.3295 284.612 83.7727C284.293 84.2159 283.845 84.5653 283.27 84.821C282.695 85.0767 282.026 85.2045 281.263 85.2045C280.262 85.2045 279.433 84.9872 278.776 84.5526C278.12 84.1179 277.705 83.483 277.53 82.6477L278.962 82.2898C279.098 82.8182 279.356 83.2145 279.735 83.4787C280.119 83.7429 280.619 83.875 281.237 83.875C281.941 83.875 282.499 83.7259 282.912 83.4276C283.33 83.125 283.539 82.7628 283.539 82.3409C283.539 82 283.419 81.7145 283.181 81.4844C282.942 81.25 282.575 81.0753 282.081 80.9602L280.445 80.5767C279.546 80.3636 278.885 80.0334 278.463 79.5859C278.046 79.1342 277.837 78.5696 277.837 77.892C277.837 77.3381 277.992 76.848 278.303 76.4219C278.619 75.9957 279.047 75.6612 279.588 75.4183C280.134 75.1754 280.752 75.054 281.442 75.054C282.414 75.054 283.176 75.267 283.73 75.6932C284.289 76.1193 284.685 76.6818 284.919 77.3807ZM288.468 85.1023C288.153 85.1023 287.882 84.9893 287.657 84.7635C287.431 84.5376 287.318 84.267 287.318 83.9517C287.318 83.6364 287.431 83.3658 287.657 83.1399C287.882 82.9141 288.153 82.8011 288.468 82.8011C288.784 82.8011 289.054 82.9141 289.28 83.1399C289.506 83.3658 289.619 83.6364 289.619 83.9517C289.619 84.1605 289.566 84.3523 289.459 84.527C289.357 84.7017 289.218 84.8423 289.044 84.9489C288.873 85.0511 288.681 85.1023 288.468 85.1023Z" fill="#10130E"/>
</svg>
