<svg width="1196" height="462" viewBox="0 0 1196 462" fill="none" xmlns="http://www.w3.org/2000/svg">
<g filter="url(#filter0_d_998_4169)">
<g clip-path="url(#clip0_998_4169)">
<rect x="8" y="4" width="1180" height="20" fill="white"/>
<path d="M8 23H1188V3714C1188 3719.52 1183.52 3724 1178 3724H18C12.4772 3724 8 3719.52 8 3714V23Z" fill="white"/>
<line x1="8" y1="23.5" x2="1188" y2="23.5" stroke="#10130E"/>
<circle cx="28" cy="15" r="5" fill="#9AA095"/>
<circle cx="48" cy="15" r="5" fill="#9AA095"/>
<circle cx="68" cy="15" r="5" fill="#9AA095"/>
</g>
<rect x="8.5" y="4.5" width="1179" height="445" rx="14.5" stroke="#10130E" shape-rendering="crispEdges"/>
</g>
<path d="M112.969 450L112.969 85" stroke="#0065F2" stroke-width="2" stroke-linecap="round"/>
<path d="M181.805 450L181.805 85" stroke="#0065F2" stroke-width="2" stroke-linecap="round"/>
<path d="M194.91 450L194.91 85" stroke="#0065F2" stroke-width="2" stroke-linecap="round"/>
<path d="M263.746 450L263.746 85" stroke="#0065F2" stroke-width="2" stroke-linecap="round"/>
<path d="M276.859 450L276.859 85" stroke="#0065F2" stroke-width="2" stroke-linecap="round"/>
<path d="M345.695 450L345.695 85" stroke="#0065F2" stroke-width="2" stroke-linecap="round"/>
<path d="M358.805 450L358.805 85" stroke="#0065F2" stroke-width="2" stroke-linecap="round"/>
<path d="M427.641 450L427.641 85" stroke="#0065F2" stroke-width="2" stroke-linecap="round"/>
<path d="M440.746 450L440.746 85" stroke="#0065F2" stroke-width="2" stroke-linecap="round"/>
<path d="M509.582 450L509.582 85" stroke="#0065F2" stroke-width="2" stroke-linecap="round"/>
<path d="M522.691 450L522.691 85" stroke="#0065F2" stroke-width="2" stroke-linecap="round"/>
<path d="M591.527 450L591.527 85" stroke="#0065F2" stroke-width="2" stroke-linecap="round"/>
<path d="M604.633 450L604.633 85" stroke="#0065F2" stroke-width="2" stroke-linecap="round"/>
<path d="M673.469 450L673.469 85" stroke="#0065F2" stroke-width="2" stroke-linecap="round"/>
<path d="M686.574 450L686.574 85" stroke="#0065F2" stroke-width="2" stroke-linecap="round"/>
<path d="M755.41 450L755.41 85" stroke="#0065F2" stroke-width="2" stroke-linecap="round"/>
<path d="M768.527 450L768.527 85" stroke="#0065F2" stroke-width="2" stroke-linecap="round"/>
<path d="M837.363 450L837.363 85" stroke="#0065F2" stroke-width="2" stroke-linecap="round"/>
<path d="M850.469 450L850.469 85" stroke="#0065F2" stroke-width="2" stroke-linecap="round"/>
<path d="M919.305 450L919.305 85" stroke="#0065F2" stroke-width="2" stroke-linecap="round"/>
<path d="M932.41 450L932.41 85" stroke="#0065F2" stroke-width="2" stroke-linecap="round"/>
<path d="M1001.25 450L1001.25 85" stroke="#0065F2" stroke-width="2" stroke-linecap="round"/>
<path d="M1014.36 450L1014.36 85" stroke="#0065F2" stroke-width="2" stroke-linecap="round"/>
<path d="M1083.2 450L1083.2 85" stroke="#0065F2" stroke-width="2" stroke-linecap="round"/>
<path d="M558.648 43.2V40.878H562.986V54H560.394V43.2H558.648ZM566.267 51.156C567.419 50.196 568.337 49.398 569.021 48.762C569.705 48.114 570.275 47.442 570.731 46.746C571.187 46.05 571.415 45.366 571.415 44.694C571.415 44.082 571.271 43.602 570.983 43.254C570.695 42.906 570.251 42.732 569.651 42.732C569.051 42.732 568.589 42.936 568.265 43.344C567.941 43.74 567.773 44.286 567.761 44.982H565.313C565.361 43.542 565.787 42.45 566.591 41.706C567.407 40.962 568.439 40.59 569.687 40.59C571.055 40.59 572.105 40.956 572.837 41.688C573.569 42.408 573.935 43.362 573.935 44.55C573.935 45.486 573.683 46.38 573.179 47.232C572.675 48.084 572.099 48.828 571.451 49.464C570.803 50.088 569.957 50.844 568.913 51.732H574.223V53.82H565.331V51.948L566.267 51.156ZM575.811 47.268C575.811 45.192 576.183 43.566 576.927 42.39C577.683 41.214 578.931 40.626 580.671 40.626C582.411 40.626 583.653 41.214 584.397 42.39C585.153 43.566 585.531 45.192 585.531 47.268C585.531 49.356 585.153 50.994 584.397 52.182C583.653 53.37 582.411 53.964 580.671 53.964C578.931 53.964 577.683 53.37 576.927 52.182C576.183 50.994 575.811 49.356 575.811 47.268ZM583.047 47.268C583.047 46.38 582.987 45.636 582.867 45.036C582.759 44.424 582.531 43.926 582.183 43.542C581.847 43.158 581.343 42.966 580.671 42.966C579.999 42.966 579.489 43.158 579.141 43.542C578.805 43.926 578.577 44.424 578.457 45.036C578.349 45.636 578.295 46.38 578.295 47.268C578.295 48.18 578.349 48.948 578.457 49.572C578.565 50.184 578.793 50.682 579.141 51.066C579.489 51.438 579.999 51.624 580.671 51.624C581.343 51.624 581.853 51.438 582.201 51.066C582.549 50.682 582.777 50.184 582.885 49.572C582.993 48.948 583.047 48.18 583.047 47.268ZM587.448 47.268C587.448 45.192 587.82 43.566 588.564 42.39C589.32 41.214 590.568 40.626 592.308 40.626C594.048 40.626 595.29 41.214 596.034 42.39C596.79 43.566 597.168 45.192 597.168 47.268C597.168 49.356 596.79 50.994 596.034 52.182C595.29 53.37 594.048 53.964 592.308 53.964C590.568 53.964 589.32 53.37 588.564 52.182C587.82 50.994 587.448 49.356 587.448 47.268ZM594.684 47.268C594.684 46.38 594.624 45.636 594.504 45.036C594.396 44.424 594.168 43.926 593.82 43.542C593.484 43.158 592.98 42.966 592.308 42.966C591.636 42.966 591.126 43.158 590.778 43.542C590.442 43.926 590.214 44.424 590.094 45.036C589.986 45.636 589.932 46.38 589.932 47.268C589.932 48.18 589.986 48.948 590.094 49.572C590.202 50.184 590.43 50.682 590.778 51.066C591.126 51.438 591.636 51.624 592.308 51.624C592.98 51.624 593.49 51.438 593.838 51.066C594.186 50.682 594.414 50.184 594.522 49.572C594.63 48.948 594.684 48.18 594.684 47.268ZM606.182 45.468C606.506 45.012 606.95 44.634 607.514 44.334C608.09 44.022 608.744 43.866 609.476 43.866C610.328 43.866 611.096 44.076 611.78 44.496C612.476 44.916 613.022 45.516 613.418 46.296C613.826 47.064 614.03 47.958 614.03 48.978C614.03 49.998 613.826 50.904 613.418 51.696C613.022 52.476 612.476 53.082 611.78 53.514C611.096 53.946 610.328 54.162 609.476 54.162C608.744 54.162 608.096 54.012 607.532 53.712C606.98 53.412 606.53 53.034 606.182 52.578V58.752H603.662V44.028H606.182V45.468ZM611.456 48.978C611.456 48.378 611.33 47.862 611.078 47.43C610.838 46.986 610.514 46.65 610.106 46.422C609.71 46.194 609.278 46.08 608.81 46.08C608.354 46.08 607.922 46.2 607.514 46.44C607.118 46.668 606.794 47.004 606.542 47.448C606.302 47.892 606.182 48.414 606.182 49.014C606.182 49.614 606.302 50.136 606.542 50.58C606.794 51.024 607.118 51.366 607.514 51.606C607.922 51.834 608.354 51.948 608.81 51.948C609.278 51.948 609.71 51.828 610.106 51.588C610.514 51.348 610.838 51.006 611.078 50.562C611.33 50.118 611.456 49.59 611.456 48.978ZM621.369 54L619.317 50.904L617.499 54H614.799L618.057 48.996L614.763 44.028H617.607L619.641 47.106L621.477 44.028H624.177L620.901 48.996L624.213 54H621.369Z" fill="#10130E"/>
<path d="M208.594 67.052C207.394 66.428 206.794 65.462 206.794 64.154C206.794 63.506 206.956 62.918 207.28 62.39C207.616 61.85 208.114 61.424 208.774 61.112C209.446 60.788 210.262 60.626 211.222 60.626C212.182 60.626 212.992 60.788 213.652 61.112C214.324 61.424 214.822 61.85 215.146 62.39C215.482 62.918 215.65 63.506 215.65 64.154C215.65 64.814 215.488 65.396 215.164 65.9C214.84 66.392 214.408 66.776 213.868 67.052C214.528 67.34 215.044 67.76 215.416 68.312C215.788 68.864 215.974 69.518 215.974 70.274C215.974 71.09 215.764 71.804 215.344 72.416C214.936 73.016 214.372 73.478 213.652 73.802C212.932 74.126 212.122 74.288 211.222 74.288C210.322 74.288 209.512 74.126 208.792 73.802C208.084 73.478 207.52 73.016 207.1 72.416C206.692 71.804 206.488 71.09 206.488 70.274C206.488 69.518 206.674 68.864 207.046 68.312C207.418 67.748 207.934 67.328 208.594 67.052ZM213.202 64.514C213.202 63.926 213.022 63.47 212.662 63.146C212.314 62.822 211.834 62.66 211.222 62.66C210.622 62.66 210.142 62.822 209.782 63.146C209.434 63.47 209.26 63.932 209.26 64.532C209.26 65.072 209.44 65.504 209.8 65.828C210.172 66.152 210.646 66.314 211.222 66.314C211.798 66.314 212.272 66.152 212.644 65.828C213.016 65.492 213.202 65.054 213.202 64.514ZM211.222 68.15C210.538 68.15 209.98 68.324 209.548 68.672C209.128 69.02 208.918 69.518 208.918 70.166C208.918 70.766 209.122 71.258 209.53 71.642C209.95 72.014 210.514 72.2 211.222 72.2C211.93 72.2 212.488 72.008 212.896 71.624C213.304 71.24 213.508 70.754 213.508 70.166C213.508 69.53 213.298 69.038 212.878 68.69C212.458 68.33 211.906 68.15 211.222 68.15ZM218.757 71.156C219.909 70.196 220.827 69.398 221.511 68.762C222.195 68.114 222.765 67.442 223.221 66.746C223.677 66.05 223.905 65.366 223.905 64.694C223.905 64.082 223.761 63.602 223.473 63.254C223.185 62.906 222.741 62.732 222.141 62.732C221.541 62.732 221.079 62.936 220.755 63.344C220.431 63.74 220.263 64.286 220.251 64.982H217.803C217.851 63.542 218.277 62.45 219.081 61.706C219.897 60.962 220.929 60.59 222.177 60.59C223.545 60.59 224.595 60.956 225.327 61.688C226.059 62.408 226.425 63.362 226.425 64.55C226.425 65.486 226.173 66.38 225.669 67.232C225.165 68.084 224.589 68.828 223.941 69.464C223.293 70.088 222.447 70.844 221.403 71.732H226.713V73.82H217.821V71.948L218.757 71.156ZM235.398 65.468C235.722 65.012 236.166 64.634 236.73 64.334C237.306 64.022 237.96 63.866 238.692 63.866C239.544 63.866 240.312 64.076 240.996 64.496C241.692 64.916 242.238 65.516 242.634 66.296C243.042 67.064 243.246 67.958 243.246 68.978C243.246 69.998 243.042 70.904 242.634 71.696C242.238 72.476 241.692 73.082 240.996 73.514C240.312 73.946 239.544 74.162 238.692 74.162C237.96 74.162 237.312 74.012 236.748 73.712C236.196 73.412 235.746 73.034 235.398 72.578V78.752H232.878V64.028H235.398V65.468ZM240.672 68.978C240.672 68.378 240.546 67.862 240.294 67.43C240.054 66.986 239.73 66.65 239.322 66.422C238.926 66.194 238.494 66.08 238.026 66.08C237.57 66.08 237.138 66.2 236.73 66.44C236.334 66.668 236.01 67.004 235.758 67.448C235.518 67.892 235.398 68.414 235.398 69.014C235.398 69.614 235.518 70.136 235.758 70.58C236.01 71.024 236.334 71.366 236.73 71.606C237.138 71.834 237.57 71.948 238.026 71.948C238.494 71.948 238.926 71.828 239.322 71.588C239.73 71.348 240.054 71.006 240.294 70.562C240.546 70.118 240.672 69.59 240.672 68.978ZM250.585 74L248.533 70.904L246.715 74H244.015L247.273 68.996L243.979 64.028H246.823L248.857 67.106L250.693 64.028H253.393L250.117 68.996L253.429 74H250.585Z" fill="#10130E"/>
<path d="M407.648 63.2V60.878H411.986V74H409.394V63.2H407.648ZM421.279 64.154C421.159 63.65 420.949 63.272 420.649 63.02C420.361 62.768 419.941 62.642 419.389 62.642C418.561 62.642 417.949 62.978 417.553 63.65C417.169 64.31 416.971 65.39 416.959 66.89C417.247 66.41 417.667 66.038 418.219 65.774C418.771 65.498 419.371 65.36 420.019 65.36C420.799 65.36 421.489 65.528 422.089 65.864C422.689 66.2 423.157 66.692 423.493 67.34C423.829 67.976 423.997 68.744 423.997 69.644C423.997 70.496 423.823 71.258 423.475 71.93C423.139 72.59 422.641 73.106 421.981 73.478C421.321 73.85 420.535 74.036 419.623 74.036C418.375 74.036 417.391 73.76 416.671 73.208C415.963 72.656 415.465 71.888 415.177 70.904C414.901 69.908 414.763 68.684 414.763 67.232C414.763 65.036 415.141 63.38 415.897 62.264C416.653 61.136 417.847 60.572 419.479 60.572C420.739 60.572 421.717 60.914 422.413 61.598C423.109 62.282 423.511 63.134 423.619 64.154H421.279ZM419.443 67.43C418.807 67.43 418.273 67.616 417.841 67.988C417.409 68.36 417.193 68.9 417.193 69.608C417.193 70.316 417.391 70.874 417.787 71.282C418.195 71.69 418.765 71.894 419.497 71.894C420.145 71.894 420.655 71.696 421.027 71.3C421.411 70.904 421.603 70.37 421.603 69.698C421.603 69.002 421.417 68.45 421.045 68.042C420.685 67.634 420.151 67.43 419.443 67.43ZM433.086 65.468C433.41 65.012 433.854 64.634 434.418 64.334C434.994 64.022 435.648 63.866 436.38 63.866C437.232 63.866 438 64.076 438.684 64.496C439.38 64.916 439.926 65.516 440.322 66.296C440.73 67.064 440.934 67.958 440.934 68.978C440.934 69.998 440.73 70.904 440.322 71.696C439.926 72.476 439.38 73.082 438.684 73.514C438 73.946 437.232 74.162 436.38 74.162C435.648 74.162 435 74.012 434.436 73.712C433.884 73.412 433.434 73.034 433.086 72.578V78.752H430.566V64.028H433.086V65.468ZM438.36 68.978C438.36 68.378 438.234 67.862 437.982 67.43C437.742 66.986 437.418 66.65 437.01 66.422C436.614 66.194 436.182 66.08 435.714 66.08C435.258 66.08 434.826 66.2 434.418 66.44C434.022 66.668 433.698 67.004 433.446 67.448C433.206 67.892 433.086 68.414 433.086 69.014C433.086 69.614 433.206 70.136 433.446 70.58C433.698 71.024 434.022 71.366 434.418 71.606C434.826 71.834 435.258 71.948 435.714 71.948C436.182 71.948 436.614 71.828 437.01 71.588C437.418 71.348 437.742 71.006 437.982 70.562C438.234 70.118 438.36 69.59 438.36 68.978ZM448.273 74L446.221 70.904L444.403 74H441.703L444.961 68.996L441.667 64.028H444.511L446.545 67.106L448.381 64.028H451.081L447.805 68.996L451.117 74H448.273Z" fill="#10130E"/>
<path d="M112.293 47.2929C111.902 47.6834 111.902 48.3166 112.293 48.7071L118.657 55.0711C119.047 55.4616 119.681 55.4616 120.071 55.0711C120.462 54.6805 120.462 54.0474 120.071 53.6569L114.414 48L120.071 42.3431C120.462 41.9526 120.462 41.3195 120.071 40.9289C119.681 40.5384 119.047 40.5384 118.657 40.9289L112.293 47.2929ZM534 49C534.552 49 535 48.5523 535 48C535 47.4477 534.552 47 534 47L534 49ZM113 49L534 49L534 47L113 47L113 49Z" fill="#0065F2"/>
<path d="M662 47C661.448 47 661 47.4477 661 48C661 48.5523 661.448 49 662 49L662 47ZM1083.71 48.7071C1084.1 48.3166 1084.1 47.6834 1083.71 47.2929L1077.34 40.929C1076.95 40.5384 1076.32 40.5384 1075.93 40.929C1075.54 41.3195 1075.54 41.9527 1075.93 42.3432L1081.59 48L1075.93 53.6569C1075.54 54.0474 1075.54 54.6806 1075.93 55.0711C1076.32 55.4616 1076.95 55.4616 1077.34 55.0711L1083.71 48.7071ZM662 49L1083 49L1083 47L662 47L662 49Z" fill="#0065F2"/>
<rect opacity="0.5" x="195" y="85" width="69" height="365" fill="#DBEEFF"/>
<rect opacity="0.5" x="428" y="85" width="13" height="365" fill="#DBEEFF"/>
<defs>
<filter id="filter0_d_998_4169" x="0" y="0" width="1196" height="462" filterUnits="userSpaceOnUse" color-interpolation-filters="sRGB">
<feFlood flood-opacity="0" result="BackgroundImageFix"/>
<feColorMatrix in="SourceAlpha" type="matrix" values="0 0 0 0 0 0 0 0 0 0 0 0 0 0 0 0 0 0 127 0" result="hardAlpha"/>
<feOffset dy="4"/>
<feGaussianBlur stdDeviation="4"/>
<feComposite in2="hardAlpha" operator="out"/>
<feColorMatrix type="matrix" values="0 0 0 0 0.064325 0 0 0 0 0.075 0 0 0 0 0.0559375 0 0 0 0.1 0"/>
<feBlend mode="normal" in2="BackgroundImageFix" result="effect1_dropShadow_998_4169"/>
<feBlend mode="normal" in="SourceGraphic" in2="effect1_dropShadow_998_4169" result="shape"/>
</filter>
<clipPath id="clip0_998_4169">
<rect x="8" y="4" width="1180" height="446" rx="15" fill="white"/>
</clipPath>
</defs>
</svg>
