<svg width="430" height="92" viewBox="0 0 430 92" fill="none" xmlns="http://www.w3.org/2000/svg">
<path d="M62.9672 22.2301C62.345 22.2301 61.7804 22.1129 61.2733 21.8786C60.7662 21.6399 60.3635 21.2969 60.0652 20.8494C59.7669 20.3977 59.6177 19.8523 59.6177 19.2131C59.6177 18.6506 59.7285 18.1946 59.9501 17.8452C60.1717 17.4915 60.4679 17.2145 60.8386 17.0142C61.2093 16.8139 61.6184 16.6648 62.0659 16.5668C62.5176 16.4645 62.9714 16.3835 63.4274 16.3239C64.024 16.2472 64.5076 16.1896 64.8784 16.1513C65.2534 16.1087 65.5261 16.0384 65.6966 15.9403C65.8713 15.8423 65.9586 15.6719 65.9586 15.429V15.3778C65.9586 14.7472 65.786 14.2571 65.4409 13.9077C65.1 13.5582 64.5822 13.3835 63.8876 13.3835C63.1674 13.3835 62.6028 13.5412 62.1937 13.8565C61.7846 14.1719 61.497 14.5085 61.3308 14.8665L59.899 14.3551C60.1547 13.7585 60.4956 13.294 60.9217 12.9616C61.3521 12.625 61.8208 12.3906 62.3279 12.2585C62.8393 12.1222 63.3422 12.054 63.8365 12.054C64.1518 12.054 64.514 12.0923 64.9231 12.169C65.3365 12.2415 65.7349 12.3928 66.1184 12.6229C66.5062 12.853 66.8279 13.2003 67.0836 13.6648C67.3393 14.1293 67.4672 14.7514 67.4672 15.5312V22H65.9586V20.6705H65.8819C65.7797 20.8835 65.6092 21.1115 65.3706 21.3544C65.1319 21.5973 64.8145 21.804 64.4181 21.9744C64.0218 22.1449 63.5382 22.2301 62.9672 22.2301ZM63.1973 20.875C63.7939 20.875 64.2967 20.7578 64.7058 20.5234C65.1191 20.2891 65.4302 19.9865 65.639 19.6158C65.8521 19.245 65.9586 18.8551 65.9586 18.446V17.0653C65.8947 17.142 65.7541 17.2124 65.5368 17.2763C65.3237 17.3359 65.0765 17.3892 64.7953 17.4361C64.5183 17.4787 64.2477 17.517 63.9835 17.5511C63.7235 17.581 63.5126 17.6065 63.3507 17.6278C62.9586 17.679 62.5922 17.7621 62.2512 17.8771C61.9146 17.9879 61.6419 18.1562 61.4331 18.3821C61.2285 18.6037 61.1262 18.9062 61.1262 19.2898C61.1262 19.8139 61.3201 20.2102 61.7079 20.4787C62.1 20.7429 62.5964 20.875 63.1973 20.875ZM75.4876 22V8.90909H76.9961V13.7415H77.1239C77.2347 13.571 77.3881 13.3537 77.5842 13.0895C77.7844 12.821 78.07 12.5824 78.4407 12.3736C78.8157 12.1605 79.3228 12.054 79.962 12.054C80.7887 12.054 81.5174 12.2607 82.1481 12.674C82.7788 13.0874 83.271 13.6733 83.6246 14.4318C83.9783 15.1903 84.1552 16.0852 84.1552 17.1165C84.1552 18.1562 83.9783 19.0575 83.6246 19.8203C83.271 20.5788 82.7809 21.1669 82.1545 21.5845C81.5281 21.9979 80.8058 22.2045 79.9876 22.2045C79.3569 22.2045 78.8519 22.1001 78.4727 21.8913C78.0934 21.6783 77.8015 21.4375 77.5969 21.169C77.3924 20.8963 77.2347 20.6705 77.1239 20.4915H76.945V22H75.4876ZM76.9705 17.0909C76.9705 17.8324 77.0792 18.4865 77.2965 19.0533C77.5138 19.6158 77.8313 20.0568 78.2489 20.3764C78.6665 20.6918 79.1779 20.8494 79.783 20.8494C80.4137 20.8494 80.94 20.6832 81.3619 20.3509C81.788 20.0142 82.1076 19.5625 82.3207 18.9957C82.538 18.4247 82.6467 17.7898 82.6467 17.0909C82.6467 16.4006 82.5401 15.7784 82.3271 15.2244C82.1183 14.6662 81.8008 14.2251 81.3746 13.9013C80.9528 13.5732 80.4222 13.4091 79.783 13.4091C79.1694 13.4091 78.6538 13.5646 78.2362 13.8757C77.8185 14.1825 77.5032 14.6129 77.2901 15.1669C77.0771 15.7166 76.9705 16.358 76.9705 17.0909ZM95.5138 22.2045C94.5934 22.2045 93.8008 21.9872 93.136 21.5526C92.4712 21.1179 91.9599 20.5192 91.6019 19.7564C91.244 18.9936 91.065 18.1222 91.065 17.142C91.065 16.1449 91.2482 15.2649 91.6147 14.5021C91.9854 13.7351 92.5011 13.1364 93.1616 12.706C93.8263 12.2713 94.6019 12.054 95.4883 12.054C96.1786 12.054 96.8008 12.1818 97.3548 12.4375C97.9087 12.6932 98.3626 13.0511 98.7163 13.5114C99.07 13.9716 99.2894 14.5085 99.3746 15.1222H97.8661C97.7511 14.6747 97.4954 14.2784 97.0991 13.9332C96.707 13.5838 96.1786 13.4091 95.5138 13.4091C94.9258 13.4091 94.4102 13.5625 93.967 13.8693C93.5281 14.1719 93.185 14.6001 92.9379 15.1541C92.695 15.7038 92.5735 16.3494 92.5735 17.0909C92.5735 17.8494 92.6928 18.5099 92.9315 19.0724C93.1744 19.6349 93.5153 20.0717 93.9542 20.3828C94.3974 20.6939 94.9173 20.8494 95.5138 20.8494C95.9059 20.8494 96.2617 20.7812 96.5813 20.6449C96.9009 20.5085 97.1715 20.3125 97.3931 20.0568C97.6147 19.8011 97.7724 19.4943 97.8661 19.1364H99.3746C99.2894 19.7159 99.0785 20.2379 98.7418 20.7024C98.4094 21.1626 97.9684 21.5291 97.4187 21.8018C96.8732 22.0703 96.2383 22.2045 95.5138 22.2045ZM110.35 22.2045C109.532 22.2045 108.809 21.9979 108.183 21.5845C107.556 21.1669 107.066 20.5788 106.713 19.8203C106.359 19.0575 106.182 18.1562 106.182 17.1165C106.182 16.0852 106.359 15.1903 106.713 14.4318C107.066 13.6733 107.559 13.0874 108.189 12.674C108.82 12.2607 109.549 12.054 110.375 12.054C111.015 12.054 111.52 12.1605 111.89 12.3736C112.265 12.5824 112.551 12.821 112.747 13.0895C112.947 13.3537 113.103 13.571 113.213 13.7415H113.341V8.90909H114.85V22H113.392V20.4915H113.213C113.103 20.6705 112.945 20.8963 112.74 21.169C112.536 21.4375 112.244 21.6783 111.865 21.8913C111.485 22.1001 110.98 22.2045 110.35 22.2045ZM110.554 20.8494C111.159 20.8494 111.671 20.6918 112.088 20.3764C112.506 20.0568 112.824 19.6158 113.041 19.0533C113.258 18.4865 113.367 17.8324 113.367 17.0909C113.367 16.358 113.26 15.7166 113.047 15.1669C112.834 14.6129 112.519 14.1825 112.101 13.8757C111.684 13.5646 111.168 13.4091 110.554 13.4091C109.915 13.4091 109.382 13.5732 108.956 13.9013C108.534 14.2251 108.217 14.6662 108.004 15.2244C107.795 15.7784 107.691 16.4006 107.691 17.0909C107.691 17.7898 107.797 18.4247 108.01 18.9957C108.228 19.5625 108.547 20.0142 108.969 20.3509C109.395 20.6832 109.924 20.8494 110.554 20.8494ZM127.001 22.2045C126.055 22.2045 125.239 21.9957 124.553 21.5781C123.871 21.1562 123.345 20.5682 122.974 19.8139C122.608 19.0554 122.424 18.1733 122.424 17.1676C122.424 16.1619 122.608 15.2756 122.974 14.5085C123.345 13.7372 123.86 13.1364 124.521 12.706C125.186 12.2713 125.961 12.054 126.848 12.054C127.359 12.054 127.864 12.1392 128.363 12.3097C128.861 12.4801 129.315 12.7571 129.724 13.1406C130.133 13.5199 130.459 14.0227 130.702 14.6491C130.945 15.2756 131.066 16.0469 131.066 16.9631V17.6023H123.498V16.2983H129.532C129.532 15.7443 129.422 15.25 129.2 14.8153C128.983 14.3807 128.672 14.0376 128.267 13.7862C127.866 13.5348 127.393 13.4091 126.848 13.4091C126.247 13.4091 125.727 13.5582 125.288 13.8565C124.853 14.1506 124.519 14.5341 124.284 15.0071C124.05 15.4801 123.933 15.9872 123.933 16.5284V17.3977C123.933 18.1392 124.061 18.7678 124.316 19.2834C124.576 19.7947 124.936 20.1847 125.397 20.4531C125.857 20.7173 126.392 20.8494 127.001 20.8494C127.397 20.8494 127.755 20.794 128.075 20.6832C128.399 20.5682 128.678 20.3977 128.912 20.1719C129.147 19.9418 129.328 19.6562 129.456 19.3153L130.913 19.7244C130.76 20.2188 130.502 20.6534 130.14 21.0284C129.777 21.3991 129.33 21.6889 128.797 21.8977C128.265 22.1023 127.666 22.2045 127.001 22.2045ZM142.796 12.1818V13.4602H137.503V12.1818H142.796ZM139.088 22V10.8267C139.088 10.2642 139.221 9.79545 139.485 9.42045C139.749 9.04545 140.092 8.7642 140.514 8.5767C140.936 8.3892 141.381 8.29545 141.85 8.29545C142.221 8.29545 142.523 8.32528 142.757 8.38494C142.992 8.4446 143.167 8.5 143.282 8.55114L142.847 9.85511C142.77 9.82954 142.664 9.79758 142.527 9.75923C142.395 9.72088 142.221 9.7017 142.003 9.7017C141.505 9.7017 141.145 9.82741 140.923 10.0788C140.706 10.3303 140.597 10.6989 140.597 11.1847V22H139.088ZM153.936 25.8864C153.207 25.8864 152.58 25.7926 152.056 25.6051C151.532 25.4219 151.095 25.179 150.746 24.8764C150.401 24.5781 150.126 24.2585 149.921 23.9176L151.123 23.0739C151.259 23.2528 151.432 23.4574 151.641 23.6875C151.85 23.9219 152.135 24.1243 152.497 24.2947C152.864 24.4695 153.343 24.5568 153.936 24.5568C154.728 24.5568 155.382 24.3651 155.898 23.9815C156.414 23.598 156.671 22.9972 156.671 22.179V20.1847H156.544C156.433 20.3636 156.275 20.5852 156.07 20.8494C155.87 21.1094 155.58 21.3416 155.201 21.5462C154.826 21.7464 154.319 21.8466 153.68 21.8466C152.887 21.8466 152.176 21.6591 151.545 21.2841C150.919 20.9091 150.422 20.3636 150.056 19.6477C149.693 18.9318 149.512 18.0625 149.512 17.0398C149.512 16.0341 149.689 15.1584 150.043 14.4126C150.396 13.6626 150.889 13.0831 151.519 12.674C152.15 12.2607 152.879 12.054 153.705 12.054C154.345 12.054 154.852 12.1605 155.227 12.3736C155.606 12.5824 155.896 12.821 156.096 13.0895C156.301 13.3537 156.458 13.571 156.569 13.7415H156.722V12.1818H158.18V22.2812C158.18 23.125 157.988 23.8111 157.605 24.3395C157.225 24.8722 156.714 25.2621 156.07 25.5092C155.431 25.7607 154.72 25.8864 153.936 25.8864ZM153.884 20.4915C154.49 20.4915 155.001 20.353 155.419 20.076C155.836 19.799 156.154 19.4006 156.371 18.8807C156.588 18.3608 156.697 17.7386 156.697 17.0142C156.697 16.3068 156.59 15.6825 156.377 15.1413C156.164 14.6001 155.849 14.1761 155.431 13.8693C155.014 13.5625 154.498 13.4091 153.884 13.4091C153.245 13.4091 152.713 13.571 152.286 13.8949C151.865 14.2187 151.547 14.6534 151.334 15.1989C151.125 15.7443 151.021 16.3494 151.021 17.0142C151.021 17.696 151.127 18.299 151.34 18.8232C151.558 19.343 151.877 19.7521 152.299 20.0504C152.725 20.3445 153.254 20.4915 153.884 20.4915ZM167.512 16.0938V22H166.004V8.90909H167.512V13.7159H167.64C167.87 13.2088 168.215 12.8061 168.676 12.5078C169.14 12.2053 169.758 12.054 170.529 12.054C171.198 12.054 171.784 12.1882 172.287 12.4567C172.79 12.7209 173.18 13.1278 173.457 13.6776C173.738 14.223 173.879 14.9176 173.879 15.7614V22H172.37V15.8636C172.37 15.0838 172.168 14.4808 171.763 14.0547C171.362 13.6243 170.806 13.4091 170.095 13.4091C169.6 13.4091 169.157 13.5135 168.765 13.7223C168.377 13.9311 168.07 14.2358 167.845 14.6364C167.623 15.0369 167.512 15.5227 167.512 16.0938ZM181.701 22V12.1818H183.21V22H181.701ZM182.468 10.5455C182.174 10.5455 181.92 10.4453 181.707 10.245C181.499 10.0447 181.394 9.80398 181.394 9.52273C181.394 9.24148 181.499 9.00071 181.707 8.80043C181.92 8.60014 182.174 8.5 182.468 8.5C182.762 8.5 183.013 8.60014 183.222 8.80043C183.435 9.00071 183.542 9.24148 183.542 9.52273C183.542 9.80398 183.435 10.0447 183.222 10.245C183.013 10.4453 182.762 10.5455 182.468 10.5455ZM191.035 12.1818H192.544V22.7159C192.544 23.321 192.439 23.8452 192.23 24.2884C192.026 24.7315 191.715 25.0746 191.297 25.3175C190.884 25.5604 190.362 25.6818 189.731 25.6818C189.68 25.6818 189.629 25.6818 189.578 25.6818C189.526 25.6818 189.475 25.6818 189.424 25.6818V24.2756C189.475 24.2756 189.522 24.2756 189.565 24.2756C189.607 24.2756 189.654 24.2756 189.705 24.2756C190.166 24.2756 190.502 24.1392 190.715 23.8665C190.928 23.598 191.035 23.2145 191.035 22.7159V12.1818ZM191.776 10.5455C191.482 10.5455 191.229 10.4453 191.016 10.245C190.807 10.0447 190.703 9.80398 190.703 9.52273C190.703 9.24148 190.807 9.00071 191.016 8.80043C191.229 8.60014 191.482 8.5 191.776 8.5C192.07 8.5 192.322 8.60014 192.531 8.80043C192.744 9.00071 192.85 9.24148 192.85 9.52273C192.85 9.80398 192.744 10.0447 192.531 10.245C192.322 10.4453 192.07 10.5455 191.776 10.5455ZM201.775 18.4205L201.75 16.554H202.056L206.352 12.1818H208.218L203.642 16.8097H203.514L201.775 18.4205ZM200.369 22V8.90909H201.877V22H200.369ZM206.608 22L202.772 17.142L203.846 16.0938L208.525 22H206.608ZM216.731 8.90909V22H215.222V8.90909H216.731ZM224.556 22V12.1818H226.014V13.7159H226.142C226.346 13.1918 226.676 12.7848 227.132 12.495C227.588 12.201 228.136 12.054 228.775 12.054C229.423 12.054 229.962 12.201 230.392 12.495C230.827 12.7848 231.166 13.1918 231.409 13.7159H231.511C231.762 13.2088 232.14 12.8061 232.642 12.5078C233.145 12.2053 233.748 12.054 234.451 12.054C235.329 12.054 236.047 12.3288 236.605 12.8786C237.164 13.424 237.443 14.2741 237.443 15.429V22H235.934V15.429C235.934 14.7045 235.736 14.1868 235.34 13.8757C234.944 13.5646 234.477 13.4091 233.94 13.4091C233.25 13.4091 232.715 13.6179 232.336 14.0355C231.956 14.4489 231.767 14.973 231.767 15.608V22H230.233V15.2756C230.233 14.7173 230.051 14.2678 229.689 13.9268C229.327 13.5817 228.86 13.4091 228.289 13.4091C227.897 13.4091 227.531 13.5135 227.19 13.7223C226.853 13.9311 226.581 14.2209 226.372 14.5916C226.167 14.9581 226.065 15.3821 226.065 15.8636V22H224.556ZM246.772 16.0938V22H245.263V12.1818H246.721V13.7159H246.849C247.079 13.2173 247.428 12.8168 247.897 12.5142C248.366 12.2074 248.971 12.054 249.712 12.054C250.377 12.054 250.959 12.1903 251.457 12.4631C251.956 12.7315 252.344 13.1406 252.621 13.6903C252.898 14.2358 253.036 14.9261 253.036 15.7614V22H251.528V15.8636C251.528 15.0923 251.327 14.4915 250.927 14.0611C250.526 13.6264 249.977 13.4091 249.278 13.4091C248.796 13.4091 248.366 13.5135 247.987 13.7223C247.612 13.9311 247.315 14.2358 247.098 14.6364C246.881 15.0369 246.772 15.5227 246.772 16.0938ZM264.844 22.2045C263.958 22.2045 263.18 21.9936 262.511 21.5717C261.846 21.1499 261.326 20.5597 260.951 19.8011C260.58 19.0426 260.395 18.1562 260.395 17.142C260.395 16.1193 260.58 15.2266 260.951 14.4638C261.326 13.701 261.846 13.1087 262.511 12.6868C263.18 12.2649 263.958 12.054 264.844 12.054C265.73 12.054 266.506 12.2649 267.171 12.6868C267.84 13.1087 268.36 13.701 268.73 14.4638C269.105 15.2266 269.293 16.1193 269.293 17.142C269.293 18.1562 269.105 19.0426 268.73 19.8011C268.36 20.5597 267.84 21.1499 267.171 21.5717C266.506 21.9936 265.73 22.2045 264.844 22.2045ZM264.844 20.8494C265.517 20.8494 266.071 20.6768 266.506 20.3317C266.941 19.9865 267.262 19.5327 267.471 18.9702C267.68 18.4077 267.784 17.7983 267.784 17.142C267.784 16.4858 267.68 15.8743 267.471 15.3075C267.262 14.7408 266.941 14.2827 266.506 13.9332C266.071 13.5838 265.517 13.4091 264.844 13.4091C264.171 13.4091 263.617 13.5838 263.182 13.9332C262.747 14.2827 262.426 14.7408 262.217 15.3075C262.008 15.8743 261.904 16.4858 261.904 17.142C261.904 17.7983 262.008 18.4077 262.217 18.9702C262.426 19.5327 262.747 19.9865 263.182 20.3317C263.617 20.6768 264.171 20.8494 264.844 20.8494ZM276.658 25.6818V12.1818H278.115V13.7415H278.294C278.405 13.571 278.559 13.3537 278.755 13.0895C278.955 12.821 279.24 12.5824 279.611 12.3736C279.986 12.1605 280.493 12.054 281.132 12.054C281.959 12.054 282.688 12.2607 283.319 12.674C283.949 13.0874 284.441 13.6733 284.795 14.4318C285.149 15.1903 285.326 16.0852 285.326 17.1165C285.326 18.1562 285.149 19.0575 284.795 19.8203C284.441 20.5788 283.951 21.1669 283.325 21.5845C282.699 21.9979 281.976 22.2045 281.158 22.2045C280.527 22.2045 280.022 22.1001 279.643 21.8913C279.264 21.6783 278.972 21.4375 278.767 21.169C278.563 20.8963 278.405 20.6705 278.294 20.4915H278.167V25.6818H276.658ZM278.141 17.0909C278.141 17.8324 278.25 18.4865 278.467 19.0533C278.684 19.6158 279.002 20.0568 279.419 20.3764C279.837 20.6918 280.348 20.8494 280.953 20.8494C281.584 20.8494 282.11 20.6832 282.532 20.3509C282.958 20.0142 283.278 19.5625 283.491 18.9957C283.708 18.4247 283.817 17.7898 283.817 17.0909C283.817 16.4006 283.711 15.7784 283.498 15.2244C283.289 14.6662 282.971 14.2251 282.545 13.9013C282.123 13.5732 281.593 13.4091 280.953 13.4091C280.34 13.4091 279.824 13.5646 279.407 13.8757C278.989 14.1825 278.674 14.6129 278.461 15.1669C278.248 15.7166 278.141 16.358 278.141 17.0909ZM299.388 25.6818V20.4915H299.26C299.15 20.6705 298.992 20.8963 298.787 21.169C298.583 21.4375 298.291 21.6783 297.912 21.8913C297.532 22.1001 297.027 22.2045 296.397 22.2045C295.578 22.2045 294.856 21.9979 294.23 21.5845C293.603 21.1669 293.113 20.5788 292.76 19.8203C292.406 19.0575 292.229 18.1562 292.229 17.1165C292.229 16.0852 292.406 15.1903 292.76 14.4318C293.113 13.6733 293.605 13.0874 294.236 12.674C294.867 12.2607 295.596 12.054 296.422 12.054C297.061 12.054 297.566 12.1605 297.937 12.3736C298.312 12.5824 298.598 12.821 298.794 13.0895C298.994 13.3537 299.15 13.571 299.26 13.7415H299.439V12.1818H300.897V25.6818H299.388ZM296.601 20.8494C297.206 20.8494 297.718 20.6918 298.135 20.3764C298.553 20.0568 298.87 19.6158 299.088 19.0533C299.305 18.4865 299.414 17.8324 299.414 17.0909C299.414 16.358 299.307 15.7166 299.094 15.1669C298.881 14.6129 298.566 14.1825 298.148 13.8757C297.73 13.5646 297.215 13.4091 296.601 13.4091C295.962 13.4091 295.429 13.5732 295.003 13.9013C294.581 14.2251 294.264 14.6662 294.051 15.2244C293.842 15.7784 293.738 16.4006 293.738 17.0909C293.738 17.7898 293.844 18.4247 294.057 18.9957C294.275 19.5625 294.594 20.0142 295.016 20.3509C295.442 20.6832 295.971 20.8494 296.601 20.8494ZM308.721 22V12.1818H310.178V13.6648H310.28C310.459 13.179 310.783 12.7848 311.252 12.4822C311.721 12.1797 312.249 12.0284 312.837 12.0284C312.948 12.0284 313.086 12.0305 313.252 12.0348C313.419 12.0391 313.544 12.0455 313.63 12.054V13.5881C313.578 13.5753 313.461 13.5561 313.278 13.5305C313.099 13.5007 312.909 13.4858 312.709 13.4858C312.232 13.4858 311.806 13.5859 311.431 13.7862C311.06 13.9822 310.766 14.255 310.549 14.6044C310.336 14.9496 310.229 15.3437 310.229 15.7869V22H308.721ZM327.435 14.3807L326.08 14.7642C325.994 14.5384 325.869 14.3189 325.703 14.1058C325.541 13.8885 325.319 13.7095 325.038 13.5689C324.757 13.4283 324.396 13.358 323.958 13.358C323.357 13.358 322.856 13.4964 322.455 13.7734C322.059 14.0462 321.861 14.3935 321.861 14.8153C321.861 15.1903 321.997 15.4865 322.27 15.7038C322.543 15.9212 322.969 16.1023 323.548 16.2472L325.006 16.6051C325.884 16.8182 326.538 17.1442 326.968 17.5831C327.399 18.0178 327.614 18.5781 327.614 19.2642C327.614 19.8267 327.452 20.3295 327.128 20.7727C326.808 21.2159 326.361 21.5653 325.786 21.821C325.21 22.0767 324.541 22.2045 323.779 22.2045C322.777 22.2045 321.948 21.9872 321.292 21.5526C320.636 21.1179 320.22 20.483 320.046 19.6477L321.477 19.2898C321.614 19.8182 321.872 20.2145 322.251 20.4787C322.634 20.7429 323.135 20.875 323.753 20.875C324.456 20.875 325.014 20.7259 325.428 20.4276C325.845 20.125 326.054 19.7628 326.054 19.3409C326.054 19 325.935 18.7145 325.696 18.4844C325.458 18.25 325.091 18.0753 324.597 17.9602L322.96 17.5767C322.061 17.3636 321.401 17.0334 320.979 16.5859C320.561 16.1342 320.352 15.5696 320.352 14.892C320.352 14.3381 320.508 13.848 320.819 13.4219C321.134 12.9957 321.563 12.6612 322.104 12.4183C322.649 12.1754 323.267 12.054 323.958 12.054C324.929 12.054 325.692 12.267 326.246 12.6932C326.804 13.1193 327.2 13.6818 327.435 14.3807ZM339.217 12.1818V13.4602H334.129V12.1818H339.217ZM335.612 9.82955H337.12V19.1875C337.12 19.6136 337.182 19.9332 337.306 20.1463C337.434 20.3551 337.596 20.4957 337.792 20.5682C337.992 20.6364 338.203 20.6705 338.424 20.6705C338.591 20.6705 338.727 20.6619 338.833 20.6449C338.94 20.6236 339.025 20.6065 339.089 20.5938L339.396 21.9489C339.294 21.9872 339.151 22.0256 338.968 22.0639C338.784 22.1065 338.552 22.1278 338.271 22.1278C337.845 22.1278 337.427 22.0362 337.018 21.853C336.613 21.6697 336.277 21.3906 336.008 21.0156C335.744 20.6406 335.612 20.1676 335.612 19.5966V9.82955ZM352.736 17.9858V12.1818H354.245V22H352.736V20.3381H352.634C352.404 20.8366 352.046 21.2607 351.56 21.6101C351.074 21.9553 350.461 22.1278 349.719 22.1278C349.105 22.1278 348.56 21.9936 348.083 21.7251C347.605 21.4524 347.23 21.0433 346.958 20.4979C346.685 19.9482 346.549 19.2557 346.549 18.4205V12.1818H348.057V18.3182C348.057 19.0341 348.257 19.6051 348.658 20.0312C349.063 20.4574 349.578 20.6705 350.205 20.6705C350.58 20.6705 350.961 20.5746 351.349 20.3828C351.741 20.1911 352.069 19.897 352.333 19.5007C352.602 19.1044 352.736 18.5994 352.736 17.9858ZM370.099 12.1818L366.468 22H364.934L361.303 12.1818H362.939L365.65 20.0057H365.752L368.462 12.1818H370.099ZM379.377 22L376.385 12.1818H377.97L380.093 19.6989H380.195L382.291 12.1818H383.902L385.973 19.6733H386.075L388.198 12.1818H389.783L386.791 22H385.308L383.161 14.4574H383.007L380.86 22H379.377ZM392.902 12.1818L395.254 16.196L397.607 12.1818H399.345L396.175 17.0909L399.345 22H397.607L395.254 18.1903L392.902 22H391.164L394.283 17.0909L391.164 12.1818H392.902ZM402.469 25.6818C402.214 25.6818 401.986 25.6605 401.786 25.6179C401.585 25.5795 401.447 25.5412 401.37 25.5028L401.754 24.1733C402.12 24.267 402.444 24.3011 402.725 24.2756C403.006 24.25 403.256 24.1243 403.473 23.8984C403.695 23.6768 403.897 23.3168 404.08 22.8182L404.362 22.0511L400.731 12.1818H402.367L405.077 20.0057H405.18L407.89 12.1818H409.526L405.359 23.4318C405.171 23.9389 404.939 24.3587 404.662 24.6911C404.385 25.0277 404.063 25.277 403.697 25.4389C403.335 25.6009 402.925 25.6818 402.469 25.6818ZM416.299 22V20.8494L421.873 13.6903V13.5881H416.478V12.1818H423.816V13.3835L418.395 20.4915V20.5938H423.995V22H416.299ZM112.411 50H110.749L115.556 36.9091H117.192L121.999 50H120.337L116.425 38.9801H116.323L112.411 50ZM113.025 44.8864H119.724V46.2926H113.025V44.8864ZM124.038 50V36.9091H128.615C129.527 36.9091 130.279 37.0668 130.871 37.3821C131.464 37.6932 131.905 38.1129 132.195 38.6413C132.484 39.1655 132.629 39.7472 132.629 40.3864C132.629 40.9489 132.529 41.4134 132.329 41.7798C132.133 42.1463 131.873 42.4361 131.549 42.6491C131.229 42.8622 130.882 43.0199 130.507 43.1222V43.25C130.908 43.2756 131.31 43.4162 131.715 43.6719C132.12 43.9276 132.459 44.294 132.732 44.7713C133.004 45.2486 133.141 45.8324 133.141 46.5227C133.141 47.179 132.991 47.7692 132.693 48.2933C132.395 48.8175 131.924 49.233 131.281 49.5398C130.637 49.8466 129.8 50 128.768 50H124.038ZM125.624 48.5938H128.768C129.804 48.5938 130.539 48.3935 130.974 47.9929C131.413 47.5881 131.632 47.098 131.632 46.5227C131.632 46.0795 131.519 45.6705 131.293 45.2955C131.067 44.9162 130.746 44.6136 130.328 44.3878C129.911 44.1577 129.416 44.0426 128.845 44.0426H125.624V48.5938ZM125.624 42.6619H128.564C129.041 42.6619 129.472 42.5682 129.855 42.3807C130.243 42.1932 130.55 41.929 130.776 41.5881C131.006 41.2472 131.121 40.8466 131.121 40.3864C131.121 39.8111 130.92 39.3232 130.52 38.9226C130.119 38.5178 129.484 38.3153 128.615 38.3153H125.624V42.6619ZM146.279 41H144.694C144.6 40.544 144.436 40.1435 144.202 39.7983C143.972 39.4531 143.691 39.1634 143.358 38.929C143.03 38.6903 142.666 38.5114 142.265 38.392C141.865 38.2727 141.447 38.2131 141.012 38.2131C140.22 38.2131 139.502 38.4134 138.858 38.8139C138.219 39.2145 137.71 39.8047 137.331 40.5845C136.956 41.3643 136.768 42.321 136.768 43.4545C136.768 44.5881 136.956 45.5447 137.331 46.3246C137.71 47.1044 138.219 47.6946 138.858 48.0952C139.502 48.4957 140.22 48.696 141.012 48.696C141.447 48.696 141.865 48.6364 142.265 48.517C142.666 48.3977 143.03 48.2209 143.358 47.9865C143.691 47.7479 143.972 47.456 144.202 47.1108C144.436 46.7614 144.6 46.3608 144.694 45.9091H146.279C146.16 46.5781 145.943 47.1768 145.627 47.7053C145.312 48.2337 144.92 48.6832 144.451 49.054C143.983 49.4205 143.456 49.6996 142.873 49.8913C142.293 50.0831 141.673 50.179 141.012 50.179C139.896 50.179 138.903 49.9062 138.034 49.3608C137.164 48.8153 136.48 48.0398 135.982 47.0341C135.483 46.0284 135.234 44.8352 135.234 43.4545C135.234 42.0739 135.483 40.8807 135.982 39.875C136.48 38.8693 137.164 38.0938 138.034 37.5483C138.903 37.0028 139.896 36.7301 141.012 36.7301C141.673 36.7301 142.293 36.826 142.873 37.0178C143.456 37.2095 143.983 37.4908 144.451 37.8615C144.92 38.228 145.312 38.6754 145.627 39.2038C145.943 39.728 146.16 40.3267 146.279 41ZM152.881 50H148.841V36.9091H153.06C154.33 36.9091 155.416 37.1712 156.32 37.6953C157.223 38.2152 157.916 38.9631 158.397 39.9389C158.879 40.9105 159.119 42.0739 159.119 43.429C159.119 44.7926 158.877 45.9666 158.391 46.951C157.905 47.9311 157.198 48.6854 156.269 49.2138C155.34 49.7379 154.21 50 152.881 50ZM150.426 48.5938H152.779C153.861 48.5938 154.758 48.3849 155.47 47.9673C156.181 47.5497 156.712 46.9553 157.061 46.1839C157.411 45.4126 157.585 44.4943 157.585 43.429C157.585 42.3722 157.413 41.4624 157.068 40.6996C156.722 39.9325 156.207 39.3445 155.521 38.9354C154.835 38.522 153.98 38.3153 152.958 38.3153H150.426V48.5938ZM161.779 50V36.9091H169.679V38.3153H163.364V42.7386H169.27V44.1449H163.364V48.5938H169.781V50H161.779ZM172.536 50V36.9091H180.386V38.3153H174.122V42.7386H179.798V44.1449H174.122V50H172.536ZM192.05 41C191.909 40.5696 191.724 40.1839 191.494 39.843C191.268 39.4979 190.997 39.2038 190.682 38.9609C190.371 38.718 190.017 38.5327 189.621 38.4048C189.224 38.277 188.79 38.2131 188.317 38.2131C187.541 38.2131 186.836 38.4134 186.201 38.8139C185.566 39.2145 185.061 39.8047 184.686 40.5845C184.311 41.3643 184.124 42.321 184.124 43.4545C184.124 44.5881 184.313 45.5447 184.692 46.3246C185.072 47.1044 185.585 47.6946 186.233 48.0952C186.881 48.4957 187.609 48.696 188.419 48.696C189.169 48.696 189.83 48.5362 190.401 48.2166C190.976 47.8928 191.423 47.4368 191.743 46.8487C192.067 46.2564 192.229 45.5597 192.229 44.7585L192.714 44.8608H188.777V43.4545H193.763V44.8608C193.763 45.9389 193.533 46.8764 193.072 47.6733C192.616 48.4702 191.986 49.0881 191.18 49.527C190.379 49.9616 189.459 50.179 188.419 50.179C187.26 50.179 186.241 49.9062 185.364 49.3608C184.49 48.8153 183.808 48.0398 183.318 47.0341C182.832 46.0284 182.589 44.8352 182.589 43.4545C182.589 42.419 182.728 41.4879 183.005 40.6612C183.286 39.8303 183.683 39.1229 184.194 38.5391C184.705 37.9553 185.31 37.5078 186.009 37.1967C186.708 36.8857 187.477 36.7301 188.317 36.7301C189.007 36.7301 189.651 36.8345 190.247 37.0433C190.848 37.2479 191.383 37.5398 191.852 37.919C192.325 38.294 192.719 38.7436 193.034 39.2678C193.349 39.7876 193.567 40.3651 193.686 41H192.05ZM196.478 50V36.9091H198.063V42.7386H205.043V36.9091H206.628V50H205.043V44.1449H198.063V50H196.478ZM211.387 36.9091V50H209.802V36.9091H211.387ZM219.577 36.9091H221.162V46.267C221.162 47.1023 221.009 47.8118 220.702 48.3956C220.395 48.9794 219.963 49.4226 219.404 49.7251C218.846 50.0277 218.188 50.179 217.429 50.179C216.713 50.179 216.076 50.049 215.518 49.7891C214.96 49.5249 214.521 49.1499 214.201 48.6641C213.882 48.1783 213.722 47.6009 213.722 46.9318H215.282C215.282 47.3026 215.373 47.6264 215.556 47.9034C215.744 48.1761 216 48.3892 216.324 48.5426C216.647 48.696 217.016 48.7727 217.429 48.7727C217.885 48.7727 218.273 48.6768 218.593 48.4851C218.912 48.2933 219.155 48.0121 219.321 47.6413C219.492 47.2663 219.577 46.8082 219.577 46.267V36.9091ZM224.339 50V36.9091H225.924V43.4034H226.078L231.958 36.9091H234.029L228.532 42.8153L234.029 50H232.112L227.561 43.9148L225.924 45.7557V50H224.339ZM236.081 50V36.9091H237.667V48.5938H243.752V50H236.081ZM246.206 36.9091H248.098L252.547 47.7756H252.701L257.15 36.9091H259.042V50H257.559V40.054H257.431L253.34 50H251.908L247.817 40.054H247.689V50H246.206V36.9091ZM272.601 36.9091V50H271.067L263.933 39.7216H263.805V50H262.22V36.9091H263.754L270.913 47.2131H271.041V36.9091H272.601ZM286.818 43.4545C286.818 44.8352 286.569 46.0284 286.07 47.0341C285.572 48.0398 284.888 48.8153 284.018 49.3608C283.149 49.9062 282.156 50.179 281.04 50.179C279.923 50.179 278.93 49.9062 278.061 49.3608C277.192 48.8153 276.508 48.0398 276.009 47.0341C275.511 46.0284 275.261 44.8352 275.261 43.4545C275.261 42.0739 275.511 40.8807 276.009 39.875C276.508 38.8693 277.192 38.0938 278.061 37.5483C278.93 37.0028 279.923 36.7301 281.04 36.7301C282.156 36.7301 283.149 37.0028 284.018 37.5483C284.888 38.0938 285.572 38.8693 286.07 39.875C286.569 40.8807 286.818 42.0739 286.818 43.4545ZM285.284 43.4545C285.284 42.321 285.094 41.3643 284.715 40.5845C284.34 39.8047 283.831 39.2145 283.188 38.8139C282.548 38.4134 281.832 38.2131 281.04 38.2131C280.247 38.2131 279.529 38.4134 278.886 38.8139C278.246 39.2145 277.737 39.8047 277.358 40.5845C276.983 41.3643 276.795 42.321 276.795 43.4545C276.795 44.5881 276.983 45.5447 277.358 46.3246C277.737 47.1044 278.246 47.6946 278.886 48.0952C279.529 48.4957 280.247 48.696 281.04 48.696C281.832 48.696 282.548 48.4957 283.188 48.0952C283.831 47.6946 284.34 47.1044 284.715 46.3246C285.094 45.5447 285.284 44.5881 285.284 43.4545ZM289.484 50V36.9091H293.907C294.934 36.9091 295.773 37.0945 296.425 37.4652C297.082 37.8317 297.567 38.3281 297.883 38.9545C298.198 39.581 298.356 40.2798 298.356 41.0511C298.356 41.8224 298.198 42.5234 297.883 43.1541C297.572 43.7848 297.09 44.2876 296.438 44.6626C295.786 45.0334 294.951 45.2188 293.933 45.2188H290.762V43.8125H293.881C294.585 43.8125 295.149 43.6911 295.575 43.4482C296.001 43.2053 296.31 42.8771 296.502 42.4638C296.698 42.0462 296.796 41.5753 296.796 41.0511C296.796 40.527 296.698 40.0582 296.502 39.6449C296.31 39.2315 295.999 38.9077 295.569 38.6733C295.138 38.4347 294.567 38.3153 293.856 38.3153H291.069V50H289.484ZM305.665 45.9091H307.404L308.861 47.8267L309.245 48.3381L311.418 51.2273H309.679L308.248 49.3097L307.89 48.8239L305.665 45.9091ZM311.955 43.4545C311.955 44.8352 311.706 46.0284 311.207 47.0341C310.708 48.0398 310.025 48.8153 309.155 49.3608C308.286 49.9062 307.293 50.179 306.176 50.179C305.06 50.179 304.067 49.9062 303.198 49.3608C302.328 48.8153 301.645 48.0398 301.146 47.0341C300.647 46.0284 300.398 44.8352 300.398 43.4545C300.398 42.0739 300.647 40.8807 301.146 39.875C301.645 38.8693 302.328 38.0938 303.198 37.5483C304.067 37.0028 305.06 36.7301 306.176 36.7301C307.293 36.7301 308.286 37.0028 309.155 37.5483C310.025 38.0938 310.708 38.8693 311.207 39.875C311.706 40.8807 311.955 42.0739 311.955 43.4545ZM310.421 43.4545C310.421 42.321 310.231 41.3643 309.852 40.5845C309.477 39.8047 308.968 39.2145 308.324 38.8139C307.685 38.4134 306.969 38.2131 306.176 38.2131C305.384 38.2131 304.666 38.4134 304.022 38.8139C303.383 39.2145 302.874 39.8047 302.495 40.5845C302.12 41.3643 301.932 42.321 301.932 43.4545C301.932 44.5881 302.12 45.5447 302.495 46.3246C302.874 47.1044 303.383 47.6946 304.022 48.0952C304.666 48.4957 305.384 48.696 306.176 48.696C306.969 48.696 307.685 48.4957 308.324 48.0952C308.968 47.6946 309.477 47.1044 309.852 46.3246C310.231 45.5447 310.421 44.5881 310.421 43.4545ZM314.62 50V36.9091H319.044C320.066 36.9091 320.906 37.0838 321.562 37.4332C322.218 37.7784 322.704 38.2536 323.02 38.8587C323.335 39.4638 323.493 40.152 323.493 40.9233C323.493 41.6946 323.335 42.3786 323.02 42.9751C322.704 43.5717 322.221 44.0405 321.569 44.3814C320.917 44.718 320.083 44.8864 319.069 44.8864H315.49V43.4545H319.018C319.717 43.4545 320.279 43.3523 320.706 43.1477C321.136 42.9432 321.447 42.6534 321.639 42.2784C321.835 41.8991 321.933 41.4474 321.933 40.9233C321.933 40.3991 321.835 39.9411 321.639 39.549C321.443 39.157 321.13 38.8544 320.699 38.6413C320.269 38.424 319.7 38.3153 318.993 38.3153H316.206V50H314.62ZM320.782 44.1193L324.004 50H322.163L318.993 44.1193H320.782ZM333.293 40.1818C333.216 39.5341 332.905 39.0312 332.36 38.6733C331.814 38.3153 331.145 38.1364 330.353 38.1364C329.773 38.1364 329.266 38.2301 328.831 38.4176C328.401 38.6051 328.064 38.8629 327.822 39.1911C327.583 39.5192 327.464 39.892 327.464 40.3097C327.464 40.6591 327.547 40.9595 327.713 41.2109C327.883 41.4581 328.101 41.6648 328.365 41.831C328.629 41.9929 328.906 42.1271 329.196 42.2337C329.486 42.3359 329.752 42.419 329.995 42.483L331.324 42.8409C331.665 42.9304 332.045 43.054 332.462 43.2116C332.884 43.3693 333.287 43.5845 333.67 43.8572C334.058 44.1257 334.378 44.4709 334.629 44.8928C334.881 45.3146 335.006 45.8324 335.006 46.446C335.006 47.1534 334.821 47.7926 334.45 48.3636C334.084 48.9347 333.547 49.3885 332.839 49.7251C332.136 50.0618 331.282 50.2301 330.276 50.2301C329.339 50.2301 328.527 50.0788 327.841 49.7763C327.159 49.4737 326.622 49.0518 326.23 48.5107C325.842 47.9695 325.623 47.3409 325.572 46.625H327.208C327.251 47.1193 327.417 47.5284 327.706 47.8523C328.001 48.1719 328.371 48.4105 328.819 48.5682C329.27 48.7216 329.756 48.7983 330.276 48.7983C330.881 48.7983 331.425 48.7003 331.906 48.5043C332.388 48.304 332.769 48.027 333.05 47.6733C333.331 47.3153 333.472 46.8977 333.472 46.4205C333.472 45.9858 333.351 45.6321 333.108 45.3594C332.865 45.0866 332.545 44.8651 332.149 44.6946C331.753 44.5241 331.324 44.375 330.864 44.2472L329.253 43.7869C328.231 43.4929 327.421 43.0732 326.824 42.5277C326.228 41.9822 325.93 41.2685 325.93 40.3864C325.93 39.6534 326.128 39.0142 326.524 38.4688C326.925 37.919 327.461 37.4929 328.135 37.1903C328.812 36.8835 329.569 36.7301 330.404 36.7301C331.248 36.7301 331.998 36.8814 332.654 37.1839C333.31 37.4822 333.83 37.8913 334.214 38.4112C334.601 38.9311 334.806 39.5213 334.827 40.1818H333.293ZM336.897 38.3153V36.9091H346.715V38.3153H342.598V50H341.013V38.3153H336.897ZM357.752 36.9091H359.338V45.5767C359.338 46.4716 359.127 47.2706 358.705 47.9737C358.287 48.6726 357.697 49.2244 356.934 49.6293C356.171 50.0298 355.276 50.2301 354.249 50.2301C353.222 50.2301 352.328 50.0298 351.565 49.6293C350.802 49.2244 350.21 48.6726 349.788 47.9737C349.37 47.2706 349.161 46.4716 349.161 45.5767V36.9091H350.747V45.4489C350.747 46.0881 350.887 46.657 351.169 47.1555C351.45 47.6499 351.85 48.0398 352.37 48.3253C352.894 48.6065 353.521 48.7472 354.249 48.7472C354.978 48.7472 355.605 48.6065 356.129 48.3253C356.653 48.0398 357.053 47.6499 357.33 47.1555C357.612 46.657 357.752 46.0881 357.752 45.4489V36.9091ZM363.04 36.9091L366.926 47.929H367.08L370.966 36.9091H372.628L367.821 50H366.185L361.378 36.9091H363.04ZM377.045 50L373.466 36.9091H375.076L377.812 47.571H377.94L380.727 36.9091H382.517L385.304 47.571H385.431L388.167 36.9091H389.778L386.199 50H384.562L381.673 39.5682H381.571L378.681 50H377.045ZM392.52 36.9091L395.895 42.3551H395.998L399.373 36.9091H401.239L397.123 43.4545L401.239 50H399.373L395.998 44.6562H395.895L392.52 50H390.654L394.873 43.4545L390.654 36.9091H392.52ZM402.177 36.9091H403.992L407.623 43.0199H407.776L411.407 36.9091H413.222L408.492 44.6051V50H406.907V44.6051L402.177 36.9091ZM414.838 50V48.8494L421.895 38.3153H414.761V36.9091H423.787V38.0597L416.73 48.5938H423.864V50H414.838ZM207.196 64.9091V78H205.61V66.571H205.534L202.338 68.6932V67.0824L205.61 64.9091H207.196ZM210.961 78V76.8494L215.282 72.1193C215.789 71.5653 216.206 71.0838 216.534 70.6747C216.863 70.2614 217.105 69.8736 217.263 69.5114C217.425 69.1449 217.506 68.7614 217.506 68.3608C217.506 67.9006 217.395 67.5021 217.174 67.1655C216.956 66.8288 216.658 66.5689 216.279 66.3857C215.9 66.2024 215.473 66.1108 215 66.1108C214.498 66.1108 214.059 66.2152 213.684 66.424C213.313 66.6286 213.025 66.9162 212.821 67.2869C212.62 67.6577 212.52 68.0923 212.52 68.5909H211.012C211.012 67.8239 211.189 67.1506 211.542 66.571C211.896 65.9915 212.377 65.5398 212.987 65.2159C213.6 64.892 214.289 64.7301 215.051 64.7301C215.819 64.7301 216.498 64.892 217.091 65.2159C217.683 65.5398 218.147 65.9766 218.484 66.5263C218.821 67.076 218.989 67.6875 218.989 68.3608C218.989 68.8423 218.902 69.3132 218.727 69.7734C218.556 70.2294 218.258 70.7386 217.832 71.3011C217.41 71.8594 216.824 72.5412 216.074 73.3466L213.134 76.4915V76.5938H219.219V78H210.961ZM226.282 78.179C225.439 78.179 224.686 78.0341 224.026 77.7443C223.37 77.4545 222.848 77.0518 222.46 76.5362C222.076 76.0163 221.868 75.4134 221.833 74.7273H223.444C223.478 75.1491 223.623 75.5135 223.879 75.8203C224.135 76.1229 224.469 76.3572 224.882 76.5234C225.296 76.6896 225.754 76.7727 226.257 76.7727C226.819 76.7727 227.318 76.6747 227.752 76.4787C228.187 76.2827 228.528 76.0099 228.775 75.6605C229.022 75.3111 229.146 74.9062 229.146 74.446C229.146 73.9645 229.027 73.5405 228.788 73.174C228.549 72.8033 228.2 72.5135 227.74 72.3047C227.279 72.0959 226.717 71.9915 226.052 71.9915H225.004V70.5852H226.052C226.572 70.5852 227.028 70.4915 227.42 70.304C227.816 70.1165 228.125 69.8523 228.347 69.5114C228.573 69.1705 228.686 68.7699 228.686 68.3097C228.686 67.8665 228.588 67.4808 228.392 67.1527C228.196 66.8246 227.919 66.5689 227.561 66.3857C227.207 66.2024 226.789 66.1108 226.308 66.1108C225.856 66.1108 225.43 66.1939 225.029 66.3601C224.633 66.522 224.309 66.7585 224.058 67.0696C223.806 67.3764 223.67 67.7472 223.649 68.1818H222.115C222.14 67.4957 222.347 66.8949 222.735 66.3793C223.123 65.8594 223.63 65.4545 224.256 65.1648C224.887 64.875 225.579 64.7301 226.333 64.7301C227.143 64.7301 227.838 64.8942 228.417 65.2223C228.997 65.5462 229.442 65.9744 229.753 66.5071C230.064 67.0398 230.22 67.6151 230.22 68.233C230.22 68.9702 230.026 69.5987 229.638 70.1186C229.255 70.6385 228.733 70.9986 228.072 71.1989V71.3011C228.899 71.4375 229.544 71.7891 230.009 72.3558C230.473 72.9183 230.706 73.6151 230.706 74.446C230.706 75.1577 230.512 75.7969 230.124 76.3636C229.74 76.9261 229.216 77.3693 228.551 77.6932C227.887 78.017 227.13 78.179 226.282 78.179ZM233.013 75.3153V74.0114L238.766 64.9091H239.712V66.929H239.073L234.726 73.8068V73.9091H242.473V75.3153H233.013ZM239.175 78V74.919V74.3118V64.9091H240.684V78H239.175ZM248.96 78.179C248.21 78.179 247.534 78.0298 246.933 77.7315C246.333 77.4332 245.851 77.0241 245.489 76.5043C245.127 75.9844 244.928 75.392 244.894 74.7273H246.428C246.488 75.3196 246.757 75.8097 247.234 76.1974C247.715 76.581 248.291 76.7727 248.96 76.7727C249.497 76.7727 249.974 76.647 250.392 76.3956C250.813 76.1442 251.144 75.799 251.382 75.3601C251.625 74.9169 251.747 74.4162 251.747 73.858C251.747 73.2869 251.621 72.7777 251.369 72.3303C251.122 71.8786 250.781 71.5227 250.347 71.2628C249.912 71.0028 249.416 70.8707 248.857 70.8665C248.457 70.8622 248.046 70.924 247.624 71.0518C247.202 71.1754 246.855 71.3352 246.582 71.5312L245.099 71.3523L245.892 64.9091H252.693V66.3153H247.221L246.761 70.1761H246.838C247.106 69.9631 247.443 69.7862 247.847 69.6456C248.252 69.505 248.674 69.4347 249.113 69.4347C249.914 69.4347 250.628 69.6264 251.254 70.0099C251.885 70.3892 252.379 70.9091 252.737 71.5696C253.1 72.2301 253.281 72.9844 253.281 73.8324C253.281 74.6676 253.093 75.4134 252.718 76.0696C252.347 76.7216 251.836 77.2372 251.184 77.6165C250.532 77.9915 249.791 78.179 248.96 78.179ZM260.167 78.179C259.63 78.1705 259.093 78.0682 258.556 77.8722C258.019 77.6761 257.529 77.3459 257.086 76.8814C256.642 76.4126 256.287 75.7798 256.018 74.983C255.75 74.1818 255.615 73.1761 255.615 71.9659C255.615 70.8068 255.724 69.7798 255.941 68.8849C256.159 67.9858 256.474 67.2294 256.887 66.6158C257.301 65.9979 257.799 65.5291 258.383 65.2095C258.971 64.8899 259.634 64.7301 260.371 64.7301C261.104 64.7301 261.756 64.8771 262.327 65.1712C262.902 65.4609 263.371 65.8658 263.733 66.3857C264.096 66.9055 264.33 67.5043 264.436 68.1818H262.877C262.732 67.5937 262.451 67.1058 262.033 66.718C261.615 66.3303 261.061 66.1364 260.371 66.1364C259.357 66.1364 258.558 66.5774 257.974 67.4595C257.395 68.3416 257.103 69.5795 257.098 71.1733H257.201C257.439 70.8111 257.723 70.5021 258.051 70.2464C258.383 69.9865 258.75 69.7862 259.15 69.6456C259.551 69.505 259.975 69.4347 260.422 69.4347C261.172 69.4347 261.858 69.6222 262.48 69.9972C263.103 70.3679 263.601 70.8814 263.976 71.5376C264.351 72.1896 264.539 72.9375 264.539 73.7812C264.539 74.5909 264.358 75.3324 263.995 76.0057C263.633 76.6747 263.124 77.2074 262.468 77.6037C261.816 77.9957 261.049 78.1875 260.167 78.179ZM260.167 76.7727C260.703 76.7727 261.185 76.6385 261.611 76.37C262.042 76.1016 262.38 75.7415 262.627 75.2898C262.879 74.8381 263.005 74.3352 263.005 73.7812C263.005 73.2401 262.883 72.7479 262.64 72.3047C262.402 71.8572 262.071 71.5014 261.65 71.2372C261.232 70.973 260.755 70.8409 260.218 70.8409C259.813 70.8409 259.436 70.9219 259.086 71.0838C258.737 71.2415 258.43 71.4588 258.166 71.7358C257.906 72.0128 257.701 72.3303 257.552 72.6882C257.403 73.0419 257.328 73.4148 257.328 73.8068C257.328 74.3267 257.45 74.8125 257.693 75.2642C257.94 75.7159 258.277 76.0803 258.703 76.3572C259.133 76.6342 259.621 76.7727 260.167 76.7727ZM267.461 78L273.317 66.4176V66.3153H266.567V64.9091H274.953V66.392L269.123 78H267.461ZM281.265 78.179C280.387 78.179 279.612 78.0234 278.938 77.7124C278.269 77.397 277.747 76.9645 277.372 76.4148C276.997 75.8608 276.812 75.2301 276.816 74.5227C276.812 73.9687 276.921 73.4574 277.142 72.9886C277.364 72.5156 277.666 72.1214 278.05 71.8061C278.438 71.4865 278.87 71.2841 279.347 71.1989V71.1222C278.721 70.9602 278.222 70.6087 277.852 70.0675C277.481 69.522 277.298 68.902 277.302 68.2074C277.298 67.5426 277.466 66.9482 277.807 66.424C278.148 65.8999 278.617 65.4865 279.213 65.1839C279.814 64.8814 280.498 64.7301 281.265 64.7301C282.024 64.7301 282.701 64.8814 283.298 65.1839C283.894 65.4865 284.363 65.8999 284.704 66.424C285.049 66.9482 285.224 67.5426 285.228 68.2074C285.224 68.902 285.034 69.522 284.659 70.0675C284.289 70.6087 283.796 70.9602 283.183 71.1222V71.1989C283.656 71.2841 284.082 71.4865 284.461 71.8061C284.84 72.1214 285.143 72.5156 285.369 72.9886C285.595 73.4574 285.71 73.9687 285.714 74.5227C285.71 75.2301 285.518 75.8608 285.139 76.4148C284.764 76.9645 284.242 77.397 283.573 77.7124C282.908 78.0234 282.139 78.179 281.265 78.179ZM281.265 76.7727C281.857 76.7727 282.369 76.6768 282.799 76.4851C283.23 76.2933 283.562 76.0227 283.796 75.6733C284.031 75.3239 284.15 74.9148 284.154 74.446C284.15 73.9517 284.022 73.5149 283.771 73.1357C283.519 72.7564 283.176 72.4581 282.742 72.2408C282.311 72.0234 281.819 71.9148 281.265 71.9148C280.707 71.9148 280.208 72.0234 279.769 72.2408C279.335 72.4581 278.992 72.7564 278.74 73.1357C278.493 73.5149 278.372 73.9517 278.376 74.446C278.372 74.9148 278.485 75.3239 278.715 75.6733C278.949 76.0227 279.284 76.2933 279.718 76.4851C280.153 76.6768 280.669 76.7727 281.265 76.7727ZM281.265 70.5597C281.734 70.5597 282.149 70.4659 282.512 70.2784C282.878 70.0909 283.166 69.8288 283.374 69.4922C283.583 69.1555 283.69 68.7614 283.694 68.3097C283.69 67.8665 283.585 67.4808 283.381 67.1527C283.176 66.8203 282.893 66.5646 282.531 66.3857C282.169 66.2024 281.747 66.1108 281.265 66.1108C280.775 66.1108 280.347 66.2024 279.98 66.3857C279.614 66.5646 279.33 66.8203 279.13 67.1527C278.93 67.4808 278.832 67.8665 278.836 68.3097C278.832 68.7614 278.932 69.1555 279.137 69.4922C279.345 69.8288 279.633 70.0909 279.999 70.2784C280.366 70.4659 280.788 70.5597 281.265 70.5597ZM292.331 64.7301C292.868 64.7344 293.405 64.8366 293.942 65.0369C294.479 65.2372 294.969 65.5696 295.412 66.0341C295.855 66.4943 296.211 67.1229 296.48 67.9197C296.748 68.7166 296.882 69.7159 296.882 70.9176C296.882 72.081 296.772 73.1143 296.55 74.0178C296.333 74.9169 296.017 75.6754 295.604 76.2933C295.195 76.9112 294.696 77.38 294.108 77.6996C293.525 78.0192 292.864 78.179 292.127 78.179C291.394 78.179 290.74 78.0341 290.164 77.7443C289.593 77.4503 289.125 77.0433 288.758 76.5234C288.396 75.9993 288.164 75.392 288.061 74.7017H289.621C289.762 75.3026 290.041 75.799 290.458 76.1911C290.88 76.5788 291.436 76.7727 292.127 76.7727C293.137 76.7727 293.934 76.3317 294.517 75.4496C295.105 74.5675 295.4 73.321 295.4 71.7102H295.297C295.059 72.0682 294.775 72.3771 294.447 72.6371C294.119 72.897 293.755 73.0973 293.354 73.2379C292.953 73.3786 292.527 73.4489 292.076 73.4489C291.326 73.4489 290.637 73.2635 290.011 72.8928C289.389 72.5178 288.89 72.0043 288.515 71.3523C288.145 70.696 287.959 69.946 287.959 69.1023C287.959 68.3011 288.138 67.5682 288.496 66.9034C288.858 66.2344 289.365 65.7017 290.017 65.3054C290.674 64.9091 291.445 64.7173 292.331 64.7301ZM292.331 66.1364C291.794 66.1364 291.311 66.2706 290.88 66.5391C290.454 66.8033 290.115 67.1612 289.864 67.6129C289.617 68.0604 289.493 68.5568 289.493 69.1023C289.493 69.6477 289.613 70.1442 289.851 70.5916C290.094 71.0348 290.424 71.3885 290.842 71.6527C291.264 71.9126 291.743 72.0426 292.28 72.0426C292.685 72.0426 293.062 71.9638 293.412 71.8061C293.761 71.6442 294.066 71.4247 294.326 71.1477C294.59 70.8665 294.797 70.549 294.946 70.1953C295.095 69.8374 295.169 69.4645 295.169 69.0767C295.169 68.5653 295.046 68.0859 294.799 67.6385C294.556 67.1911 294.219 66.8288 293.789 66.5518C293.363 66.2749 292.877 66.1364 292.331 66.1364ZM303.666 78.179C302.703 78.179 301.883 77.9169 301.205 77.3928C300.528 76.8643 300.01 76.0994 299.652 75.098C299.294 74.0923 299.115 72.8778 299.115 71.4545C299.115 70.0398 299.294 68.8317 299.652 67.8303C300.014 66.8246 300.534 66.0575 301.211 65.5291C301.893 64.9964 302.711 64.7301 303.666 64.7301C304.621 64.7301 305.437 64.9964 306.114 65.5291C306.796 66.0575 307.316 66.8246 307.674 67.8303C308.036 68.8317 308.217 70.0398 308.217 71.4545C308.217 72.8778 308.038 74.0923 307.68 75.098C307.322 76.0994 306.805 76.8643 306.127 77.3928C305.449 77.9169 304.629 78.179 303.666 78.179ZM303.666 76.7727C304.621 76.7727 305.362 76.3125 305.89 75.392C306.419 74.4716 306.683 73.1591 306.683 71.4545C306.683 70.321 306.562 69.3558 306.319 68.5589C306.08 67.7621 305.735 67.1548 305.283 66.7372C304.836 66.3196 304.297 66.1108 303.666 66.1108C302.72 66.1108 301.981 66.5774 301.448 67.5107C300.915 68.4396 300.649 69.7543 300.649 71.4545C300.649 72.5881 300.768 73.5511 301.007 74.3438C301.246 75.1364 301.589 75.7393 302.036 76.1527C302.488 76.5661 303.031 76.7727 303.666 76.7727ZM312.666 64.9091L312.538 74.3182H311.055L310.927 64.9091H312.666ZM311.797 78.1023C311.481 78.1023 311.211 77.9893 310.985 77.7635C310.759 77.5376 310.646 77.267 310.646 76.9517C310.646 76.6364 310.759 76.3658 310.985 76.1399C311.211 75.9141 311.481 75.8011 311.797 75.8011C312.112 75.8011 312.383 75.9141 312.608 76.1399C312.834 76.3658 312.947 76.6364 312.947 76.9517C312.947 77.1605 312.894 77.3523 312.787 77.527C312.685 77.7017 312.547 77.8423 312.372 77.9489C312.202 78.0511 312.01 78.1023 311.797 78.1023ZM323.224 79.5341C321.92 79.5341 320.767 79.3551 319.766 78.9972C318.765 78.6435 317.923 78.1214 317.241 77.4311C316.559 76.7408 316.044 75.8949 315.694 74.8935C315.345 73.892 315.17 72.7457 315.17 71.4545C315.17 70.206 315.347 69.0895 315.701 68.1051C316.059 67.1207 316.576 66.2855 317.254 65.5994C317.936 64.9091 318.762 64.3828 319.734 64.0206C320.71 63.6584 321.814 63.4773 323.045 63.4773C324.243 63.4773 325.291 63.6733 326.19 64.0653C327.093 64.4531 327.848 64.9794 328.453 65.6442C329.062 66.3047 329.518 67.0483 329.821 67.875C330.127 68.7017 330.281 69.554 330.281 70.4318C330.281 71.0497 330.251 71.6761 330.191 72.3111C330.132 72.946 330.006 73.5298 329.814 74.0625C329.623 74.5909 329.326 75.017 328.926 75.3409C328.529 75.6648 327.993 75.8267 327.315 75.8267C327.017 75.8267 326.689 75.7798 326.331 75.6861C325.973 75.5923 325.655 75.4368 325.378 75.2195C325.101 75.0021 324.937 74.7102 324.886 74.3438H324.809C324.707 74.5909 324.549 74.8253 324.336 75.0469C324.127 75.2685 323.853 75.4453 323.512 75.5774C323.175 75.7095 322.764 75.767 322.278 75.75C321.724 75.7287 321.236 75.6051 320.814 75.3793C320.392 75.1491 320.039 74.8381 319.753 74.446C319.472 74.0497 319.259 73.5916 319.114 73.0717C318.973 72.5476 318.903 71.983 318.903 71.3778C318.903 70.8026 318.988 70.2763 319.159 69.799C319.329 69.3217 319.566 68.9041 319.868 68.5462C320.175 68.1882 320.533 67.9027 320.942 67.6896C321.355 67.4723 321.801 67.3381 322.278 67.2869C322.704 67.2443 323.092 67.2635 323.441 67.3445C323.791 67.4212 324.078 67.5384 324.304 67.696C324.53 67.8494 324.673 68.0199 324.733 68.2074H324.809V67.4915H326.164V73.2699C326.164 73.6278 326.265 73.9432 326.465 74.2159C326.665 74.4886 326.957 74.625 327.341 74.625C327.775 74.625 328.108 74.4759 328.338 74.1776C328.572 73.8793 328.732 73.419 328.817 72.7969C328.907 72.1747 328.951 71.3778 328.951 70.4062C328.951 69.8352 328.873 69.2727 328.715 68.7188C328.561 68.1605 328.327 67.6385 328.012 67.1527C327.701 66.6669 327.306 66.2386 326.829 65.8679C326.352 65.4972 325.792 65.2074 325.148 64.9986C324.509 64.7855 323.782 64.679 322.968 64.679C321.967 64.679 321.07 64.8345 320.277 65.1456C319.489 65.4524 318.818 65.902 318.264 66.4943C317.714 67.0824 317.294 67.7983 317.005 68.642C316.719 69.4815 316.576 70.4361 316.576 71.5057C316.576 72.5923 316.719 73.5575 317.005 74.4013C317.294 75.245 317.721 75.9567 318.283 76.5362C318.85 77.1158 319.551 77.5568 320.386 77.8594C321.221 78.1577 322.184 78.3068 323.275 78.3068C323.744 78.3068 324.206 78.2621 324.662 78.1726C325.118 78.0831 325.521 77.9851 325.87 77.8786C326.22 77.772 326.471 77.6932 326.625 77.642L326.983 78.8182C326.718 78.929 326.373 79.0398 325.947 79.1506C325.525 79.2614 325.074 79.353 324.592 79.4254C324.115 79.4979 323.659 79.5341 323.224 79.5341ZM322.483 74.446C323.054 74.446 323.516 74.331 323.87 74.1009C324.223 73.8707 324.481 73.5234 324.643 73.0589C324.805 72.5945 324.886 72.0085 324.886 71.3011C324.886 70.5852 324.797 70.027 324.618 69.6264C324.439 69.2259 324.174 68.9446 323.825 68.7827C323.475 68.6207 323.045 68.5398 322.534 68.5398C322.048 68.5398 321.632 68.6676 321.287 68.9233C320.946 69.1747 320.684 69.5114 320.501 69.9332C320.322 70.3509 320.233 70.8068 320.233 71.3011C320.233 71.8466 320.305 72.3601 320.45 72.8416C320.595 73.3189 320.831 73.7067 321.159 74.005C321.488 74.299 321.929 74.446 322.483 74.446ZM337.422 78L339.57 64.9091H340.849L338.701 78H337.422ZM331.465 74.3693L331.67 73.0909H341.437L341.232 74.3693H331.465ZM332.82 78L334.968 64.9091H336.246L334.099 78H332.82ZM332.232 69.8182L332.437 68.5398H342.204L341.999 69.8182H332.232ZM347.73 79.6364V63.2727H348.778V79.6364H347.73ZM351.258 68.1818C351.181 67.5341 350.87 67.0312 350.325 66.6733C349.779 66.3153 349.11 66.1364 348.318 66.1364C347.738 66.1364 347.231 66.2301 346.796 66.4176C346.366 66.6051 346.029 66.8629 345.786 67.1911C345.548 67.5192 345.428 67.892 345.428 68.3097C345.428 68.6591 345.512 68.9595 345.678 69.2109C345.848 69.4581 346.066 69.6648 346.33 69.831C346.594 69.9929 346.871 70.1271 347.161 70.2337C347.45 70.3359 347.717 70.419 347.96 70.483L349.289 70.8409C349.63 70.9304 350.009 71.054 350.427 71.2116C350.849 71.3693 351.252 71.5845 351.635 71.8572C352.023 72.1257 352.343 72.4709 352.594 72.8928C352.845 73.3146 352.971 73.8324 352.971 74.446C352.971 75.1534 352.786 75.7926 352.415 76.3636C352.048 76.9347 351.512 77.3885 350.804 77.7251C350.101 78.0618 349.247 78.2301 348.241 78.2301C347.303 78.2301 346.492 78.0788 345.806 77.7763C345.124 77.4737 344.587 77.0518 344.195 76.5107C343.807 75.9695 343.588 75.3409 343.536 74.625H345.173C345.215 75.1193 345.382 75.5284 345.671 75.8523C345.965 76.1719 346.336 76.4105 346.784 76.5682C347.235 76.7216 347.721 76.7983 348.241 76.7983C348.846 76.7983 349.389 76.7003 349.871 76.5043C350.352 76.304 350.734 76.027 351.015 75.6733C351.296 75.3153 351.437 74.8977 351.437 74.4205C351.437 73.9858 351.316 73.6321 351.073 73.3594C350.83 73.0866 350.51 72.8651 350.114 72.6946C349.718 72.5241 349.289 72.375 348.829 72.2472L347.218 71.7869C346.195 71.4929 345.386 71.0732 344.789 70.5277C344.193 69.9822 343.894 69.2685 343.894 68.3864C343.894 67.6534 344.093 67.0142 344.489 66.4688C344.889 65.919 345.426 65.4929 346.1 65.1903C346.777 64.8835 347.534 64.7301 348.369 64.7301C349.213 64.7301 349.963 64.8814 350.619 65.1839C351.275 65.4822 351.795 65.8913 352.178 66.4112C352.566 66.9311 352.771 67.5213 352.792 68.1818H351.258ZM362.021 75.5455V74.8551C362.021 74.3778 362.119 73.9411 362.315 73.5447C362.515 73.1442 362.805 72.8246 363.184 72.5859C363.567 72.343 364.032 72.2216 364.577 72.2216C365.131 72.2216 365.596 72.343 365.971 72.5859C366.346 72.8246 366.629 73.1442 366.821 73.5447C367.013 73.9411 367.109 74.3778 367.109 74.8551V75.5455C367.109 76.0227 367.011 76.4616 366.815 76.8622C366.623 77.2585 366.337 77.5781 365.958 77.821C365.583 78.0597 365.123 78.179 364.577 78.179C364.023 78.179 363.557 78.0597 363.178 77.821C362.798 77.5781 362.511 77.2585 362.315 76.8622C362.119 76.4616 362.021 76.0227 362.021 75.5455ZM363.325 74.8551V75.5455C363.325 75.9418 363.418 76.2976 363.606 76.6129C363.793 76.924 364.117 77.0795 364.577 77.0795C365.025 77.0795 365.34 76.924 365.523 76.6129C365.711 76.2976 365.805 75.9418 365.805 75.5455V74.8551C365.805 74.4588 365.715 74.1051 365.536 73.794C365.357 73.4787 365.038 73.321 364.577 73.321C364.13 73.321 363.808 73.4787 363.612 73.794C363.42 74.1051 363.325 74.4588 363.325 74.8551ZM355.501 68.054V67.3636C355.501 66.8864 355.599 66.4496 355.795 66.0533C355.995 65.6527 356.285 65.3331 356.664 65.0945C357.048 64.8516 357.512 64.7301 358.058 64.7301C358.612 64.7301 359.076 64.8516 359.451 65.0945C359.826 65.3331 360.109 65.6527 360.301 66.0533C360.493 66.4496 360.589 66.8864 360.589 67.3636V68.054C360.589 68.5312 360.491 68.9702 360.295 69.3707C360.103 69.767 359.817 70.0866 359.438 70.3295C359.063 70.5682 358.603 70.6875 358.058 70.6875C357.504 70.6875 357.037 70.5682 356.658 70.3295C356.278 70.0866 355.991 69.767 355.795 69.3707C355.599 68.9702 355.501 68.5312 355.501 68.054ZM356.805 67.3636V68.054C356.805 68.4503 356.898 68.8061 357.086 69.1214C357.273 69.4325 357.597 69.5881 358.058 69.5881C358.505 69.5881 358.82 69.4325 359.004 69.1214C359.191 68.8061 359.285 68.4503 359.285 68.054V67.3636C359.285 66.9673 359.195 66.6136 359.016 66.3026C358.837 65.9872 358.518 65.8295 358.058 65.8295C357.61 65.8295 357.288 65.9872 357.092 66.3026C356.901 66.6136 356.805 66.9673 356.805 67.3636ZM355.987 78L364.987 64.9091H366.444L357.444 78H355.987ZM372.606 66.0341H373.066V66.6733H372.606V66.0341ZM369.333 70.8409L371.967 65.3182H373.705L376.339 70.8409H374.83L372.759 66.4176H372.913L370.867 70.8409H369.333ZM381.528 78.179C380.667 78.179 379.925 78.0213 379.303 77.706C378.681 77.3906 378.202 76.9581 377.865 76.4084C377.528 75.8587 377.36 75.2301 377.36 74.5227C377.36 73.9773 377.475 73.4936 377.705 73.0717C377.939 72.6456 378.261 72.2514 378.67 71.8892C379.084 71.5227 379.559 71.1562 380.096 70.7898L381.988 69.3835C382.358 69.1406 382.655 68.8807 382.876 68.6037C383.102 68.3267 383.215 67.9645 383.215 67.517C383.215 67.1847 383.068 66.8629 382.774 66.5518C382.484 66.2408 382.103 66.0852 381.63 66.0852C381.297 66.0852 381.003 66.1705 380.748 66.3409C380.496 66.5071 380.298 66.7202 380.153 66.9801C380.013 67.2358 379.942 67.5 379.942 67.7727C379.942 68.0795 380.025 68.3906 380.192 68.706C380.362 69.017 380.577 69.3366 380.837 69.6648C381.101 69.9886 381.374 70.321 381.655 70.6619L387.664 78H385.849L380.888 72.017C380.428 71.4631 380.01 70.9602 379.635 70.5085C379.26 70.0568 378.962 69.6115 378.741 69.1726C378.519 68.7337 378.408 68.2585 378.408 67.7472C378.408 67.1591 378.538 66.6435 378.798 66.2003C379.062 65.7528 379.431 65.4055 379.904 65.1584C380.381 64.907 380.939 64.7812 381.579 64.7812C382.235 64.7812 382.8 64.9091 383.273 65.1648C383.746 65.4162 384.11 65.7507 384.366 66.1683C384.621 66.5817 384.749 67.0312 384.749 67.517C384.749 68.1435 384.594 68.6868 384.282 69.147C383.971 69.6072 383.547 70.0355 383.01 70.4318L380.403 72.375C379.814 72.8097 379.416 73.2315 379.207 73.6406C378.998 74.0497 378.894 74.3437 378.894 74.5227C378.894 74.9318 379.001 75.3132 379.214 75.6669C379.427 76.0206 379.727 76.3061 380.115 76.5234C380.503 76.7408 380.956 76.8494 381.476 76.8494C381.971 76.8494 382.452 76.745 382.921 76.5362C383.39 76.3232 383.814 76.0163 384.193 75.6158C384.577 75.2152 384.879 74.7337 385.101 74.1712C385.327 73.6087 385.439 72.9759 385.439 72.2727H386.897C386.897 73.142 386.797 73.8516 386.596 74.4013C386.396 74.951 386.17 75.3814 385.919 75.6925C385.667 76.0036 385.465 76.2358 385.312 76.3892C385.26 76.4531 385.214 76.517 385.171 76.581C385.128 76.6449 385.081 76.7088 385.03 76.7727C384.608 77.2457 384.076 77.5994 383.432 77.8338C382.789 78.0639 382.154 78.179 381.528 78.179ZM391.839 72.2727L391.942 69.4602L389.564 70.9688L388.95 69.8949L391.456 68.5909L388.95 67.2869L389.564 66.2131L391.942 67.7216L391.839 64.9091H393.067L392.964 67.7216L395.342 66.2131L395.956 67.2869L393.45 68.5909L395.956 69.8949L395.342 70.9688L392.964 69.4602L393.067 72.2727H391.839ZM398.871 72.4773C398.871 70.8665 399.08 69.3857 399.497 68.0348C399.919 66.6797 400.52 65.4332 401.3 64.2955H402.629C402.322 64.7173 402.035 65.2372 401.766 65.8551C401.502 66.4687 401.27 67.1442 401.07 67.8814C400.869 68.6143 400.712 69.3729 400.597 70.157C400.486 70.9411 400.43 71.7145 400.43 72.4773C400.43 73.4915 400.528 74.5206 400.724 75.5646C400.92 76.6087 401.185 77.5781 401.517 78.473C401.849 79.3679 402.22 80.0966 402.629 80.6591H401.3C400.52 79.5213 399.919 78.277 399.497 76.9261C399.08 75.571 398.871 74.0881 398.871 72.4773ZM408.077 72.4773C408.077 74.0881 407.866 75.571 407.444 76.9261C407.026 78.277 406.428 79.5213 405.648 80.6591H404.318C404.625 80.2372 404.911 79.7173 405.175 79.0994C405.443 78.4858 405.678 77.8125 405.878 77.0795C406.078 76.3423 406.234 75.5817 406.345 74.7976C406.46 74.0092 406.517 73.2358 406.517 72.4773C406.517 71.4631 406.419 70.4339 406.223 69.3899C406.027 68.3459 405.763 67.3764 405.431 66.4815C405.098 65.5866 404.727 64.858 404.318 64.2955H405.648C406.428 65.4332 407.026 66.6797 407.444 68.0348C407.866 69.3857 408.077 70.8665 408.077 72.4773ZM418.152 78V79.4062H409.971V78H418.152ZM423.351 77.1051V68.6676H424.782V77.1051H423.351ZM419.848 73.6023V72.1705H428.285V73.6023H419.848Z" fill="#10130E"/>
</svg>
