<svg width="94" height="32" viewBox="0 0 94 32" fill="none" xmlns="http://www.w3.org/2000/svg">
<path d="M1.58523 25V11.9091H6.16193C7.07386 11.9091 7.82599 12.0668 8.41832 12.3821C9.01065 12.6932 9.45171 13.1129 9.74148 13.6413C10.0313 14.1655 10.1761 14.7472 10.1761 15.3864C10.1761 15.9489 10.076 16.4134 9.87571 16.7798C9.67969 17.1463 9.41974 17.4361 9.09588 17.6491C8.77628 17.8622 8.42898 18.0199 8.05398 18.1222V18.25C8.45455 18.2756 8.85724 18.4162 9.26207 18.6719C9.6669 18.9276 10.0057 19.294 10.2784 19.7713C10.5511 20.2486 10.6875 20.8324 10.6875 21.5227C10.6875 22.179 10.5384 22.7692 10.2401 23.2933C9.94176 23.8175 9.47088 24.233 8.82741 24.5398C8.18395 24.8466 7.34659 25 6.31534 25H1.58523ZM3.17045 23.5938H6.31534C7.35085 23.5938 8.08594 23.3935 8.5206 22.9929C8.95952 22.5881 9.17898 22.098 9.17898 21.5227C9.17898 21.0795 9.06605 20.6705 8.8402 20.2955C8.61435 19.9162 8.29261 19.6136 7.875 19.3878C7.45739 19.1577 6.96307 19.0426 6.39205 19.0426H3.17045V23.5938ZM3.17045 17.6619H6.1108C6.58807 17.6619 7.01847 17.5682 7.40199 17.3807C7.78977 17.1932 8.09659 16.929 8.32244 16.5881C8.55256 16.2472 8.66761 15.8466 8.66761 15.3864C8.66761 14.8111 8.46733 14.3232 8.06676 13.9226C7.66619 13.5178 7.03125 13.3153 6.16193 13.3153H3.17045V17.6619ZM17.0763 25.2045C16.19 25.2045 15.4123 24.9936 14.7433 24.5717C14.0785 24.1499 13.5586 23.5597 13.1836 22.8011C12.8129 22.0426 12.6275 21.1562 12.6275 20.142C12.6275 19.1193 12.8129 18.2266 13.1836 17.4638C13.5586 16.701 14.0785 16.1087 14.7433 15.6868C15.4123 15.2649 16.19 15.054 17.0763 15.054C17.9627 15.054 18.7383 15.2649 19.4031 15.6868C20.0721 16.1087 20.592 16.701 20.9627 17.4638C21.3377 18.2266 21.5252 19.1193 21.5252 20.142C21.5252 21.1562 21.3377 22.0426 20.9627 22.8011C20.592 23.5597 20.0721 24.1499 19.4031 24.5717C18.7383 24.9936 17.9627 25.2045 17.0763 25.2045ZM17.0763 23.8494C17.7496 23.8494 18.3036 23.6768 18.7383 23.3317C19.1729 22.9865 19.4947 22.5327 19.7035 21.9702C19.9123 21.4077 20.0167 20.7983 20.0167 20.142C20.0167 19.4858 19.9123 18.8743 19.7035 18.3075C19.4947 17.7408 19.1729 17.2827 18.7383 16.9332C18.3036 16.5838 17.7496 16.4091 17.0763 16.4091C16.4031 16.4091 15.8491 16.5838 15.4144 16.9332C14.9798 17.2827 14.658 17.7408 14.4492 18.3075C14.2404 18.8743 14.136 19.4858 14.136 20.142C14.136 20.7983 14.2404 21.4077 14.4492 21.9702C14.658 22.5327 14.9798 22.9865 15.4144 23.3317C15.8491 23.6768 16.4031 23.8494 17.0763 23.8494ZM27.5353 25.2045C26.7172 25.2045 25.9949 24.9979 25.3684 24.5845C24.742 24.1669 24.252 23.5788 23.8983 22.8203C23.5446 22.0575 23.3677 21.1562 23.3677 20.1165C23.3677 19.0852 23.5446 18.1903 23.8983 17.4318C24.252 16.6733 24.7441 16.0874 25.3748 15.674C26.0055 15.2607 26.7342 15.054 27.5609 15.054C28.2001 15.054 28.7051 15.1605 29.0758 15.3736C29.4508 15.5824 29.7363 15.821 29.9324 16.0895C30.1326 16.3537 30.2882 16.571 30.399 16.7415H30.5268V11.9091H32.0353V25H30.5779V23.4915H30.399C30.2882 23.6705 30.1305 23.8963 29.926 24.169C29.7214 24.4375 29.4295 24.6783 29.0502 24.8913C28.671 25.1001 28.166 25.2045 27.5353 25.2045ZM27.7399 23.8494C28.345 23.8494 28.8564 23.6918 29.274 23.3764C29.6916 23.0568 30.0091 22.6158 30.2264 22.0533C30.4437 21.4865 30.5524 20.8324 30.5524 20.0909C30.5524 19.358 30.4458 18.7166 30.2328 18.1669C30.0197 17.6129 29.7044 17.1825 29.2868 16.8757C28.8691 16.5646 28.3535 16.4091 27.7399 16.4091C27.1007 16.4091 26.568 16.5732 26.1419 16.9013C25.72 17.2251 25.4025 17.6662 25.1895 18.2244C24.9806 18.7784 24.8762 19.4006 24.8762 20.0909C24.8762 20.7898 24.9828 21.4247 25.1958 21.9957C25.4132 22.5625 25.7328 23.0142 26.1547 23.3509C26.5808 23.6832 27.1092 23.8494 27.7399 23.8494ZM35.9792 28.6818C35.7235 28.6818 35.4956 28.6605 35.2953 28.6179C35.095 28.5795 34.9565 28.5412 34.8798 28.5028L35.2633 27.1733C35.6298 27.267 35.9537 27.3011 36.2349 27.2756C36.5162 27.25 36.7654 27.1243 36.9828 26.8984C37.2044 26.6768 37.4068 26.3168 37.59 25.8182L37.8713 25.0511L34.2406 15.1818H35.877L38.5872 23.0057H38.6895L41.3997 15.1818H43.036L38.8684 26.4318C38.6809 26.9389 38.4487 27.3587 38.1717 27.6911C37.8947 28.0277 37.573 28.277 37.2065 28.4389C36.8443 28.6009 36.4352 28.6818 35.9792 28.6818ZM60.8283 16H59.2431C59.1493 15.544 58.9853 15.1435 58.7509 14.7983C58.5208 14.4531 58.2395 14.1634 57.9071 13.929C57.579 13.6903 57.2147 13.5114 56.8141 13.392C56.4135 13.2727 55.9959 13.2131 55.5613 13.2131C54.7686 13.2131 54.0506 13.4134 53.4071 13.8139C52.7679 14.2145 52.2587 14.8047 51.8794 15.5845C51.5044 16.3643 51.3169 17.321 51.3169 18.4545C51.3169 19.5881 51.5044 20.5447 51.8794 21.3246C52.2587 22.1044 52.7679 22.6946 53.4071 23.0952C54.0506 23.4957 54.7686 23.696 55.5613 23.696C55.9959 23.696 56.4135 23.6364 56.8141 23.517C57.2147 23.3977 57.579 23.2209 57.9071 22.9865C58.2395 22.7479 58.5208 22.456 58.7509 22.1108C58.9853 21.7614 59.1493 21.3608 59.2431 20.9091H60.8283C60.709 21.5781 60.4917 22.1768 60.1763 22.7053C59.861 23.2337 59.4689 23.6832 59.0002 24.054C58.5314 24.4205 58.0051 24.6996 57.4213 24.8913C56.8418 25.0831 56.2218 25.179 55.5613 25.179C54.4448 25.179 53.4519 24.9062 52.5826 24.3608C51.7132 23.8153 51.0293 23.0398 50.5307 22.0341C50.0321 21.0284 49.7828 19.8352 49.7828 18.4545C49.7828 17.0739 50.0321 15.8807 50.5307 14.875C51.0293 13.8693 51.7132 13.0938 52.5826 12.5483C53.4519 12.0028 54.4448 11.7301 55.5613 11.7301C56.2218 11.7301 56.8418 11.826 57.4213 12.0178C58.0051 12.2095 58.5314 12.4908 59.0002 12.8615C59.4689 13.228 59.861 13.6754 60.1763 14.2038C60.4917 14.728 60.709 15.3267 60.8283 16ZM67.174 25.2045C66.2876 25.2045 65.5099 24.9936 64.8409 24.5717C64.1761 24.1499 63.6562 23.5597 63.2812 22.8011C62.9105 22.0426 62.7251 21.1562 62.7251 20.142C62.7251 19.1193 62.9105 18.2266 63.2812 17.4638C63.6562 16.701 64.1761 16.1087 64.8409 15.6868C65.5099 15.2649 66.2876 15.054 67.174 15.054C68.0604 15.054 68.8359 15.2649 69.5007 15.6868C70.1697 16.1087 70.6896 16.701 71.0604 17.4638C71.4354 18.2266 71.6229 19.1193 71.6229 20.142C71.6229 21.1562 71.4354 22.0426 71.0604 22.8011C70.6896 23.5597 70.1697 24.1499 69.5007 24.5717C68.8359 24.9936 68.0604 25.2045 67.174 25.2045ZM67.174 23.8494C67.8473 23.8494 68.4013 23.6768 68.8359 23.3317C69.2706 22.9865 69.5923 22.5327 69.8011 21.9702C70.0099 21.4077 70.1143 20.7983 70.1143 20.142C70.1143 19.4858 70.0099 18.8743 69.8011 18.3075C69.5923 17.7408 69.2706 17.2827 68.8359 16.9332C68.4013 16.5838 67.8473 16.4091 67.174 16.4091C66.5007 16.4091 65.9467 16.5838 65.5121 16.9332C65.0774 17.2827 64.7557 17.7408 64.5469 18.3075C64.3381 18.8743 64.2337 19.4858 64.2337 20.142C64.2337 20.7983 64.3381 21.4077 64.5469 21.9702C64.7557 22.5327 65.0774 22.9865 65.5121 23.3317C65.9467 23.6768 66.5007 23.8494 67.174 23.8494ZM73.9256 28.6818V15.1818H75.383V16.7415H75.562C75.6728 16.571 75.8262 16.3537 76.0222 16.0895C76.2225 15.821 76.508 15.5824 76.8787 15.3736C77.2537 15.1605 77.7608 15.054 78.4 15.054C79.2267 15.054 79.9554 15.2607 80.5861 15.674C81.2168 16.0874 81.709 16.6733 82.0627 17.4318C82.4164 18.1903 82.5932 19.0852 82.5932 20.1165C82.5932 21.1562 82.4164 22.0575 82.0627 22.8203C81.709 23.5788 81.2189 24.1669 80.5925 24.5845C79.9661 24.9979 79.2438 25.2045 78.4256 25.2045C77.7949 25.2045 77.29 25.1001 76.9107 24.8913C76.5314 24.6783 76.2395 24.4375 76.035 24.169C75.8304 23.8963 75.6728 23.6705 75.562 23.4915H75.4341V28.6818H73.9256ZM75.4086 20.0909C75.4086 20.8324 75.5172 21.4865 75.7346 22.0533C75.9519 22.6158 76.2694 23.0568 76.687 23.3764C77.1046 23.6918 77.6159 23.8494 78.2211 23.8494C78.8517 23.8494 79.378 23.6832 79.7999 23.3509C80.226 23.0142 80.5456 22.5625 80.7587 21.9957C80.976 21.4247 81.0847 20.7898 81.0847 20.0909C81.0847 19.4006 80.9782 18.7784 80.7651 18.2244C80.5563 17.6662 80.2388 17.2251 79.8127 16.9013C79.3908 16.5732 78.8603 16.4091 78.2211 16.4091C77.6074 16.4091 77.0918 16.5646 76.6742 16.8757C76.2566 17.1825 75.9412 17.6129 75.7282 18.1669C75.5151 18.7166 75.4086 19.358 75.4086 20.0909ZM85.5144 28.6818C85.2587 28.6818 85.0307 28.6605 84.8304 28.6179C84.6301 28.5795 84.4917 28.5412 84.415 28.5028L84.7985 27.1733C85.165 27.267 85.4888 27.3011 85.7701 27.2756C86.0513 27.25 86.3006 27.1243 86.5179 26.8984C86.7395 26.6768 86.9419 26.3168 87.1252 25.8182L87.4064 25.0511L83.7757 15.1818H85.4121L88.1223 23.0057H88.2246L90.9348 15.1818H92.5712L88.4036 26.4318C88.2161 26.9389 87.9838 27.3587 87.7069 27.6911C87.4299 28.0277 87.1081 28.277 86.7417 28.4389C86.3794 28.6009 85.9703 28.6818 85.5144 28.6818Z" fill="#48484A"/>
</svg>
