<svg width="78" height="32" viewBox="0 0 78 32" fill="none" xmlns="http://www.w3.org/2000/svg">
<path d="M0.636364 15.1307V13.3636H9.92045V15.1307H6.32386V25H4.23295V15.1307H0.636364ZM11.7983 25H9.5483L13.6449 13.3636H16.2472L20.3494 25H18.0994L14.9915 15.75H14.9006L11.7983 25ZM11.8722 20.4375H18.0085V22.1307H11.8722V20.4375ZM29.1307 17.0795C29.036 16.7727 28.9053 16.4981 28.7386 16.2557C28.5758 16.0095 28.3788 15.7992 28.1477 15.625C27.9205 15.4508 27.6591 15.3201 27.3636 15.233C27.0682 15.142 26.7462 15.0966 26.3977 15.0966C25.7727 15.0966 25.2159 15.2538 24.7273 15.5682C24.2386 15.8826 23.8542 16.3447 23.5739 16.9545C23.2973 17.5606 23.1591 18.2992 23.1591 19.1705C23.1591 20.0492 23.2973 20.7936 23.5739 21.4034C23.8504 22.0133 24.2348 22.4773 24.7273 22.7955C25.2197 23.1098 25.7917 23.267 26.4432 23.267C27.0341 23.267 27.5455 23.1534 27.9773 22.9261C28.4129 22.6989 28.7481 22.3769 28.983 21.9602C29.2178 21.5398 29.3352 21.0473 29.3352 20.483L29.8125 20.5568H26.6534V18.9091H31.375V20.3068C31.375 21.303 31.1629 22.1648 30.7386 22.892C30.3144 23.6193 29.7311 24.1799 28.9886 24.5739C28.2462 24.964 27.3939 25.1591 26.4318 25.1591C25.3598 25.1591 24.4186 24.9186 23.608 24.4375C22.8011 23.9527 22.1705 23.2652 21.7159 22.375C21.2652 21.4811 21.0398 20.4205 21.0398 19.1932C21.0398 18.2538 21.1723 17.4148 21.4375 16.6761C21.7064 15.9375 22.0814 15.3106 22.5625 14.7955C23.0436 14.2765 23.608 13.8826 24.2557 13.6136C24.9034 13.3409 25.608 13.2045 26.3693 13.2045C27.0133 13.2045 27.6136 13.2992 28.1705 13.4886C28.7273 13.6742 29.2216 13.9394 29.6534 14.2841C30.089 14.6288 30.447 15.0379 30.7273 15.5114C31.0076 15.9848 31.1913 16.5076 31.2784 17.0795H29.1307ZM33.4134 25V13.3636H35.5213V23.233H40.6463V25H33.4134ZM44.5838 13.3636V25H42.4759V13.3636H44.5838ZM56.429 13.3636V25H54.554L49.071 17.0739H48.9744V25H46.8665V13.3636H48.7528L54.2301 21.2955H54.3324V13.3636H56.429ZM58.7259 25V13.3636H66.294V15.1307H60.8338V18.2898H65.902V20.0568H60.8338V23.233H66.3395V25H58.7259ZM74.7685 16.5625C74.7154 16.0663 74.492 15.6799 74.098 15.4034C73.7079 15.1269 73.2003 14.9886 72.5753 14.9886C72.1359 14.9886 71.759 15.0549 71.4446 15.1875C71.1302 15.3201 70.8897 15.5 70.723 15.7273C70.5563 15.9545 70.4711 16.214 70.4673 16.5057C70.4673 16.7481 70.5223 16.9583 70.6321 17.1364C70.7457 17.3144 70.8991 17.4659 71.0923 17.5909C71.2855 17.7121 71.4995 17.8144 71.7344 17.8977C71.9692 17.9811 72.206 18.0511 72.4446 18.108L73.5355 18.3807C73.9749 18.483 74.3973 18.6212 74.8026 18.7955C75.2116 18.9697 75.5772 19.1894 75.8991 19.4545C76.2249 19.7197 76.4825 20.0398 76.6719 20.4148C76.8613 20.7898 76.956 21.2292 76.956 21.733C76.956 22.4148 76.7817 23.0152 76.4332 23.5341C76.0848 24.0492 75.581 24.4527 74.9219 24.7443C74.2666 25.0322 73.473 25.1761 72.5412 25.1761C71.6359 25.1761 70.8499 25.036 70.1832 24.7557C69.5204 24.4754 69.0014 24.0663 68.6264 23.5284C68.2552 22.9905 68.0545 22.3352 68.0241 21.5625H70.098C70.1283 21.9678 70.2533 22.3049 70.473 22.5739C70.6927 22.8428 70.9787 23.0436 71.331 23.1761C71.687 23.3087 72.0848 23.375 72.5241 23.375C72.9825 23.375 73.384 23.3068 73.7287 23.1705C74.0772 23.0303 74.3499 22.8371 74.5469 22.5909C74.7438 22.3409 74.8442 22.0492 74.848 21.7159C74.8442 21.4129 74.7552 21.1629 74.581 20.9659C74.4067 20.7652 74.1624 20.5985 73.848 20.4659C73.5374 20.3295 73.1738 20.2083 72.7571 20.1023L71.4332 19.7614C70.4749 19.5152 69.7173 19.142 69.1605 18.642C68.6075 18.1383 68.331 17.4697 68.331 16.6364C68.331 15.9508 68.5166 15.3504 68.8878 14.8352C69.2628 14.3201 69.7723 13.9205 70.4162 13.6364C71.0601 13.3485 71.7893 13.2045 72.6037 13.2045C73.4295 13.2045 74.1529 13.3485 74.7741 13.6364C75.3991 13.9205 75.8897 14.3163 76.2457 14.8239C76.6018 15.3277 76.7855 15.9072 76.7969 16.5625H74.7685Z" fill="#0065F2"/>
</svg>
