<svg width="138" height="32" viewBox="0 0 138 32" fill="none" xmlns="http://www.w3.org/2000/svg">
<path d="M2.23722 25V4.63636H5.30966V13.4858H15.4616V4.63636H18.544V25H15.4616V16.1207H5.30966V25H2.23722ZM29.3622 25.3082C27.8575 25.3082 26.5616 24.9867 25.4744 24.3438C24.3939 23.6941 23.5587 22.7827 22.9688 21.6094C22.3854 20.4295 22.0938 19.0473 22.0938 17.4631C22.0938 15.8987 22.3854 14.5199 22.9688 13.3267C23.5587 12.1335 24.3807 11.2022 25.4347 10.5327C26.4953 9.86316 27.7348 9.52841 29.1534 9.52841C30.0152 9.52841 30.8504 9.67093 31.6591 9.95597C32.4678 10.241 33.1937 10.6884 33.8366 11.2983C34.4796 11.9081 34.9867 12.7003 35.358 13.6747C35.7292 14.6425 35.9148 15.8191 35.9148 17.2045V18.2585H23.7741V16.0312H33.0014C33.0014 15.2491 32.8423 14.5563 32.5241 13.9531C32.206 13.3433 31.7585 12.8627 31.1818 12.5114C30.6117 12.16 29.9422 11.9844 29.1733 11.9844C28.3381 11.9844 27.6089 12.1899 26.9858 12.6009C26.3693 13.0052 25.892 13.5355 25.554 14.1918C25.2225 14.8414 25.0568 15.5473 25.0568 16.3097V18.0497C25.0568 19.0705 25.2358 19.9389 25.5938 20.6548C25.9583 21.3707 26.4654 21.9176 27.1151 22.2955C27.7647 22.6667 28.5237 22.8523 29.392 22.8523C29.9555 22.8523 30.4692 22.7727 30.9332 22.6136C31.3973 22.4479 31.7983 22.2027 32.1364 21.8778C32.4744 21.553 32.733 21.152 32.9119 20.6747L35.7259 21.1818C35.5005 22.0104 35.0961 22.7363 34.5128 23.3594C33.9361 23.9759 33.2102 24.4564 32.3352 24.8011C31.4669 25.1392 30.4759 25.3082 29.3622 25.3082ZM43.658 25.3381C42.6902 25.3381 41.8152 25.1591 41.033 24.8011C40.2508 24.4366 39.631 23.9096 39.1737 23.2202C38.7229 22.5308 38.4975 21.6856 38.4975 20.6847C38.4975 19.8229 38.6632 19.1136 38.9947 18.5568C39.3261 18 39.7736 17.5592 40.337 17.2344C40.9004 16.9096 41.5302 16.6643 42.2262 16.4986C42.9222 16.3329 43.6315 16.2069 44.354 16.1207C45.2688 16.0147 46.0112 15.9285 46.5813 15.8622C47.1514 15.7893 47.5657 15.6733 47.8242 15.5142C48.0827 15.3551 48.212 15.0966 48.212 14.7386V14.669C48.212 13.8007 47.9667 13.1278 47.4762 12.6506C46.9923 12.1733 46.2698 11.9347 45.3086 11.9347C44.3076 11.9347 43.5188 12.1567 42.9421 12.6009C42.372 13.0384 41.9776 13.5256 41.7589 14.0625L38.9648 13.4261C39.2963 12.4981 39.7802 11.7491 40.4165 11.179C41.0595 10.6023 41.7987 10.1847 42.6339 9.92614C43.4691 9.66098 44.3474 9.52841 45.2688 9.52841C45.8787 9.52841 46.525 9.60133 47.2077 9.74716C47.8971 9.88636 48.5401 10.1449 49.1367 10.5227C49.7399 10.9006 50.2338 11.4408 50.6183 12.1435C51.0027 12.8395 51.195 13.7443 51.195 14.858V25H48.2915V22.9119H48.1722C47.98 23.2964 47.6916 23.6742 47.3072 24.0455C46.9227 24.4167 46.4289 24.7249 45.8256 24.9702C45.2224 25.2154 44.4999 25.3381 43.658 25.3381ZM44.3043 22.9517C45.1263 22.9517 45.829 22.7893 46.4123 22.4645C47.0022 22.1397 47.4497 21.7154 47.7546 21.1918C48.0662 20.6615 48.2219 20.0947 48.2219 19.4915V17.5227C48.1159 17.6288 47.9104 17.7282 47.6055 17.821C47.3072 17.9072 46.9658 17.9834 46.5813 18.0497C46.1969 18.1094 45.8223 18.1657 45.4577 18.2188C45.0932 18.2652 44.7882 18.3049 44.543 18.3381C43.9663 18.411 43.4393 18.5336 42.962 18.706C42.4914 18.8783 42.1135 19.1269 41.8285 19.4517C41.5501 19.7699 41.4109 20.1941 41.4109 20.7244C41.4109 21.4602 41.6826 22.017 42.2262 22.3949C42.7698 22.7661 43.4625 22.9517 44.3043 22.9517ZM60.8722 25.2983C59.6392 25.2983 58.5388 24.9834 57.571 24.3537C56.6098 23.7173 55.8542 22.8125 55.304 21.6392C54.7604 20.4593 54.4886 19.044 54.4886 17.3935C54.4886 15.7429 54.7637 14.331 55.3139 13.1577C55.8707 11.9844 56.633 11.0862 57.6009 10.4631C58.5687 9.83996 59.6657 9.52841 60.892 9.52841C61.84 9.52841 62.6023 9.6875 63.179 10.0057C63.7623 10.3172 64.2131 10.6818 64.5312 11.0994C64.8561 11.517 65.108 11.8849 65.2869 12.2031H65.4659V4.63636H68.4389V25H65.5355V22.6236H65.2869C65.108 22.9484 64.8494 23.3196 64.5114 23.7372C64.1799 24.1548 63.7225 24.5194 63.1392 24.831C62.5559 25.1425 61.8002 25.2983 60.8722 25.2983ZM61.5284 22.7628C62.3835 22.7628 63.1061 22.5374 63.696 22.0866C64.2926 21.6293 64.7434 20.9962 65.0483 20.1875C65.3598 19.3788 65.5156 18.4375 65.5156 17.3636C65.5156 16.303 65.3632 15.375 65.0582 14.5795C64.7533 13.7841 64.3059 13.1643 63.7159 12.7202C63.1259 12.276 62.3968 12.054 61.5284 12.054C60.6335 12.054 59.8878 12.286 59.2912 12.75C58.6946 13.214 58.2438 13.8471 57.9389 14.6491C57.6406 15.4512 57.4915 16.3561 57.4915 17.3636C57.4915 18.3845 57.6439 19.3026 57.9489 20.1179C58.2538 20.9332 58.7045 21.5795 59.3011 22.0568C59.9044 22.5275 60.6468 22.7628 61.5284 22.7628ZM72.6822 25V9.72727H75.6552V25H72.6822ZM74.1836 7.37074C73.6665 7.37074 73.2224 7.19839 72.8512 6.85369C72.4866 6.50237 72.3043 6.08475 72.3043 5.60085C72.3043 5.11032 72.4866 4.69271 72.8512 4.34801C73.2224 3.99668 73.6665 3.82102 74.1836 3.82102C74.7006 3.82102 75.1415 3.99668 75.506 4.34801C75.8772 4.69271 76.0629 5.11032 76.0629 5.60085C76.0629 6.08475 75.8772 6.50237 75.506 6.85369C75.1415 7.19839 74.7006 7.37074 74.1836 7.37074ZM82.6278 15.9318V25H79.6548V9.72727H82.5085V12.2131H82.6974C83.0488 11.4044 83.599 10.7547 84.348 10.2642C85.1037 9.77367 86.0549 9.52841 87.2017 9.52841C88.2424 9.52841 89.1539 9.74716 89.9361 10.1847C90.7183 10.6155 91.3248 11.2585 91.7557 12.1136C92.1866 12.9687 92.402 14.026 92.402 15.2855V25H89.429V15.6435C89.429 14.5365 89.1406 13.6714 88.5639 13.0483C87.9872 12.4186 87.1951 12.1037 86.1875 12.1037C85.4981 12.1037 84.8849 12.2528 84.348 12.5511C83.8177 12.8494 83.3968 13.2869 83.0852 13.8636C82.7803 14.4337 82.6278 15.1231 82.6278 15.9318ZM102.793 31.0455C101.58 31.0455 100.536 30.8864 99.6605 30.5682C98.7921 30.25 98.0829 29.8291 97.5327 29.3054C96.9825 28.7817 96.5715 28.2083 96.2997 27.5852L98.8551 26.5312C99.0341 26.8229 99.2727 27.1312 99.571 27.456C99.8759 27.7874 100.287 28.0691 100.804 28.3011C101.328 28.5331 102 28.6491 102.822 28.6491C103.949 28.6491 104.881 28.3741 105.616 27.8239C106.352 27.2803 106.72 26.4119 106.72 25.2188V22.2159H106.531C106.352 22.5407 106.094 22.902 105.756 23.2997C105.424 23.6974 104.967 24.0421 104.384 24.3338C103.8 24.6255 103.041 24.7713 102.107 24.7713C100.9 24.7713 99.813 24.4896 98.8452 23.9261C97.884 23.3561 97.1217 22.5175 96.5582 21.4105C96.0014 20.2969 95.723 18.928 95.723 17.304C95.723 15.6799 95.9981 14.2879 96.5483 13.1278C97.1051 11.9678 97.8674 11.0795 98.8352 10.4631C99.803 9.83996 100.9 9.52841 102.126 9.52841C103.074 9.52841 103.84 9.6875 104.423 10.0057C105.007 10.3172 105.461 10.6818 105.786 11.0994C106.117 11.517 106.372 11.8849 106.551 12.2031H106.77V9.72727H109.683V25.3381C109.683 26.6506 109.378 27.7277 108.768 28.5696C108.159 29.4115 107.333 30.0346 106.293 30.4389C105.259 30.8433 104.092 31.0455 102.793 31.0455ZM102.763 22.3054C103.618 22.3054 104.34 22.1065 104.93 21.7088C105.527 21.3045 105.978 20.7277 106.283 19.9787C106.594 19.223 106.75 18.3182 106.75 17.2642C106.75 16.2367 106.598 15.3319 106.293 14.5497C105.988 13.7675 105.54 13.1577 104.95 12.7202C104.36 12.276 103.631 12.054 102.763 12.054C101.868 12.054 101.122 12.286 100.526 12.75C99.929 13.2074 99.4782 13.8305 99.1733 14.6193C98.875 15.4081 98.7259 16.2898 98.7259 17.2642C98.7259 18.2652 98.8783 19.1435 99.1832 19.8991C99.4882 20.6548 99.9389 21.2448 100.536 21.669C101.139 22.0933 101.881 22.3054 102.763 22.3054ZM128.13 25.2784C126.765 25.2784 125.545 25.0431 124.471 24.5724C123.404 24.1018 122.559 23.4489 121.936 22.6136C121.319 21.7718 120.988 20.7973 120.941 19.6903H124.064C124.103 20.2936 124.306 20.8172 124.67 21.2614C125.041 21.6989 125.525 22.0369 126.122 22.2756C126.718 22.5142 127.381 22.6335 128.11 22.6335C128.913 22.6335 129.622 22.4943 130.238 22.2159C130.861 21.9375 131.349 21.5497 131.7 21.0526C132.051 20.5488 132.227 19.9688 132.227 19.3125C132.227 18.6297 132.051 18.0298 131.7 17.5128C131.355 16.9891 130.848 16.5781 130.179 16.2798C129.516 15.9815 128.714 15.8324 127.772 15.8324H126.052V13.3267H127.772C128.528 13.3267 129.191 13.1908 129.761 12.919C130.338 12.6473 130.788 12.2694 131.113 11.7855C131.438 11.295 131.6 10.7216 131.6 10.0653C131.6 9.43561 131.458 8.88873 131.173 8.42472C130.895 7.95407 130.497 7.58617 129.98 7.32102C129.469 7.05587 128.866 6.92329 128.17 6.92329C127.507 6.92329 126.887 7.04593 126.311 7.29119C125.741 7.52983 125.277 7.87453 124.919 8.32528C124.561 8.76941 124.368 9.30303 124.342 9.92614H121.369C121.402 8.82576 121.727 7.85795 122.343 7.02273C122.967 6.1875 123.788 5.53456 124.809 5.06392C125.83 4.59328 126.964 4.35795 128.21 4.35795C129.516 4.35795 130.643 4.61316 131.591 5.12358C132.545 5.62737 133.281 6.30019 133.798 7.14204C134.322 7.9839 134.58 8.9053 134.574 9.90625C134.58 11.0464 134.262 12.0142 133.619 12.8097C132.983 13.6051 132.134 14.1387 131.074 14.4105V14.5696C132.426 14.7751 133.473 15.312 134.216 16.1804C134.965 17.0488 135.336 18.1259 135.329 19.4119C135.336 20.5322 135.024 21.5365 134.395 22.4247C133.771 23.313 132.92 24.0123 131.839 24.5227C130.759 25.0265 129.522 25.2784 128.13 25.2784Z" fill="black"/>
</svg>
