<svg width="100" height="32" viewBox="0 0 100 32" fill="none" xmlns="http://www.w3.org/2000/svg">
<path d="M1.2642 25V10.4545H4.33949V16.456H10.5824V10.4545H13.6506V25H10.5824V18.9915H4.33949V25H1.2642ZM21.1009 25.2131C19.9787 25.2131 19.0128 24.9858 18.2031 24.5312C17.3982 24.072 16.7779 23.4233 16.3423 22.5852C15.9067 21.7424 15.6889 20.7457 15.6889 19.5952C15.6889 18.473 15.9067 17.4882 16.3423 16.6406C16.7779 15.7931 17.3911 15.1326 18.1818 14.6591C18.9773 14.1856 19.91 13.9489 20.9801 13.9489C21.6998 13.9489 22.3698 14.0649 22.9901 14.2969C23.6151 14.5241 24.1596 14.8674 24.6236 15.3267C25.0923 15.786 25.4569 16.3636 25.7173 17.0597C25.9777 17.7509 26.108 18.5606 26.108 19.4886V20.3196H16.8963V18.4446H23.2599C23.2599 18.009 23.1652 17.6231 22.9759 17.2869C22.7865 16.9508 22.5237 16.688 22.1875 16.4986C21.8561 16.3045 21.4702 16.2074 21.0298 16.2074C20.5705 16.2074 20.1634 16.3139 19.8082 16.527C19.4579 16.7353 19.1832 17.017 18.9844 17.3722C18.7855 17.7225 18.6837 18.1132 18.679 18.544V20.3267C18.679 20.8665 18.7784 21.3329 18.9773 21.7259C19.1809 22.1188 19.4673 22.4219 19.8366 22.6349C20.206 22.848 20.6439 22.9545 21.1506 22.9545C21.4867 22.9545 21.7945 22.9072 22.0739 22.8125C22.3532 22.7178 22.5923 22.5758 22.7912 22.3864C22.9901 22.197 23.1416 21.965 23.2457 21.6903L26.044 21.875C25.902 22.5473 25.6108 23.1345 25.1705 23.6364C24.7348 24.1335 24.1714 24.5218 23.4801 24.8011C22.7936 25.0758 22.0005 25.2131 21.1009 25.2131ZM31.1932 25.206C30.4972 25.206 29.8769 25.0852 29.3324 24.8438C28.7879 24.5975 28.357 24.2353 28.0398 23.7571C27.7273 23.2741 27.571 22.6728 27.571 21.9531C27.571 21.3471 27.6823 20.8381 27.9048 20.4261C28.1274 20.0142 28.4304 19.6828 28.8139 19.4318C29.1974 19.1809 29.633 18.9915 30.1207 18.8636C30.6132 18.7358 31.1293 18.6458 31.669 18.5938C32.3035 18.5275 32.8149 18.4659 33.2031 18.4091C33.5914 18.3475 33.8731 18.2576 34.0483 18.1392C34.2235 18.0208 34.3111 17.8456 34.3111 17.6136V17.571C34.3111 17.1212 34.169 16.7732 33.8849 16.527C33.6056 16.2808 33.2079 16.1577 32.6918 16.1577C32.1473 16.1577 31.714 16.2784 31.392 16.5199C31.0701 16.7566 30.857 17.0549 30.7528 17.4148L27.9545 17.1875C28.0966 16.5246 28.3759 15.9517 28.7926 15.4688C29.2093 14.9811 29.7467 14.607 30.4048 14.3466C31.0677 14.0814 31.8348 13.9489 32.706 13.9489C33.312 13.9489 33.892 14.0199 34.446 14.1619C35.0047 14.304 35.4995 14.5241 35.9304 14.8224C36.366 15.1207 36.7093 15.5043 36.9602 15.973C37.2112 16.437 37.3366 16.9934 37.3366 17.642V25H34.4673V23.4872H34.3821C34.2069 23.8281 33.9725 24.1288 33.679 24.3892C33.3854 24.6449 33.0327 24.8461 32.6207 24.9929C32.2088 25.1349 31.733 25.206 31.1932 25.206ZM32.0597 23.1179C32.5047 23.1179 32.8977 23.0303 33.2386 22.8551C33.5795 22.6752 33.8471 22.4337 34.0412 22.1307C34.2353 21.8277 34.3324 21.4844 34.3324 21.1009V19.9432C34.2377 20.0047 34.1075 20.0616 33.9418 20.1136C33.7808 20.161 33.5985 20.206 33.3949 20.2486C33.1913 20.2865 32.9877 20.322 32.7841 20.3551C32.5805 20.3835 32.3958 20.4096 32.2301 20.4332C31.875 20.4853 31.5649 20.5682 31.2997 20.6818C31.0346 20.7955 30.8286 20.9493 30.6818 21.1435C30.535 21.3329 30.4616 21.5696 30.4616 21.8537C30.4616 22.2656 30.6108 22.5805 30.9091 22.7983C31.2121 23.0114 31.5956 23.1179 32.0597 23.1179ZM43.7038 25.1776C42.8752 25.1776 42.1248 24.9645 41.4524 24.5384C40.7848 24.1075 40.2545 23.4754 39.8615 22.642C39.4732 21.804 39.2791 20.7765 39.2791 19.5597C39.2791 18.3097 39.4804 17.2704 39.8828 16.4418C40.2853 15.6084 40.8203 14.9858 41.4879 14.5739C42.1603 14.1572 42.8965 13.9489 43.6967 13.9489C44.3075 13.9489 44.8165 14.053 45.2237 14.2614C45.6357 14.465 45.9671 14.7206 46.218 15.0284C46.4737 15.3314 46.6679 15.6297 46.8004 15.9233H46.8928V10.4545H49.9112V25H46.9283V23.2528H46.8004C46.6584 23.5559 46.4571 23.8565 46.1967 24.1548C45.9411 24.4484 45.6072 24.6922 45.1953 24.8864C44.7881 25.0805 44.291 25.1776 43.7038 25.1776ZM44.6626 22.7699C45.1503 22.7699 45.5623 22.6373 45.8984 22.3722C46.2393 22.1023 46.4998 21.7259 46.6797 21.2429C46.8643 20.7599 46.9567 20.1941 46.9567 19.5455C46.9567 18.8968 46.8667 18.3333 46.6868 17.8551C46.5069 17.3769 46.2464 17.0076 45.9055 16.7472C45.5646 16.4867 45.1503 16.3565 44.6626 16.3565C44.1655 16.3565 43.7464 16.4915 43.4055 16.7614C43.0646 17.0312 42.8066 17.4053 42.6314 17.8835C42.4562 18.3617 42.3686 18.9157 42.3686 19.5455C42.3686 20.1799 42.4562 20.741 42.6314 21.2287C42.8113 21.7116 43.0694 22.0904 43.4055 22.3651C43.7464 22.6349 44.1655 22.7699 44.6626 22.7699ZM52.3988 25V14.0909H55.4244V25H52.3988ZM53.9187 12.6847C53.4689 12.6847 53.083 12.5355 52.761 12.2372C52.4438 11.9342 52.2852 11.572 52.2852 11.1506C52.2852 10.7339 52.4438 10.3764 52.761 10.0781C53.083 9.77509 53.4689 9.62358 53.9187 9.62358C54.3685 9.62358 54.752 9.77509 55.0692 10.0781C55.3912 10.3764 55.5522 10.7339 55.5522 11.1506C55.5522 11.572 55.3912 11.9342 55.0692 12.2372C54.752 12.5355 54.3685 12.6847 53.9187 12.6847ZM60.8736 18.6932V25H57.848V14.0909H60.7315V16.0156H60.8594C61.1009 15.3812 61.5057 14.8793 62.0739 14.5099C62.642 14.1359 63.331 13.9489 64.1406 13.9489C64.8982 13.9489 65.5587 14.1146 66.1222 14.446C66.6856 14.7775 67.1236 15.2509 67.4361 15.8665C67.7486 16.4773 67.9048 17.2064 67.9048 18.054V25H64.8793V18.5938C64.884 17.9261 64.7135 17.4053 64.3679 17.0312C64.0223 16.6525 63.5464 16.4631 62.9403 16.4631C62.5331 16.4631 62.1733 16.5507 61.8608 16.7259C61.553 16.901 61.3116 17.1567 61.1364 17.4929C60.9659 17.8243 60.8783 18.2244 60.8736 18.6932ZM75.2042 29.3182C74.2241 29.3182 73.3836 29.1832 72.6829 28.9134C71.9869 28.6482 71.4329 28.286 71.021 27.8267C70.609 27.3674 70.3415 26.8513 70.2184 26.2784L73.0167 25.902C73.1019 26.1198 73.2369 26.3234 73.4215 26.5128C73.6062 26.7022 73.85 26.8537 74.1531 26.9673C74.4608 27.0857 74.8349 27.1449 75.2752 27.1449C75.9334 27.1449 76.4755 26.9839 76.9016 26.6619C77.3325 26.3447 77.5479 25.812 77.5479 25.0639V23.0682H77.4201C77.2875 23.3712 77.0887 23.6577 76.8235 23.9276C76.5584 24.1974 76.2174 24.4176 75.8008 24.5881C75.3841 24.7585 74.887 24.8438 74.3093 24.8438C73.4902 24.8438 72.7444 24.6544 72.0721 24.2756C71.4045 23.892 70.8718 23.3073 70.4741 22.5213C70.0811 21.7306 69.8846 20.7315 69.8846 19.5241C69.8846 18.2884 70.0858 17.2562 70.4883 16.4276C70.8907 15.599 71.4258 14.9787 72.0934 14.5668C72.7657 14.1548 73.502 13.9489 74.3022 13.9489C74.913 13.9489 75.4244 14.053 75.8363 14.2614C76.2482 14.465 76.5797 14.7206 76.8306 15.0284C77.0863 15.3314 77.2828 15.6297 77.4201 15.9233H77.5337V14.0909H80.538V25.1065C80.538 26.0346 80.3107 26.8111 79.8562 27.4361C79.4016 28.0611 78.7719 28.5298 77.967 28.8423C77.1668 29.1596 76.2459 29.3182 75.2042 29.3182ZM75.2681 22.571C75.7558 22.571 76.1677 22.4503 76.5039 22.2088C76.8448 21.9626 77.1052 21.6122 77.2852 21.1577C77.4698 20.6984 77.5621 20.1491 77.5621 19.5099C77.5621 18.8707 77.4722 18.3168 77.2923 17.848C77.1123 17.3745 76.8519 17.0076 76.511 16.7472C76.1701 16.4867 75.7558 16.3565 75.2681 16.3565C74.771 16.3565 74.3519 16.4915 74.011 16.7614C73.6701 17.0265 73.4121 17.3958 73.2369 17.8693C73.0617 18.3428 72.9741 18.8897 72.9741 19.5099C72.9741 20.1397 73.0617 20.6842 73.2369 21.1435C73.4168 21.598 73.6748 21.9508 74.011 22.2017C74.3519 22.4479 74.771 22.571 75.2681 22.571ZM87.326 22.4432V20.0213L93.3984 10.4545H95.4865V13.8068H94.2507L90.4226 19.8651V19.9787H99.0518V22.4432H87.326ZM94.3075 25V21.7045L94.3643 20.6321V10.4545H97.2479V25H94.3075Z" fill="#0065F2"/>
</svg>
