<svg width="347" height="215" viewBox="0 0 347 215" fill="none" xmlns="http://www.w3.org/2000/svg">
<path d="M48.8457 212H0.920264L73.9445 0.467168H131.579L204.5 212H156.575L103.588 48.8057H101.935L48.8457 212ZM45.8503 128.854H159.053V163.765H45.8503V128.854ZM257.594 214.995C247.472 214.995 238.451 213.239 230.532 209.728C222.614 206.147 216.348 200.879 211.734 193.925C207.189 186.901 204.917 178.156 204.917 167.69C204.917 158.876 206.535 151.474 209.772 145.483C213.008 139.492 217.415 134.672 222.992 131.023C228.57 127.373 234.905 124.619 241.997 122.76C249.159 120.9 256.664 119.592 264.514 118.835C273.741 117.871 281.178 116.975 286.824 116.149C292.47 115.254 296.568 113.946 299.115 112.224C301.663 110.503 302.937 107.955 302.937 104.581V103.961C302.937 97.4197 300.871 92.3586 296.74 88.778C292.677 85.1974 286.893 83.407 279.387 83.407C271.469 83.407 265.168 85.1629 260.486 88.6747C255.803 92.1176 252.705 96.4557 251.19 101.689L210.495 98.3837C212.56 88.7436 216.623 80.4117 222.683 73.3882C228.742 66.2957 236.557 60.8559 246.129 57.0687C255.769 53.2127 266.924 51.2846 279.594 51.2846C288.408 51.2846 296.843 52.3175 304.899 54.3832C313.025 56.449 320.22 59.6509 326.486 63.989C332.821 68.3271 337.814 73.9046 341.463 80.7216C345.113 87.4697 346.937 95.5605 346.937 104.994V212H305.209V190H303.97C301.422 194.958 298.014 199.33 293.744 203.117C289.475 206.836 284.345 209.762 278.355 211.897C272.364 213.962 265.444 214.995 257.594 214.995ZM270.195 184.629C276.667 184.629 282.383 183.355 287.341 180.807C292.298 178.191 296.189 174.679 299.012 170.272C301.835 165.865 303.247 160.873 303.247 155.295V138.459C301.87 139.354 299.976 140.181 297.566 140.938C295.225 141.627 292.574 142.281 289.613 142.901C286.652 143.452 283.691 143.968 280.73 144.45C277.769 144.863 275.084 145.242 272.674 145.586C267.509 146.344 262.999 147.549 259.143 149.201C255.287 150.854 252.292 153.092 250.157 155.915C248.022 158.669 246.955 162.112 246.955 166.244C246.955 172.234 249.124 176.813 253.462 179.981C257.869 183.079 263.447 184.629 270.195 184.629Z" fill="#10130E"/>
</svg>
