<svg width="279" height="70" viewBox="0 0 279 70" fill="none" xmlns="http://www.w3.org/2000/svg">
<path d="M3.66619 56V13.8182H12.5845V31.2223H30.6889V13.8182H39.5866V56H30.6889V38.5753H12.5845V56H3.66619ZM61.1925 56.6179C57.9382 56.6179 55.1371 55.9588 52.7891 54.6406C50.4548 53.3087 48.656 51.4276 47.3928 48.9972C46.1295 46.553 45.4979 43.6626 45.4979 40.326C45.4979 37.0717 46.1295 34.2157 47.3928 31.7578C48.656 29.3 50.4342 27.3845 52.7273 26.0114C55.0341 24.6383 57.7391 23.9517 60.8423 23.9517C62.9295 23.9517 64.8724 24.2881 66.6712 24.9609C68.4837 25.62 70.0627 26.6155 71.4084 27.9474C72.7678 29.2794 73.825 30.9545 74.5803 32.973C75.3355 34.9777 75.7131 37.3258 75.7131 40.017V42.4268H48.9993V36.9893H67.4538C67.4538 35.7261 67.1792 34.607 66.63 33.6321C66.0807 32.6572 65.3187 31.8951 64.3438 31.3459C63.3826 30.7829 62.2635 30.5014 60.9865 30.5014C59.6546 30.5014 58.4737 30.8104 57.4439 31.4283C56.4278 32.0324 55.6314 32.8494 55.0547 33.8793C54.478 34.8954 54.1828 36.0282 54.169 37.2777V42.4474C54.169 44.0128 54.4574 45.3653 55.0341 46.505C55.6245 47.6446 56.4553 48.5234 57.5263 49.1413C58.5973 49.7592 59.8674 50.0682 61.3366 50.0682C62.3116 50.0682 63.2041 49.9309 64.0142 49.6562C64.8243 49.3816 65.5178 48.9697 66.0945 48.4205C66.6712 47.8712 67.1106 47.1984 67.4126 46.402L75.5277 46.9375C75.1158 48.8873 74.2713 50.59 72.9943 52.0455C71.7311 53.4872 70.0971 54.6132 68.0923 55.4233C66.1013 56.2197 63.8014 56.6179 61.1925 56.6179ZM90.4602 56.5973C88.4418 56.5973 86.643 56.2472 85.0639 55.5469C83.4848 54.8329 82.2353 53.7824 81.3153 52.3956C80.4091 50.995 79.956 49.2512 79.956 47.1641C79.956 45.4065 80.2786 43.9304 80.924 42.7358C81.5694 41.5412 82.4482 40.58 83.5604 39.8523C84.6726 39.1245 85.9358 38.5753 87.3501 38.2045C88.7782 37.8338 90.2749 37.5729 91.8402 37.4219C93.6802 37.2296 95.1631 37.0511 96.2891 36.8864C97.415 36.7079 98.232 36.447 98.7401 36.1037C99.2481 35.7604 99.5021 35.2524 99.5021 34.5795V34.456C99.5021 33.1515 99.0902 32.1423 98.2663 31.4283C97.4562 30.7143 96.3028 30.3572 94.8061 30.3572C93.227 30.3572 91.9706 30.7074 91.0369 31.4077C90.1032 32.0942 89.4853 32.9593 89.1832 34.0028L81.0682 33.3438C81.4801 31.4214 82.2902 29.7599 83.4986 28.3594C84.7069 26.9451 86.2654 25.8603 88.174 25.1051C90.0964 24.3362 92.3208 23.9517 94.8473 23.9517C96.6049 23.9517 98.2869 24.1577 99.8935 24.5696C101.514 24.9815 102.949 25.62 104.198 26.4851C105.461 27.3501 106.457 28.4624 107.185 29.8217C107.912 31.1674 108.276 32.7808 108.276 34.6619V56H99.9553V51.6129H99.7081C99.2 52.6016 98.5204 53.4735 97.669 54.2287C96.8177 54.9702 95.7947 55.5537 94.6001 55.9794C93.4055 56.3913 92.0256 56.5973 90.4602 56.5973ZM92.973 50.5419C94.2637 50.5419 95.4034 50.2879 96.392 49.7798C97.3807 49.258 98.1565 48.5578 98.7195 47.679C99.2824 46.8002 99.5639 45.8047 99.5639 44.6925V41.3352C99.2893 41.5137 98.9117 41.6785 98.4311 41.8295C97.9643 41.9669 97.4356 42.0973 96.8452 42.2209C96.2547 42.3307 95.6643 42.4337 95.0739 42.5298C94.4834 42.6122 93.9479 42.6877 93.4673 42.7564C92.4375 42.9074 91.5381 43.1477 90.7692 43.4773C90.0002 43.8068 89.4029 44.2531 88.9773 44.8161C88.5516 45.3653 88.3388 46.0518 88.3388 46.8757C88.3388 48.0703 88.7713 48.9834 89.6364 49.6151C90.5152 50.233 91.6274 50.5419 92.973 50.5419ZM126.741 56.5149C124.338 56.5149 122.162 55.897 120.212 54.6612C118.276 53.4117 116.738 51.5786 115.598 49.1619C114.472 46.7315 113.909 43.7519 113.909 40.223C113.909 36.598 114.493 33.584 115.66 31.1811C116.827 28.7644 118.379 26.9588 120.315 25.7642C122.265 24.5559 124.4 23.9517 126.721 23.9517C128.492 23.9517 129.968 24.2538 131.149 24.858C132.343 25.4484 133.305 26.1899 134.032 27.0824C134.774 27.9612 135.337 28.8262 135.721 29.6776H135.989V13.8182H144.743V56H136.092V50.9332H135.721C135.309 51.812 134.726 52.6839 133.971 53.549C133.229 54.4003 132.261 55.1075 131.066 55.6705C129.886 56.2334 128.444 56.5149 126.741 56.5149ZM129.522 49.5327C130.936 49.5327 132.131 49.1482 133.105 48.3793C134.094 47.5966 134.849 46.505 135.371 45.1044C135.907 43.7038 136.174 42.063 136.174 40.1818C136.174 38.3007 135.913 36.6667 135.392 35.2798C134.87 33.893 134.115 32.822 133.126 32.0668C132.137 31.3116 130.936 30.9339 129.522 30.9339C128.08 30.9339 126.865 31.3253 125.876 32.108C124.887 32.8906 124.139 33.9754 123.631 35.3622C123.123 36.7491 122.869 38.3556 122.869 40.1818C122.869 42.0218 123.123 43.6489 123.631 45.0632C124.153 46.4638 124.901 47.5623 125.876 48.3587C126.865 49.1413 128.08 49.5327 129.522 49.5327ZM151.956 56V24.3636H160.731V56H151.956ZM156.364 20.2855C155.06 20.2855 153.941 19.853 153.007 18.9879C152.087 18.1091 151.627 17.0587 151.627 15.8366C151.627 14.6283 152.087 13.5916 153.007 12.7266C153.941 11.8478 155.06 11.4084 156.364 11.4084C157.669 11.4084 158.781 11.8478 159.701 12.7266C160.635 13.5916 161.101 14.6283 161.101 15.8366C161.101 17.0587 160.635 18.1091 159.701 18.9879C158.781 19.853 157.669 20.2855 156.364 20.2855ZM176.533 37.7102V56H167.759V24.3636H176.121V29.9453H176.492C177.192 28.1053 178.366 26.6499 180.014 25.5788C181.662 24.4941 183.66 23.9517 186.008 23.9517C188.205 23.9517 190.12 24.4323 191.754 25.3935C193.388 26.3546 194.658 27.7277 195.565 29.5128C196.471 31.2841 196.924 33.3987 196.924 35.8565V56H188.15V37.4219C188.164 35.4858 187.669 33.9754 186.667 32.8906C185.665 31.7921 184.285 31.2429 182.527 31.2429C181.346 31.2429 180.303 31.4969 179.396 32.005C178.504 32.513 177.804 33.2545 177.295 34.2294C176.801 35.1906 176.547 36.3509 176.533 37.7102ZM218.092 68.5227C215.25 68.5227 212.813 68.1314 210.78 67.3487C208.762 66.5798 207.155 65.5294 205.961 64.1974C204.766 62.8655 203.99 61.3688 203.633 59.7074L211.748 58.6158C211.996 59.2474 212.387 59.8378 212.922 60.3871C213.458 60.9363 214.165 61.3757 215.044 61.7053C215.936 62.0485 217.021 62.2202 218.298 62.2202C220.207 62.2202 221.779 61.7533 223.015 60.8196C224.264 59.8996 224.889 58.3549 224.889 56.1854V50.3977H224.518C224.134 51.2765 223.557 52.1072 222.788 52.8899C222.019 53.6726 221.031 54.3111 219.822 54.8054C218.614 55.2997 217.172 55.5469 215.497 55.5469C213.122 55.5469 210.959 54.9976 209.009 53.8991C207.073 52.7869 205.528 51.0911 204.375 48.8118C203.235 46.5187 202.665 43.6214 202.665 40.12C202.665 36.5362 203.249 33.5428 204.416 31.1399C205.583 28.737 207.135 26.9382 209.071 25.7436C211.021 24.549 213.156 23.9517 215.476 23.9517C217.248 23.9517 218.731 24.2538 219.925 24.858C221.12 25.4484 222.081 26.1899 222.809 27.0824C223.55 27.9612 224.12 28.8262 224.518 29.6776H224.848V24.3636H233.56V56.3089C233.56 59.0002 232.901 61.2521 231.583 63.0646C230.265 64.8771 228.439 66.2365 226.104 67.1428C223.784 68.0627 221.113 68.5227 218.092 68.5227ZM218.278 48.956C219.692 48.956 220.886 48.6058 221.861 47.9055C222.85 47.1915 223.605 46.1754 224.127 44.8572C224.662 43.5253 224.93 41.9325 224.93 40.0788C224.93 38.2251 224.669 36.6186 224.148 35.2592C223.626 33.8861 222.871 32.822 221.882 32.0668C220.893 31.3116 219.692 30.9339 218.278 30.9339C216.836 30.9339 215.621 31.3253 214.632 32.108C213.643 32.8769 212.895 33.9479 212.387 35.321C211.879 36.6941 211.625 38.2801 211.625 40.0788C211.625 41.9051 211.879 43.4841 212.387 44.8161C212.909 46.1342 213.657 47.1572 214.632 47.8849C215.621 48.599 216.836 48.956 218.278 48.956ZM272.235 13.8182V56H263.317V22.2834H263.07L253.41 28.3388V20.4297L263.853 13.8182H272.235Z" fill="black"/>
</svg>
