<?xml version="1.0" encoding="utf-8"?>
<!-- Generator: Adobe Illustrator 24.0.3, SVG Export Plug-In . SVG Version: 6.00 Build 0)  -->
<svg version="1.1" id="Layer_1" xmlns="http://www.w3.org/2000/svg" xmlns:xlink="http://www.w3.org/1999/xlink" x="0px" y="0px"
	 viewBox="0 0 126.3 30.2" style="enable-background:new 0 0 126.3 30.2;" xml:space="preserve">
<style type="text/css">
	.st0{fill:#2D2E2D;}
	.st1{fill:#ED2224;}
</style>
<g transform="matrix(.376172 0 0 .376172 91.9142 155)">
	<path class="st0" d="M-85.6-363l-4.3,12c0,0.5-0.5,0.5-0.5,0.5h-6.8c-0.5,0-0.5,0-0.5-0.5c3.9-10.1,9.6-27.4,13.9-39
		c0-0.5,0.5-1.4,0.5-3.9c0-0.5,0-0.5,0.5-0.5h9.1c0.5-0.5,0.5,0,0.5,0c4.8,13.9,10.6,28.9,15.4,42.8c0,0.5,0,0.5-0.5,0.5h-7.7
		c-0.5,0-0.5,0-0.5-0.5l-4.3-12h-14.9L-85.6-363z M-72.1-369.7c-1.4-4.3-4.8-13.5-5.8-18.3c-1,4.3-3.9,12-5.8,18.3H-72.1z
		 M-53.3-366.8c0-9.6,7.2-17.3,18.8-17.3c1.4,0,2.9,0,3.9,0.5v-14.4c0-0.5,0-0.5,0.5-0.5h7.2c0.5,0,0.5,0,0.5,0.5v43.8
		c0,0.5,0,0.5-0.5,0.5c-4.3,1.9-9.1,3.4-13.5,3.4C-46.6-350-53.3-355.3-53.3-366.8z M-31.2-376.9c-1-0.5-2.4-0.5-3.9-0.5
		c-6.2,0-10.1,3.9-10.1,10.6c0,7.7,4.3,10.6,9.6,10.6c1.4,0,3.4-0.5,4.8-0.5v-20.2H-31.2z M17.9-367.3c0,10.6-6.8,17.3-16.4,17.3
		c-11.6,0-16.4-8.7-16.4-16.8c0-10.1,6.7-16.8,16.8-16.8C12.1-384.2,17.9-376.4,17.9-367.3z M-6.6-367.3c0,6.7,2.9,11.1,8.2,11.1
		c4.3,0,7.7-2.9,7.7-11.1c0-6.2-2.4-11.1-8.2-11.1C-3.3-377.9-6.6-374.1-6.6-367.3z M32.3-398.1c0.5,0,0.5,0,0.5,0.5v15.4
		c2.4-1,4.8-1.4,7.2-1.4c9.1,0,14.9,6.8,14.9,15.4c0,11.6-9.1,18.8-19.7,18.8c-3.4,0-6.7-0.5-10.1-1.4c-0.5,0-0.5-0.5-0.5-0.5v-46.2
		c0-0.5,0-0.5,0.5-0.5H32.3L32.3-398.1z M38.6-377.4c-1.9,0-3.9,0.5-5.3,1v19.7c1,0.5,2.4,0.5,3.9,0.5c4.8,0,10.6-3.9,10.6-11.6
		C47.3-374.1,43.4-377.4,38.6-377.4z M70.3-365.4c0,5.3,3.4,8.7,10.1,8.7c2.4,0,5.3-0.5,8.2-1.4c0,0,0.5,0,0.5,0.5v5.3
		c0,0.5,0,0.5-0.5,1c-2.4,1.4-5.8,1.9-10.1,1.9c-12,0-16.8-8.2-16.8-16.8c0-9.6,5.8-17.3,15.9-17.3s13.9,7.7,13.9,13.9
		c0,2.9-0.5,4.3-0.5,4.3H70.3L70.3-365.4z M80.9-370.7c2.4,0,2.9-0.5,2.9-0.5v-1c0-1.9-1.4-6.2-6.8-6.2c-4.3,0-6.7,3.4-7.2,7.7H80.9
		z"/>
	<path class="st1" d="M-187.1-412l33.7,80.3V-412H-187.1z M-244.3-412v80.4l33.7-80.4H-244.3z M-213.6-348.1h15.4l6.8,16.4h13.9
		l-21.7-51L-213.6-348.1z"/>
</g>
</svg>
