<?xml version="1.0" encoding="utf-8"?>
<!-- Generator: Adobe Illustrator 24.0.3, SVG Export Plug-In . SVG Version: 6.00 Build 0)  -->
<svg version="1.1" xmlns="http://www.w3.org/2000/svg" xmlns:xlink="http://www.w3.org/1999/xlink" x="0px" y="0px"
	 viewBox="0 0 833.3 225.5" style="enable-background:new 0 0 833.3 225.5;" xml:space="preserve">
<style type="text/css">
	.st0{fill:#B1B3B6;}
	.st1{fill:#939598;}
	.st2{display:none;}
	.st3{display:inline;}
	.st4{fill:none;stroke:#000000;stroke-width:3.1593;stroke-miterlimit:10;}
	.st5{fill:none;stroke:#000000;stroke-width:3.0937;stroke-miterlimit:10;}
	.st6{fill:none;stroke:#000000;stroke-width:1.0307;stroke-miterlimit:10;}
	.st7{fill:none;stroke:#000000;stroke-width:0.7456;stroke-miterlimit:10;}
	.st8{fill:none;stroke:#000000;stroke-width:0.5635;stroke-miterlimit:10;}
	.st9{fill:none;stroke:#000000;stroke-width:2.472;stroke-miterlimit:10;}
	.st10{fill:none;stroke:#000000;stroke-width:2.4207;stroke-miterlimit:10;}
	.st11{fill:#FFFFFF;}
	.st12{fill:none;stroke:#000000;stroke-width:0.3997;stroke-miterlimit:10;}
	.st13{fill:none;stroke:#E6E7E8;stroke-width:1.5535;stroke-miterlimit:10;}
	.st14{fill:none;stroke:#E6E7E8;stroke-width:1.4431;stroke-miterlimit:10;}
	.st15{fill:none;stroke:#000000;stroke-miterlimit:10;}
	.st16{display:inline;fill:none;stroke:#000000;stroke-miterlimit:10;}
	.st17{fill:none;stroke:#000000;stroke-width:2;stroke-miterlimit:10;}
	.st18{fill:none;stroke:#000000;stroke-width:0.5525;stroke-miterlimit:10;}
	.st19{fill:none;stroke:#000000;stroke-width:2.2855;stroke-miterlimit:10;}
	.st20{fill:none;stroke:#000000;stroke-width:2.2381;stroke-miterlimit:10;}
</style>
<g id="Desktop">
</g>
<g id="Tablet">
</g>
<g id="mobile">
</g>
<g id="Logo_Work">
	<g>
		<g>
			<path d="M146.2,108.9l-5.2,5.2c4.4,1.7,6.8,5.6,6.8,11.7c0,8.3-4,13.9-12,13.9h-2.7v-3.6c0-4.8,0-9.5,0-14.2l-15.3,15.3v2.3
				c0,7.6,0,15.2-0.1,22.6l-6.8,0.7v4.9h6.7h15.8h8v-4.9l-8.2-0.8c-0.1-6.1-0.1-11.9-0.1-17.1h2.5c19.7,0,26.4-8.5,26.4-18.9
				C162.1,117.4,157.4,111.1,146.2,108.9z"/>
		</g>
		<g>
			<path class="st17" d="M165.4,58.7c-13.2-12.1-30.8-19.6-50.1-19.6c-40.9,0-74.1,33.2-74.1,74.1c0,19.3,7.4,36.9,19.6,50.1"/>
			<path class="st17" d="M75.7,175.9c11.4,7.2,25,11.5,39.5,11.5c40.9,0,74.1-33.2,74.1-74.1c0-14.5-4.2-28.1-11.5-39.5"/>
		</g>
		<line class="st17" x1="53.2" y1="183.8" x2="183.9" y2="53.1"/>
		<g>
			<path d="M256.7,117c-0.3,4.2-1.8,7.3-4.6,9.5c-2.8,2.2-6.8,3.3-11.9,3.3c-5.2,0-9.3-1.5-12.3-4.4c-3-3-4.6-7-4.6-12v-7
				c0-5,1.6-9,4.7-12s7.4-4.4,12.8-4.4c5,0,8.8,1.1,11.5,3.4c2.7,2.2,4.2,5.4,4.4,9.6h-6.5c-0.3-3.2-1.2-5.4-2.7-6.8
				c-1.5-1.3-3.7-2-6.8-2c-3.5,0-6.2,1-8.1,3.1c-1.9,2.1-2.8,5.1-2.8,9.1v7.1c0,3.9,0.9,6.9,2.6,9c1.8,2.1,4.3,3.1,7.7,3.1
				c3.4,0,5.8-0.6,7.3-1.9c1.5-1.3,2.4-3.5,2.8-6.8H256.7z"/>
			<path d="M313.6,129.3h-6.5v-17.9h-20.7v17.9h-6.5V90.6h6.5v16.7h20.7V90.6h6.5V129.3z"/>
			<path d="M364,111.4h-18.2v13.7H367v4.2h-27.7V90.6h27.3v4.2h-20.9v12.5H364V111.4z"/>
			<path d="M396.2,125.1h20.2v4.2h-26.7V90.6h6.5V125.1z"/>
			<path d="M461.1,119.5c0-1.9-0.7-3.4-2.1-4.4c-1.4-1-3.9-2-7.5-3c-3.6-1-6.4-2-8.3-3.1c-1.9-1.1-3.4-2.3-4.3-3.7
				c-1-1.4-1.4-3-1.4-4.7c0-3.1,1.4-5.6,4.1-7.6c2.7-2,6.3-3,10.7-3c3,0,5.7,0.5,8.1,1.5c2.4,1,4.2,2.4,5.4,4.2
				c1.3,1.8,1.9,3.8,1.9,6h-6.5c0-2.4-0.8-4.3-2.3-5.6c-1.5-1.3-3.7-2-6.6-2c-2.6,0-4.6,0.6-6.1,1.7s-2.2,2.6-2.2,4.6
				c0,1.6,0.8,3,2.3,4.1s4,2.1,7.2,3c5.1,1.3,8.7,2.8,10.9,4.7c2.2,1.8,3.3,4.3,3.3,7.2c0,3.1-1.4,5.7-4.1,7.5
				c-2.7,1.9-6.4,2.8-11.1,2.8c-3,0-5.8-0.5-8.3-1.5c-2.5-1-4.5-2.4-6-4.2s-2.2-3.8-2.2-6.1h6.5c0,2.4,0.9,4.3,2.7,5.6s4.2,2,7.3,2
				c2.9,0,5-0.6,6.4-1.7C460.4,122.9,461.1,121.4,461.1,119.5z"/>
			<path d="M515.3,111.4h-18.2v13.7h21.2v4.2h-27.7V90.6h27.3v4.2h-20.9v12.5h18.2V111.4z"/>
			<path d="M565.1,119.2h-17.4l-4,10.1H537l16.6-38.8h5.6l16.6,38.8h-6.6L565.1,119.2z M549.4,115h14l-7-17.6L549.4,115z"/>
			<path d="M634.8,114.1v15.2h-6.5V90.6h16.4c4.8,0,8.5,1.1,11.3,3.2c2.7,2.2,4.1,5,4.1,8.6c0,3.7-1.3,6.6-3.9,8.6
				c-2.6,2-6.3,3.1-11,3.1H634.8z M634.8,110h9.9c2.9,0,5.1-0.6,6.6-1.9s2.3-3.2,2.3-5.6c0-2.3-0.8-4.2-2.4-5.6
				c-1.6-1.4-3.7-2.1-6.5-2.1h-10V110z"/>
			<path d="M689.7,129.3h-6.5V90.6h6.5V129.3z"/>
			<path d="M727,111.5l-5.1,4.6v13.3h-6.5V90.6h6.5v18.7l4.2-4.2l13.9-14.5h7.8l-16.7,17.1l18,21.7h-7.7L727,111.5z"/>
			<path d="M794.1,111.4h-18.2v13.7h21.2v4.2h-27.7V90.6h27.3v4.2h-20.9v12.5h18.2V111.4z"/>
		</g>
		<g>
			<path d="M90.9,129l5.1-5.1c-8.4-1.4-15-9.3-15-26c0-18.6,8.5-26.5,18.2-26.5c2.2,0,4.4,0.5,6.5,1.6l2.6,11.9h6.9l-0.4-14.1
				c-5.4-3-10.9-4.5-17.8-4.5c-17.1,0-32.2,10-32.2,31.5C64.8,116.8,76.1,127,90.9,129z"/>
		</g>
	</g>
</g>
<g id="Alternate_Designs">
	<g id="Layer_3">
	</g>
</g>
</svg>
