<?xml version="1.0" encoding="utf-8"?>
<!-- Generator: Adobe Illustrator 24.0.3, SVG Export Plug-In . SVG Version: 6.00 Build 0)  -->
<svg version="1.1"
	 id="svg3476" inkscape:version="0.91 r13725" sodipodi:docname="CSS3.svg" xmlns:cc="http://creativecommons.org/ns#" xmlns:dc="http://purl.org/dc/elements/1.1/" xmlns:inkscape="http://www.inkscape.org/namespaces/inkscape" xmlns:rdf="http://www.w3.org/1999/02/22-rdf-syntax-ns#" xmlns:sodipodi="http://sodipodi.sourceforge.net/DTD/sodipodi-0.dtd" xmlns:svg="http://www.w3.org/2000/svg"
	 xmlns="http://www.w3.org/2000/svg" xmlns:xlink="http://www.w3.org/1999/xlink" x="0px" y="0px" viewBox="0 0 35.4 50"
	 style="enable-background:new 0 0 35.4 50;" xml:space="preserve">
<style type="text/css">
	.st0{fill:#264DE4;}
	.st1{fill:#2965F1;}
	.st2{fill:#EBEBEB;}
	.st3{fill:#FFFFFF;}
</style>
<sodipodi:namedview  bordercolor="#666666" borderopacity="1.0" fit-margin-bottom="0" fit-margin-left="0" fit-margin-right="0" fit-margin-top="0" id="base" inkscape:current-layer="layer1" inkscape:cx="181.367" inkscape:cy="256" inkscape:document-units="px" inkscape:pageopacity="0.0" inkscape:pageshadow="2" inkscape:window-height="704" inkscape:window-maximized="1" inkscape:window-width="1366" inkscape:window-x="0" inkscape:window-y="27" inkscape:zoom="0.35" pagecolor="#ffffff" showgrid="false">
	</sodipodi:namedview>
<g id="layer1" transform="translate(-193.633,-276.3622)" inkscape:groupmode="layer" inkscape:label="Calque 1">
	<g id="g3013" transform="translate(119,276.3622)">
		<polygon id="polygon2989" class="st0" points="110.1,9.8 106.8,46 92.3,50 77.9,46 74.6,9.8 		"/>
		<polygon id="polygon2991" class="st1" points="104.1,43.7 106.8,12.8 92.3,12.8 92.3,46.9 		"/>
		<polygon id="polygon2993" class="st2" points="82,26.2 82.4,30.6 92.3,30.6 92.3,26.2 		"/>
		<polygon id="polygon2995" class="st2" points="92.3,17.2 92.3,17.2 81.2,17.2 81.6,21.7 92.3,21.7 		"/>
		<polygon id="polygon2997" class="st2" points="92.3,42.3 92.3,37.7 92.3,37.7 87.4,36.4 87.1,32.8 84.7,32.8 82.6,32.8 83.2,39.8 
			92.3,42.3 		"/>
		<path id="path2999" inkscape:connector-curvature="0" d="M83,0h5.4v2.2h-3.1v2.2h3.1v2.2H83V0z"/>
		<path id="path3001" inkscape:connector-curvature="0" d="M89.4,0h5.4v2h-3.1v0.4h3.1v4.5h-5.4V4.8h3.1V4.4h-3.1V0z"/>
		<path id="path3003" inkscape:connector-curvature="0" d="M95.9,0h5.4v2h-3.1v0.4h3.1v4.5h-5.4V4.8H99V4.4h-3.1V0z"/>
		<polygon id="polygon3005" class="st3" points="97.8,30.6 97.3,36.4 92.3,37.7 92.3,42.3 101.4,39.8 101.5,39.1 102.5,27.4 
			102.6,26.2 103.4,17.2 92.3,17.2 92.3,21.7 98.6,21.7 98.2,26.2 92.3,26.2 92.3,30.6 		"/>
	</g>
</g>
</svg>
