<?xml version="1.0" encoding="utf-8"?>
<!-- Generator: Adobe Illustrator 24.0.3, SVG Export Plug-In . SVG Version: 6.00 Build 0)  -->
<svg version="1.1" id="Layer_1" xmlns="http://www.w3.org/2000/svg" xmlns:xlink="http://www.w3.org/1999/xlink" x="0px" y="0px"
	 viewBox="0 0 35.4 50" style="enable-background:new 0 0 35.4 50;" xml:space="preserve">
<style type="text/css">
	.st0{fill:#E44D26;}
	.st1{fill:#F16529;}
	.st2{fill:#EBEBEB;}
	.st3{fill:#FFFFFF;}
</style>
<g>
	<title>HTML5 Logo</title>
	<path d="M3.3,0h2.2v2.2h2.1V0h2.2v6.7H7.6V4.5H5.6v2.2H3.3 M12.8,2.2h-2V0h6.2v2.2h-2v4.5h-2.2 M18.1,0h2.4l1.4,2.4L23.3,0h2.4v6.7
		h-2.2V3.4l-1.6,2.4l-1.6-2.4v3.3h-2.2 M26.8,0H29v4.5h3.2v2.2h-5.4"/>
	<path class="st0" d="M3.2,46L0,9.8h35.4L32.2,46l-14.5,4"/>
	<path class="st1" d="M17.7,46.9V12.8h14.5l-2.8,30.9"/>
	<path class="st2" d="M6.6,17.2h11.1v4.4h-6.3l0.4,4.5h5.9v4.4H7.8 M8,32.8h4.5l0.3,3.5l5,1.3v4.6l-9.1-2.5"/>
	<path class="st3" d="M28.8,17.2H17.7v4.4h10.7 M28,26.2H17.7v4.4h5.5l-0.5,5.8l-5,1.3v4.6l9.1-2.5"/>
</g>
</svg>
