<?xml version="1.0" encoding="utf-8"?>
<!-- Generator: Adobe Illustrator 24.0.3, SVG Export Plug-In . SVG Version: 6.00 Build 0)  -->
<svg version="1.1" id="Capa_1" xmlns="http://www.w3.org/2000/svg" xmlns:xlink="http://www.w3.org/1999/xlink" x="0px" y="0px"
	 viewBox="0 0 360 360" style="enable-background:new 0 0 360 360;" xml:space="preserve">
<style type="text/css">
	.st0{fill:#535353;}
	.st1{fill:#FFFFFF;}
	.st0:hover{fill:#f4b527;}
</style>
<circle class="st0" cx="180" cy="180" r="180"/>
<g>
	<path id="LinkedIn" class="st1" d="M287.9,189.6v77h-44.6v-71.8c0-18.2-6.8-30.2-22.7-30.2c-12.1,0-19.6,8.3-22.7,16.6
		c-1.5,3-1.5,6.8-1.5,10.6v74.8h-44.5c0,0,0.7-121.6,0-133.7h44.6v18.9c0,0,0,0,0,0.7l0,0v-0.7c6.1-9,16.6-21.9,40.1-21.9
		C266,129.2,287.9,148.1,287.9,189.6z M105,68c-15.1,0-25,9.9-25,23.4c0,12.8,9.9,23.4,25,23.4l0,0c15.8,0,25-10.6,25-23.4
		C130,77.9,120.8,68,105,68z M83.1,266h44.6V132.3H83.1L83.1,266L83.1,266z"/>
</g>
</svg>
