<?xml version="1.0" encoding="utf-8"?>
<!-- Generator: Adobe Illustrator 24.0.3, SVG Export Plug-In . SVG Version: 6.00 Build 0)  -->
<svg version="1.1" id="Capa_1" xmlns="http://www.w3.org/2000/svg" xmlns:xlink="http://www.w3.org/1999/xlink" x="0px" y="0px"
	 viewBox="0 0 360 360" style="enable-background:new 0 0 360 360;" xml:space="preserve">
<style type="text/css">
	.st0{display:none;}
	.st1{fill:#FFFFFF;stroke:#FFFFFF;stroke-width:6;stroke-miterlimit:10;}
</style>
<rect x="-42" y="-16" class="st0" width="477" height="433"/>
<g id="Develop_icon">
	<path class="st1" d="M153.9,60.7h-6.8c-12.2,0-16.4,14.3-16.4,29.2v42c0.3,31.3-17,44.7-20.8,46.5v0.6c3.9,2.1,21.1,15.5,20.8,46.5
		v42.3c0,14.6,4.2,28.9,16.4,28.9h6.8V311H139c-16.7,0-26.2-14-26.2-36v-43.5c0-23.2-4.2-45.6-20.8-45.6v-14.4
		c16.7,0,20.8-22.6,20.8-45.9V82.4c0-22.3,9.5-36,26.2-36h14.9V60.7z"/>
	<path class="st1" d="M206.9,296.5h6.8c12.2,0,16.4-14.3,16.4-29.2v-42c-0.3-31.3,17-44.7,20.8-46.5v-0.6
		c-3.9-2.1-21.1-15.5-20.8-46.5V89.4c0-14.6-4.2-28.9-16.4-28.9h-6.8V46.2h14.9c16.7,0,26.2,14,26.2,36v43.5
		c0,23.2,4.2,45.6,20.8,45.6v14.3c-16.7,0-20.8,22.6-20.8,45.9v43.2c0,22.3-9.5,36-26.2,36h-14.9V296.5z"/>
</g>
</svg>
