<?xml version="1.0" encoding="utf-8"?>
<!-- Generator: Adobe Illustrator 24.0.3, SVG Export Plug-In . SVG Version: 6.00 Build 0)  -->
<svg version="1.1" id="Capa_1" xmlns="http://www.w3.org/2000/svg" xmlns:xlink="http://www.w3.org/1999/xlink" x="0px" y="0px"
	 viewBox="0 0 360 360" style="enable-background:new 0 0 360 360;" xml:space="preserve">
<style type="text/css">
	.st0{fill-rule:evenodd;clip-rule:evenodd;fill:#F4B527;}
	.st1{fill:#F4B527;}
</style>
<g>
	<path class="st0" d="M180,0.1C80.6,0.1,0,80.7,0,180.1c0,79.5,51.6,147,123.1,170.8c9,1.7,12.3-3.9,12.3-8.7
		c0-4.3-0.2-18.5-0.2-33.5c-50.1,10.9-60.6-21.2-60.6-21.2c-8.2-20.8-20-26.3-20-26.3c-16.3-11.2,1.2-10.9,1.2-10.9
		c18.1,1.3,27.6,18.6,27.6,18.6c16.1,27.5,42.1,19.6,52.4,15c1.6-11.6,6.3-19.6,11.4-24.1c-40-4.6-82-20-82-89
		c0-19.7,7-35.7,18.6-48.3c-1.9-4.5-8-22.8,1.7-47.6c0,0,15.1-4.8,49.5,18.5c14.4-4,29.8-6,45.1-6.1c15.3,0.1,30.7,2.1,45.1,6.1
		c34.4-23.3,49.5-18.5,49.5-18.5c9.8,24.8,3.6,43.1,1.8,47.6c11.5,12.6,18.5,28.7,18.5,48.3c0,69.1-42.1,84.4-82.2,88.8
		c6.5,5.6,12.2,16.5,12.2,33.3c0,24.1-0.2,43.5-0.2,49.4c0,4.8,3.2,10.4,12.4,8.6c71.5-23.8,123-91.3,123-170.8
		C360,80.7,279.4,0.1,180,0.1z"/>
	<path class="st1" d="M68.1,258.6c-0.4,0.9-1.8,1.2-3.1,0.6c-1.3-0.6-2-1.8-1.6-2.7s1.8-1.2,3.1-0.6
		C67.9,256.5,68.6,257.7,68.1,258.6L68.1,258.6z"/>
	<path class="st1" d="M75.4,266.7c-0.9,0.8-2.5,0.4-3.7-0.8c-1.2-1.3-1.4-2.9-0.5-3.7s2.5-0.4,3.7,0.8
		C76.1,264.3,76.3,265.9,75.4,266.7L75.4,266.7z"/>
	<path class="st1" d="M82.5,277.1c-1.1,0.8-2.9,0-4-1.6s-1.1-3.5,0-4.3s2.9-0.1,4,1.5C83.7,274.4,83.7,276.3,82.5,277.1L82.5,277.1z
		"/>
	<path class="st1" d="M92.3,287.1c-1,1.1-3.1,0.8-4.6-0.7c-1.6-1.4-2-3.5-1-4.6s3.1-0.8,4.7,0.7C92.8,284,93.3,286,92.3,287.1
		L92.3,287.1z"/>
	<path class="st1" d="M105.7,292.9c-0.4,1.4-2.5,2-4.5,1.5c-2-0.6-3.4-2.3-3-3.7s2.5-2.1,4.5-1.4
		C104.8,289.9,106.1,291.5,105.7,292.9L105.7,292.9z"/>
	<path class="st1" d="M120.4,294c0,1.5-1.7,2.7-3.8,2.7c-2.2,0-3.9-1.2-3.9-2.6c0-1.5,1.7-2.7,3.8-2.8
		C118.7,291.3,120.4,292.5,120.4,294L120.4,294z"/>
	<path class="st1" d="M134.1,291.7c0.3,1.4-1.2,2.9-3.4,3.3c-2.1,0.4-4-0.5-4.3-1.9c-0.3-1.5,1.3-3,3.3-3.4
		C131.9,289.3,133.8,290.2,134.1,291.7L134.1,291.7z"/>
</g>
</svg>
