<?xml version="1.0" encoding="utf-8"?>
<!-- Generator: Adobe Illustrator 24.0.3, SVG Export Plug-In . SVG Version: 6.00 Build 0)  -->
<svg version="1.1" id="Capa_1" xmlns="http://www.w3.org/2000/svg" xmlns:xlink="http://www.w3.org/1999/xlink" x="0px" y="0px"
	 viewBox="0 0 360 360" style="enable-background:new 0 0 360 360;" xml:space="preserve">
<style type="text/css">
	.st0{display:none;}
	.st1{fill:#FFFFFF;}
</style>
<rect x="-19.9" y="-21.7" class="st0" width="409.2" height="409.2"/>
<g>
	<polygon class="st1" points="238.2,97.6 221.6,87.9 107,203 106.5,210.8 126.3,210.8 	"/>
	<path class="st1" d="M97.3,242.1l-10.4,42.6l40.3-9.4C127.2,275.3,121.3,249,97.3,242.1z"/>
	<path class="st1" d="M165.4,241.1l-0.8,28.2l119.2-118.8c0,0-2.8-7.8-10.2-18.7L165.4,241.1z"/>
	<path class="st1" d="M246.5,103.1L134.2,215v22.6h23.6l111-112.2C263.3,118.4,256,110.6,246.5,103.1z"/>
	<path class="st1" d="M313.6,122.5l-0.1-1.8c-0.1-1.7-3.6-40.8-59.3-62.5l-2.3-0.9l-19.6,19.9l-3,3l-2.8,2.9c0,0,45,18.2,62.2,62.6
		l5.8-4.8c0,0-3,3-3,2.9L313.6,122.5z M239.7,80.5l14.1-14.2c43.2,17.6,50.7,46.1,52,53.3l-13.6,12.9
		C287.6,120.2,274.9,97,239.7,80.5z"/>
</g>
<g>
	<polygon class="st1" points="122.5,276.1 121.2,270.4 164.8,263.4 164.6,269.3 	"/>
</g>
<g>
	<polygon class="st1" points="102.8,245.1 96.7,244.1 107,202.9 113,203.8 	"/>
</g>
</svg>
