<?xml version="1.0" encoding="utf-8"?>
<!-- Generator: Adobe Illustrator 24.0.3, SVG Export Plug-In . SVG Version: 6.00 Build 0)  -->
<svg version="1.1" id="Capa_1" xmlns="http://www.w3.org/2000/svg" xmlns:xlink="http://www.w3.org/1999/xlink" x="0px" y="0px"
	 viewBox="0 0 360 360" style="enable-background:new 0 0 360 360;" xml:space="preserve">
<style type="text/css">
	.st0{display:none;fill:#1C1D1E;}
	.st1{display:none;fill:none;stroke:#FFFFFF;stroke-width:12;stroke-miterlimit:10;}
	.st2{fill:none;stroke:#FFFFFF;stroke-width:12;stroke-miterlimit:10;}
	.st3{fill:#FFFFFF;}
	.st4{display:none;fill:#FFFFFF;}
</style>
<rect x="-22" y="-21" class="st0" width="449" height="429"/>
<g>
	<path class="st1" d="M102.8,194.3c1.3-0.2,2.6-0.3,4-0.3c17.4,0.1,31.5,19.2,31.4,42.6s-14.3,42.3-31.7,42.2S75,259.6,75.1,236.2
		c0-4.6,0.6-9.1,1.6-13.3l0.1-0.5c-9.8-6-16.5-19.3-16.4-34.7c0.1-14.7,6.4-27.5,15.5-33.7l0.1-0.3c-2.9-5.1-4.5-11.2-4.4-18.1
		c0.1-15.4,8.8-28.1,20-29.6"/>
	<path class="st1" d="M108.6,279c5.1,14.1,15.8,23.8,28.2,23.9c17.4,0.1,31.6-18.8,31.7-42.2l0.7-184.5c0.1-16.8-10-30.5-22.5-30.6
		c-9.1-0.1-16.8,6.5-20.4,16.9h-0.1c-2.1-0.7-4.3-1.1-6.6-1.1C104,61.3,91.3,78.2,91.3,99.1c-0.1,20.9,12.5,38,28,38.1
		c11.9,0.1,22.2-9.8,26.3-23.8"/>
	<path class="st2" d="M267.1,105.4c11.1,1.9,19.6,14.6,19.7,30c0,3.1-0.3,6.2-1,9l0.4,0.4c7.3,8.6,12,21.3,12,35.4
		c0.1,26.2-15.6,47.5-35.1,47.6s-35.3-21-35.4-47.2c0-5.6,0.7-10.9,2-15.9"/>
	<path class="st2" d="M221.8,125.8c4.9,6.5,11.5,10.4,18.9,10.4c13.6-0.1,24.8-13.8,26.4-31.4c0.1-1.5,0.2-3.1,0.2-4.6
		c-0.1-19.8-12.1-35.8-26.8-35.7c-2.5,0-4.9,0.6-7.2,1.5l-0.1-0.3c-3.1-11.8-11.5-20-21.4-19.9c-12.5,0.1-22.6,13.8-22.5,30.6
		l-0.7,185.5c0.1,22.9,13.9,41.3,30.9,41.2c13.3-0.1,24.6-11.5,28.8-27.4l0.4-0.3c2.3,0.9,4.8,1.3,7.3,1.3
		c14.8-0.1,26.7-16.2,26.6-36.1c0-6.4-1.3-12.4-3.5-17.6"/>
	<path class="st2" d="M208.8,248.3c0.4-16.7,16.2-30.3,28.5-31.3"/>
	<path class="st1" d="M118.7,137.2c14.5,0.1,26.4,14.9,27.9,33.8"/>
</g>
<g>
	<path class="st3" d="M171.9,67.4c0.1-14.4-9.1-26.7-20-26.8c-7.8-0.1-14.3,5.2-17.7,14l-1.7,4.4H126l-1.1-0.3
		c-2-0.6-3.9-0.9-5.8-0.9c-6.9,0-12.1,3.4-15.2,6.2c-7.3,6.5-11.6,17.1-11.6,28.4c-0.1,18.9,12.1,34.9,26.6,35c0,0,0.1,0,0.1,0
		c10.6,0,20.5-8.5,24.6-21.2l13.9,3.7c-3.4,10.6-10,19.1-18.2,24.4c10.8,7.5,18.3,20.6,19.7,36l-14.5,1
		c-1.5-17.2-13.2-30.7-26.5-30.8l0,0c-17.5-0.4-32.4-13.6-38-31.8c-6.8,4.1-11.6,13.3-11.7,23.6c-0.1,6.2,1.4,11.7,4.4,16.4l1.6,2.5
		l-1.9,5.2l-2,1.2c-9.4,5.7-15.5,18.1-15.6,31.4c-0.1,14,6.3,26.7,16.4,32.2l4.3,2.4l-1.2,5.3c-1.2,4.4-1.7,8.7-1.7,13
		c-0.1,21.5,14,39.8,30.7,39.9c0,0,0.1,0,0.1,0c7.9,0,13.8-3.9,17.5-7.1c8.3-7.4,13.4-19.6,13.4-32.4c0.1-21.5-14-39.8-30.7-39.9
		c-1.3,0-2.5,0.1-3.7,0.3l-2.2-12.9c2-0.3,3.9-0.4,5.9-0.4c25.1,0.1,45.3,23.9,45.2,53c-0.1,16.5-6.5,31.6-17.7,41.6
		c-4.6,4.1-9.7,7.1-15.2,8.9c5.8,9.4,14.6,15.1,24,15.2c0,0,0.1,0,0.1,0c7.9,0,13.8-3.9,17.5-7.1c8.3-7.4,13.4-19.6,13.4-32.4
		L171.9,67.4z"/>
	<path class="st4" d="M286,247.4c0-3.5-0.5-7-1.3-10.3c-4.8,1.8-9.9,2.8-15.1,2.8c-0.1,0-0.1,0-0.2,0c-11.2,0-21.7-4.1-30.5-11.9
		c-19,0.6-28,14.8-28.4,28l-14.7-0.3c0.5-20,13.8-35.3,32.9-39.7c-6.3-9.9-9.7-22-9.8-34.8c0-6.6,0.9-13,2.7-19.2l14.2,3.3
		c-1.5,5.1-2.2,10.4-2.2,15.9c0.1,14.7,5.8,28.6,15.4,37.2c6,5.4,13.1,8.2,20.4,8.2c0,0,0.1,0,0.1,0c19.8-0.1,35.7-20.7,35.6-45.8
		c0-13.3-4.6-25.9-12.7-34.6l-3.2-2.9l1-3.6c0.7-2.4,1-5.2,1-8.3c-0.1-10.1-4.7-19.3-11.3-23.8c-5.3,18.3-20.3,31.2-37.7,31.3
		c-11.1,0-21.4-5-29-14.1l11.7-8c3.4,4,9.1,8.8,17.3,8.8c12.6-0.1,23.3-12.3,25-28.5c0.1-1.6,0.2-3.1,0.2-4.5
		c-0.1-10.7-4.2-20.8-11.2-27c-3-2.6-7.9-5.8-14.2-5.7c-1.9,0-3.9,0.4-6.2,1.2l-7.2,2.5l-2.7-7.3c-3-10.2-10.5-17-18.9-17
		c0,0-0.1,0-0.1,0c-11.1,0.1-20.4,12.5-20.3,27.1l-0.9,204.6c0.1,12.6,5,24.6,13.2,31.9c3.6,3.2,9.4,7,17.2,6.9
		c12.4-0.1,23.8-10.2,28.2-25.3l0.7-2.2l5.8-3.9l3.8,1.3c1.8,0.6,3.9,1,6.3,1C274.8,280.5,286.1,265.6,286,247.4z"/>
</g>
</svg>
