<?xml version="1.0" encoding="utf-8"?>
<!-- Generator: Adobe Illustrator 24.0.3, SVG Export Plug-In . SVG Version: 6.00 Build 0)  -->
<svg version="1.1" id="Layer_1" xmlns="http://www.w3.org/2000/svg" xmlns:xlink="http://www.w3.org/1999/xlink" x="0px" y="0px"
	 viewBox="0 0 134.8 34.2" style="enable-background:new 0 0 134.8 34.2;" xml:space="preserve">
<style type="text/css">
	.st0{fill:#0769AD;}
	.st1{fill:#333333;}
</style>
<g>
	<g>
		<g>
			<path class="st0" d="M52,30.6c0,0.3,0,0.6,0,0.9l1.2-2.2l-0.1-0.7l1.2-0.2l0.4,3.1l0.5-1.9c0-0.2,0-0.3,0-0.5s0-0.3,0-0.5
				l1.3-0.2c0,0.2,0.1,0.5,0,0.7c0,0.3-0.1,0.6-0.3,1.2l-1,2.8h-1.5l-0.3-2l-1.2,2h-1.5c0-1.9,0-3.1-0.1-4.4l1.3-0.2
				C52,29,52,29.8,52,30.6z"/>
			<path class="st0" d="M59.8,29.5c-0.6,0.3-0.8,0.4-1.4,0.8L57.8,33h-1.3l0.9-4.4l1.2-0.2V29c0.4-0.2,0.8-0.4,1.2-0.6L59.8,29.5
				L59.8,29.5z"/>
			<path class="st0" d="M60.6,28.5l1.4-0.2l-1,4.6h-1.3L60.6,28.5z M61,26.5l1.4-0.2l-0.3,1.4l-1.4,0.2L61,26.5z"/>
			<path class="st0" d="M64.4,29.4l-0.5,2.2v0.1c0,0,0,0.1,0.1,0.1c0.2,0,0.5-0.1,0.7-0.2l0.2,0.9c-0.4,0.2-0.9,0.4-1.5,0.4
				c-0.7,0-1-0.3-1-0.9c0,0,0-0.1,0-0.2l0.5-2.5h-0.7l0.2-1.1h0.7l0.2-1.1l1.4-0.2l-0.2,1.3h1.1l-0.3,1.1L64.4,29.4L64.4,29.4z"/>
			<path class="st0" d="M65.9,30c0.2-1,0.7-1.7,2.1-1.7c0.9,0,1.5,0.4,1.5,1.1c0,0.9-0.5,1.3-1.6,1.6c-0.5,0.1-0.6,0.1-1,0.3v0.3
				c0,0.1,0,0.3,0.2,0.3c0.5,0,1.2-0.2,1.8-0.5l0.2,0.9c-0.6,0.3-1.5,0.6-2.2,0.6c-0.9,0-1.3-0.4-1.3-1.2c0-0.1,0-0.3,0.1-0.5
				L65.9,30z M68.3,29.6c0-0.1-0.1-0.2-0.4-0.2c-0.5,0-0.6,0.3-0.7,0.6v0.3c0.2,0,0.3-0.1,0.6-0.1C68.1,30,68.3,29.9,68.3,29.6z"/>
			<path class="st0" d="M72.9,26.6l1.4-0.2l-1.4,6.5h-1.3L72.9,26.6z"/>
			<path class="st0" d="M74.4,30c0.2-1,0.7-1.7,2.1-1.7c0.9,0,1.5,0.4,1.5,1.1c0,0.9-0.5,1.3-1.6,1.6c-0.5,0.1-0.6,0.1-1,0.3v0.3
				c0,0.1,0,0.3,0.2,0.3c0.5,0,1.2-0.2,1.8-0.5l0.2,0.9c-0.6,0.3-1.5,0.6-2.2,0.6c-0.9,0-1.3-0.4-1.3-1.2c0-0.1,0-0.3,0.1-0.5
				L74.4,30z M76.8,29.6c0-0.1-0.1-0.2-0.4-0.2c-0.5,0-0.6,0.3-0.7,0.6v0.3c0.2,0,0.3-0.1,0.6-0.1C76.6,30,76.8,29.9,76.8,29.6z"/>
			<path class="st0" d="M78.1,32.7l0.3-1c0.3,0.1,0.7,0.2,1.2,0.2c0.4,0,0.5-0.1,0.5-0.3S80,31.3,79.5,31c-0.9-0.5-1-0.8-0.8-1.5
				c0.2-1,0.5-1.2,1.7-1.2c0.4,0,1,0.1,1.4,0.2l-0.2,1c-0.3-0.1-0.8-0.1-1.1-0.1c-0.4,0-0.4,0-0.5,0.3c0,0.2,0,0.2,0.4,0.5
				c1,0.5,1.2,0.7,1,1.5c-0.2,1-0.5,1.4-1.9,1.4C79.1,33,78.5,32.9,78.1,32.7z"/>
			<path class="st0" d="M81.9,32.7l0.3-1c0.3,0.1,0.7,0.2,1.2,0.2c0.4,0,0.5-0.1,0.5-0.3s-0.1-0.3-0.6-0.6c-0.9-0.5-1-0.8-0.8-1.5
				c0.2-1,0.5-1.2,1.7-1.2c0.4,0,1,0.1,1.4,0.2l-0.2,1c-0.3-0.1-0.8-0.1-1.1-0.1c-0.4,0-0.4,0-0.5,0.3c0,0.2,0,0.2,0.4,0.5
				c1,0.5,1.2,0.7,1,1.5c-0.2,1-0.5,1.4-1.9,1.4C82.8,33,82.3,32.9,81.9,32.7z"/>
			<path class="st0" d="M85.5,33.9l0.7-1h-0.5l0.3-1.6h1.3L87,32.9l-1.1,1.3L85.5,33.9z"/>
			<path class="st0" d="M92.6,32.9v-0.4c-0.3,0.3-0.8,0.5-1.5,0.5c-1,0-1.2-0.6-1-1.6l0.2-1.2c0.2-1.1,0.5-1.9,2.4-1.9
				c0.1,0,0.4,0,0.5,0l0.4-1.8l1.4-0.2l-1.4,6.5C93.7,32.9,92.6,32.9,92.6,32.9z M91.4,31.6c0,0.2,0,0.3,0.2,0.3
				c0.5,0,0.8-0.2,1.1-0.5l0.4-2c-0.1,0-0.3,0-0.5,0c-0.7,0-0.8,0.3-0.9,0.8L91.4,31.6z"/>
			<path class="st0" d="M94.9,31.5c0-0.1,0-0.2,0-0.3l0.2-1.1c0.2-1.2,0.8-1.8,2.4-1.8c1.2,0,1.7,0.7,1.7,1.5c0,0.1,0,0.2,0,0.3
				L99,31.2c-0.2,1.1-0.8,1.8-2.4,1.8C95.4,33,94.9,32.3,94.9,31.5z M98,29.9c0-0.3-0.2-0.5-0.6-0.5c-0.5,0-0.8,0.2-0.9,0.7
				l-0.2,1.1c0,0,0,0.1,0,0.2c0,0.3,0.2,0.5,0.6,0.5c0.5,0,0.8-0.2,0.9-0.7l0.2-1.1C98,30,98,30,98,29.9z"/>
			<path class="st0" d="M107.3,29.9L107.3,29.9c0-0.2,0-0.2-0.2-0.2s-0.8,0.2-1.2,0.4l-0.6,2.9H104l0.6-3.1v-0.1
				c0-0.1,0-0.1-0.2-0.1s-0.8,0.2-1.2,0.4l-0.6,2.9h-1.3l0.9-4.4l1.2-0.2v0.5c0.7-0.3,1.3-0.5,1.8-0.5c0.4,0,0.7,0.2,0.8,0.5
				c0.7-0.4,1.3-0.5,1.8-0.5c0.6,0,0.8,0.3,0.8,0.9c0,0.1,0,0.3,0,0.5l-0.7,3.2h-1.1L107.3,29.9z"/>
			<path class="st0" d="M109.1,31.5c0-0.1,0-0.2,0-0.3l0.2-1.1c0.2-1.2,0.8-1.8,2.4-1.8c1.2,0,1.7,0.7,1.7,1.5c0,0.1,0,0.2,0,0.3
				l-0.2,1.1c-0.2,1.1-0.8,1.8-2.4,1.8C109.6,33,109.1,32.3,109.1,31.5z M112.2,29.9c0-0.3-0.2-0.5-0.6-0.5c-0.5,0-0.8,0.2-0.9,0.7
				l-0.2,1.1c0,0,0,0.1,0,0.2c0,0.3,0.2,0.5,0.6,0.5c0.5,0,0.8-0.2,0.9-0.7l0.2-1.1C112.2,30,112.2,30,112.2,29.9z"/>
			<path class="st0" d="M116.9,29.5c-0.6,0.3-0.8,0.4-1.4,0.8l-0.6,2.7h-1.3l0.9-4.4l1.2-0.2V29c0.4-0.2,0.8-0.4,1.2-0.6L116.9,29.5
				L116.9,29.5z"/>
			<path class="st0" d="M117.2,30c0.2-1,0.7-1.7,2.1-1.7c0.9,0,1.5,0.4,1.5,1.1c0,0.9-0.5,1.3-1.6,1.6c-0.5,0.1-0.6,0.1-1,0.3v0.3
				c0,0.1,0,0.3,0.2,0.3c0.5,0,1.2-0.2,1.8-0.5l0.2,0.9c-0.6,0.3-1.5,0.6-2.2,0.6c-0.9,0-1.3-0.4-1.3-1.2c0-0.1,0-0.3,0.1-0.5
				L117.2,30z M119.6,29.6c0-0.1-0.1-0.2-0.4-0.2c-0.5,0-0.6,0.3-0.7,0.6v0.3c0.2,0,0.3-0.1,0.6-0.1C119.4,30,119.6,29.9,119.6,29.6
				z"/>
			<path class="st0" d="M121.4,31.4h1.3l-0.3,1.6h-1.3L121.4,31.4z"/>
		</g>
	</g>
	<path class="st0" d="M1.6,6.5c-2.2,3.2-1.9,7.3-0.2,10.7c0,0.1,0,0.2,0.1,0.3c0,0,0,0.1,0.1,0.1c0,0,0,0,0,0.1c0,0,0,0.1,0.1,0.1
		c0,0.1,0.1,0.2,0.1,0.3c0,0,0,0.1,0.1,0.1c0,0.1,0.1,0.2,0.2,0.3c0,0,0,0.1,0.1,0.1c0.1,0.1,0.2,0.2,0.3,0.4l0,0l0,0
		c0.1,0.1,0.1,0.2,0.2,0.3c0,0,0,0.1,0.1,0.1c0.1,0.1,0.1,0.2,0.2,0.3c0,0,0,0,0.1,0.1s0.2,0.2,0.3,0.3l0,0l0,0
		c0.1,0.1,0.2,0.2,0.3,0.3c0,0,0,0,0.1,0.1s0.1,0.1,0.2,0.2c0,0,0,0,0.1,0.1c0.1,0.1,0.2,0.2,0.3,0.3l0,0l0,0
		c0.1,0.1,0.2,0.2,0.3,0.3c0,0,0.1,0,0.1,0.1c0.1,0,0.2,0.1,0.3,0.2c0,0,0.1,0,0.1,0.1c0.1,0.1,0.2,0.1,0.3,0.2c0,0,0,0,0.1,0.1l0,0
		c0.1,0,0.2,0.1,0.3,0.2c0,0,0.1,0,0.1,0.1c0.1,0.1,0.3,0.2,0.4,0.3h0.1c0.1,0,0.2,0.1,0.3,0.2c0,0,0.1,0,0.2,0.1
		c0.1,0,0.1,0.1,0.2,0.1l0,0c0,0,0,0,0.1,0s0.2,0.1,0.4,0.2c0,0,0,0,0.1,0s0.3,0.1,0.4,0.2c0,0,0,0,0.1,0s0.3,0.1,0.4,0.1l0,0
		c0.1,0,0.3,0.1,0.5,0.1h0.1c0.1,0,0.3,0.1,0.5,0.1c10.7,1.9,13.8-6.4,13.8-6.4c-2.6,3.4-7.2,4.3-11.6,3.3c-0.1,0-0.3-0.1-0.5-0.1
		h-0.1c-0.1,0-0.3-0.1-0.5-0.1l0,0c-0.1,0-0.3-0.1-0.4-0.1h-0.1c-0.1,0-0.3-0.1-0.4-0.2c0,0,0,0-0.1,0S9.7,20.1,9.5,20
		c0,0,0,0-0.1,0s-0.2-0.1-0.3-0.1c0,0-0.1,0-0.2-0.1c-0.1,0-0.2-0.1-0.3-0.2H8.5c-0.1-0.1-0.3-0.2-0.4-0.3c0,0-0.1,0-0.1-0.1
		c-0.1,0-0.2-0.1-0.3-0.2c0,0,0,0-0.1-0.1c-0.1,0-0.2-0.1-0.3-0.2c0,0-0.1,0-0.1-0.1c-0.1,0-0.2-0.1-0.3-0.2c0,0-0.1,0-0.1-0.1
		c-0.1-0.1-0.2-0.2-0.3-0.3l0,0c-0.1-0.1-0.2-0.2-0.3-0.3c0,0,0,0-0.1-0.1s-0.2-0.1-0.2-0.2c0,0,0,0-0.1-0.1S5.6,17.1,5.5,17l0,0
		c-0.1-0.1-0.2-0.2-0.3-0.4c0,0,0,0-0.1-0.1S5,16.3,4.9,16.2c0,0,0,0-0.1-0.1c-0.1,0-0.2-0.2-0.3-0.3C2.1,12.5,1.2,7.9,3.1,4.2"/>
	<path class="st0" d="M8.4,3.8c-1.6,2.3-1.5,5.4-0.2,7.8c0.2,0.4,0.4,0.8,0.7,1.2c0.2,0.3,0.5,0.7,0.8,1c0.1,0.1,0.2,0.2,0.3,0.4
		c0,0,0,0,0.1,0.1s0.2,0.2,0.4,0.3l0,0l0,0c0.1,0.1,0.3,0.2,0.4,0.3c0,0,0,0,0.1,0.1s0.3,0.2,0.4,0.3l0,0c0,0,0.1,0.1,0.2,0.1
		c0,0,0,0,0.1,0s0.2,0.1,0.3,0.2l0,0c0.1,0,0.2,0.1,0.3,0.1c0,0,0,0,0.1,0c0,0,0.1,0,0.2,0.1l0,0c0.1,0,0.3,0.1,0.4,0.2
		c0,0,0,0,0.1,0s0.2,0.1,0.3,0.1h0.1c0.1,0,0.2,0.1,0.3,0.1h0.1c0.1,0,0.3,0.1,0.5,0.1c8.2,1.4,10.1-5,10.1-5
		c-1.7,2.5-5,3.6-8.6,2.7c-0.1,0-0.3-0.1-0.5-0.1h-0.1c-0.1,0-0.2,0-0.3-0.1h-0.1c-0.1,0-0.2-0.1-0.3-0.1c0,0,0,0-0.1,0
		s-0.3-0.1-0.4-0.2c0,0-0.1-0.1-0.2-0.1s-0.1,0-0.1,0c-0.1,0-0.2-0.1-0.3-0.1l0,0c-0.1,0-0.2-0.1-0.3-0.2c0,0,0,0-0.1,0
		c0,0-0.1-0.1-0.2-0.1c-0.1-0.1-0.3-0.2-0.4-0.3c0,0,0,0-0.1-0.1c-1.6-1.2-2.8-2.9-3.3-4.8c-0.6-2-0.5-4.2,0.6-6"/>
	<path class="st0" d="M14.2,1.9c-0.9,1.4-1,3.1-0.4,4.7c0.7,1.6,2.1,2.9,3.7,3.5c0,0,0.1,0,0.2,0c0,0,0,0,0.1,0s0.2,0,0.3,0.1
		c4.6,0.9,5.8-2.3,6.1-2.8c-1.1,1.6-2.9,1.9-5.1,1.4c-0.2,0-0.4-0.1-0.5-0.1c-0.2-0.1-0.4-0.1-0.6-0.2c-0.4-0.2-0.8-0.4-1.1-0.7
		c-2-1.5-3.2-4.4-1.9-6.7"/>
	<path class="st1" d="M119.7,8.4l0.2,0.8c0,0.2-0.1,0.4-0.3,0.4"/>
	<path class="st1" d="M105.4,7c0,0.2-0.1,0.5-0.1,0.6l-1.6,7.4l1.6-7.8L105.4,7z"/>
	<path class="st1" d="M58.2,12l-0.9,3.1L58.2,12z"/>
	<path class="st1" d="M119.9,9.1l-0.4-1.9c-0.3-1.4-1.4-2-3.6-2h-9.6c-0.2,0-0.4,0.1-0.5,0.3l-3.6,17.3c0,0.2,0,0.4,0,0.5
		s0.4,0.1,0.7,0.1h3.3c0.2,0,0.6,0,0.7,0c0.1,0,0.2-0.4,0.2-0.6l1.2-6.1l1.5-6.7c0-0.2,0.2-0.4,0.5-0.4h9.5
		C119.8,9.5,120,9.3,119.9,9.1"/>
	<path class="st1" d="M133.4,2.1c-0.2,0-4.2,0-4.2,0c-0.2,0-0.5,0.2-0.6,0.4l-7.4,10.9c-0.1,0.2-0.3,0.2-0.3,0l-0.5-2.4
		c0-0.2-0.3-0.4-0.5-0.4h-4.8c-0.2,0-0.3,0.2-0.3,0.4l2.1,7.5c0,0.2,0,0.6,0,0.8l-1,3.8c0,0.2,0.1,0.3,0.3,0.3h4.7
		c0.2,0,0.4,0,0.5-0.3l1-3.8c0-0.2,0.2-0.5,0.3-0.7l12.1-16c0.1-0.2,0.1-0.4-0.1-0.4L133.4,2.1z"/>
	<path class="st1" d="M83.9,5.2h-4.3c-0.2,0-0.4,0.1-0.5,0.3l-1.4,6.6l-1.4,6.3c0,0.2-0.2,0.2-0.5,0.2H73c-2.8,0-2.5-1.7-1.9-4.4
		l1.8-8.8c0-0.2-0.1-0.3-0.3-0.3h-4.1c-0.2,0-0.4,0.1-0.5,0.3l-1.6,8.8c-0.8,4.8-0.8,8.9,4.7,9.1c0.1,0,8.7,0,8.7,0
		c0.2,0,0.4-0.1,0.5-0.3l1.9-8.8L84,5.4C83.9,5.3,84,5.2,83.9,5.2z"/>
	<path class="st1" d="M41.2,5.2h-4.6c-0.2,0-0.4,0-0.5,0.3l-0.8,3.6c0,0.2,0.1,0.4,0.3,0.4H40c0.2,0,0.4-0.2,0.5-0.4l0.8-3.6
		C41.2,5.3,41.3,5.2,41.2,5.2z"/>
	<path class="st1" d="M35.3,10.6c-0.2,0-0.4,0.2-0.5,0.4l-0.6,2.8l-1.4,6.3c0,0-0.7,3.3-0.8,3.6c0,0-0.6,2.4-2.1,2.3
		c-0.7,0-1.5-0.2-1.5-0.2l0,0c-0.4-0.1-0.4,0.3-0.5,0.5L27,30.2c0,0.2,0.1,0.4,0.3,0.4c0,0,2,0.3,3.4,0.3h0.2c3.4,0,5.3-2,6.4-7.6
		l1.4-6.4l1.3-6c0-0.2-0.1-0.4-0.3-0.4"/>
	<path class="st1" d="M94.8,5.1c-7.8,0-9.6,4.8-10.6,9.5c-1,4.8-0.9,8.7,7.1,8.7h0.3c3.2,0,7,0,7,0c0.2,0,0.4-0.2,0.5-0.4l0.8-3.1
		c0-0.2-0.1-0.3-0.3-0.3h-7.2c-2.6,0-3.5-0.8-3.4-2.6c0-0.2,0.2-0.7,0.4-0.7h10.9c0.5,0,0.5-0.3,0.5-0.3
		C102,10.8,102.1,5.1,94.8,5.1 M96.8,12.7c0,0.2-0.8,0.2-0.8,0.2h-6c-0.2,0-0.3-0.3-0.3-0.5c0,0,0-0.2,0-0.3
		c0.5-1.6,1.8-2.5,4.1-2.5c2.5,0,3,1.2,3,2.6"/>
	<path class="st1" d="M61.3,18.3c0,0,2.2-5.3,2.7-8.3c0.7-4.1-1.4-10-9.3-10c-7.8,0-11.2,5.6-12.5,11.8s0.4,11.5,8.2,11.5h11.9
		c0.2,0,0.4-0.2,0.5-0.4l1-3.8c0-0.2-0.1-0.4-0.3-0.4h-1h-1C61.4,18.7,61.3,18.5,61.3,18.3C61.3,18.4,61.3,18.3,61.3,18.3
		 M57.2,15.1l-0.9,3.1c0,0.2-0.3,0.3-0.5,0.3h-4.6c-3.5,0-4.4-2.7-3.5-6.7c0.9-4.1,2.5-6.6,6-6.9c4.7-0.3,5.7,3,4.5,6.8L57.2,15.1z"
		/>
</g>
</svg>
