<?xml version="1.0" encoding="utf-8"?>
<!-- Generator: Adobe Illustrator 24.0.3, SVG Export Plug-In . SVG Version: 6.00 Build 0)  -->
<svg version="1.1" id="Layer_1" xmlns="http://www.w3.org/2000/svg" xmlns:xlink="http://www.w3.org/1999/xlink" x="0px" y="0px"
	 viewBox="0 0 64.3 48.1" style="enable-background:new 0 0 64.3 48.1;" xml:space="preserve">
<style type="text/css">
	.st0{fill:#CD6799;}
</style>
<path class="st0" d="M54.6,27.5c-2.2,0-4.2,0.6-5.8,1.3c-0.6-1.2-1.2-2.2-1.3-3c-0.1-0.9-0.3-1.5-0.1-2.5c0.1-1.1,0.8-2.6,0.8-2.7
	c0-0.1-0.1-0.7-1.4-0.7s-2.4,0.2-2.5,0.6c-0.1,0.3-0.4,1.1-0.5,1.9c-0.2,1.2-2.6,5.4-3.9,7.6c-0.4-0.9-0.8-1.6-0.9-2.2
	c-0.1-0.9-0.3-1.5-0.1-2.5c0.1-1.1,0.8-2.6,0.8-2.7c0-0.1-0.1-0.7-1.4-0.7s-2.4,0.2-2.5,0.6s-0.3,1.1-0.5,1.9
	c-0.3,0.8-3.4,7.8-4.2,9.6c-0.4,0.9-0.8,1.7-1,2.2l0,0c0,0,0,0,0,0.1c-0.2,0.4-0.4,0.7-0.4,0.7l0,0c-0.2,0.3-0.4,0.6-0.5,0.6
	s-0.2-0.8,0-2c0.5-2.4,1.6-6.2,1.6-6.3s0.2-0.7-0.7-1.1c-0.9-0.3-1.2,0.2-1.3,0.2c-0.1,0-0.1,0.2-0.1,0.2s1-4.2-1.9-4.2
	c-1.9,0-4.4,2-5.7,3.9c-0.8,0.4-2.5,1.4-4.3,2.4c-0.7,0.4-1.4,0.8-2.1,1.1c0,0-0.1-0.1-0.1-0.2C11,27.8,4.4,25.1,4.7,19.9
	C4.8,18,5.5,13.1,17.4,7.1c9.9-4.9,17.7-3.5,19.1-0.5c1.9,4.3-4.2,12.2-14.4,13.3c-3.9,0.4-5.9-1.1-6.4-1.6
	c-0.5-0.6-0.6-0.6-0.8-0.5c-0.3,0.2-0.1,0.7,0,1c0.3,0.8,1.6,2.2,3.7,2.9c1.9,0.6,6.4,0.9,12-1.2c6.2-2.4,11-9,9.6-14.6
	c-1.4-5.7-10.8-7.5-19.7-4.4c-5.3,1.9-11,4.8-15.1,8.7c-4.9,4.6-5.7,8.5-5.3,10.2c1.1,5.9,9.3,9.8,12.5,12.6
	c-0.2,0.1-0.3,0.2-0.4,0.2c-1.6,0.8-7.8,4.1-9.4,7.5c-1.8,3.9,0.3,6.7,1.6,7.1c4.2,1.2,8.5-0.9,10.8-4.4c2.3-3.4,2-7.9,1-10
	c0,0,0,0,0-0.1c0.4-0.2,0.9-0.5,1.3-0.8c0.8-0.5,1.7-0.9,2.4-1.3c-0.4,1.1-0.7,2.4-0.8,4.3c-0.2,2.2,0.7,5.1,1.9,6.2
	c0.5,0.5,1.1,0.5,1.5,0.5c1.4,0,2-1.1,2.7-2.5c0.8-1.7,1.6-3.6,1.6-3.6s-0.9,5.2,1.6,5.2c0.9,0,1.9-1.2,2.3-1.8l0,0c0,0,0,0,0.1-0.1
	c0.1-0.2,0.2-0.2,0.2-0.2l0,0c0.4-0.7,1.2-2.1,2.5-4.6c1.6-3.2,3.2-7.2,3.2-7.2s0.1,1,0.6,2.6c0.3,0.9,0.9,2,1.3,3
	c-0.4,0.5-0.6,0.8-0.6,0.8l0,0c-0.3,0.4-0.6,0.8-1,1.3c-1.3,1.5-2.8,3.3-3,3.8c-0.2,0.6-0.2,1,0.3,1.4c0.3,0.3,0.9,0.3,1.6,0.3
	c1.1-0.1,2-0.4,2.4-0.5c0.6-0.2,1.3-0.6,2-1.1c1.3-0.9,2-2.3,1.9-4c0-1-0.4-1.9-0.7-2.8c0.1-0.2,0.2-0.3,0.3-0.5
	c2-2.9,3.5-6.1,3.5-6.1s0.1,1,0.6,2.6c0.2,0.8,0.7,1.7,1.1,2.6c-1.9,1.5-3,3.3-3.4,4.4c-0.7,2.1-0.2,3.1,0.9,3.3
	c0.5,0.1,1.2-0.1,1.7-0.4c0.7-0.2,1.4-0.6,2.2-1.1c1.3-0.9,2.5-2.2,2.4-4c0-0.8-0.2-1.6-0.5-2.3c1.6-0.7,3.6-1,6.2-0.7
	c5.6,0.7,6.7,4.1,6.5,5.6s-1.4,2.3-1.8,2.5s-0.5,0.3-0.5,0.5c0,0.3,0.2,0.2,0.6,0.2c0.5-0.1,2.9-1.2,3-3.9
	C63.7,31.2,60.4,27.4,54.6,27.5z M11.5,42c-1.9,2-4.4,2.8-5.5,2.1c-1.2-0.7-0.7-3.7,1.5-5.8c1.4-1.3,3.2-2.5,4.4-3.2
	c0.3-0.2,0.7-0.4,1.1-0.7c0.1,0,0.1-0.1,0.1-0.1l0,0c0.1-0.1,0.2-0.1,0.3-0.2C14.3,37.2,13.5,39.9,11.5,42z M25,32.8
	c-0.6,1.6-2,5.6-2.8,5.4C21.5,38,21.1,35,22.1,32c0.5-1.5,1.6-3.3,2.2-4c1-1.1,2.1-1.5,2.4-1S25.4,31.8,25,32.8z M36.2,38.1
	c-0.3,0.1-0.5,0.2-0.6,0.2s0.1-0.2,0.1-0.2s1.4-1.5,1.9-2.2c0.3-0.4,0.7-0.9,1.1-1.4c0,0,0,0.1,0,0.2C38.7,36.4,36.9,37.6,36.2,38.1
	z M44.7,36.2c-0.2-0.1-0.2-0.6,0.5-2.1c0.3-0.6,0.9-1.5,1.9-2.5c0.1,0.4,0.2,0.7,0.2,1.1C47.3,35,45.7,35.8,44.7,36.2z"/>
</svg>
